<svg width="31" height="32" viewBox="0 0 31 32" fill="none" xmlns="http://www.w3.org/2000/svg">
<g clip-path="url(#clip0_1932_613)">
<path d="M14.208 0C10.1062 0.0116995 6.16558 1.59826 3.2 4.432V1.6C3.2 1.17565 3.03143 0.768687 2.73137 0.468629C2.43131 0.168571 2.02435 0 1.6 0C1.17565 0 0.768687 0.168571 0.468629 0.468629C0.168571 0.768687 0 1.17565 0 1.6V8.8C0 9.22435 0.168571 9.63131 0.468629 9.93137C0.768687 10.2314 1.17565 10.4 1.6 10.4H8.8C9.22435 10.4 9.63131 10.2314 9.93137 9.93137C10.2314 9.63131 10.4 9.22435 10.4 8.8C10.4 8.37565 10.2314 7.96869 9.93137 7.66863C9.63131 7.36857 9.22435 7.2 8.8 7.2H4.96C6.41873 5.65921 8.23761 4.50522 10.253 3.84182C12.2684 3.17842 14.4171 3.02643 16.5058 3.39952C18.5945 3.77261 20.5577 4.65908 22.2188 5.97918C23.8799 7.29929 25.1868 9.01161 26.0219 10.9621C26.857 12.9126 27.1942 15.0402 27.003 17.1533C26.8119 19.2665 26.0984 21.2989 24.9268 23.0679C23.7552 24.8369 22.1623 26.2869 20.2912 27.2875C18.4202 28.288 16.3298 28.8078 14.208 28.8C13.7837 28.8 13.3767 28.9686 13.0766 29.2686C12.7766 29.5687 12.608 29.9757 12.608 30.4C12.608 30.8243 12.7766 31.2313 13.0766 31.5314C13.3767 31.8314 13.7837 32 14.208 32C18.4515 32 22.5211 30.3143 25.5217 27.3137C28.5223 24.3131 30.208 20.2435 30.208 16C30.208 11.7565 28.5223 7.68687 25.5217 4.68629C22.5211 1.68571 18.4515 0 14.208 0ZM14.208 9.6C13.7837 9.6 13.3767 9.76857 13.0766 10.0686C12.7766 10.3687 12.608 10.7757 12.608 11.2V16C12.608 16.4243 12.7766 16.8313 13.0766 17.1314C13.3767 17.4314 13.7837 17.6 14.208 17.6H17.408C17.8323 17.6 18.2393 17.4314 18.5394 17.1314C18.8394 16.8313 19.008 16.4243 19.008 16C19.008 15.5757 18.8394 15.1687 18.5394 14.8686C18.2393 14.5686 17.8323 14.4 17.408 14.4H15.808V11.2C15.808 10.7757 15.6394 10.3687 15.3394 10.0686C15.0393 9.76857 14.6323 9.6 14.208 9.6Z" fill="#0A74E6"/>
</g>
<defs>
<clipPath id="clip0_1932_613">
<rect width="31" height="32" fill="white"/>
</clipPath>
</defs>
</svg>
