<svg width="29" height="32" viewBox="0 0 29 32" fill="none" xmlns="http://www.w3.org/2000/svg">
<g clip-path="url(#clip0_1932_619)">
<path d="M20.8 28.8H8C6.72696 28.8 5.50606 28.2943 4.60589 27.3941C3.70571 26.4939 3.2 25.273 3.2 24V8C3.2 7.57565 3.03143 7.16869 2.73137 6.86863C2.43131 6.56857 2.02435 6.4 1.6 6.4C1.17565 6.4 0.768687 6.56857 0.468629 6.86863C0.168571 7.16869 0 7.57565 0 8V24C0 26.1217 0.842855 28.1566 2.34315 29.6569C3.84344 31.1571 5.87827 32 8 32H20.8C21.2243 32 21.6313 31.8314 21.9314 31.5314C22.2314 31.2313 22.4 30.8243 22.4 30.4C22.4 29.9757 22.2314 29.5687 21.9314 29.2686C21.6313 28.9686 21.2243 28.8 20.8 28.8ZM11.2 17.6C11.2 18.0243 11.3686 18.4313 11.6686 18.7314C11.9687 19.0314 12.3757 19.2 12.8 19.2H20.8C21.2243 19.2 21.6313 19.0314 21.9314 18.7314C22.2314 18.4313 22.4 18.0243 22.4 17.6C22.4 17.1757 22.2314 16.7687 21.9314 16.4686C21.6313 16.1686 21.2243 16 20.8 16H12.8C12.3757 16 11.9687 16.1686 11.6686 16.4686C11.3686 16.7687 11.2 17.1757 11.2 17.6ZM28.8 11.104C28.7833 10.957 28.7512 10.8122 28.704 10.672V10.528C28.6271 10.3635 28.5245 10.2123 28.4 10.08L18.8 0.48C18.6677 0.355546 18.5165 0.25293 18.352 0.176C18.3042 0.169216 18.2558 0.169216 18.208 0.176C18.0455 0.082786 17.866 0.0229507 17.68 0H11.2C9.92696 0 8.70606 0.505713 7.80589 1.40589C6.90571 2.30606 6.4 3.52696 6.4 4.8V20.8C6.4 22.073 6.90571 23.2939 7.80589 24.1941C8.70606 25.0943 9.92696 25.6 11.2 25.6H24C25.273 25.6 26.4939 25.0943 27.3941 24.1941C28.2943 23.2939 28.8 22.073 28.8 20.8V11.2C28.8 11.2 28.8 11.2 28.8 11.104ZM19.2 5.456L23.344 9.6H20.8C20.3757 9.6 19.9687 9.43143 19.6686 9.13137C19.3686 8.83131 19.2 8.42435 19.2 8V5.456ZM25.6 20.8C25.6 21.2243 25.4314 21.6313 25.1314 21.9314C24.8313 22.2314 24.4243 22.4 24 22.4H11.2C10.7757 22.4 10.3687 22.2314 10.0686 21.9314C9.76857 21.6313 9.6 21.2243 9.6 20.8V4.8C9.6 4.37565 9.76857 3.96869 10.0686 3.66863C10.3687 3.36857 10.7757 3.2 11.2 3.2H16V8C16.0043 8.54583 16.1017 9.08692 16.288 9.6H12.8C12.3757 9.6 11.9687 9.76857 11.6686 10.0686C11.3686 10.3687 11.2 10.7757 11.2 11.2C11.2 11.6243 11.3686 12.0313 11.6686 12.3314C11.9687 12.6314 12.3757 12.8 12.8 12.8H25.6V20.8Z" fill="#0A74E6"/>
</g>
<defs>
<clipPath id="clip0_1932_619">
<rect width="29" height="32" fill="white"/>
</clipPath>
</defs>
</svg>
