<svg width="32" height="32" viewBox="0 0 32 32" fill="none" xmlns="http://www.w3.org/2000/svg">
<g clip-path="url(#clip0_1945_1564)">
<path fill-rule="evenodd" clip-rule="evenodd" d="M28.4444 0H3.55556C1.6 0 0 1.6 0 3.55556V28.4444C0 30.4 1.6 32 3.55556 32H28.4444C30.4 32 32 30.4 32 28.4444V3.55556C32 1.6 30.4 0 28.4444 0ZM26.6674 29H5.5C4 29 3 28 3 26.5V5.5C3 4 4 3 5.5 3H26.5C28 3 29 4 29 5.5V26.5C29 28 28 29 26.6674 29ZM7.01005 10.0101C7.55678 9.46332 8.44322 9.46332 8.98995 10.0101L13.9899 15.01L14.9799 16L13.9899 16.9899L8.98995 21.9899C8.44322 22.5367 7.55678 22.5367 7.01005 21.9899C6.46332 21.4432 6.46332 20.5568 7.01005 20.01L11.0201 16L7.01005 11.9899C6.46332 11.4432 6.46332 10.5568 7.01005 10.0101ZM16 19.6C15.2268 19.6 14.6 20.2268 14.6 21C14.6 21.7732 15.2268 22.4 16 22.4H23C23.7732 22.4 24.4 21.7732 24.4 21C24.4 20.2268 23.7732 19.6 23 19.6H16Z" fill="#0A74E6"/>
</g>
<defs>
<clipPath id="clip0_1945_1564">
<rect width="32" height="32" fill="white"/>
</clipPath>
</defs>
</svg>
