<svg width="32" height="32" viewBox="0 0 32 32" fill="none" xmlns="http://www.w3.org/2000/svg">
<g clip-path="url(#clip0_1932_609)">
<path d="M24.0956 32H4.81913C3.54102 32 2.31525 31.4923 1.41149 30.5885C0.507728 29.6847 0 28.459 0 27.1809V11.1171C0 9.839 0.507728 8.61324 1.41149 7.70948C2.31525 6.80572 3.54102 6.29799 4.81913 6.29799H6.4255C6.45252 4.93681 6.91119 3.61939 7.73536 2.53574C8.55953 1.4521 9.7066 0.658241 11.0111 0.268671C12.3156 -0.120898 13.7102 -0.0860442 14.9936 0.368207C16.2771 0.822458 17.383 1.67263 18.152 2.79609C18.8724 3.8228 19.2645 5.04383 19.2765 6.29799H24.0956C24.5217 6.29799 24.9303 6.46723 25.2315 6.76848C25.5328 7.06974 25.702 7.47833 25.702 7.90436V12.7235C27.0632 12.7505 28.3806 13.2092 29.4643 14.0334C30.5479 14.8575 31.3418 16.0046 31.7313 17.3091C32.1209 18.6136 32.086 20.0082 31.6318 21.2916C31.1775 22.575 30.3274 23.681 29.2039 24.45C28.1772 25.1704 26.9562 25.5625 25.702 25.5745V30.3936C25.702 30.8197 25.5328 31.2283 25.2315 31.5295C24.9303 31.8308 24.5217 32 24.0956 32ZM4.81913 9.51074C4.39309 9.51074 3.9845 9.67998 3.68325 9.98124C3.38199 10.2825 3.21275 10.6911 3.21275 11.1171V27.1809C3.21275 27.6069 3.38199 28.0155 3.68325 28.3168C3.9845 28.618 4.39309 28.7872 4.81913 28.7872H22.4893V23.679C22.4879 23.4214 22.5484 23.1673 22.6659 22.938C22.7833 22.7088 22.9541 22.5111 23.1639 22.3617C23.3731 22.2126 23.6151 22.1157 23.8694 22.0794C24.1238 22.0431 24.3831 22.0683 24.6257 22.1529C25.0835 22.3397 25.5821 22.4038 26.0723 22.339C26.5625 22.2742 27.0273 22.0827 27.4208 21.7835C27.8125 21.5446 28.1486 21.2246 28.4062 20.8449C28.6639 20.4653 28.8373 20.0349 28.9148 19.5827C28.9767 19.1266 28.9399 18.6625 28.8069 18.2218C28.6739 17.7812 28.4477 17.3742 28.1437 17.0286C27.7326 16.5292 27.1727 16.1741 26.5457 16.0152C25.9186 15.8563 25.2572 15.9018 24.6579 16.1451C24.4153 16.2297 24.1559 16.2549 23.9015 16.2186C23.6472 16.1822 23.4053 16.0854 23.1961 15.9362C22.9862 15.7869 22.8154 15.5892 22.698 15.36C22.5806 15.1307 22.52 14.8766 22.5214 14.619V9.51074H17.381C17.117 9.5257 16.8534 9.47526 16.6135 9.36389C16.3737 9.25251 16.1651 9.08366 16.0062 8.87231C15.8472 8.66095 15.743 8.41364 15.7026 8.15231C15.6622 7.89099 15.6869 7.62373 15.7746 7.37426C15.9614 6.91645 16.0255 6.41786 15.9607 5.92769C15.8959 5.43752 15.7044 4.97272 15.4051 4.57917C15.168 4.17623 14.8432 3.83183 14.4548 3.57148C14.0664 3.31112 13.6245 3.14149 13.1617 3.07516C12.6988 3.00882 12.227 3.04747 11.7811 3.18825C11.3353 3.32903 10.9268 3.56833 10.586 3.88842C10.2695 4.20233 10.0218 4.57867 9.85865 4.9935C9.69548 5.40833 9.62042 5.85258 9.63825 6.29799C9.64198 6.66645 9.71274 7.03115 9.84708 7.37426C9.93201 7.61717 9.95733 7.87693 9.92092 8.13167C9.88451 8.38642 9.78744 8.62868 9.63787 8.83808C9.4883 9.04748 9.29061 9.21788 9.06145 9.33494C8.83228 9.452 8.57835 9.51229 8.32103 9.51074H4.81913Z" fill="#0A74E6"/>
</g>
<defs>
<clipPath id="clip0_1932_609">
<rect width="32" height="32" fill="white"/>
</clipPath>
</defs>
</svg>
