<svg width="22" height="22" viewBox="0 0 22 22" fill="currentColor" xmlns="http://www.w3.org/2000/svg">
<path d="M18.9334 11.804C18.8146 11.7058 18.6707 11.643 18.518 11.6226C18.3653 11.6023 18.21 11.6252 18.0697 11.6888C17.1999 12.0868 16.2541 12.2917 15.2976 12.2893C13.5281 12.2871 11.8312 11.5855 10.5769 10.3374C9.32255 9.08923 8.61257 7.39581 8.60172 5.62634C8.60547 5.07178 8.67449 4.51959 8.80737 3.98117C8.83556 3.83766 8.82499 3.68923 8.77673 3.55117C8.72847 3.4131 8.64428 3.29041 8.53282 3.19571C8.42136 3.10101 8.28668 3.03774 8.14263 3.01242C7.99859 2.9871 7.8504 3.00064 7.71333 3.05165C6.42378 3.6315 5.3028 4.52964 4.45569 5.6617C3.60858 6.79376 3.06316 8.12258 2.87065 9.52332C2.67814 10.9241 2.84486 12.3508 3.35516 13.6694C3.86547 14.988 4.70259 16.1552 5.7879 17.0615C6.87321 17.9677 8.17108 18.5832 9.55957 18.8501C10.9481 19.1169 12.3816 19.0265 13.7256 18.5872C15.0695 18.1479 16.2797 17.3741 17.2425 16.3387C18.2053 15.3032 18.889 14.04 19.2295 12.6677C19.271 12.5105 19.265 12.3447 19.2123 12.191C19.1596 12.0372 19.0625 11.9026 18.9334 11.804ZM11.1188 17.307C9.73833 17.2973 8.39459 16.8611 7.27159 16.0581C6.14859 15.2552 5.30123 14.1247 4.84554 12.8216C4.38984 11.5184 4.34808 10.1063 4.72598 8.77849C5.10388 7.45069 5.88296 6.27215 6.95655 5.40424V5.62634C6.95873 7.83785 7.83821 9.95815 9.40198 11.5219C10.9658 13.0857 13.0861 13.9652 15.2976 13.9674C15.8782 13.9695 16.4574 13.9088 17.025 13.7864C16.4573 14.8603 15.6072 15.7588 14.5664 16.385C13.5256 17.0113 12.3335 17.3415 11.1188 17.3399V17.307Z"/>
</svg>
