<svg width="243" height="146" viewBox="0 0 243 146" fill="none" xmlns="http://www.w3.org/2000/svg">
<path d="M157.059 15.2921H2.22425C1.63449 15.2927 1.06904 15.5272 0.65203 15.9442C0.235016 16.3612 0.000517366 16.9267 0 17.5164V122.437C0.000517366 123.027 0.235016 123.592 0.65203 124.009C1.06904 124.426 1.63449 124.661 2.22425 124.661H157.059C157.381 124.661 157.699 124.591 157.991 124.457C158.283 124.322 158.542 124.125 158.751 123.881C158.768 123.862 158.784 123.841 158.799 123.819C158.932 123.657 159.039 123.476 159.118 123.281C159.23 123.014 159.287 122.727 159.286 122.437V17.5164C159.286 16.9263 159.051 16.3605 158.633 15.9434C158.215 15.5263 157.649 15.2921 157.059 15.2921ZM158.651 122.437C158.651 122.747 158.56 123.051 158.388 123.309C158.236 123.537 158.029 123.723 157.786 123.85C157.562 123.966 157.312 124.027 157.059 124.026H2.22425C1.80293 124.026 1.39902 123.858 1.1011 123.56C0.803187 123.262 0.635594 122.858 0.635083 122.437V17.5164C0.635594 17.0951 0.803187 16.6912 1.1011 16.3933C1.39902 16.0954 1.80293 15.9278 2.22425 15.9273H157.059C157.481 15.9272 157.886 16.0945 158.184 16.3925C158.482 16.6905 158.65 17.0947 158.651 17.5164V122.437Z" fill="#A1A1A1"/>
<path d="M158.967 24.2072H0.316406V24.843H158.967V24.2072Z" fill="#A1A1A1"/>
<path d="M5.72012 21.9688C6.77367 21.9688 7.62774 21.1147 7.62774 20.0612C7.62774 19.0076 6.77367 18.1536 5.72012 18.1536C4.66657 18.1536 3.8125 19.0076 3.8125 20.0612C3.8125 21.1147 4.66657 21.9688 5.72012 21.9688Z" fill="#A1A1A1"/>
<path d="M11.2045 21.9688C12.258 21.9688 13.1121 21.1147 13.1121 20.0612C13.1121 19.0076 12.258 18.1536 11.2045 18.1536C10.1509 18.1536 9.29688 19.0076 9.29688 20.0612C9.29688 21.1147 10.1509 21.9688 11.2045 21.9688Z" fill="#A1A1A1"/>
<path d="M16.6889 21.9688C17.7424 21.9688 18.5965 21.1147 18.5965 20.0612C18.5965 19.0076 17.7424 18.1536 16.6889 18.1536C15.6353 18.1536 14.7812 19.0076 14.7812 20.0612C14.7812 21.1147 15.6353 21.9688 16.6889 21.9688Z" fill="#A1A1A1"/>
<path d="M140.149 70.3063H16.4341C15.2844 70.305 14.1821 69.8477 13.3692 69.0348C12.5562 68.2218 12.0989 67.1196 12.0977 65.9699V39.6964C12.099 38.5467 12.5562 37.4445 13.3692 36.6315C14.1821 35.8186 15.2844 35.3613 16.4341 35.36H140.149C141.299 35.3613 142.401 35.8186 143.214 36.6315C144.027 37.4445 144.484 38.5467 144.485 39.6964V65.9699C144.484 67.1196 144.027 68.2218 143.214 69.0348C142.401 69.8477 141.299 70.305 140.149 70.3063ZM16.4341 35.8702C15.4196 35.8713 14.4471 36.2748 13.7298 36.9921C13.0125 37.7094 12.609 38.682 12.6078 39.6964V65.9699C12.609 66.9843 13.0125 67.9569 13.7298 68.6742C14.4471 69.3915 15.4196 69.795 16.4341 69.7961H140.149C141.163 69.795 142.136 69.3915 142.853 68.6742C143.571 67.9569 143.974 66.9843 143.975 65.9699V39.6964C143.974 38.682 143.571 37.7094 142.853 36.9921C142.136 36.2748 141.163 35.8713 140.149 35.8702H16.4341Z" fill="#333333"/>
<path d="M43.7279 117.751H16.4341C15.2844 117.75 14.1821 117.293 13.3692 116.48C12.5562 115.667 12.0989 114.565 12.0977 113.415V94.0287C12.099 92.879 12.5562 91.7767 13.3692 90.9638C14.1821 90.1508 15.2844 89.6936 16.4341 89.6923H43.7279C44.8776 89.6936 45.9798 90.1508 46.7928 90.9638C47.6057 91.7767 48.063 92.879 48.0643 94.0287V113.415C48.063 114.565 47.6057 115.667 46.7928 116.48C45.9798 117.293 44.8776 117.75 43.7279 117.751ZM16.4341 90.2024C15.4196 90.2036 14.4471 90.6071 13.7298 91.3244C13.0125 92.0417 12.609 93.0142 12.6078 94.0287V113.415C12.609 114.429 13.0125 115.402 13.7298 116.119C14.4471 116.837 15.4196 117.24 16.4341 117.241H43.7279C44.7423 117.24 45.7149 116.837 46.4322 116.119C47.1495 115.402 47.553 114.429 47.5541 113.415V94.0287C47.553 93.0142 47.1495 92.0417 46.4322 91.3244C45.7149 90.6071 44.7423 90.2036 43.7279 90.2024H16.4341Z" fill="#333333"/>
<path d="M140.154 117.751H112.86C111.71 117.75 110.608 117.293 109.795 116.48C108.982 115.667 108.525 114.565 108.523 113.415V94.0287C108.525 92.879 108.982 91.7767 109.795 90.9638C110.608 90.1508 111.71 89.6936 112.86 89.6923H140.154C141.303 89.6936 142.406 90.1508 143.219 90.9638C144.031 91.7767 144.489 92.879 144.49 94.0287V113.415C144.489 114.565 144.031 115.667 143.219 116.48C142.406 117.293 141.303 117.75 140.154 117.751ZM112.86 90.2024C111.845 90.2036 110.873 90.6071 110.156 91.3244C109.438 92.0417 109.035 93.0142 109.034 94.0287V113.415C109.035 114.429 109.438 115.402 110.156 116.119C110.873 116.837 111.845 117.24 112.86 117.241H140.154C141.168 117.24 142.141 116.837 142.858 116.119C143.575 115.402 143.979 114.429 143.98 113.415V94.0287C143.979 93.0142 143.575 92.0417 142.858 91.3244C142.141 90.6071 141.168 90.2036 140.154 90.2024H112.86Z" fill="#333333"/>
<path d="M93.9857 117.751H66.6919C65.5422 117.75 64.4399 117.293 63.627 116.48C62.814 115.667 62.3568 114.565 62.3555 113.415V94.0287C62.3568 92.879 62.814 91.7767 63.627 90.9638C64.4399 90.1508 65.5422 89.6936 66.6919 89.6923H93.9857C95.1354 89.6936 96.2376 90.1508 97.0506 90.9638C97.8635 91.7767 98.3208 92.879 98.3221 94.0287V113.415C98.3208 114.565 97.8635 115.667 97.0506 116.48C96.2376 117.293 95.1354 117.75 93.9857 117.751ZM66.6919 90.2024C65.6774 90.2036 64.7049 90.6071 63.9876 91.3244C63.2703 92.0417 62.8668 93.0142 62.8656 94.0287V113.415C62.8668 114.429 63.2703 115.402 63.9876 116.119C64.7049 116.837 65.6774 117.24 66.6919 117.241H93.9857C95.0001 117.24 95.9727 116.837 96.69 116.119C97.4073 115.402 97.8108 114.429 97.8119 113.415V94.0287C97.8108 93.0142 97.4073 92.0417 96.69 91.3244C95.9727 90.6071 95.0001 90.2036 93.9857 90.2024H66.6919Z" fill="#333333"/>
<path d="M13.6212 36.5562L13.5 37.0516L144.175 69.0234L144.297 68.5279L13.6212 36.5562Z" fill="#333333"/>
<path d="M142.969 36.5482L13.5 68.6224L13.6227 69.1177L143.092 37.0434L142.969 36.5482Z" fill="#333333"/>
<path d="M145.256 79.1064H21.5409C20.425 79.1051 19.3552 78.6613 18.5662 77.8722C17.7771 77.0832 17.3333 76.0134 17.332 74.8975V48.624C17.3333 47.5081 17.7771 46.4383 18.5662 45.6493C19.3552 44.8603 20.425 44.4164 21.5409 44.4152H145.256C146.372 44.4164 147.442 44.8603 148.231 45.6493C149.02 46.4384 149.463 47.5082 149.465 48.624V74.8975C149.463 76.0134 149.02 77.0832 148.231 77.8722C147.442 78.6612 146.372 79.1051 145.256 79.1064Z" fill="black"/>
<path d="M64.0677 90.8439L63.7539 91.2462L96.4466 116.749L96.7604 116.347L64.0677 90.8439Z" fill="#333333"/>
<path d="M96.6076 90.8443L64.3438 116.661L64.6625 117.06L96.9263 91.2426L96.6076 90.8443Z" fill="#333333"/>
<path d="M13.8138 90.8444L13.5 91.2467L46.1928 116.749L46.5066 116.347L13.8138 90.8444Z" fill="#333333"/>
<path d="M46.3537 90.8443L14.0898 116.661L14.4086 117.06L46.6724 91.2426L46.3537 90.8443Z" fill="#333333"/>
<path d="M110.232 90.8439L109.918 91.2462L142.611 116.749L142.925 116.347L110.232 90.8439Z" fill="#333333"/>
<path d="M142.779 90.8443L110.516 116.661L110.834 117.06L143.098 91.2426L142.779 90.8443Z" fill="#333333"/>
<path d="M97.8113 136.245H70.5175C69.4016 136.244 68.3318 135.8 67.5427 135.011C66.7537 134.222 66.3099 133.152 66.3086 132.036V112.65C66.3099 111.534 66.7537 110.464 67.5427 109.675C68.3318 108.886 69.4016 108.442 70.5175 108.441H97.8113C98.9271 108.442 99.997 108.886 100.786 109.675C101.575 110.464 102.019 111.534 102.02 112.65V132.036C102.019 133.152 101.575 134.222 100.786 135.011C99.997 135.8 98.9271 136.244 97.8113 136.245Z" fill="#0A74E6"/>
<path d="M87.722 120.94H80.5797C80.0385 120.94 79.5195 120.725 79.1368 120.342C78.7541 119.96 78.5391 119.441 78.5391 118.899C78.5391 118.358 78.7541 117.839 79.1368 117.456C79.5195 117.074 80.0385 116.859 80.5797 116.859H87.722C88.2632 116.859 88.7823 117.074 89.165 117.456C89.5477 117.839 89.7627 118.358 89.7627 118.899C89.7627 119.441 89.5477 119.96 89.165 120.342C88.7823 120.725 88.2632 120.94 87.722 120.94Z" fill="white"/>
<path d="M91.9444 127.827H76.3844C75.8432 127.827 75.3241 127.612 74.9414 127.23C74.5587 126.847 74.3438 126.328 74.3438 125.787C74.3438 125.245 74.5587 124.726 74.9414 124.344C75.3241 123.961 75.8432 123.746 76.3844 123.746H91.9444C92.4857 123.746 93.0047 123.961 93.3874 124.344C93.7701 124.726 93.9851 125.245 93.9851 125.787C93.9851 126.328 93.7701 126.847 93.3874 127.23C93.0047 127.612 92.4857 127.827 91.9444 127.827Z" fill="white"/>
<path d="M48.0691 121.45H20.7753C19.6594 121.449 18.5896 121.005 17.8005 120.216C17.0115 119.427 16.5677 118.357 16.5664 117.241V97.8549C16.5677 96.739 17.0115 95.6692 17.8005 94.8801C18.5896 94.0911 19.6594 93.6473 20.7753 93.646H48.0691C49.185 93.6473 50.2548 94.0911 51.0438 94.8801C51.8329 95.6692 52.2767 96.739 52.278 97.8549V117.241C52.2767 118.357 51.8329 119.427 51.0438 120.216C50.2548 121.005 49.185 121.449 48.0691 121.45Z" fill="#0A74E6"/>
<path d="M37.9798 106.145H30.8375C30.2963 106.145 29.7773 105.93 29.3946 105.547C29.0119 105.165 28.7969 104.646 28.7969 104.104C28.7969 103.563 29.0119 103.044 29.3946 102.661C29.7773 102.279 30.2963 102.064 30.8375 102.064H37.9798C38.5211 102.064 39.0401 102.279 39.4228 102.661C39.8055 103.044 40.0205 103.563 40.0205 104.104C40.0205 104.646 39.8055 105.165 39.4228 105.547C39.0401 105.93 38.5211 106.145 37.9798 106.145Z" fill="white"/>
<path d="M42.2023 113.032H26.6422C26.101 113.032 25.582 112.817 25.1993 112.435C24.8166 112.052 24.6016 111.533 24.6016 110.992C24.6016 110.45 24.8166 109.931 25.1993 109.549C25.582 109.166 26.101 108.951 26.6422 108.951H42.2023C42.7435 108.951 43.2625 109.166 43.6452 109.549C44.0279 109.931 44.2429 110.45 44.2429 110.992C44.2429 111.533 44.0279 112.052 43.6452 112.435C43.2625 112.817 42.7435 113.032 42.2023 113.032Z" fill="white"/>
<path d="M145.745 126.883H118.451C117.335 126.882 116.265 126.438 115.476 125.649C114.687 124.86 114.243 123.79 114.242 122.675V103.288C114.243 102.172 114.687 101.103 115.476 100.314C116.265 99.5246 117.335 99.0807 118.451 99.0795H145.745C146.861 99.0807 147.931 99.5246 148.72 100.314C149.509 101.103 149.952 102.172 149.954 103.288V122.675C149.952 123.79 149.509 124.86 148.72 125.649C147.931 126.438 146.861 126.882 145.745 126.883Z" fill="#565656"/>
<path d="M135.656 111.578H128.513C127.972 111.578 127.453 111.363 127.07 110.981C126.688 110.598 126.473 110.079 126.473 109.538C126.473 108.997 126.688 108.477 127.07 108.095C127.453 107.712 127.972 107.497 128.513 107.497H135.656C136.197 107.497 136.716 107.712 137.099 108.095C137.481 108.477 137.696 108.997 137.696 109.538C137.696 110.079 137.481 110.598 137.099 110.981C136.716 111.363 136.197 111.578 135.656 111.578Z" fill="white"/>
<path d="M139.874 118.466H124.314C123.773 118.466 123.254 118.251 122.871 117.868C122.488 117.485 122.273 116.966 122.273 116.425C122.273 115.884 122.488 115.365 122.871 114.982C123.254 114.599 123.773 114.384 124.314 114.384H139.874C140.415 114.384 140.934 114.599 141.317 114.982C141.7 115.365 141.915 115.884 141.915 116.425C141.915 116.966 141.7 117.485 141.317 117.868C140.934 118.251 140.415 118.466 139.874 118.466Z" fill="white"/>
<path d="M111.144 78.6564V78.979H56.6328V78.6414L56.9263 78.2262L74.2081 53.8283C74.2881 53.7174 74.3933 53.6271 74.515 53.5649C74.6367 53.5026 74.7715 53.4701 74.9083 53.4701C75.045 53.4701 75.1798 53.5026 75.3015 53.5649C75.4232 53.6271 75.5284 53.7174 75.6084 53.8283L87.1969 70.1886L95.4462 58.6449C95.5263 58.5345 95.6314 58.4447 95.7528 58.3828C95.8743 58.3208 96.0088 58.2885 96.1451 58.2885C96.2815 58.2885 96.4159 58.3208 96.5374 58.3828C96.6589 58.4447 96.764 58.5345 96.844 58.6449L110.851 78.2437L111.144 78.6564Z" fill="#2768A2"/>
<path d="M56.5205 62.4234C60.0246 62.4234 62.8653 59.5827 62.8653 56.0786C62.8653 52.5745 60.0246 49.7339 56.5205 49.7339C53.0164 49.7339 50.1758 52.5745 50.1758 56.0786C50.1758 59.5827 53.0164 62.4234 56.5205 62.4234Z" fill="#0A74E6"/>
<path d="M145.251 79.234H21.5356C20.3859 79.2327 19.2837 78.7754 18.4708 77.9625C17.6578 77.1495 17.2005 76.0473 17.1992 74.8976V48.6241C17.2005 47.4744 17.6578 46.3722 18.4708 45.5593C19.2837 44.7463 20.3859 44.289 21.5356 44.2877H145.251C146.4 44.289 147.502 44.7463 148.315 45.5593C149.128 46.3722 149.586 47.4744 149.587 48.6241V74.8976C149.586 76.0473 149.128 77.1495 148.315 77.9625C147.502 78.7754 146.4 79.2327 145.251 79.234ZM21.5356 44.7979C20.5212 44.799 19.5486 45.2025 18.8313 45.9198C18.114 46.6371 17.7105 47.6097 17.7094 48.6241V74.8976C17.7105 75.912 18.114 76.8846 18.8313 77.6019C19.5486 78.3192 20.5212 78.7227 21.5356 78.7238H145.251C146.265 78.7227 147.238 78.3192 147.955 77.6019C148.672 76.8846 149.076 75.912 149.077 74.8976V48.6241C149.076 47.6097 148.672 46.6371 147.955 45.9198C147.238 45.2025 146.265 44.799 145.251 44.7979H21.5356Z" fill="white"/>
<path d="M235.387 4.14417H178.612C177.679 4.14549 176.783 4.51703 176.123 5.17734C175.463 5.83766 175.091 6.73285 175.09 7.66667V79.3601C175.091 80.2939 175.463 81.1891 176.123 81.8494C176.783 82.5097 177.679 82.8813 178.612 82.8826H235.387C236.321 82.8812 237.216 82.5097 237.876 81.8494C238.537 81.1891 238.908 80.2939 238.909 79.3601V7.66667C238.908 6.73285 238.537 5.83766 237.876 5.17734C237.216 4.51703 236.321 4.14549 235.387 4.14417ZM238.495 79.3601C238.494 80.1841 238.166 80.9741 237.584 81.5567C237.001 82.1394 236.211 82.4672 235.387 82.4682H178.612C177.788 82.4672 176.998 82.1394 176.416 81.5567C175.833 80.9741 175.505 80.1841 175.504 79.3601V7.66667C175.505 6.84266 175.833 6.05269 176.416 5.47003C176.998 4.88736 177.788 4.55958 178.612 4.55858H235.387C236.211 4.55958 237.001 4.88736 237.584 5.47003C238.166 6.05269 238.494 6.84266 238.495 7.66667V79.3601Z" fill="#A1A1A1"/>
<path d="M224.193 53.7699H189.797C186.283 53.753 186.269 48.4009 189.797 48.3826H224.193C227.704 48.399 227.723 53.7515 224.193 53.7699Z" fill="#141414"/>
<path d="M224.193 63.7161H189.797C186.283 63.6992 186.269 58.3471 189.797 58.3287H224.193C227.704 58.3452 227.723 63.6977 224.193 63.7161Z" fill="#141414"/>
<path d="M224.193 73.6619H189.797C186.283 73.645 186.269 68.2929 189.797 68.2745H224.193C227.704 68.291 227.723 73.6435 224.193 73.6619Z" fill="#141414"/>
<path d="M237.044 10.7747C235.978 10.7747 234.937 10.4588 234.051 9.8668C233.165 9.27483 232.474 8.43344 232.066 7.44902C231.659 6.46461 231.552 5.38139 231.76 4.33634C231.968 3.2913 232.481 2.33137 233.234 1.57793C233.988 0.824493 234.948 0.311392 235.993 0.103519C237.038 -0.104354 238.121 0.00233485 239.105 0.410092C240.09 0.817849 240.931 1.50836 241.523 2.39431C242.115 3.28026 242.431 4.32185 242.431 5.38737C242.429 6.81569 241.861 8.18505 240.851 9.19503C239.841 10.205 238.472 10.7731 237.044 10.7747Z" fill="#0A74E6"/>
<path d="M239.477 5.04204H237.198V2.45196C237.198 2.397 237.176 2.3443 237.137 2.30544C237.098 2.26658 237.046 2.24475 236.991 2.24475C236.936 2.24475 236.883 2.26658 236.844 2.30544C236.805 2.3443 236.783 2.397 236.783 2.45196V5.04204H234.504C234.449 5.04204 234.396 5.06386 234.358 5.10272C234.319 5.14158 234.297 5.19429 234.297 5.24924C234.297 5.3042 234.319 5.3569 234.358 5.39576C234.396 5.43462 234.449 5.45645 234.504 5.45645H236.783V8.04653C236.783 8.10148 236.805 8.15418 236.844 8.19304C236.883 8.2319 236.936 8.25373 236.991 8.25373C237.046 8.25373 237.098 8.2319 237.137 8.19304C237.176 8.15418 237.198 8.10148 237.198 8.04653V5.45645H239.477C239.532 5.45645 239.585 5.43462 239.624 5.39576C239.662 5.3569 239.684 5.3042 239.684 5.24924C239.684 5.19429 239.662 5.14158 239.624 5.10272C239.585 5.06386 239.532 5.04204 239.477 5.04204Z" fill="white"/>
<path d="M223.58 41.9178H190.427C189.52 41.9168 188.651 41.5563 188.01 40.9153C187.369 40.2744 187.009 39.4054 187.008 38.4989V19.9333C187.009 19.0269 187.369 18.1579 188.01 17.5169C188.651 16.876 189.52 16.5154 190.427 16.5144H223.58C224.486 16.5154 225.355 16.876 225.996 17.5169C226.637 18.1579 226.998 19.0269 226.999 19.9333V38.4989C226.998 39.4054 226.637 40.2744 225.996 40.9153C225.355 41.5563 224.486 41.9168 223.58 41.9178Z" fill="#2768A2"/>
<rect x="197.254" y="93.2969" width="45.1753" height="45.7365" fill="#0A2F4F"/>
<rect x="175.09" y="99.8907" width="46.5783" height="46.0171" rx="2.80592" fill="black"/>
<path d="M218.959 99.6145H177.994C177.225 99.616 176.487 99.9225 175.942 100.467C175.398 101.011 175.091 101.749 175.09 102.519V143.095C175.091 143.866 175.397 144.604 175.941 145.148C176.486 145.693 177.224 145.999 177.994 146H218.959C219.729 145.999 220.467 145.693 221.011 145.148C221.556 144.604 221.862 143.866 221.863 143.095V102.519C221.862 101.749 221.556 101.011 221.011 100.466C220.467 99.9216 219.729 99.6153 218.959 99.6145ZM221.521 143.095C221.521 143.775 221.25 144.426 220.77 144.907C220.289 145.387 219.638 145.657 218.959 145.658H177.994C177.315 145.657 176.664 145.387 176.183 144.907C175.703 144.426 175.432 143.775 175.432 143.095V102.519C175.433 101.84 175.703 101.188 176.183 100.708C176.664 100.228 177.315 99.9573 177.994 99.9562H218.959C219.638 99.957 220.289 100.227 220.77 100.708C221.25 101.188 221.521 101.84 221.521 102.519V143.095Z" fill="#A1A1A1"/>
<path d="M215.735 115.417H181.222C180.86 115.417 180.512 115.273 180.256 115.016C179.999 114.76 179.855 114.412 179.855 114.05C179.855 113.687 179.999 113.34 180.256 113.083C180.512 112.827 180.86 112.683 181.222 112.683H215.735C216.098 112.683 216.445 112.827 216.702 113.083C216.958 113.34 217.102 113.687 217.102 114.05C217.102 114.412 216.958 114.76 216.702 115.016C216.445 115.273 216.098 115.417 215.735 115.417Z" fill="#262626"/>
<path d="M205.911 109.608H191.047C190.684 109.608 190.336 109.464 190.08 109.207C189.824 108.951 189.68 108.603 189.68 108.241C189.68 107.878 189.824 107.531 190.08 107.274C190.336 107.018 190.684 106.874 191.047 106.874H205.911C206.273 106.874 206.621 107.018 206.877 107.274C207.134 107.531 207.278 107.878 207.278 108.241C207.278 108.603 207.134 108.951 206.877 109.207C206.621 109.464 206.273 109.608 205.911 109.608Z" fill="#2768A2"/>
<path d="M195.997 123.618H181.132C180.77 123.618 180.422 123.474 180.166 123.218C179.91 122.961 179.766 122.614 179.766 122.251C179.766 121.888 179.91 121.541 180.166 121.284C180.422 121.028 180.77 120.884 181.132 120.884H195.997C196.359 120.884 196.707 121.028 196.963 121.284C197.22 121.541 197.364 121.888 197.364 122.251C197.364 122.614 197.22 122.961 196.963 123.218C196.707 123.474 196.359 123.618 195.997 123.618Z" fill="#262626"/>
<path d="M195.997 129.598H181.132C180.77 129.598 180.422 129.454 180.166 129.197C179.91 128.941 179.766 128.593 179.766 128.231C179.766 127.868 179.91 127.521 180.166 127.264C180.422 127.008 180.77 126.864 181.132 126.864H195.997C196.359 126.864 196.707 127.008 196.963 127.264C197.22 127.521 197.364 127.868 197.364 128.231C197.364 128.593 197.22 128.941 196.963 129.197C196.707 129.454 196.359 129.598 195.997 129.598Z" fill="#262626"/>
<path d="M195.997 135.578H181.132C180.77 135.578 180.422 135.434 180.166 135.177C179.91 134.921 179.766 134.573 179.766 134.211C179.766 133.848 179.91 133.501 180.166 133.244C180.422 132.988 180.77 132.844 181.132 132.844H195.997C196.359 132.844 196.707 132.988 196.963 133.244C197.22 133.501 197.364 133.848 197.364 134.211C197.364 134.573 197.22 134.921 196.963 135.177C196.707 135.434 196.359 135.578 195.997 135.578Z" fill="#262626"/>
<path d="M214.535 124.79C215.944 124.79 217.086 123.648 217.086 122.239C217.086 120.83 215.944 119.688 214.535 119.688C213.126 119.688 211.984 120.83 211.984 122.239C211.984 123.648 213.126 124.79 214.535 124.79Z" fill="#0A74E6"/>
<path d="M214.28 123.212C214.222 123.212 214.167 123.193 214.121 123.159L214.118 123.157L213.518 122.698C213.462 122.655 213.426 122.592 213.416 122.522C213.407 122.452 213.426 122.381 213.469 122.325C213.512 122.269 213.576 122.232 213.646 122.223C213.716 122.213 213.786 122.232 213.843 122.275L214.231 122.573L215.148 121.376C215.17 121.348 215.196 121.325 215.226 121.308C215.257 121.29 215.29 121.279 215.325 121.274C215.359 121.27 215.395 121.272 215.428 121.281C215.462 121.29 215.494 121.306 215.522 121.327L215.522 121.327L215.516 121.335L215.522 121.327C215.578 121.37 215.615 121.433 215.624 121.503C215.633 121.573 215.614 121.644 215.571 121.7L214.492 123.108C214.467 123.14 214.435 123.166 214.398 123.184C214.361 123.202 214.321 123.212 214.28 123.211L214.28 123.212Z" fill="white"/>
<path d="M214.535 130.769C215.944 130.769 217.086 129.627 217.086 128.219C217.086 126.81 215.944 125.668 214.535 125.668C213.126 125.668 211.984 126.81 211.984 128.219C211.984 129.627 213.126 130.769 214.535 130.769Z" fill="#0A74E6"/>
<path d="M214.28 129.192C214.222 129.192 214.167 129.173 214.121 129.139L214.118 129.137L213.518 128.678C213.491 128.657 213.467 128.63 213.45 128.6C213.432 128.57 213.421 128.536 213.416 128.502C213.412 128.467 213.414 128.432 213.423 128.398C213.432 128.364 213.448 128.332 213.469 128.305C213.49 128.277 213.517 128.254 213.547 128.236C213.577 128.219 213.611 128.207 213.646 128.203C213.68 128.198 213.715 128.2 213.749 128.209C213.783 128.218 213.815 128.234 213.843 128.255L214.231 128.553L215.148 127.356C215.17 127.328 215.196 127.305 215.226 127.288C215.257 127.27 215.29 127.259 215.325 127.254C215.359 127.25 215.395 127.252 215.428 127.261C215.462 127.27 215.494 127.286 215.522 127.307L215.522 127.307L215.516 127.315L215.522 127.307C215.578 127.35 215.615 127.413 215.624 127.483C215.633 127.553 215.614 127.624 215.571 127.68L214.492 129.088C214.467 129.12 214.435 129.146 214.398 129.164C214.361 129.182 214.321 129.192 214.28 129.191L214.28 129.192Z" fill="white"/>
<path d="M214.535 136.761C215.944 136.761 217.086 135.619 217.086 134.211C217.086 132.802 215.944 131.66 214.535 131.66C213.126 131.66 211.984 132.802 211.984 134.211C211.984 135.619 213.126 136.761 214.535 136.761Z" fill="#0A74E6"/>
<path d="M214.28 135.184C214.222 135.184 214.166 135.165 214.12 135.131L214.118 135.129L213.518 134.67C213.462 134.627 213.426 134.564 213.416 134.494C213.407 134.424 213.426 134.353 213.469 134.297C213.512 134.241 213.575 134.204 213.645 134.195C213.715 134.186 213.786 134.205 213.842 134.248L214.231 134.545L215.148 133.348C215.169 133.321 215.196 133.297 215.226 133.28C215.256 133.262 215.29 133.251 215.325 133.246C215.359 133.242 215.394 133.244 215.428 133.253C215.462 133.262 215.494 133.278 215.521 133.299L215.522 133.299L215.516 133.307L215.522 133.299C215.578 133.342 215.614 133.406 215.624 133.476C215.633 133.546 215.614 133.616 215.571 133.672L214.492 135.08C214.467 135.112 214.435 135.138 214.398 135.156C214.361 135.174 214.321 135.184 214.28 135.184L214.28 135.184Z" fill="white"/>
</svg>
