<svg width="207" height="146" viewBox="0 0 207 146" fill="none" xmlns="http://www.w3.org/2000/svg">
<path d="M131.973 92.6285C132.123 92.1593 132.446 91.765 132.877 91.5267C133.565 91.1334 134.16 90.5951 134.62 89.949V85.4147C133.556 83.8832 131.451 82.8391 129.026 82.8391C125.526 82.8391 122.692 85.0081 122.692 87.6899C122.692 88.9511 123.323 90.0992 124.353 90.9607C124.749 91.2865 125.182 91.5633 125.644 91.7854L125.672 91.8293C125.975 92.1226 126.175 92.5051 126.245 92.9208C126.314 93.3365 126.249 93.7634 126.058 94.1392H105.68V113.08C106.265 112.297 107.023 111.661 107.896 111.22C108.768 110.779 109.731 110.546 110.708 110.539C114.309 110.539 117.227 113.681 117.227 117.555C117.227 121.428 114.309 124.572 110.708 124.572C109.731 124.566 108.768 124.333 107.896 123.892C107.023 123.451 106.265 122.814 105.68 122.031V137.321H129.063C130.534 137.321 131.946 136.737 132.988 135.698C134.03 134.658 134.617 133.248 134.62 131.777V94.1415H132.223C132.059 93.9296 131.951 93.6805 131.907 93.4164C131.864 93.1524 131.886 92.8816 131.973 92.6285Z" fill="#134B7C"/>
<rect x="73.1197" y="12.5891" width="61.1357" height="118.278" rx="5.52987" stroke="white" stroke-width="0.61443"/>
<path d="M27.3585 131.827C27.7524 131.949 28.084 132.219 28.284 132.579C29.0317 133.839 30.1992 134.649 31.5106 134.644C33.7504 134.635 35.5631 132.255 35.5517 129.325C35.5403 126.394 33.7111 124.04 31.4771 124.049C30.423 124.053 29.4637 124.583 28.7456 125.45C28.4733 125.782 28.2428 126.146 28.0593 126.534L28.0215 126.764C28.0215 126.764 27.1598 127.506 25.9793 126.832L25.9124 109.653L9.13914 109.718C9.00279 109.541 8.91244 109.333 8.87614 109.112C8.83985 108.891 8.85874 108.665 8.93113 108.454C9.05488 108.061 9.32411 107.73 9.68379 107.528C10.9439 106.781 11.7556 105.613 11.7505 104.302C11.7418 102.062 9.35952 100.249 6.43117 100.26C3.50281 100.272 1.1347 102.097 1.14344 104.343C1.14755 105.397 1.67933 106.358 2.54672 107.076C2.87823 107.348 3.24155 107.577 3.62867 107.761L3.65204 107.799C3.90665 108.044 4.07614 108.363 4.13564 108.711C4.19513 109.059 4.14149 109.417 3.98258 109.732L0.0368409 109.748L0.159872 141.346C0.164678 142.581 0.659577 143.762 1.5357 144.632C2.41183 145.501 3.59742 145.987 4.83164 145.982L26.0593 145.899L26.0057 132.122C26.1827 131.954 26.4024 131.838 26.6408 131.785C26.8793 131.733 27.1275 131.748 27.3585 131.827Z" fill="#0A2F4F"/>
<path d="M76.7392 89.2886C76.7392 86.292 79.3533 83.8644 82.5767 83.8644C85.8001 83.8644 88.4161 86.292 88.4161 89.2886C88.4107 90.0902 88.2224 90.8799 87.8657 91.5977C87.5089 92.3155 86.9931 92.9425 86.3575 93.4308H102.004V76.5872C102.182 76.4201 102.404 76.3049 102.643 76.2541C102.882 76.2033 103.131 76.2188 103.363 76.2989C103.754 76.4224 104.083 76.6915 104.281 77.0504C105.018 78.3056 106.175 79.1148 107.48 79.1148C109.706 79.1148 111.516 76.7563 111.516 73.8462C111.516 70.9361 109.713 68.5758 107.48 68.5758C106.43 68.5758 105.475 69.1005 104.758 69.9578C104.487 70.2871 104.257 70.6478 104.072 71.0322L104.035 71.0553C103.778 71.3243 103.436 71.4977 103.067 71.5469C102.698 71.5962 102.323 71.5184 102.004 71.3263V54.2578H85.9558C85.821 54.0812 85.732 53.874 85.6968 53.6547C85.6615 53.4353 85.6812 53.2107 85.7539 53.0008C85.8776 52.61 86.1466 52.2818 86.5055 52.0839C87.7606 51.3477 88.5699 50.1887 88.5699 48.8855C88.5699 46.6596 86.2114 44.849 83.3013 44.849C80.3912 44.849 78.0308 46.6539 78.0308 48.8855C78.0308 49.935 78.5556 50.8903 79.4128 51.6072C79.7421 51.8783 80.1029 52.1087 80.4873 52.2934L80.5104 52.3299C80.7624 52.5738 80.9297 52.8922 80.9874 53.2381C81.0452 53.5841 80.9905 53.9395 80.8314 54.2521H76.1875V93.4308H78.7978C78.1621 92.9425 77.6463 92.3155 77.2896 91.5977C76.9328 90.8799 76.7446 90.0902 76.7392 89.2886Z" fill="#488CC8"/>
<path d="M67.6088 30.3492C67.6088 27.4157 70.1679 25.0373 73.3253 25.0373C76.4827 25.0373 79.0399 27.4157 79.0399 30.3492C79.0324 31.1329 78.8463 31.9046 78.4958 32.6056C78.1453 33.3067 77.6396 33.9185 77.0171 34.3948H91.5246V17.7045C91.6992 17.5394 91.916 17.4258 92.151 17.376C92.3861 17.3262 92.6303 17.3422 92.8568 17.4222C93.2391 17.5438 93.5602 17.807 93.7544 18.158C94.4751 19.3867 95.6097 20.1789 96.8855 20.1789C99.0644 20.1789 100.837 17.8701 100.837 15.0194C100.837 12.1687 99.072 9.86175 96.8855 9.86175C95.8581 9.86175 94.9229 10.3736 94.221 11.2147C93.9549 11.5364 93.7293 11.8897 93.5493 12.2665L93.5135 12.4904C93.5135 12.4904 92.6724 13.2092 91.5246 12.5488V4.51409H80.7352C79.7482 4.5116 78.8025 4.11777 78.1055 3.41899C77.4085 2.72021 77.0171 1.77351 77.0171 0.78653V0H70.8848C70.2899 0.000246772 69.7009 0.117716 69.1515 0.345695C68.6021 0.573675 68.103 0.907695 67.6827 1.32866C67.2625 1.74963 66.9293 2.2493 66.7022 2.7991C66.4751 3.3489 66.3586 3.93806 66.3594 4.53291V34.3948H69.6222C69.0014 33.9176 68.4975 33.3053 68.1487 32.6043C67.7998 31.9034 67.6152 31.1322 67.6088 30.3492Z" fill="#134B7C"/>
<path d="M110.526 24.7632C113.545 24.7632 115.994 27.3792 115.994 30.6046C115.994 33.8299 113.545 36.4459 110.526 36.4459C109.705 36.4414 108.896 36.2474 108.163 35.879C107.429 35.5105 106.791 34.9777 106.297 34.322V50.5313H123.788C123.154 50.0424 122.64 49.4157 122.284 48.6988C121.928 47.9819 121.74 47.1934 121.733 46.393C121.733 43.3925 124.342 40.961 127.561 40.961C128.996 40.9513 130.387 41.4521 131.486 42.3738V19.979C131.486 18.7547 131.001 17.5803 130.136 16.7137C129.271 15.847 128.098 15.3589 126.873 15.3563H120.338V16.1598C120.338 17.1698 119.937 18.1385 119.223 18.8529C118.509 19.5673 117.54 19.9689 116.53 19.9694H106.306V26.8891C106.799 26.2345 107.436 25.7022 108.168 25.3336C108.899 24.9649 109.706 24.7697 110.526 24.7632Z" fill="#134B7C"/>
<path d="M203.383 38.8742C203.626 38.4857 204.009 38.2054 204.452 38.0913C204.723 38.0126 204.988 37.9139 205.244 37.7961L206.765 31.8278C205.813 30.6185 204.479 29.7678 202.981 29.4149C199.843 28.6148 196.801 29.9133 196.191 32.3134C195.902 33.445 196.206 34.6194 196.936 35.6291C197.215 36.012 197.54 36.359 197.905 36.6623L197.92 36.7094C198.126 37.0428 198.219 37.4337 198.186 37.8243C198.153 38.2149 197.995 38.5845 197.736 38.8785L178.556 33.9948L174.228 50.9967C174.93 50.4283 175.754 50.0295 176.635 49.8314C177.516 49.6333 178.431 49.6411 179.309 49.8544C182.541 50.678 184.443 54.1648 183.557 57.6409C182.672 61.1171 179.343 63.2712 176.111 62.4583C175.235 62.2275 174.424 61.797 173.743 61.2006C173.061 60.6042 172.527 59.8581 172.181 59.0207L167.738 76.4676L184.727 80.7908C184.176 80.0913 183.792 79.2753 183.604 78.405C183.415 77.5346 183.428 76.6328 183.641 75.7681C184.464 72.538 187.949 70.6341 191.427 71.5197C192.356 71.7471 193.225 72.1708 193.976 72.7623C194.726 73.3538 195.342 74.0994 195.78 74.9488L204.523 40.6069L203.267 40.2839C203.169 40.0576 203.128 39.8105 203.148 39.5646C203.168 39.3186 203.249 39.0815 203.383 38.8742Z" fill="#0A2F4F"/>
<path d="M9.21875 100.762V28.5665H66.2071" stroke="#A1A1A1" stroke-width="0.153607" stroke-linecap="round" stroke-dasharray="9.22 9.22"/>
<path d="M191.086 71.5767V131.791H134.558" stroke="#A1A1A1" stroke-width="0.153607" stroke-linecap="round" stroke-dasharray="9.22 9.22"/>
</svg>
