<svg width="284" height="146" viewBox="0 0 284 146" fill="none" xmlns="http://www.w3.org/2000/svg">
<path d="M283.193 6.98254H24.7578V146H283.193V6.98254Z" fill="#0A2F4F"/>
<path d="M3.8087 0.317391H251.677C253.605 0.317391 255.168 1.8805 255.168 3.8087V133.622C255.168 135.55 253.605 137.113 251.677 137.113H3.80871C1.88051 137.113 0.317391 135.55 0.317391 133.622V3.80869C0.317391 1.8805 1.8805 0.317391 3.8087 0.317391Z" fill="black" stroke="#A1A1A1" stroke-width="0.634783"/>
<path d="M48.4405 19.3758H46.1875V22.9805H48.4405V19.3758Z" fill="white"/>
<path d="M56.1006 18.4741H53.8477V22.0789H56.1006V18.4741Z" fill="white"/>
<path d="M60.1514 18.4744H57.8984V22.0792H60.1514V18.4744Z" fill="white"/>
<path d="M60.1514 29.2888H57.8984V32.8935H60.1514V29.2888Z" fill="white"/>
<path d="M64.6592 23.8812H62.4062V27.486H64.6592V23.8812Z" fill="white"/>
<path d="M64.6592 29.7388H62.4062V33.3436H64.6592V29.7388Z" fill="white"/>
<path d="M60.1514 41.0037H57.8984V44.6084H60.1514V41.0037Z" fill="white"/>
<path d="M64.6592 46.8618H62.4062V50.4665H64.6592V46.8618Z" fill="white"/>
<path d="M60.1514 68.9406H57.8984V72.5453H60.1514V68.9406Z" fill="white"/>
<path d="M56.1006 46.8618H53.8477V50.4665H56.1006V46.8618Z" fill="white"/>
<path d="M48.4405 25.2334H46.1875V28.8381H48.4405V25.2334Z" fill="white"/>
<path d="M48.4405 81.5571H46.1875V85.1619H48.4405V81.5571Z" fill="white"/>
<path d="M48.4405 93.2726H46.1875V96.8774H48.4405V93.2726Z" fill="white"/>
<path d="M48.4405 99.1302H46.1875V102.735H48.4405V99.1302Z" fill="white"/>
<path d="M48.4393 31.5414H45.2852V31.992H48.4393V31.5414Z" fill="white"/>
<path d="M60.6034 36.9485H57.4492V37.3991H60.6034V36.9485Z" fill="white"/>
<path d="M48.4393 60.3794H45.2852V60.83H48.4393V60.3794Z" fill="white"/>
<path d="M48.4393 65.3359H45.2852V65.7865H48.4393V65.3359Z" fill="white"/>
<path d="M60.6034 94.1736H57.4492V94.6242H60.6034V94.1736Z" fill="white"/>
<path d="M57.0018 104.988H53.8477V105.439H57.0018V104.988Z" fill="white"/>
<path d="M46.1875 35.5967V36.4978H47.0886V38.3002H46.1875V39.2013H48.4404V35.5967H46.1875Z" fill="white"/>
<path d="M53.8477 29.2888V30.1898H54.7487V31.9922H53.8477V32.8933H56.1006V29.2888H53.8477Z" fill="white"/>
<path d="M62.4062 35.146V36.0473H63.3073V37.8498H62.4062V38.7508H64.6592V35.146H62.4062Z" fill="white"/>
<path d="M62.4062 52.7191V53.6202H63.3073V55.4226H62.4062V56.3237H64.6592V52.7191H62.4062Z" fill="white"/>
<path d="M62.4062 58.5767V59.4781H63.3073V61.2805H62.4062V62.1815H64.6592V58.5767H62.4062Z" fill="white"/>
<path d="M62.4062 40.5532V41.4543H63.3073V43.2567H62.4062V44.158H64.6592V40.5532H62.4062Z" fill="white"/>
<path d="M57.8984 23.8812V24.7826H58.7998V26.5847H57.8984V27.4861H60.1517V23.8812H57.8984Z" fill="white"/>
<path d="M60.1514 52.7191H57.8984V56.3239H60.1514V52.7191Z" fill="white"/>
<path d="M60.1514 63.5334H57.8984V67.1382H60.1514V63.5334Z" fill="white"/>
<path d="M57.8984 58.1263V59.0273H58.7998V60.8298H57.8984V61.7311H60.1517V58.1263H57.8984Z" fill="white"/>
<path d="M53.8477 35.146V36.0473H54.7487V37.8498H53.8477V38.7508H56.1006V35.146H53.8477Z" fill="white"/>
<path d="M53.8477 41.0037V41.905H54.7487V43.7071H53.8477V44.6085H56.1006V41.0037H53.8477Z" fill="white"/>
<path d="M56.1006 58.5769H53.8477V62.1816H56.1006V58.5769Z" fill="white"/>
<path d="M53.8477 52.7191V53.6202H54.7487V55.4226H53.8477V56.3237H56.1006V52.7191H53.8477Z" fill="white"/>
<path d="M56.1006 70.2924H53.8477V73.8971H56.1006V70.2924Z" fill="white"/>
<path d="M53.8477 64.4345V65.3356H54.7487V67.138H53.8477V68.0393H56.1006V64.4345H53.8477Z" fill="white"/>
<path d="M56.1006 82.0078H53.8477V85.6125H56.1006V82.0078Z" fill="white"/>
<path d="M60.1514 81.1064H57.8984V84.7112H60.1514V81.1064Z" fill="white"/>
<path d="M53.8477 76.1497V77.051H54.7487V78.8534H53.8477V79.7545H56.1006V76.1497H53.8477Z" fill="white"/>
<path d="M62.4062 76.1497V77.051H63.3073V78.8534H62.4062V79.7545H64.6592V76.1497H62.4062Z" fill="white"/>
<path d="M87.6436 23.8812H85.3906V27.486H87.6436V23.8812Z" fill="white"/>
<path d="M87.6436 29.7388H85.3906V33.3436H87.6436V29.7388Z" fill="white"/>
<path d="M87.6436 46.8618H85.3906V50.4665H87.6436V46.8618Z" fill="white"/>
<path d="M85.3906 35.146V36.0473H86.292V37.8498H85.3906V38.7508H87.6436V35.146H85.3906Z" fill="white"/>
<path d="M85.3906 52.7191V53.6202H86.292V55.4226H85.3906V56.3237H87.6436V52.7191H85.3906Z" fill="white"/>
<path d="M85.3906 58.5767V59.4781H86.292V61.2805H85.3906V62.1815H87.6436V58.5767H85.3906Z" fill="white"/>
<path d="M85.3906 40.5532V41.4543H86.292V43.2567H85.3906V44.158H87.6436V40.5532H85.3906Z" fill="white"/>
<path d="M85.3906 76.1497V77.051H86.292V78.8534H85.3906V79.7545H87.6436V76.1497H85.3906Z" fill="white"/>
<path d="M56.1006 93.723H53.8477V97.3278H56.1006V93.723Z" fill="white"/>
<path d="M60.1514 86.9643H57.8984V90.569H60.1514V86.9643Z" fill="white"/>
<path d="M56.1006 109.043H53.8477V112.648H56.1006V109.043Z" fill="white"/>
<path d="M60.1514 98.2291H57.8984V101.834H60.1514V98.2291Z" fill="white"/>
<path d="M53.8477 87.8655V88.7665H54.7487V90.569H53.8477V91.4703H56.1006V87.8655H53.8477Z" fill="white"/>
<path d="M53.8477 115.352V116.253H54.7487V118.055H53.8477V118.956H56.1006V115.352H53.8477Z" fill="white"/>
<path d="M80.8819 18.4741H78.6289V22.0789H80.8819V18.4741Z" fill="white"/>
<path d="M80.8819 46.8618H78.6289V50.4665H80.8819V46.8618Z" fill="white"/>
<path d="M81.783 104.988H78.6289V105.439H81.783V104.988Z" fill="white"/>
<path d="M78.6289 29.2888V30.1898H79.5303V31.9922H78.6289V32.8933H80.8819V29.2888H78.6289Z" fill="white"/>
<path d="M78.6289 35.146V36.0473H79.5303V37.8498H78.6289V38.7508H80.8819V35.146H78.6289Z" fill="white"/>
<path d="M78.6289 41.0037V41.905H79.5303V43.7071H78.6289V44.6085H80.8819V41.0037H78.6289Z" fill="white"/>
<path d="M80.8819 58.5769H78.6289V62.1816H80.8819V58.5769Z" fill="white"/>
<path d="M78.6289 52.7191V53.6202H79.5303V55.4226H78.6289V56.3237H80.8819V52.7191H78.6289Z" fill="white"/>
<path d="M80.8819 70.2924H78.6289V73.8972H80.8819V70.2924Z" fill="white"/>
<path d="M78.6289 64.4345V65.3356H79.5303V67.138H78.6289V68.0393H80.8819V64.4345H78.6289Z" fill="white"/>
<path d="M80.8819 82.0078H78.6289V85.6125H80.8819V82.0078Z" fill="white"/>
<path d="M78.6289 76.1497V77.051H79.5303V78.8534H78.6289V79.7545H80.8819V76.1497H78.6289Z" fill="white"/>
<path d="M80.8819 93.723H78.6289V97.3278H80.8819V93.723Z" fill="white"/>
<path d="M80.8819 109.043H78.6289V112.648H80.8819V109.043Z" fill="white"/>
<path d="M78.6289 87.8655V88.7665H79.5303V90.569H78.6289V91.4703H80.8819V87.8655H78.6289Z" fill="white"/>
<path d="M78.6289 115.352V116.253H79.5303V118.055H78.6289V118.956H80.8819V115.352H78.6289Z" fill="white"/>
<path d="M91.6944 18.4744H89.4414V22.0792H91.6944V18.4744Z" fill="white"/>
<path d="M91.6944 46.8618H89.4414V50.4665H91.6944V46.8618Z" fill="white"/>
<path d="M92.5956 104.988H89.4414V105.439H92.5956V104.988Z" fill="white"/>
<path d="M89.4414 29.2888V30.1898H90.3428V31.9922H89.4414V32.8933H91.6944V29.2888H89.4414Z" fill="white"/>
<path d="M89.4414 35.146V36.0473H90.3428V37.8498H89.4414V38.7508H91.6944V35.146H89.4414Z" fill="white"/>
<path d="M89.4414 41.0037V41.905H90.3428V43.7071H89.4414V44.6085H91.6944V41.0037H89.4414Z" fill="white"/>
<path d="M91.6944 58.5769H89.4414V62.1816H91.6944V58.5769Z" fill="white"/>
<path d="M89.4414 52.7191V53.6202H90.3428V55.4226H89.4414V56.3237H91.6944V52.7191H89.4414Z" fill="white"/>
<path d="M91.6944 70.2924H89.4414V73.8972H91.6944V70.2924Z" fill="white"/>
<path d="M89.4414 64.4345V65.3356H90.3428V67.138H89.4414V68.0393H91.6944V64.4345H89.4414Z" fill="white"/>
<path d="M91.6944 82.0078H89.4414V85.6125H91.6944V82.0078Z" fill="white"/>
<path d="M89.4414 76.1497V77.051H90.3428V78.8534H89.4414V79.7545H91.6944V76.1497H89.4414Z" fill="white"/>
<path d="M91.6944 93.723H89.4414V97.3278H91.6944V93.723Z" fill="white"/>
<path d="M91.6944 109.043H89.4414V112.648H91.6944V109.043Z" fill="white"/>
<path d="M89.4414 87.8655V88.7665H90.3428V90.569H89.4414V91.4703H91.6944V87.8655H89.4414Z" fill="white"/>
<path d="M89.4414 115.352V116.253H90.3428V118.055H89.4414V118.956H91.6944V115.352H89.4414Z" fill="white"/>
<path d="M57.8984 109.043V109.944H58.7998V111.747H57.8984V112.648H60.1517V109.043H57.8984Z" fill="white"/>
<path d="M57.8984 114.901V115.802H58.7998V117.604H57.8984V118.505H60.1517V114.901H57.8984Z" fill="white"/>
<path d="M46.1875 46.8618V47.7629H47.0886V49.5653H46.1875V50.4666H48.4404V46.8618H46.1875Z" fill="white"/>
<path d="M46.1875 69.8419V70.743H47.0886V72.5454H46.1875V73.4465H48.4404V69.8419H46.1875Z" fill="white"/>
<path d="M46.1875 75.699V76.6004H47.0886V78.4028H46.1875V79.3039H48.4404V75.699H46.1875Z" fill="white"/>
<path d="M46.1875 87.4147V88.3158H47.0886V90.1182H46.1875V91.0193H48.4404V87.4147H46.1875Z" fill="white"/>
<path d="M46.1875 104.087V104.988H47.0886V106.79H46.1875V107.692H48.4404V104.087H46.1875Z" fill="white"/>
<path d="M46.1875 109.043V109.944H47.0886V111.747H46.1875V112.648H48.4404V109.043H46.1875Z" fill="white"/>
<path d="M71.8701 19.3758H69.6172V22.9805H71.8701V19.3758Z" fill="white"/>
<path d="M71.8701 25.2334H69.6172V28.8381H71.8701V25.2334Z" fill="white"/>
<path d="M71.869 31.5414H68.7148V31.992H71.869V31.5414Z" fill="white"/>
<path d="M71.869 60.3794H68.7148V60.83H71.869V60.3794Z" fill="white"/>
<path d="M71.869 65.3359H68.7148V65.7865H71.869V65.3359Z" fill="white"/>
<path d="M69.6172 35.5967V36.4978H70.5182V38.3002H69.6172V39.2013H71.8701V35.5967H69.6172Z" fill="white"/>
<path d="M69.6172 46.8618V47.7629H70.5182V49.5653H69.6172V50.4666H71.8701V46.8618H69.6172Z" fill="white"/>
<path d="M69.6172 69.8419V70.743H70.5182V72.5454H69.6172V73.4465H71.8701V69.8419H69.6172Z" fill="white"/>
<path d="M97.5577 58.5769H95.3047V62.1816H97.5577V58.5769Z" fill="white"/>
<path d="M97.5577 64.4345H95.3047V68.0392H97.5577V64.4345Z" fill="white"/>
<path d="M97.5526 70.743H94.3984V71.1936H97.5526V70.743Z" fill="white"/>
<path d="M97.5526 99.5809H94.3984V100.031H97.5526V99.5809Z" fill="white"/>
<path d="M97.5526 104.537H94.3984V104.988H97.5526V104.537Z" fill="white"/>
<path d="M95.3047 74.7985V75.6995H96.2057V77.5019H95.3047V78.4033H97.5576V74.7985H95.3047Z" fill="white"/>
<path d="M95.3047 86.0629V86.9643H96.2057V88.7664H95.3047V89.6678H97.5576V86.0629H95.3047Z" fill="white"/>
<path d="M95.3047 109.043V109.944H96.2057V111.747H95.3047V112.648H97.5576V109.043H95.3047Z" fill="white"/>
<path d="M104.761 19.3758H102.508V22.9805H104.761V19.3758Z" fill="white"/>
<path d="M112.421 18.4741H110.168V22.0789H112.421V18.4741Z" fill="white"/>
<path d="M116.48 18.4744H114.227V22.0792H116.48V18.4744Z" fill="white"/>
<path d="M116.48 29.2888H114.227V32.8935H116.48V29.2888Z" fill="white"/>
<path d="M120.987 23.8812H118.734V27.486H120.987V23.8812Z" fill="white"/>
<path d="M120.987 29.7388H118.734V33.3436H120.987V29.7388Z" fill="white"/>
<path d="M116.48 41.0037H114.227V44.6084H116.48V41.0037Z" fill="white"/>
<path d="M120.987 46.8618H118.734V50.4665H120.987V46.8618Z" fill="white"/>
<path d="M116.48 68.9406H114.227V72.5453H116.48V68.9406Z" fill="white"/>
<path d="M112.421 46.8618H110.168V50.4665H112.421V46.8618Z" fill="white"/>
<path d="M104.761 25.2334H102.508V28.8381H104.761V25.2334Z" fill="white"/>
<path d="M104.761 81.5571H102.508V85.1619H104.761V81.5571Z" fill="white"/>
<path d="M104.761 93.2726H102.508V96.8774H104.761V93.2726Z" fill="white"/>
<path d="M104.761 99.1302H102.508V102.735H104.761V99.1302Z" fill="white"/>
<path d="M104.76 31.5414H101.605V31.992H104.76V31.5414Z" fill="white"/>
<path d="M116.928 36.9485H113.773V37.3991H116.928V36.9485Z" fill="white"/>
<path d="M104.76 60.3794H101.605V60.83H104.76V60.3794Z" fill="white"/>
<path d="M104.76 65.3359H101.605V65.7865H104.76V65.3359Z" fill="white"/>
<path d="M116.928 94.1736H113.773V94.6242H116.928V94.1736Z" fill="white"/>
<path d="M113.322 104.988H110.168V105.439H113.322V104.988Z" fill="white"/>
<path d="M102.508 35.5967V36.4978H103.409V38.3002H102.508V39.2013H104.761V35.5967H102.508Z" fill="white"/>
<path d="M110.168 29.2888V30.1898H111.069V31.9922H110.168V32.8933H112.421V29.2888H110.168Z" fill="white"/>
<path d="M118.734 35.146V36.0473H119.635V37.8498H118.734V38.7508H120.987V35.146H118.734Z" fill="white"/>
<path d="M118.734 52.7191V53.6202H119.635V55.4226H118.734V56.3237H120.987V52.7191H118.734Z" fill="white"/>
<path d="M118.734 58.5767V59.4781H119.635V61.2805H118.734V62.1815H120.987V58.5767H118.734Z" fill="white"/>
<path d="M118.734 40.5532V41.4543H119.635V43.2567H118.734V44.158H120.987V40.5532H118.734Z" fill="white"/>
<path d="M114.227 23.8812V24.7826H115.128V26.5847H114.227V27.4861H116.48V23.8812H114.227Z" fill="white"/>
<path d="M116.48 52.7191H114.227V56.3239H116.48V52.7191Z" fill="white"/>
<path d="M116.48 63.5334H114.227V67.1382H116.48V63.5334Z" fill="white"/>
<path d="M114.227 58.1263V59.0273H115.128V60.8298H114.227V61.7311H116.48V58.1263H114.227Z" fill="white"/>
<path d="M110.168 35.146V36.0473H111.069V37.8498H110.168V38.7508H112.421V35.146H110.168Z" fill="white"/>
<path d="M110.168 41.0037V41.905H111.069V43.7071H110.168V44.6085H112.421V41.0037H110.168Z" fill="white"/>
<path d="M112.421 58.5769H110.168V62.1816H112.421V58.5769Z" fill="white"/>
<path d="M110.168 52.7191V53.6202H111.069V55.4226H110.168V56.3237H112.421V52.7191H110.168Z" fill="white"/>
<path d="M112.421 70.2924H110.168V73.8971H112.421V70.2924Z" fill="white"/>
<path d="M110.168 64.4345V65.3356H111.069V67.138H110.168V68.0393H112.421V64.4345H110.168Z" fill="white"/>
<path d="M112.421 82.0078H110.168V85.6125H112.421V82.0078Z" fill="white"/>
<path d="M116.48 81.1064H114.227V84.7112H116.48V81.1064Z" fill="white"/>
<path d="M110.168 76.1497V77.051H111.069V78.8534H110.168V79.7545H112.421V76.1497H110.168Z" fill="white"/>
<path d="M118.734 76.1497V77.051H119.635V78.8534H118.734V79.7545H120.987V76.1497H118.734Z" fill="white"/>
<path d="M143.964 23.8812H141.711V27.486H143.964V23.8812Z" fill="white"/>
<path d="M143.964 29.7388H141.711V33.3436H143.964V29.7388Z" fill="white"/>
<path d="M143.964 46.8618H141.711V50.4665H143.964V46.8618Z" fill="white"/>
<path d="M141.711 35.146V36.0473H142.612V37.8498H141.711V38.7508H143.964V35.146H141.711Z" fill="white"/>
<path d="M141.711 52.7191V53.6202H142.612V55.4226H141.711V56.3237H143.964V52.7191H141.711Z" fill="white"/>
<path d="M141.711 58.5767V59.4781H142.612V61.2805H141.711V62.1815H143.964V58.5767H141.711Z" fill="white"/>
<path d="M141.711 40.5532V41.4543H142.612V43.2567H141.711V44.158H143.964V40.5532H141.711Z" fill="white"/>
<path d="M141.711 76.1497V77.051H142.612V78.8534H141.711V79.7545H143.964V76.1497H141.711Z" fill="white"/>
<path d="M112.421 93.723H110.168V97.3278H112.421V93.723Z" fill="white"/>
<path d="M116.48 86.9643H114.227V90.569H116.48V86.9643Z" fill="white"/>
<path d="M112.421 109.043H110.168V112.648H112.421V109.043Z" fill="white"/>
<path d="M116.48 98.2291H114.227V101.834H116.48V98.2291Z" fill="white"/>
<path d="M110.168 87.8655V88.7665H111.069V90.569H110.168V91.4703H112.421V87.8655H110.168Z" fill="white"/>
<path d="M110.168 115.352V116.253H111.069V118.055H110.168V118.956H112.421V115.352H110.168Z" fill="white"/>
<path d="M137.206 18.4741H134.953V22.0789H137.206V18.4741Z" fill="white"/>
<path d="M137.206 46.8618H134.953V50.4665H137.206V46.8618Z" fill="white"/>
<path d="M138.107 104.988H134.953V105.439H138.107V104.988Z" fill="white"/>
<path d="M134.953 29.2888V30.1898H135.854V31.9922H134.953V32.8933H137.206V29.2888H134.953Z" fill="white"/>
<path d="M134.953 35.146V36.0473H135.854V37.8498H134.953V38.7508H137.206V35.146H134.953Z" fill="white"/>
<path d="M134.953 41.0037V41.905H135.854V43.7071H134.953V44.6085H137.206V41.0037H134.953Z" fill="white"/>
<path d="M137.206 58.5769H134.953V62.1816H137.206V58.5769Z" fill="white"/>
<path d="M134.953 52.7191V53.6202H135.854V55.4226H134.953V56.3237H137.206V52.7191H134.953Z" fill="white"/>
<path d="M137.206 70.2924H134.953V73.8971H137.206V70.2924Z" fill="white"/>
<path d="M134.953 64.4345V65.3356H135.854V67.138H134.953V68.0393H137.206V64.4345H134.953Z" fill="white"/>
<path d="M137.206 82.0078H134.953V85.6125H137.206V82.0078Z" fill="white"/>
<path d="M134.953 76.1497V77.051H135.854V78.8534H134.953V79.7545H137.206V76.1497H134.953Z" fill="white"/>
<path d="M137.206 93.723H134.953V97.3278H137.206V93.723Z" fill="white"/>
<path d="M137.206 109.043H134.953V112.648H137.206V109.043Z" fill="white"/>
<path d="M134.953 87.8655V88.7665H135.854V90.569H134.953V91.4703H137.206V87.8655H134.953Z" fill="white"/>
<path d="M134.953 115.352V116.253H135.854V118.055H134.953V118.956H137.206V115.352H134.953Z" fill="white"/>
<path d="M148.019 18.4744H145.766V22.0792H148.019V18.4744Z" fill="white"/>
<path d="M148.019 46.8618H145.766V50.4665H148.019V46.8618Z" fill="white"/>
<path d="M148.92 104.988H145.766V105.439H148.92V104.988Z" fill="white"/>
<path d="M145.766 29.2888V30.1898H146.667V31.9922H145.766V32.8933H148.019V29.2888H145.766Z" fill="white"/>
<path d="M145.766 35.146V36.0473H146.667V37.8498H145.766V38.7508H148.019V35.146H145.766Z" fill="white"/>
<path d="M145.766 41.0037V41.905H146.667V43.7071H145.766V44.6085H148.019V41.0037H145.766Z" fill="white"/>
<path d="M148.019 58.5769H145.766V62.1816H148.019V58.5769Z" fill="white"/>
<path d="M145.766 52.7191V53.6202H146.667V55.4226H145.766V56.3237H148.019V52.7191H145.766Z" fill="white"/>
<path d="M148.019 70.2924H145.766V73.8971H148.019V70.2924Z" fill="white"/>
<path d="M145.766 64.4345V65.3356H146.667V67.138H145.766V68.0393H148.019V64.4345H145.766Z" fill="white"/>
<path d="M148.019 82.0078H145.766V85.6125H148.019V82.0078Z" fill="white"/>
<path d="M145.766 76.1497V77.051H146.667V78.8534H145.766V79.7545H148.019V76.1497H145.766Z" fill="white"/>
<path d="M148.019 93.723H145.766V97.3278H148.019V93.723Z" fill="white"/>
<path d="M148.019 109.043H145.766V112.648H148.019V109.043Z" fill="white"/>
<path d="M145.766 87.8655V88.7665H146.667V90.569H145.766V91.4703H148.019V87.8655H145.766Z" fill="white"/>
<path d="M145.766 115.352V116.253H146.667V118.055H145.766V118.956H148.019V115.352H145.766Z" fill="white"/>
<path d="M114.227 109.043V109.944H115.128V111.747H114.227V112.648H116.48V109.043H114.227Z" fill="white"/>
<path d="M114.227 114.901V115.802H115.128V117.604H114.227V118.505H116.48V114.901H114.227Z" fill="white"/>
<path d="M102.508 46.8618V47.7628H103.409V49.5652H102.508V50.4666H104.761V46.8618H102.508Z" fill="white"/>
<path d="M102.508 69.8419V70.743H103.409V72.5454H102.508V73.4465H104.761V69.8419H102.508Z" fill="white"/>
<path d="M102.508 75.6993V76.6006H103.409V78.403H102.508V79.3041H104.761V75.6993H102.508Z" fill="white"/>
<path d="M102.508 87.4147V88.3158H103.409V90.1182H102.508V91.0193H104.761V87.4147H102.508Z" fill="white"/>
<path d="M102.508 104.087V104.988H103.409V106.79H102.508V107.692H104.761V104.087H102.508Z" fill="white"/>
<path d="M102.508 109.043V109.944H103.409V111.747H102.508V112.648H104.761V109.043H102.508Z" fill="white"/>
<path d="M128.194 19.3758H125.941V22.9805H128.194V19.3758Z" fill="white"/>
<path d="M128.194 25.2334H125.941V28.8381H128.194V25.2334Z" fill="white"/>
<path d="M128.189 31.5414H125.035V31.992H128.189V31.5414Z" fill="white"/>
<path d="M128.189 60.3794H125.035V60.83H128.189V60.3794Z" fill="white"/>
<path d="M128.189 65.3359H125.035V65.7865H128.189V65.3359Z" fill="white"/>
<path d="M125.941 35.5967V36.4978H126.843V38.3002H125.941V39.2013H128.194V35.5967H125.941Z" fill="white"/>
<path d="M125.941 46.8618V47.7629H126.843V49.5653H125.941V50.4666H128.194V46.8618H125.941Z" fill="white"/>
<path d="M125.941 69.8419V70.743H126.843V72.5454H125.941V73.4465H128.194V69.8419H125.941Z" fill="white"/>
<path d="M153.878 58.5769H151.625V62.1816H153.878V58.5769Z" fill="white"/>
<path d="M153.878 64.4345H151.625V68.0392H153.878V64.4345Z" fill="white"/>
<path d="M153.873 70.743H150.719V71.1936H153.873V70.743Z" fill="white"/>
<path d="M153.873 99.5809H150.719V100.031H153.873V99.5809Z" fill="white"/>
<path d="M153.873 104.537H150.719V104.988H153.873V104.537Z" fill="white"/>
<path d="M151.625 74.7985V75.6995H152.526V77.5019H151.625V78.4033H153.878V74.7985H151.625Z" fill="white"/>
<path d="M151.625 86.0629V86.9643H152.526V88.7664H151.625V89.6678H153.878V86.0629H151.625Z" fill="white"/>
<path d="M151.625 109.043V109.944H152.526V111.747H151.625V112.648H153.878V109.043H151.625Z" fill="white"/>
<path d="M161.089 19.3758H158.836V22.9805H161.089V19.3758Z" fill="white"/>
<path d="M168.745 18.4741H166.492V22.0789H168.745V18.4741Z" fill="white"/>
<path d="M172.804 18.4744H170.551V22.0792H172.804V18.4744Z" fill="white"/>
<path d="M172.804 29.2888H170.551V32.8935H172.804V29.2888Z" fill="white"/>
<path d="M177.304 23.8812H175.051V27.486H177.304V23.8812Z" fill="white"/>
<path d="M177.304 29.7388H175.051V33.3436H177.304V29.7388Z" fill="white"/>
<path d="M172.804 41.0037H170.551V44.6084H172.804V41.0037Z" fill="white"/>
<path d="M177.304 46.8618H175.051V50.4665H177.304V46.8618Z" fill="white"/>
<path d="M172.804 68.9406H170.551V72.5453H172.804V68.9406Z" fill="white"/>
<path d="M168.745 46.8618H166.492V50.4665H168.745V46.8618Z" fill="white"/>
<path d="M161.089 25.2334H158.836V28.8381H161.089V25.2334Z" fill="white"/>
<path d="M161.089 81.5571H158.836V85.1619H161.089V81.5571Z" fill="white"/>
<path d="M161.089 93.2726H158.836V96.8774H161.089V93.2726Z" fill="white"/>
<path d="M161.089 99.1302H158.836V102.735H161.089V99.1302Z" fill="white"/>
<path d="M161.088 31.5414H157.934V31.992H161.088V31.5414Z" fill="white"/>
<path d="M173.252 36.9485H170.098V37.3991H173.252V36.9485Z" fill="white"/>
<path d="M161.088 60.3794H157.934V60.83H161.088V60.3794Z" fill="white"/>
<path d="M161.088 65.3359H157.934V65.7865H161.088V65.3359Z" fill="white"/>
<path d="M173.252 94.1736H170.098V94.6242H173.252V94.1736Z" fill="white"/>
<path d="M169.646 104.988H166.492V105.439H169.646V104.988Z" fill="white"/>
<path d="M158.828 35.5967V36.4978H159.729V38.3002H158.828V39.2013H161.081V35.5967H158.828Z" fill="white"/>
<path d="M166.492 29.2888V30.1898H167.393V31.9922H166.492V32.8933H168.745V29.2888H166.492Z" fill="white"/>
<path d="M175.051 35.146V36.0473H175.952V37.8498H175.051V38.7508H177.304V35.146H175.051Z" fill="white"/>
<path d="M175.051 52.7191V53.6202H175.952V55.4226H175.051V56.3237H177.304V52.7191H175.051Z" fill="white"/>
<path d="M175.051 58.5767V59.4781H175.952V61.2805H175.051V62.1815H177.304V58.5767H175.051Z" fill="white"/>
<path d="M175.051 40.5532V41.4543H175.952V43.2567H175.051V44.158H177.304V40.5532H175.051Z" fill="white"/>
<path d="M170.551 23.8812V24.7826H171.452V26.5847H170.551V27.4861H172.804V23.8812H170.551Z" fill="white"/>
<path d="M172.804 52.7191H170.551V56.3239H172.804V52.7191Z" fill="white"/>
<path d="M172.804 63.5334H170.551V67.1382H172.804V63.5334Z" fill="white"/>
<path d="M170.551 58.1263V59.0273H171.452V60.8298H170.551V61.7311H172.804V58.1263H170.551Z" fill="white"/>
<path d="M166.492 35.146V36.0473H167.393V37.8498H166.492V38.7508H168.745V35.146H166.492Z" fill="white"/>
<path d="M166.492 41.0037V41.905H167.393V43.7071H166.492V44.6085H168.745V41.0037H166.492Z" fill="white"/>
<path d="M168.745 58.5769H166.492V62.1816H168.745V58.5769Z" fill="white"/>
<path d="M166.492 52.7191V53.6202H167.393V55.4226H166.492V56.3237H168.745V52.7191H166.492Z" fill="white"/>
<path d="M168.745 70.2924H166.492V73.8972H168.745V70.2924Z" fill="white"/>
<path d="M166.492 64.4345V65.3356H167.393V67.138H166.492V68.0393H168.745V64.4345H166.492Z" fill="white"/>
<path d="M168.745 82.0078H166.492V85.6125H168.745V82.0078Z" fill="white"/>
<path d="M172.804 81.1064H170.551V84.7112H172.804V81.1064Z" fill="white"/>
<path d="M166.492 76.1497V77.051H167.393V78.8534H166.492V79.7545H168.745V76.1497H166.492Z" fill="white"/>
<path d="M175.051 76.1497V77.051H175.952V78.8534H175.051V79.7545H177.304V76.1497H175.051Z" fill="white"/>
<path d="M200.284 23.8812H198.031V27.486H200.284V23.8812Z" fill="white"/>
<path d="M200.284 29.7388H198.031V33.3436H200.284V29.7388Z" fill="white"/>
<path d="M200.284 46.8618H198.031V50.4665H200.284V46.8618Z" fill="white"/>
<path d="M198.031 35.146V36.0473H198.932V37.8498H198.031V38.7508H200.284V35.146H198.031Z" fill="white"/>
<path d="M198.031 52.7191V53.6202H198.932V55.4226H198.031V56.3237H200.284V52.7191H198.031Z" fill="white"/>
<path d="M198.031 58.5767V59.4781H198.932V61.2805H198.031V62.1815H200.284V58.5767H198.031Z" fill="white"/>
<path d="M198.031 40.5532V41.4543H198.932V43.2567H198.031V44.158H200.284V40.5532H198.031Z" fill="white"/>
<path d="M198.031 76.1497V77.051H198.932V78.8534H198.031V79.7545H200.284V76.1497H198.031Z" fill="white"/>
<path d="M168.745 93.723H166.492V97.3278H168.745V93.723Z" fill="white"/>
<path d="M172.804 86.9643H170.551V90.569H172.804V86.9643Z" fill="white"/>
<path d="M168.745 109.043H166.492V112.648H168.745V109.043Z" fill="white"/>
<path d="M172.804 98.2291H170.551V101.834H172.804V98.2291Z" fill="white"/>
<path d="M166.492 87.8655V88.7665H167.393V90.569H166.492V91.4703H168.745V87.8655H166.492Z" fill="white"/>
<path d="M166.492 115.352V116.253H167.393V118.055H166.492V118.956H168.745V115.352H166.492Z" fill="white"/>
<path d="M193.522 18.4741H191.27V22.0789H193.522V18.4741Z" fill="white"/>
<path d="M193.522 46.8618H191.27V50.4665H193.522V46.8618Z" fill="white"/>
<path d="M194.424 104.988H191.27V105.439H194.424V104.988Z" fill="white"/>
<path d="M191.27 29.2888V30.1898H192.171V31.9922H191.27V32.8933H193.522V29.2888H191.27Z" fill="white"/>
<path d="M191.27 35.146V36.0473H192.171V37.8498H191.27V38.7508H193.522V35.146H191.27Z" fill="white"/>
<path d="M191.27 41.0037V41.905H192.171V43.7071H191.27V44.6085H193.522V41.0037H191.27Z" fill="white"/>
<path d="M193.522 58.5769H191.27V62.1816H193.522V58.5769Z" fill="white"/>
<path d="M191.27 52.7191V53.6202H192.171V55.4226H191.27V56.3237H193.522V52.7191H191.27Z" fill="white"/>
<path d="M193.522 70.2924H191.27V73.8971H193.522V70.2924Z" fill="white"/>
<path d="M191.27 64.4345V65.3356H192.171V67.138H191.27V68.0393H193.522V64.4345H191.27Z" fill="white"/>
<path d="M193.522 82.0078H191.27V85.6125H193.522V82.0078Z" fill="white"/>
<path d="M191.27 76.1497V77.051H192.171V78.8534H191.27V79.7545H193.522V76.1497H191.27Z" fill="white"/>
<path d="M193.522 93.723H191.27V97.3278H193.522V93.723Z" fill="white"/>
<path d="M193.522 109.043H191.27V112.648H193.522V109.043Z" fill="white"/>
<path d="M191.27 87.8655V88.7665H192.171V90.569H191.27V91.4703H193.522V87.8655H191.27Z" fill="white"/>
<path d="M191.27 115.352V116.253H192.171V118.055H191.27V118.956H193.522V115.352H191.27Z" fill="white"/>
<path d="M204.343 18.4741H202.09V22.0789H204.343V18.4741Z" fill="white"/>
<path d="M204.343 46.8618H202.09V50.4665H204.343V46.8618Z" fill="white"/>
<path d="M205.244 104.988H202.09V105.439H205.244V104.988Z" fill="white"/>
<path d="M202.09 29.2888V30.1898H202.991V31.9922H202.09V32.8933H204.343V29.2888H202.09Z" fill="white"/>
<path d="M202.09 35.146V36.0473H202.991V37.8498H202.09V38.7508H204.343V35.146H202.09Z" fill="white"/>
<path d="M202.09 41.0037V41.905H202.991V43.7071H202.09V44.6085H204.343V41.0037H202.09Z" fill="white"/>
<path d="M204.343 58.5769H202.09V62.1816H204.343V58.5769Z" fill="white"/>
<path d="M202.09 52.7191V53.6202H202.991V55.4226H202.09V56.3237H204.343V52.7191H202.09Z" fill="white"/>
<path d="M204.343 70.2924H202.09V73.8971H204.343V70.2924Z" fill="white"/>
<path d="M202.09 64.4345V65.3356H202.991V67.138H202.09V68.0393H204.343V64.4345H202.09Z" fill="white"/>
<path d="M204.343 82.0078H202.09V85.6125H204.343V82.0078Z" fill="white"/>
<path d="M202.09 76.1497V77.051H202.991V78.8534H202.09V79.7545H204.343V76.1497H202.09Z" fill="white"/>
<path d="M204.343 93.723H202.09V97.3278H204.343V93.723Z" fill="white"/>
<path d="M204.343 109.043H202.09V112.648H204.343V109.043Z" fill="white"/>
<path d="M202.09 87.8655V88.7665H202.991V90.569H202.09V91.4703H204.343V87.8655H202.09Z" fill="white"/>
<path d="M202.09 115.352V116.253H202.991V118.055H202.09V118.956H204.343V115.352H202.09Z" fill="white"/>
<path d="M170.551 109.043V109.944H171.452V111.747H170.551V112.648H172.804V109.043H170.551Z" fill="white"/>
<path d="M170.551 114.901V115.802H171.452V117.604H170.551V118.505H172.804V114.901H170.551Z" fill="white"/>
<path d="M158.828 46.8618V47.7629H159.729V49.5653H158.828V50.4666H161.081V46.8618H158.828Z" fill="white"/>
<path d="M158.828 69.8419V70.743H159.729V72.5454H158.828V73.4465H161.081V69.8419H158.828Z" fill="white"/>
<path d="M158.828 75.699V76.6004H159.729V78.4028H158.828V79.3039H161.081V75.699H158.828Z" fill="white"/>
<path d="M158.828 87.4147V88.3158H159.729V90.1182H158.828V91.0193H161.081V87.4147H158.828Z" fill="white"/>
<path d="M158.828 104.087V104.988H159.729V106.79H158.828V107.692H161.081V104.087H158.828Z" fill="white"/>
<path d="M158.828 109.043V109.944H159.729V111.747H158.828V112.648H161.081V109.043H158.828Z" fill="white"/>
<path d="M184.515 19.3758H182.262V22.9805H184.515V19.3758Z" fill="white"/>
<path d="M184.515 25.2334H182.262V28.8381H184.515V25.2334Z" fill="white"/>
<path d="M184.517 31.5414H181.363V31.992H184.517V31.5414Z" fill="white"/>
<path d="M184.517 60.3794H181.363V60.83H184.517V60.3794Z" fill="white"/>
<path d="M184.517 65.3359H181.363V65.7865H184.517V65.3359Z" fill="white"/>
<path d="M182.262 35.5967V36.4978H183.163V38.3002H182.262V39.2013H184.515V35.5967H182.262Z" fill="white"/>
<path d="M182.262 46.8618V47.7629H183.163V49.5653H182.262V50.4666H184.515V46.8618H182.262Z" fill="white"/>
<path d="M182.262 69.8419V70.743H183.163V72.5454H182.262V73.4465H184.515V69.8419H182.262Z" fill="white"/>
<path d="M210.202 58.5769H207.949V62.1816H210.202V58.5769Z" fill="white"/>
<path d="M210.202 64.4345H207.949V68.0392H210.202V64.4345Z" fill="white"/>
<path d="M210.201 70.743H207.047V71.1936H210.201V70.743Z" fill="white"/>
<path d="M210.201 99.5809H207.047V100.031H210.201V99.5809Z" fill="white"/>
<path d="M210.201 104.537H207.047V104.988H210.201V104.537Z" fill="white"/>
<path d="M207.949 74.7985V75.6995H208.851V77.5019H207.949V78.4033H210.202V74.7985H207.949Z" fill="white"/>
<path d="M207.949 86.063V86.9643H208.851V88.7665H207.949V89.6678H210.202V86.063H207.949Z" fill="white"/>
<path d="M207.949 109.043V109.944H208.851V111.747H207.949V112.648H210.202V109.043H207.949Z" fill="white"/>
</svg>
