<svg width="251" height="146" viewBox="0 0 251 146" fill="none" xmlns="http://www.w3.org/2000/svg">
<rect x="120.113" y="34.9196" width="130.648" height="76.161" rx="1.80619" fill="#0A2F4F"/>
<path d="M237.889 25.2866H117.33C116.87 25.287 116.43 25.4387 116.105 25.7084C115.781 25.9781 115.598 26.3439 115.598 26.7254V94.5903C115.598 94.9718 115.781 95.3375 116.105 95.6073C116.43 95.877 116.87 96.0287 117.33 96.0291H237.889C238.139 96.0291 238.387 95.9839 238.614 95.8968C238.841 95.8096 239.043 95.6825 239.206 95.5242C239.219 95.5118 239.232 95.4985 239.243 95.4846C239.347 95.3796 239.43 95.2622 239.492 95.1364C239.579 94.9635 239.623 94.7778 239.623 94.5903V26.7254C239.622 26.3436 239.439 25.9777 239.114 25.7079C238.789 25.4381 238.348 25.2866 237.889 25.2866ZM239.128 94.5903C239.128 94.791 239.057 94.9874 238.924 95.1546C238.805 95.3018 238.644 95.422 238.455 95.5044C238.28 95.5795 238.086 95.6185 237.889 95.6182H117.33C117.001 95.6179 116.687 95.5095 116.455 95.3168C116.223 95.1241 116.093 94.8628 116.092 94.5903V26.7254C116.093 26.4528 116.223 26.1916 116.455 25.9989C116.687 25.8062 117.001 25.6978 117.33 25.6975H237.889C238.217 25.6974 238.532 25.8057 238.764 25.9984C238.997 26.1911 239.128 26.4526 239.128 26.7254V94.5903Z" fill="#A1A1A1"/>
<path d="M239.126 32.2279H116.091C115.955 32.2279 115.844 32.3387 115.844 32.4755C115.844 32.6122 115.955 32.723 116.091 32.723H239.126C239.263 32.723 239.374 32.6122 239.374 32.4755C239.374 32.3387 239.263 32.2279 239.126 32.2279Z" fill="#A1A1A1"/>
<path d="M120.052 30.4851C120.872 30.4851 121.537 29.8201 121.537 28.9997C121.537 28.1794 120.872 27.5144 120.052 27.5144C119.231 27.5144 118.566 28.1794 118.566 28.9997C118.566 29.8201 119.231 30.4851 120.052 30.4851Z" fill="#A1A1A1"/>
<path d="M124.325 30.4851C125.146 30.4851 125.811 29.8201 125.811 28.9997C125.811 28.1794 125.146 27.5144 124.325 27.5144C123.505 27.5144 122.84 28.1794 122.84 28.9997C122.84 29.8201 123.505 30.4851 124.325 30.4851Z" fill="#A1A1A1"/>
<path d="M128.591 30.4851C129.411 30.4851 130.076 29.8201 130.076 28.9997C130.076 28.1794 129.411 27.5144 128.591 27.5144C127.77 27.5144 127.105 28.1794 127.105 28.9997C127.105 29.8201 127.77 30.4851 128.591 30.4851Z" fill="#A1A1A1"/>
<rect x="132.758" y="44.5526" width="39.7362" height="40.6393" rx="1.80619" fill="#32618B"/>
<path d="M184.063 56.5938C183.86 56.6276 183.673 56.7532 183.538 56.947C183.403 57.1408 183.328 57.3897 183.328 57.6474C183.328 57.905 183.403 58.1539 183.538 58.3478C183.673 58.5416 183.86 58.6671 184.063 58.701H218.717C218.92 58.6671 219.107 58.5416 219.242 58.3478C219.377 58.1539 219.452 57.905 219.452 57.6474C219.452 57.3897 219.377 57.1408 219.242 56.947C219.107 56.7532 218.92 56.6276 218.717 56.5938H184.063Z" fill="#32618B"/>
<path d="M184.321 76.1609C184.046 76.1948 183.794 76.3203 183.611 76.5141C183.429 76.7079 183.328 76.9568 183.328 77.2145C183.328 77.4722 183.429 77.7211 183.611 77.9149C183.794 78.1087 184.046 78.2342 184.321 78.2681H231.103C231.377 78.2342 231.63 78.1087 231.812 77.9149C231.995 77.7211 232.095 77.4722 232.095 77.2145C232.095 76.9568 231.995 76.7079 231.812 76.5141C231.63 76.3203 231.377 76.1948 231.103 76.1609H184.321Z" fill="#32618B"/>
<path d="M184.436 62.9154C184.129 62.9493 183.848 63.0748 183.644 63.2686C183.44 63.4624 183.328 63.7113 183.328 63.969C183.328 64.2267 183.44 64.4756 183.644 64.6694C183.848 64.8632 184.129 64.9887 184.436 65.0226H206.905C207.212 64.9887 207.493 64.8632 207.697 64.6694C207.9 64.4756 208.013 64.2267 208.013 63.969C208.013 63.7113 207.9 63.4624 207.697 63.2686C207.493 63.0748 207.212 62.9493 206.905 62.9154H184.436Z" fill="#32618B"/>
<path d="M184.063 69.5383C183.86 69.5722 183.673 69.6977 183.538 69.8915C183.403 70.0854 183.328 70.3343 183.328 70.5919C183.328 70.8496 183.403 71.0985 183.538 71.2923C183.673 71.4861 183.86 71.6117 184.063 71.6456H218.717C218.92 71.6117 219.107 71.4861 219.242 71.2923C219.377 71.0985 219.452 70.8496 219.452 70.5919C219.452 70.3343 219.377 70.0854 219.242 69.8915C219.107 69.6977 218.92 69.5722 218.717 69.5383H184.063Z" fill="#32618B"/>
<path d="M122.291 2.41516e-09H1.73187C1.27267 0.000346896 0.832389 0.152041 0.50769 0.421783C0.182991 0.691525 0.000402837 1.05727 0 1.43874V69.3037C0.000402837 69.6852 0.182991 70.0509 0.50769 70.3206C0.832389 70.5904 1.27267 70.7421 1.73187 70.7424H122.291C122.542 70.7424 122.789 70.6973 123.016 70.6101C123.244 70.523 123.446 70.3958 123.608 70.2375C123.622 70.2252 123.634 70.2119 123.646 70.198C123.749 70.0929 123.833 69.9756 123.894 69.8498C123.981 69.6769 124.026 69.4912 124.025 69.3037V1.43874C124.025 1.05701 123.842 0.691049 123.516 0.421274C123.191 0.1515 122.751 -2.20883e-05 122.291 2.41516e-09ZM123.531 69.3037C123.531 69.5044 123.46 69.7007 123.326 69.868C123.207 70.0152 123.046 70.1354 122.857 70.2178C122.682 70.2929 122.488 70.3319 122.291 70.3316H1.73187C1.40382 70.3313 1.08932 70.2229 0.857351 70.0302C0.625385 69.8375 0.494893 69.5762 0.494495 69.3037V1.43874C0.494893 1.16623 0.625385 0.904966 0.857351 0.712268C1.08932 0.51957 1.40382 0.411167 1.73187 0.410836H122.291C122.619 0.410801 122.934 0.519033 123.167 0.711762C123.399 0.904491 123.53 1.16596 123.531 1.43874V69.3037Z" fill="#A1A1A1"/>
<path d="M123.78 6.94128H0.25V7.43639H123.78V6.94128Z" fill="#A1A1A1"/>
<path d="M4.45408 5.19844C5.27441 5.19844 5.93941 4.53344 5.93941 3.71311C5.93941 2.89279 5.27441 2.22778 4.45408 2.22778C3.63376 2.22778 2.96875 2.89279 2.96875 3.71311C2.96875 4.53344 3.63376 5.19844 4.45408 5.19844Z" fill="#A1A1A1"/>
<path d="M8.72752 5.19869C9.54784 5.19869 10.2128 4.53368 10.2128 3.71336C10.2128 2.89303 9.54784 2.22803 8.72752 2.22803C7.9072 2.22803 7.24219 2.89303 7.24219 3.71336C7.24219 4.53368 7.9072 5.19869 8.72752 5.19869Z" fill="#A1A1A1"/>
<path d="M12.9931 5.19869C13.8135 5.19869 14.4785 4.53368 14.4785 3.71336C14.4785 2.89303 13.8135 2.22803 12.9931 2.22803C12.1728 2.22803 11.5078 2.89303 11.5078 3.71336C11.5078 4.53368 12.1728 5.19869 12.9931 5.19869Z" fill="#A1A1A1"/>
<path d="M62.2117 48.5802L43.8322 42.8698L25.7041 48.3921L25.2891 47.8383L43.8322 42.0054L62.1245 47.6503L80.3015 20.4027L80.3747 20.3729L98.7105 20.3407L98.969 20.9827L80.7061 20.9855L62.2117 48.5802Z" fill="#051E34"/>
<path d="M25.2593 50.1909C26.4058 50.1909 27.3351 49.2616 27.3351 48.1152C27.3351 46.9688 26.4058 46.0394 25.2593 46.0394C24.1129 46.0394 23.1836 46.9688 23.1836 48.1152C23.1836 49.2616 24.1129 50.1909 25.2593 50.1909Z" fill="#0A74E6"/>
<path d="M43.6187 44.7547C44.7651 44.7547 45.6945 43.8253 45.6945 42.6789C45.6945 41.5325 44.7651 40.6031 43.6187 40.6031C42.4723 40.6031 41.543 41.5325 41.543 42.6789C41.543 43.8253 42.4723 44.7547 43.6187 44.7547Z" fill="#0A74E6"/>
<path d="M61.982 50.1909C63.1284 50.1909 64.0578 49.2616 64.0578 48.1152C64.0578 46.9688 63.1284 46.0394 61.982 46.0394C60.8356 46.0394 59.9062 46.9688 59.9062 48.1152C59.9062 49.2616 60.8356 50.1909 61.982 50.1909Z" fill="#0A74E6"/>
<path d="M80.3453 22.7697C81.4917 22.7697 82.421 21.8403 82.421 20.6939C82.421 19.5475 81.4917 18.6182 80.3453 18.6182C79.1989 18.6182 78.2695 19.5475 78.2695 20.6939C78.2695 21.8403 79.1989 22.7697 80.3453 22.7697Z" fill="#0A74E6"/>
<path d="M98.7086 22.5144C99.855 22.5144 100.784 21.5851 100.784 20.4387C100.784 19.2923 99.855 18.3629 98.7086 18.3629C97.5622 18.3629 96.6328 19.2923 96.6328 20.4387C96.6328 21.5851 97.5622 22.5144 98.7086 22.5144Z" fill="#0A74E6"/>
<path d="M47.6225 64.4207C47.394 64.4207 47.1416 64.4508 47.0526 64.6613C46.9937 64.8007 46.9609 64.9835 46.9609 65.1732C46.9609 65.363 46.9937 65.5458 47.0526 65.6852C47.1416 65.8957 47.394 65.9258 47.6225 65.9258H61.953C62.1815 65.9258 62.4339 65.8957 62.5229 65.6852C62.5818 65.5458 62.6146 65.363 62.6146 65.1732C62.6146 64.9835 62.5818 64.8007 62.5229 64.6613C62.4339 64.4508 62.1815 64.4207 61.953 64.4207H47.6225Z" fill="#565656"/>
<path d="M34.2337 64.4207C34.1753 64.4359 34.1209 64.5218 34.0812 64.6613C34.0416 64.8007 34.0195 64.9835 34.0195 65.1732C34.0195 65.363 34.0416 65.5458 34.0812 65.6852C34.1209 65.8247 34.1753 65.9106 34.2337 65.9258H44.3415C44.3998 65.9106 44.4542 65.8247 44.4939 65.6852C44.5336 65.5458 44.5556 65.363 44.5556 65.1732C44.5556 64.9835 44.5336 64.8007 44.4939 64.6613C44.4542 64.5218 44.3998 64.4359 44.3415 64.4207H34.2337Z" fill="#565656"/>
<path d="M65.5412 64.4207C65.4013 64.4359 65.2707 64.5218 65.1754 64.6613C65.0802 64.8007 65.0273 64.9835 65.0273 65.1732C65.0273 65.363 65.0802 65.5458 65.1754 65.6852C65.2707 65.8247 65.4013 65.9106 65.5412 65.9258H89.8001C89.9401 65.9106 90.0707 65.8247 90.1659 65.6852C90.2611 65.5458 90.314 65.363 90.314 65.1732C90.314 64.9835 90.2611 64.8007 90.1659 64.6613C90.0707 64.5218 89.9401 64.4359 89.8001 64.4207H65.5412Z" fill="#565656"/>
<rect x="70.4492" y="122.386" width="71.8574" height="16.0766" rx="1.21792" fill="#051E34"/>
<rect x="54.1875" y="80.9771" width="113.489" height="65.0228" rx="1.80619" fill="black"/>
<path d="M166.291 80.9771H55.4786C55.0565 80.9774 54.6518 81.1168 54.3534 81.3647C54.0549 81.6127 53.8871 81.9488 53.8867 82.2995V144.677C53.8871 145.028 54.0549 145.364 54.3534 145.612C54.6518 145.86 55.0565 146 55.4786 146H166.291C166.521 146 166.748 145.958 166.957 145.878C167.166 145.798 167.352 145.681 167.501 145.536C167.514 145.524 167.525 145.512 167.536 145.499C167.631 145.403 167.708 145.295 167.764 145.179C167.844 145.02 167.885 144.85 167.884 144.677V82.2995C167.884 81.9486 167.716 81.6122 167.417 81.3643C167.118 81.1163 166.713 80.977 166.291 80.9771ZM167.43 144.677C167.43 144.862 167.364 145.042 167.242 145.196C167.132 145.331 166.984 145.442 166.811 145.518C166.65 145.587 166.472 145.623 166.291 145.622H55.4786C55.177 145.622 54.888 145.522 54.6748 145.345C54.4615 145.168 54.3416 144.928 54.3412 144.677V82.2995C54.3416 82.049 54.4615 81.8088 54.6748 81.6317C54.888 81.4546 55.177 81.355 55.4786 81.3547H166.291C166.592 81.3546 166.882 81.4541 167.095 81.6313C167.309 81.8084 167.429 82.0487 167.43 82.2995V144.677Z" fill="#A1A1A1"/>
<path d="M167.656 87.3575H54.1133V87.8126H167.656V87.3575Z" fill="#A1A1A1"/>
<path d="M57.9824 85.7553C58.7364 85.7553 59.3477 85.144 59.3477 84.39C59.3477 83.636 58.7364 83.0248 57.9824 83.0248C57.2284 83.0248 56.6172 83.636 56.6172 84.39C56.6172 85.144 57.2284 85.7553 57.9824 85.7553Z" fill="#A1A1A1"/>
<path d="M61.9043 85.7553C62.6583 85.7553 63.2695 85.144 63.2695 84.39C63.2695 83.636 62.6583 83.0248 61.9043 83.0248C61.1503 83.0248 60.5391 83.636 60.5391 84.39C60.5391 85.144 61.1503 85.7553 61.9043 85.7553Z" fill="#A1A1A1"/>
<path d="M65.834 85.7553C66.588 85.7553 67.1992 85.144 67.1992 84.39C67.1992 83.636 66.588 83.0248 65.834 83.0248C65.08 83.0248 64.4688 83.636 64.4688 84.39C64.4688 85.144 65.08 85.7553 65.834 85.7553Z" fill="#A1A1A1"/>
<path d="M82.2045 97.396C82.0151 97.2067 81.7083 97.2058 81.5178 97.3939L76.5151 102.334C76.3219 102.525 76.3219 102.837 76.5151 103.027L81.5177 107.968C81.7083 108.156 82.0151 108.155 82.2045 107.965L82.7998 107.37C82.9901 107.18 82.9901 106.871 82.7998 106.681L79.18 103.061C78.9897 102.87 78.9897 102.562 79.18 102.372L82.8357 98.716C83.026 98.5258 83.026 98.2172 82.8357 98.027L82.2045 97.396Z" fill="#0A74E6"/>
<path d="M88.5773 97.396C88.7668 97.2067 89.0735 97.2058 89.2641 97.394L94.2666 102.334C94.4598 102.525 94.4598 102.837 94.2666 103.027L89.2641 107.968C89.0735 108.156 88.7667 108.155 88.5773 107.965L87.982 107.37C87.7918 107.18 87.7918 106.871 87.982 106.681L91.6021 103.061C91.7924 102.871 91.7924 102.562 91.6021 102.372L87.9461 98.716C87.7558 98.5258 87.7559 98.2172 87.9462 98.027L88.5773 97.396Z" fill="#0A74E6"/>
<path d="M105.004 98.4662C104.538 98.4662 104.16 98.7343 104.16 99.0648C104.16 99.3953 104.538 99.6634 105.004 99.6634H144.784C145.25 99.6634 145.628 99.3953 145.628 99.0648C145.628 98.7343 145.25 98.4662 144.784 98.4662H105.004Z" fill="#262626"/>
<path d="M144.62 134.185H77.7001C77.0161 134.185 76.4617 133.79 76.4609 133.304V121.493C76.4617 121.006 77.0161 120.611 77.7001 120.611H144.62C145.304 120.611 145.858 121.006 145.859 121.493V133.303C145.858 133.79 145.304 134.185 144.62 134.185ZM77.7001 120.963C77.2897 120.963 76.957 121.2 76.9566 121.492V133.303C76.9566 133.595 77.2897 133.832 77.7001 133.832H144.62C145.03 133.832 145.363 133.595 145.363 133.303V121.493C145.363 121.201 145.03 120.964 144.62 120.964L77.7001 120.963Z" fill="white"/>
<path d="M84.5721 130.387C86.2256 130.387 87.566 129.046 87.566 127.393C87.566 125.739 86.2256 124.399 84.5721 124.399C82.9186 124.399 81.5781 125.739 81.5781 127.393C81.5781 129.046 82.9186 130.387 84.5721 130.387Z" fill="#134B7C"/>
<path d="M93.0173 124.999C92.8586 124.998 92.7063 125.061 92.5938 125.173C92.4814 125.286 92.4182 125.438 92.418 125.596C92.4178 125.755 92.4806 125.908 92.5927 126.02C92.7049 126.132 92.857 126.196 93.0158 126.196H121.238C121.397 126.196 121.549 126.133 121.662 126.021C121.774 125.908 121.837 125.756 121.837 125.597C121.837 125.439 121.774 125.286 121.662 125.174C121.549 125.062 121.397 124.999 121.238 124.999H93.0173Z" fill="#0C3253"/>
<path d="M93.0173 128.59C92.9387 128.59 92.8609 128.606 92.7882 128.636C92.7155 128.666 92.6495 128.71 92.5938 128.765C92.4814 128.877 92.4182 129.029 92.418 129.188C92.4178 129.347 92.4806 129.499 92.5927 129.612C92.7049 129.724 92.857 129.787 93.0158 129.788H105.161C105.319 129.788 105.472 129.725 105.584 129.613C105.697 129.501 105.76 129.348 105.76 129.19C105.76 129.031 105.697 128.879 105.585 128.766C105.473 128.654 105.321 128.591 105.162 128.59H93.0173Z" fill="#0C3253"/>
<path d="M104.712 102.052C104.562 102.064 104.422 102.132 104.319 102.243C104.217 102.354 104.16 102.5 104.16 102.651C104.16 102.802 104.217 102.947 104.319 103.058C104.422 103.169 104.562 103.237 104.712 103.249H130.783C130.934 103.237 131.074 103.169 131.176 103.058C131.279 102.947 131.335 102.802 131.335 102.651C131.335 102.5 131.279 102.354 131.176 102.243C131.074 102.132 130.934 102.064 130.783 102.052H104.712Z" fill="#262626"/>
<path d="M104.885 105.638C104.485 105.638 104.16 105.907 104.16 106.237C104.16 106.568 104.485 106.836 104.885 106.836H139.059C139.459 106.836 139.784 106.568 139.784 106.237C139.784 105.907 139.459 105.638 139.059 105.638H104.885Z" fill="#262626"/>
</svg>
