<svg width="251" height="148" viewBox="0 0 251 148" fill="none" xmlns="http://www.w3.org/2000/svg">
<path d="M246.43 1H4.57017C2.59842 1 1 2.59843 1 4.57018V143.43C1 145.402 2.59843 147 4.57018 147H246.43C248.402 147 250 145.402 250 143.43V4.57017C250 2.59842 248.402 1 246.43 1Z" stroke="#A1A1A1" stroke-width="0.542274" stroke-miterlimit="10"/>
<path d="M6.18429 6.78107C7.21806 6.78107 8.05609 5.94303 8.05609 4.90927C8.05609 3.87551 7.21806 3.03748 6.18429 3.03748C5.15053 3.03748 4.3125 3.87551 4.3125 4.90927C4.3125 5.94303 5.15053 6.78107 6.18429 6.78107Z" fill="#A1A1A1"/>
<path d="M12.5124 6.78107C13.5462 6.78107 14.3842 5.94303 14.3842 4.90927C14.3842 3.87551 13.5462 3.03748 12.5124 3.03748C11.4787 3.03748 10.6406 3.87551 10.6406 4.90927C10.6406 5.94303 11.4787 6.78107 12.5124 6.78107Z" fill="#A1A1A1"/>
<path d="M19.1413 6.78131C20.1751 6.78131 21.0131 5.94328 21.0131 4.90951C21.0131 3.87575 20.1751 3.03772 19.1413 3.03772C18.1076 3.03772 17.2695 3.87575 17.2695 4.90951C17.2695 5.94328 18.1076 6.78131 19.1413 6.78131Z" fill="#A1A1A1"/>
<path d="M1 9.11182H250" stroke="#A1A1A1" stroke-width="0.542274" stroke-miterlimit="10"/>
<path d="M210.593 108.187H29.5977V129.56H210.593V108.187Z" fill="#0A2F4F"/>
<path d="M226.888 34.4625H119.211V89.1128H226.888V34.4625Z" fill="#0A2F4F"/>
<path d="M138.109 84.1081L162.497 43.391L187.793 84.1081" fill="#0A74E6"/>
<path d="M175.127 63.276L179.997 50.5603L207.593 84.108H174.992L175.127 63.276Z" fill="#0A74E6"/>
<path d="M169.872 58.224C170.63 57.7601 171.289 57.1514 171.811 56.4326C172.334 55.7138 172.71 54.8991 172.918 54.035C173.125 53.1709 173.161 52.2743 173.021 51.3965C172.882 50.5188 172.572 49.677 172.107 48.9194C171.643 48.1617 171.033 47.5031 170.314 46.981C169.595 46.4589 168.78 46.0837 167.916 45.8768C167.051 45.6699 166.155 45.6353 165.277 45.7751C164.4 45.9148 163.558 46.2262 162.801 46.6913" fill="#0A74E6"/>
<path d="M95.8645 40.4149H17.4062V46.0964H95.8645V40.4149Z" fill="#0A2F4F"/>
<path d="M95.8645 53.9424H17.4062V59.6238H95.8645V53.9424Z" fill="#0A2F4F"/>
<path d="M95.8645 67.4696H17.4062V73.1511H95.8645V67.4696Z" fill="#0A2F4F"/>
<path d="M98.302 38.5211H19.8438V44.2026H98.302V38.5211Z" stroke="#A1A1A1" stroke-width="0.39734" stroke-miterlimit="10"/>
<path d="M98.302 52.0483H19.8438V57.7298H98.302V52.0483Z" stroke="#A1A1A1" stroke-width="0.39734" stroke-miterlimit="10"/>
<path d="M98.302 65.5757H19.8438V71.2571H98.302V65.5757Z" stroke="#A1A1A1" stroke-width="0.39734" stroke-miterlimit="10"/>
<path d="M233.291 27.5642H125.613V82.2145H233.291V27.5642Z" stroke="white" stroke-width="0.39734" stroke-miterlimit="10"/>
<path d="M216.995 103.317H36V124.69H216.995V103.317Z" stroke="white" stroke-width="0.39734" stroke-miterlimit="10"/>
<path d="M139.328 82.2145L163.716 41.4973L189.012 82.2145" stroke="white" stroke-width="0.361218" stroke-miterlimit="10"/>
<path d="M175.906 60.8411L180.776 48.1255L208.372 82.2143" stroke="white" stroke-width="0.361218" stroke-miterlimit="10"/>
<path d="M171.7 54.4366C172.458 53.9727 173.117 53.3639 173.64 52.6451C174.162 51.9263 174.538 51.1116 174.746 50.2475C174.953 49.3834 174.989 48.4868 174.85 47.6091C174.711 46.7313 174.4 45.8895 173.935 45.1319C173.471 44.3742 172.862 43.7156 172.142 43.1935C171.423 42.6715 170.608 42.2962 169.744 42.0893C168.88 41.8824 167.983 41.8478 167.105 41.9876C166.228 42.1274 165.386 42.4387 164.629 42.9039" stroke="white" stroke-width="0.361218" stroke-miterlimit="10"/>
</svg>
