<svg width="235" height="146" viewBox="0 0 235 146" fill="none" xmlns="http://www.w3.org/2000/svg">
<circle cx="14.1269" cy="57.9393" r="14.1269" fill="#0A2F4F"/>
<circle cx="16.0253" cy="55.2348" r="13.9917" stroke="white" stroke-width="0.270447"/>
<path d="M14.136 49.2308C13.5267 49.2308 12.6129 49.5354 12.6129 50.7539C12.6129 51.9723 12.6129 52.5816 12.6129 53.4954C12.6129 54.4092 11.0898 55.0184 11.0898 55.0184C11.0898 55.0184 12.6129 55.6277 12.6129 56.5415C12.6129 57.4553 12.6129 58.6738 12.6129 59.8922C12.6129 61.1107 13.5267 61.4153 14.136 61.4153" stroke="#0A74E6" stroke-width="1.21844" stroke-linecap="round" stroke-linejoin="round"/>
<path d="M18.9336 49.2308C19.5428 49.2308 20.4566 49.5354 20.4566 50.7539C20.4566 51.9723 20.4566 52.5816 20.4566 53.4954C20.4566 54.4092 21.9797 55.0184 21.9797 55.0184C21.9797 55.0184 20.4566 55.6277 20.4566 56.5415C20.4566 57.4553 20.4566 58.6738 20.4566 59.8922C20.4566 61.1107 19.5428 61.4153 18.9336 61.4153" stroke="#0A74E6" stroke-width="1.21844" stroke-linecap="round" stroke-linejoin="round"/>
<path d="M108.586 62.2869L108.587 62.2868C108.789 62.264 108.982 62.1953 109.151 62.0868L104.684 23.5831L108.586 62.2869ZM108.586 62.2869L71.3508 66.6076M108.586 62.2869L71.3508 66.6076M71.3508 66.6076L66.8675 27.9712C66.8675 27.9711 66.8675 27.971 66.8675 27.971C66.778 27.1915 67.0013 26.4083 67.4885 25.7933C67.9756 25.1783 68.6867 24.7816 69.466 24.6901C69.4661 24.6901 69.4662 24.6901 69.4663 24.6901L101.402 20.9843L71.3508 66.6076ZM103.58 21.6053C104.195 22.0924 104.592 22.8035 104.683 23.5827L101.403 20.9843C102.182 20.8948 102.965 21.1181 103.58 21.6053Z" fill="black" stroke="#A1A1A1" stroke-width="0.581297"/>
<path d="M97.3919 52.2672L75.4207 54.8166C75.3266 54.8275 75.2355 54.8569 75.1527 54.903C75.0699 54.9491 74.997 55.0111 74.9382 55.0854C74.8193 55.2354 74.765 55.4265 74.787 55.6166C74.8091 55.8067 74.9058 55.9803 75.0558 56.0991C75.2059 56.218 75.3969 56.2723 75.5871 56.2503L97.5583 53.7008C97.6524 53.6899 97.7435 53.6605 97.8263 53.6144C97.9091 53.5683 97.982 53.5063 98.0408 53.4321C98.0997 53.3578 98.1433 53.2726 98.1692 53.1815C98.1952 53.0903 98.2029 52.9949 98.192 52.9008C98.181 52.8067 98.1517 52.7156 98.1056 52.6328C98.0594 52.55 97.9975 52.4771 97.9232 52.4183C97.8489 52.3595 97.7637 52.3158 97.6726 52.2899C97.5814 52.264 97.4861 52.2562 97.3919 52.2672Z" fill="#262626"/>
<path d="M97.0607 49.4364L75.0894 51.9859C74.9952 51.9967 74.9041 52.0259 74.8212 52.0719C74.7384 52.1179 74.6654 52.1798 74.6064 52.2541C74.5475 52.3283 74.5038 52.4134 74.4778 52.5046C74.4518 52.5958 74.4441 52.6911 74.455 52.7853C74.4659 52.8795 74.4953 52.9705 74.5415 53.0533C74.5877 53.1361 74.6497 53.209 74.7241 53.2678C74.7984 53.3265 74.8837 53.3701 74.9749 53.3959C75.0661 53.4217 75.1615 53.4293 75.2556 53.4181L97.2269 50.8687C97.321 50.8578 97.412 50.8285 97.4948 50.7825C97.5776 50.7365 97.6505 50.6746 97.7094 50.6003C97.7682 50.5261 97.8119 50.441 97.8378 50.3499C97.8637 50.2588 97.8715 50.1635 97.8606 50.0694C97.8496 49.9753 97.8203 49.8842 97.7742 49.8015C97.728 49.7188 97.6661 49.6459 97.5918 49.5871C97.5175 49.5284 97.4324 49.4848 97.3412 49.4589C97.2501 49.4331 97.1548 49.4254 97.0607 49.4364Z" fill="#262626"/>
<path d="M84.2899 48.0484L74.7657 49.1536C74.6716 49.1645 74.5805 49.1938 74.4977 49.24C74.415 49.2861 74.3421 49.348 74.2832 49.4223C74.2244 49.4966 74.1808 49.5818 74.1548 49.6729C74.1289 49.7641 74.1212 49.8594 74.1321 49.9536C74.143 50.0477 74.1724 50.1388 74.2185 50.2216C74.2646 50.3044 74.3266 50.3772 74.4009 50.4361C74.4752 50.4949 74.5603 50.5386 74.6515 50.5645C74.7426 50.5904 74.838 50.5982 74.9321 50.5872L84.4563 49.4821C84.5504 49.4711 84.6415 49.4418 84.7243 49.3957C84.8071 49.3495 84.88 49.2876 84.9388 49.2133C84.9977 49.139 85.0413 49.0538 85.0672 48.9627C85.0932 48.8715 85.1009 48.7762 85.09 48.682C85.079 48.5879 85.0497 48.4968 85.0036 48.414C84.9574 48.3312 84.8955 48.2584 84.8212 48.1995C84.7469 48.1407 84.6617 48.097 84.5706 48.0711C84.4794 48.0452 84.3841 48.0375 84.2899 48.0484Z" fill="#262626"/>
<path d="M95.7726 39.5086L73.8798 42.6615C73.6904 42.6887 73.5195 42.7902 73.4049 42.9434C73.2902 43.0966 73.2411 43.2892 73.2684 43.4786C73.2957 43.668 73.3971 43.8389 73.5503 43.9535C73.7036 44.0682 73.8961 44.1173 74.0855 44.09L95.9784 40.9371C96.0722 40.9236 96.1624 40.8918 96.2439 40.8434C96.3254 40.795 96.3965 40.731 96.4533 40.6552C96.5101 40.5793 96.5514 40.493 96.5748 40.4011C96.5982 40.3093 96.6033 40.2138 96.5898 40.12C96.5763 40.0262 96.5444 39.9359 96.496 39.8545C96.4477 39.773 96.3837 39.7018 96.3078 39.645C96.2319 39.5883 96.1456 39.547 96.0538 39.5236C95.962 39.5001 95.8664 39.4951 95.7726 39.5086Z" fill="#262626"/>
<path d="M95.3664 36.6881L73.4735 39.841C73.3797 39.8545 73.2895 39.8863 73.208 39.9347C73.1265 39.9831 73.0554 40.047 72.9986 40.1229C72.884 40.2761 72.8349 40.4687 72.8621 40.6581C72.8894 40.8475 72.9908 41.0184 73.1441 41.133C73.2973 41.2477 73.4899 41.2968 73.6793 41.2695L95.5721 38.1167C95.6659 38.1031 95.7561 38.0713 95.8376 38.0229C95.9191 37.9745 95.9903 37.9106 96.047 37.8347C96.1038 37.7588 96.1451 37.6725 96.1685 37.5807C96.1919 37.4888 96.197 37.3933 96.1835 37.2995C96.17 37.2057 96.1382 37.1155 96.0898 37.034C96.0414 36.9525 95.9774 36.8813 95.9016 36.8246C95.8257 36.7678 95.7394 36.7265 95.6475 36.7031C95.5557 36.6797 95.4602 36.6746 95.3664 36.6881Z" fill="#262626"/>
<path d="M82.5538 35.6519L73.0636 37.0186C72.8741 37.0459 72.7033 37.1473 72.5886 37.3006C72.474 37.4538 72.4249 37.6463 72.4522 37.8358C72.4795 38.0252 72.5809 38.196 72.7341 38.3107C72.8874 38.4254 73.0799 38.4744 73.2693 38.4472L82.7595 37.0804C82.8533 37.0669 82.9435 37.0351 83.025 36.9867C83.1065 36.9383 83.1777 36.8744 83.2345 36.7985C83.2912 36.7226 83.3325 36.6363 83.3559 36.5444C83.3793 36.4526 83.3844 36.3571 83.3709 36.2633C83.3574 36.1695 83.3256 36.0793 83.2772 35.9978C83.2288 35.9163 83.1649 35.8451 83.089 35.7883C83.0131 35.7316 82.9268 35.6903 82.8349 35.6669C82.7431 35.6435 82.6476 35.6384 82.5538 35.6519Z" fill="#262626"/>
<path d="M56.4822 54.2335C56.2777 54.2337 56.0817 54.315 55.9371 54.4596C55.7925 54.6042 55.7112 54.8002 55.7109 55.0047V134.752C55.7112 134.956 55.7925 135.152 55.9371 135.297C56.0817 135.441 56.2777 135.523 56.4822 135.523H156.469C156.673 135.523 156.869 135.441 157.014 135.297C157.159 135.152 157.24 134.956 157.24 134.752V67.8058C157.24 67.6013 157.159 67.4052 157.014 67.2606C156.869 67.116 156.673 67.0347 156.469 67.0344H99.0831C98.5005 67.0349 97.9388 66.8179 97.5079 66.4258L84.6067 54.7036C84.2739 54.4008 83.84 54.2331 83.39 54.2335H56.4822Z" fill="#2F2F2F"/>
<path d="M190.876 23.4934L137.339 0.476794C135.903 -0.138383 134.282 -0.159047 132.831 0.419331C131.381 0.997709 130.219 2.1279 129.6 3.56197L101.547 68.8147L164.45 95.8579C164.966 96.0816 165.535 96.152 166.09 96.0607L193.961 31.2318C194.576 29.7963 194.597 28.1754 194.019 26.7247C193.44 25.274 192.31 24.1119 190.876 23.4934Z" fill="#0A2F4F"/>
<path d="M149.288 105.616L149.288 105.616C149.712 105.8 150.175 105.87 150.632 105.82L178.443 41.1318L149.288 105.616ZM149.288 105.616L86.6326 78.6796M149.288 105.616L86.6326 78.6796M86.6326 78.6796L114.579 13.6756L86.6326 78.6796ZM121.962 10.7319L175.499 33.7483L121.962 10.7319ZM121.962 10.7319C120.593 10.1449 119.046 10.1252 117.662 10.6771C116.278 11.2289 115.169 12.3071 114.579 13.6753L121.962 10.7319ZM178.498 36.8314C179.05 38.2155 179.03 39.7619 178.443 41.1315L175.5 33.7484C176.868 34.3385 177.946 35.4473 178.498 36.8314Z" fill="black" stroke="#A1A1A1" stroke-width="0.540894"/>
<path d="M139.013 18.3904L121.299 10.8179L89.6562 81.1341L126.167 96.6848L139.013 18.3904Z" fill="black"/>
<path d="M89.7635 27.8392L72.5153 29.9662C72.1711 30.0087 71.8579 30.1863 71.6446 30.4597C71.4313 30.7332 71.3353 31.0802 71.3778 31.4244C71.4202 31.7686 71.5976 32.0818 71.871 32.2953C72.1443 32.5087 72.4913 32.6048 72.8355 32.5625L90.0837 30.4356C90.2542 30.4146 90.419 30.3603 90.5685 30.2756C90.718 30.191 90.8494 30.0777 90.9551 29.9423C91.0609 29.8069 91.1389 29.6519 91.1847 29.4864C91.2306 29.3208 91.2434 29.1478 91.2223 28.9772C91.2013 28.8067 91.1469 28.642 91.0622 28.4925C90.9775 28.343 90.8642 28.2117 90.7287 28.106C90.5932 28.0003 90.4383 27.9224 90.2727 27.8766C90.1071 27.8308 89.9341 27.8181 89.7635 27.8392L89.7635 27.8392Z" fill="#488CC8"/>
<path d="M104.002 96.9762L104.003 96.976C104.201 96.932 104.385 96.8433 104.543 96.7175L96.0348 58.9007L104.002 96.9762ZM104.002 96.9762L67.4307 105.204M104.002 96.9762L67.4307 105.204M67.4307 105.204L58.8934 67.2567C58.8934 67.2567 58.8934 67.2566 58.8934 67.2566C58.7221 66.4909 58.8615 65.6885 59.281 65.0255C59.7005 64.3625 60.3657 63.8929 61.1309 63.7197C61.131 63.7197 61.1312 63.7196 61.1313 63.7196L92.4977 56.6628L67.4307 105.204ZM94.729 57.0504C95.392 57.4699 95.8616 58.1352 96.0347 58.9004L92.498 56.6628C93.2637 56.4915 94.066 56.6309 94.729 57.0504Z" fill="black" stroke="#A1A1A1" stroke-width="0.581297"/>
<path d="M116.659 89.9581L116.658 89.9578C116.464 89.8986 116.287 89.7957 116.14 89.6579L127.576 52.6213L116.659 89.9581ZM116.659 89.9581L152.476 101.017M116.659 89.9581L152.476 101.017M152.476 101.017L163.951 63.8531C163.951 63.853 163.951 63.853 163.951 63.8529C164.182 63.103 164.105 62.2922 163.739 61.5984C163.373 60.9046 162.746 60.3845 161.997 60.1521C161.997 60.1521 161.996 60.152 161.996 60.152L131.277 50.6666L152.476 101.017ZM129.022 50.8787C128.329 51.2451 127.808 51.8716 127.576 52.621L131.277 50.6665C130.527 50.436 129.716 50.5123 129.022 50.8787Z" fill="black" stroke="#A1A1A1" stroke-width="0.581297"/>
<path d="M93.1218 82.1683L64.3477 88.5626L68.7074 73.7395L76.2642 80.7151L80.0427 67.3453L93.1218 82.1683Z" fill="#134B7C"/>
<path d="M86.5626 94.0775L86.5616 94.0775C86.3588 94.0734 86.1602 94.0227 85.9811 93.9303L86.888 55.1788L86.5626 94.0775ZM86.5626 94.0775L124.037 94.9545M86.5626 94.0775L124.037 94.9545M124.037 94.9545L124.947 56.0695C124.947 56.0695 124.947 56.0694 124.947 56.0694C124.965 55.2849 124.67 54.5257 124.129 53.958C123.587 53.3904 122.842 53.0608 122.058 53.0415C122.058 53.0415 122.058 53.0415 122.058 53.0414L89.9161 52.2892L124.037 94.9545ZM87.8046 53.1079C87.237 53.6495 86.9074 54.3942 86.888 55.1785L89.9158 52.2892C89.1314 52.2719 88.3722 52.5663 87.8046 53.1079Z" fill="black" stroke="#A1A1A1" stroke-width="0.581297"/>
<circle cx="71.0338" cy="67.6357" r="2.61583" fill="#2768A2"/>
<path d="M151.094 86.9812L123.647 76.2338L135.535 66.3647L137.914 76.3698L148.509 67.3824L151.094 86.9812Z" fill="#0C3253"/>
<circle cx="142.53" cy="60.0789" r="2.61583" fill="#134B7C"/>
<path d="M50.3035 75.9956C50.1965 75.9956 50.0905 76.0151 49.9916 76.0529C49.8927 76.0908 49.8028 76.1463 49.7271 76.2163C49.6514 76.2862 49.5914 76.3693 49.5504 76.4607C49.5094 76.5522 49.4883 76.6502 49.4883 76.7491C49.4883 76.7774 49.5134 134.825 49.5134 134.825C49.5357 135.009 49.6307 135.179 49.7801 135.302C49.9296 135.426 50.123 135.494 50.3234 135.494H163.849C164.049 135.494 164.243 135.426 164.392 135.302C164.542 135.179 164.637 135.009 164.659 134.825L171.725 76.8338C171.738 76.7283 171.727 76.6216 171.692 76.5205C171.657 76.4194 171.6 76.3262 171.523 76.2471C171.447 76.1675 171.353 76.104 171.249 76.0606C171.144 76.0172 171.03 75.9951 170.915 75.9956L50.3035 75.9956Z" fill="#6D6D6D"/>
<path d="M140.99 30.8564C140.932 30.7055 140.844 30.5678 140.732 30.4511C140.62 30.3344 140.486 30.241 140.337 30.1764C140.189 30.1118 140.029 30.0771 139.868 30.0745C139.706 30.0719 139.545 30.1013 139.395 30.1611L131.329 33.3306C131.178 33.3891 131.041 33.477 130.924 33.589C130.807 33.7011 130.714 33.8351 130.649 33.9835C130.585 34.1318 130.55 34.2914 130.547 34.4532C130.545 34.615 130.574 34.7756 130.634 34.926L133.803 42.9917C133.862 43.1425 133.95 43.2802 134.062 43.3969C134.174 43.5136 134.308 43.607 134.456 43.6716C134.605 43.7363 134.764 43.7709 134.926 43.7735C135.088 43.7761 135.249 43.7467 135.399 43.6869C135.55 43.6284 135.687 43.5405 135.804 43.4285C135.921 43.3164 136.014 43.1824 136.079 43.0341C136.143 42.8857 136.178 42.7261 136.181 42.5643C136.183 42.4026 136.154 42.2419 136.094 42.0915L133.363 35.1663L140.295 32.4518C140.446 32.3932 140.584 32.3054 140.7 32.1933C140.817 32.0813 140.91 31.9472 140.975 31.7989C141.04 31.6506 141.074 31.4909 141.077 31.3292C141.08 31.1674 141.05 31.0067 140.99 30.8564ZM150.901 41.8598L147.731 33.7941C147.672 33.6437 147.584 33.5064 147.472 33.39C147.36 33.2737 147.226 33.1806 147.078 33.116C146.779 32.9856 146.44 32.9795 146.136 33.0988C145.986 33.1579 145.848 33.2461 145.732 33.3582C145.616 33.4704 145.523 33.6044 145.458 33.7525C145.328 34.0517 145.321 34.3905 145.441 34.6942L148.171 41.6195L141.24 44.334C141.089 44.3925 140.951 44.4804 140.835 44.5924C140.718 44.7045 140.625 44.8385 140.56 44.9869C140.495 45.1352 140.461 45.2948 140.458 45.4566C140.455 45.6184 140.485 45.779 140.545 45.9294C140.603 46.0802 140.691 46.2179 140.803 46.3346C140.915 46.4514 141.049 46.5447 141.197 46.6093C141.346 46.674 141.505 46.7086 141.667 46.7112C141.829 46.7139 141.99 46.6844 142.14 46.6246L150.206 43.4552C150.356 43.3966 150.494 43.3088 150.611 43.1967C150.728 43.0847 150.821 42.9506 150.886 42.8023C150.95 42.654 150.985 42.4943 150.988 42.3326C150.99 42.1708 150.961 42.0101 150.901 41.8598Z" fill="#0A74E6"/>
<path d="M91.5552 58.4367C91.2551 58.4321 90.8027 58.5753 90.7935 59.1755C90.7843 59.7757 90.7797 60.0758 90.7729 60.526C90.766 60.9762 90.0111 61.2648 90.0111 61.2648C90.0111 61.2648 90.7568 61.5764 90.7499 62.0266C90.743 62.4767 90.7339 63.077 90.7247 63.6772C90.7155 64.2774 91.1634 64.4343 91.4635 64.4389" stroke="#0A74E6" stroke-width="0.600293" stroke-linecap="round" stroke-linejoin="round"/>
<path d="M119.531 67.6118C119.831 67.6174 120.279 67.7758 120.268 68.376C120.256 68.9762 120.251 69.2763 120.243 69.7264C120.234 70.1765 120.979 70.4905 120.979 70.4905C120.979 70.4905 120.223 70.7767 120.215 71.2269C120.206 71.677 120.195 72.2772 120.184 72.8774C120.173 73.4776 119.72 73.6193 119.42 73.6137" stroke="#0A74E6" stroke-width="0.600293" stroke-linecap="round" stroke-linejoin="round"/>
<rect width="15.8546" height="0.811341" rx="0.405671" transform="matrix(0.9998 0.0199849 -0.0188155 0.999823 93.8516 60.9832)" fill="#0A74E6"/>
<rect width="3.48017" height="0.811341" rx="0.40567" transform="matrix(0.999804 0.0197801 -0.0190008 0.999819 111.426 61.3303)" fill="#0A74E6"/>
<rect width="5.00138" height="0.811341" rx="0.40567" transform="matrix(0.999804 0.0197801 -0.0190008 0.999819 116.289 61.3769)" fill="#0A74E6"/>
<rect width="6.2817" height="0.811341" rx="0.40567" transform="matrix(0.999865 0.0164358 -0.0152598 0.999884 89.5156 69.4234)" fill="#0A74E6"/>
<rect width="19.0239" height="0.811341" rx="0.40567" transform="matrix(0.999868 0.0162245 -0.0154513 0.999881 97.625 69.5536)" fill="#0A74E6"/>
<path d="M164.691 146H234.017V110.904H164.691V146Z" fill="#0A2F4F"/>
<path d="M145.395 140.557H219.179V103.204H145.395V140.557Z" fill="black"/>
<path d="M219.614 140.991H144.961V102.77H219.614V140.991ZM145.395 140.557H219.179V103.204H145.395V140.557Z" fill="#A1A1A1"/>
<path d="M166.161 115.774H158.645V116.4H166.161V115.774Z" fill="#0A74E6"/>
<path d="M176.18 115.774H168.664V116.4H176.18V115.774Z" fill="#0A74E6"/>
<path d="M190.743 121.568H183.227V122.194H190.743V121.568Z" fill="#0A74E6"/>
<path d="M200.919 121.568H193.402V122.194H200.919V121.568Z" fill="#0A74E6"/>
<path d="M200.919 115.774H178.84V116.4H200.919V115.774Z" fill="#0A74E6"/>
<path d="M180.723 121.568H158.645V122.194H180.723V121.568Z" fill="#0A74E6"/>
<path d="M180.723 127.361H158.645V127.988H180.723V127.361Z" fill="#0A74E6"/>
<path d="M200.92 127.361H185.574V127.988H200.92V127.361Z" fill="#0A74E6"/>
<path d="M156.527 118.418L153.883 115.774L156.527 113.129L157.056 113.659L154.941 115.774L157.056 117.889L156.527 118.418Z" fill="#0A74E6"/>
<path d="M208.041 130.632L207.512 130.103L209.627 127.987L207.512 125.872L208.041 125.343L210.685 127.987L208.041 130.632Z" fill="#0A74E6"/>
<path d="M205.261 125.217L203.695 130.384L204.411 130.601L205.977 125.434L205.261 125.217Z" fill="#0A74E6"/>
</svg>
