<svg width="254" height="146" viewBox="0 0 254 146" fill="none" xmlns="http://www.w3.org/2000/svg">
<rect x="98.1329" y="17.0135" width="56.77" height="109.831" rx="5.13498" stroke="white" stroke-width="0.570553"/>
<rect x="102.125" y="21.578" width="48.7823" height="101.273" rx="4.27915" fill="#0A2F4F"/>
<path d="M117.669 88.6614H113.697C113.522 88.6612 113.353 88.5914 113.229 88.4673C113.105 88.3432 113.035 88.175 113.035 87.9995V85.1628C113.035 84.9873 113.105 84.819 113.229 84.6949C113.353 84.5709 113.522 84.5011 113.697 84.5009H117.669C117.844 84.5011 118.012 84.5709 118.136 84.6949C118.26 84.819 118.33 84.9873 118.33 85.1628V87.9995C118.33 88.175 118.26 88.3432 118.136 88.4673C118.012 88.5914 117.844 88.6612 117.669 88.6614ZM113.697 84.8791C113.622 84.8792 113.55 84.9091 113.497 84.9623C113.443 85.0155 113.413 85.0876 113.413 85.1628V87.9995C113.413 88.0747 113.443 88.1468 113.497 88.2C113.55 88.2532 113.622 88.2831 113.697 88.2832H117.669C117.744 88.2831 117.816 88.2532 117.869 88.2C117.922 88.1468 117.952 88.0747 117.952 87.9995V85.1628C117.952 85.0876 117.922 85.0154 117.869 84.9623C117.816 84.9091 117.744 84.8792 117.669 84.8791L113.697 84.8791Z" fill="#A1A1A1"/>
<path d="M115.68 86.9597C115.638 86.9598 115.597 86.9457 115.564 86.9199L113.862 85.5961C113.842 85.5808 113.826 85.5619 113.814 85.5403C113.802 85.5187 113.794 85.4949 113.791 85.4703C113.787 85.4456 113.789 85.4206 113.796 85.3967C113.802 85.3727 113.814 85.3503 113.829 85.3307C113.844 85.3111 113.863 85.2947 113.885 85.2824C113.906 85.2701 113.93 85.2622 113.955 85.2591C113.979 85.2561 114.004 85.2579 114.028 85.2645C114.052 85.271 114.075 85.2823 114.094 85.2975L115.68 86.531L117.266 85.2975C117.286 85.2823 117.308 85.271 117.332 85.2645C117.356 85.2579 117.381 85.2561 117.406 85.2591C117.43 85.2622 117.454 85.2701 117.476 85.2824C117.497 85.2947 117.516 85.3111 117.532 85.3307C117.547 85.3503 117.558 85.3727 117.565 85.3967C117.571 85.4206 117.573 85.4456 117.57 85.4703C117.567 85.4949 117.559 85.5187 117.547 85.5403C117.534 85.5619 117.518 85.5808 117.498 85.5961L115.796 86.9199C115.763 86.9457 115.722 86.9598 115.68 86.9597Z" fill="#A1A1A1"/>
<path d="M115.68 91.2884C114.749 91.2884 113.839 91.0123 113.065 90.4951C112.291 89.9779 111.687 89.2427 111.331 88.3826C110.975 87.5225 110.881 86.5761 111.063 85.663C111.245 84.7499 111.693 83.9112 112.351 83.2529C113.01 82.5946 113.848 82.1463 114.761 81.9647C115.674 81.7831 116.621 81.8763 117.481 82.2326C118.341 82.5888 119.076 83.1922 119.593 83.9662C120.111 84.7403 120.387 85.6504 120.387 86.5813C120.385 87.8293 119.889 89.0257 119.007 89.9082C118.124 90.7906 116.928 91.287 115.68 91.2884ZM115.68 82.0835C114.79 82.0835 113.921 82.3473 113.181 82.8415C112.441 83.3357 111.865 84.0382 111.524 84.8601C111.184 85.682 111.095 86.5863 111.268 87.4588C111.442 88.3313 111.87 89.1328 112.499 89.7618C113.128 90.3908 113.93 90.8192 114.802 90.9928C115.675 91.1663 116.579 91.0772 117.401 90.7368C118.223 90.3964 118.925 89.8199 119.42 89.0802C119.914 88.3405 120.178 87.4709 120.178 86.5813C120.176 85.3888 119.702 84.2456 118.859 83.4024C118.015 82.5591 116.872 82.0848 115.68 82.0835Z" fill="#A1A1A1"/>
<path d="M246.746 55.9752C246.71 55.9752 246.674 55.9645 246.644 55.9443C246.614 55.9242 246.59 55.8955 246.576 55.862C246.563 55.8285 246.559 55.7917 246.566 55.7561C246.573 55.7205 246.591 55.6878 246.616 55.6622L247.808 54.4702C247.843 54.4362 247.889 54.4172 247.938 54.4174C247.986 54.4176 248.032 54.4369 248.067 54.4711C248.101 54.5054 248.12 54.5517 248.12 54.6001C248.12 54.6485 248.102 54.695 248.068 54.7295L246.876 55.9215C246.859 55.9386 246.838 55.9521 246.816 55.9613C246.794 55.9705 246.77 55.9753 246.746 55.9752ZM249.772 55.5168C249.735 55.5168 249.7 55.506 249.67 55.4859C249.64 55.4657 249.616 55.4371 249.602 55.4036C249.588 55.3701 249.585 55.3332 249.592 55.2976C249.599 55.262 249.616 55.2294 249.642 55.2037L250.651 54.1951C250.685 54.1611 250.732 54.1422 250.78 54.1423C250.828 54.1425 250.875 54.1618 250.909 54.196C250.943 54.2303 250.963 54.2766 250.963 54.3251C250.963 54.3735 250.944 54.42 250.91 54.4544L249.901 55.4631C249.884 55.4801 249.864 55.4936 249.842 55.5029C249.82 55.5121 249.796 55.5168 249.772 55.5168ZM249.222 55.5168C249.197 55.5168 249.174 55.5121 249.151 55.5029C249.129 55.4936 249.109 55.4801 249.092 55.4631L248.358 54.7295C248.341 54.7125 248.327 54.6923 248.318 54.67C248.309 54.6477 248.304 54.6238 248.304 54.5996C248.304 54.5754 248.308 54.5514 248.318 54.5291C248.327 54.5067 248.34 54.4864 248.357 54.4693C248.375 54.4522 248.395 54.4386 248.417 54.4294C248.44 54.4202 248.464 54.4155 248.488 54.4156C248.512 54.4156 248.536 54.4205 248.558 54.4299C248.581 54.4393 248.601 54.453 248.618 54.4702L249.351 55.2037C249.377 55.2294 249.394 55.262 249.401 55.2976C249.409 55.3332 249.405 55.3701 249.391 55.4036C249.377 55.4371 249.354 55.4657 249.323 55.4859C249.293 55.506 249.258 55.5168 249.222 55.5168Z" fill="white"/>
<path d="M251.056 54.5082C250.965 54.5082 250.877 54.4813 250.801 54.431C250.726 54.3806 250.667 54.309 250.633 54.2252C250.598 54.1414 250.589 54.0493 250.606 53.9603C250.624 53.8714 250.668 53.7897 250.732 53.7256C250.796 53.6615 250.878 53.6178 250.967 53.6001C251.056 53.5824 251.148 53.5915 251.232 53.6262C251.315 53.6609 251.387 53.7197 251.437 53.7951C251.488 53.8705 251.515 53.9591 251.515 54.0498C251.514 54.1713 251.466 54.2879 251.38 54.3738C251.294 54.4598 251.178 54.5081 251.056 54.5082ZM251.056 53.9581C251.038 53.9581 251.02 53.9635 251.005 53.9735C250.99 53.9836 250.978 53.9979 250.971 54.0147C250.964 54.0314 250.963 54.0499 250.966 54.0677C250.97 54.0855 250.978 54.1018 250.991 54.1146C251.004 54.1274 251.02 54.1362 251.038 54.1397C251.056 54.1432 251.074 54.1414 251.091 54.1345C251.108 54.1275 251.122 54.1158 251.132 54.1007C251.142 54.0856 251.148 54.0679 251.148 54.0498C251.148 54.0255 251.138 54.0022 251.121 53.985C251.104 53.9678 251.08 53.9581 251.056 53.9581Z" fill="white"/>
<path d="M249.498 56.067C249.407 56.067 249.318 56.0401 249.243 55.9897C249.167 55.9393 249.109 55.8677 249.074 55.7839C249.039 55.7002 249.03 55.608 249.048 55.519C249.066 55.4301 249.109 55.3484 249.173 55.2843C249.237 55.2202 249.319 55.1765 249.408 55.1588C249.497 55.1411 249.589 55.1502 249.673 55.1849C249.757 55.2196 249.828 55.2784 249.879 55.3538C249.929 55.4292 249.956 55.5178 249.956 55.6085C249.956 55.73 249.908 55.8466 249.822 55.9325C249.736 56.0185 249.619 56.0668 249.498 56.067ZM249.498 55.5168C249.479 55.5168 249.462 55.5222 249.447 55.5323C249.432 55.5423 249.42 55.5566 249.413 55.5734C249.406 55.5902 249.404 55.6086 249.408 55.6264C249.411 55.6442 249.42 55.6605 249.433 55.6733C249.446 55.6862 249.462 55.6949 249.48 55.6984C249.497 55.702 249.516 55.7001 249.533 55.6932C249.549 55.6863 249.564 55.6745 249.574 55.6594C249.584 55.6444 249.589 55.6266 249.589 55.6085C249.589 55.5842 249.58 55.5609 249.562 55.5437C249.545 55.5265 249.522 55.5168 249.498 55.5168Z" fill="white"/>
<path d="M248.212 54.7833C248.122 54.7833 248.033 54.7564 247.958 54.706C247.882 54.6556 247.824 54.584 247.789 54.5002C247.754 54.4165 247.745 54.3243 247.763 54.2354C247.78 54.1464 247.824 54.0647 247.888 54.0006C247.952 53.9365 248.034 53.8928 248.123 53.8751C248.212 53.8575 248.304 53.8665 248.388 53.9012C248.472 53.9359 248.543 53.9947 248.594 54.0701C248.644 54.1455 248.671 54.2341 248.671 54.3248C248.671 54.4463 248.622 54.5629 248.536 54.6488C248.45 54.7348 248.334 54.7831 248.212 54.7833ZM248.212 54.2331C248.194 54.2331 248.177 54.2385 248.161 54.2486C248.146 54.2586 248.135 54.273 248.128 54.2897C248.121 54.3065 248.119 54.3249 248.122 54.3427C248.126 54.3605 248.135 54.3768 248.148 54.3896C248.16 54.4025 248.177 54.4112 248.194 54.4147C248.212 54.4183 248.231 54.4165 248.247 54.4095C248.264 54.4026 248.279 54.3908 248.289 54.3757C248.299 54.3607 248.304 54.3429 248.304 54.3248C248.304 54.3005 248.294 54.2772 248.277 54.26C248.26 54.2428 248.237 54.2331 248.212 54.2331Z" fill="white"/>
<path d="M246.474 56.5254C246.383 56.5254 246.295 56.4986 246.219 56.4482C246.144 56.3978 246.085 56.3262 246.051 56.2424C246.016 56.1587 246.007 56.0665 246.024 55.9775C246.042 55.8886 246.086 55.8069 246.15 55.7428C246.214 55.6787 246.296 55.635 246.385 55.6173C246.474 55.5996 246.566 55.6087 246.65 55.6434C246.733 55.6781 246.805 55.7369 246.855 55.8123C246.906 55.8877 246.933 55.9763 246.933 56.067C246.932 56.1885 246.884 56.3051 246.798 56.391C246.712 56.477 246.596 56.5253 246.474 56.5254ZM246.474 55.9753C246.456 55.9753 246.438 55.9807 246.423 55.9907C246.408 56.0008 246.396 56.0151 246.389 56.0319C246.382 56.0486 246.381 56.0671 246.384 56.0849C246.388 56.1027 246.396 56.119 246.409 56.1318C246.422 56.1446 246.438 56.1534 246.456 56.1569C246.474 56.1605 246.492 56.1586 246.509 56.1517C246.526 56.1448 246.54 56.133 246.55 56.1179C246.56 56.1028 246.566 56.0851 246.566 56.067C246.566 56.0427 246.556 56.0194 246.539 56.0022C246.522 55.985 246.498 55.9753 246.474 55.9753Z" fill="white"/>
<path d="M248.764 59.6229C247.861 59.6229 246.978 59.3552 246.228 58.8536C245.477 58.3521 244.892 57.6392 244.547 56.8052C244.201 55.9711 244.111 55.0534 244.287 54.168C244.463 53.2826 244.898 52.4693 245.536 51.8309C246.174 51.1926 246.988 50.7578 247.873 50.5817C248.759 50.4056 249.676 50.496 250.51 50.8415C251.344 51.1869 252.057 51.772 252.559 52.5226C253.06 53.2732 253.328 54.1557 253.328 55.0584C253.327 56.2686 252.845 57.4288 251.99 58.2845C251.134 59.1402 249.974 59.6215 248.764 59.6229ZM248.764 50.6969C247.901 50.6969 247.058 50.9527 246.34 51.4319C245.623 51.9112 245.064 52.5924 244.734 53.3893C244.404 54.1863 244.318 55.0633 244.486 55.9093C244.654 56.7554 245.07 57.5326 245.68 58.1425C246.29 58.7525 247.067 59.1679 247.913 59.3362C248.759 59.5045 249.636 59.4181 250.433 59.088C251.23 58.7579 251.911 58.1989 252.39 57.4816C252.869 56.7643 253.125 55.9211 253.125 55.0584C253.124 53.9021 252.664 52.7935 251.846 51.9758C251.029 51.1581 249.92 50.6982 248.764 50.6969Z" fill="white"/>
<g opacity="0.5">
<path d="M135.059 59.5222C134.863 59.5239 134.67 59.4845 134.491 59.4066C134.312 59.3286 134.151 59.2139 134.02 59.0698C133.863 58.889 133.746 58.6777 133.675 58.4493C133.605 58.221 133.582 57.9805 133.608 57.7429C133.646 57.2904 133.835 56.8639 134.146 56.5332C134.296 56.3717 134.477 56.2424 134.678 56.1533C134.879 56.0642 135.096 56.0171 135.316 56.0149C135.521 56.014 135.723 56.0562 135.91 56.1387C136.098 56.2212 136.265 56.3422 136.403 56.4938C136.559 56.6699 136.676 56.8763 136.748 57.1001C136.82 57.324 136.845 57.5603 136.821 57.7942C136.792 58.2743 136.585 58.7262 136.24 59.0617C135.92 59.3603 135.497 59.525 135.059 59.5222ZM135.316 56.5994C134.744 56.5994 134.25 57.1242 134.191 57.7942C134.171 57.951 134.184 58.1101 134.229 58.2617C134.274 58.4132 134.349 58.5539 134.451 58.675C134.528 58.7595 134.622 58.8267 134.726 58.8719C134.831 58.9172 134.944 58.9396 135.059 58.9376C135.594 58.9376 136.166 58.5682 136.239 57.7428C136.256 57.5897 136.241 57.4347 136.195 57.2877C136.149 57.1407 136.073 57.0048 135.972 56.8886C135.889 56.7971 135.788 56.724 135.675 56.6742C135.562 56.6244 135.44 56.5989 135.316 56.5994Z" fill="white"/>
<path d="M135.077 61.2759C134.625 61.2832 134.177 61.1943 133.761 61.0151C133.346 60.8359 132.974 60.5705 132.669 60.2364C132.364 59.9023 132.134 59.5072 131.994 59.0774C131.853 58.6475 131.806 58.1927 131.855 57.7431C131.95 56.7994 132.389 55.9237 133.087 55.282C133.786 54.6402 134.696 54.2771 135.644 54.2614C136.696 54.2614 137.562 54.5994 138.148 55.2391C138.703 55.8456 138.963 56.6994 138.88 57.6432C138.801 58.5373 138.422 59.0029 138.118 59.2361C137.983 59.3457 137.828 59.4268 137.661 59.4746C137.495 59.5224 137.32 59.5358 137.148 59.5141C136.667 59.4288 136.135 58.9917 136.218 58.0407L136.373 56.2825C136.381 56.2056 136.418 56.1346 136.477 56.0851C136.537 56.0357 136.613 56.0117 136.69 56.0185C136.767 56.0253 136.838 56.0622 136.888 56.1213C136.938 56.1804 136.962 56.2568 136.956 56.3338L136.801 58.092C136.759 58.5648 136.927 58.8813 137.25 58.9385C137.436 58.953 137.62 58.8931 137.762 58.7721C137.973 58.6103 138.238 58.2742 138.298 57.5919C138.367 56.8021 138.166 56.125 137.717 55.6338C137.245 55.1184 136.528 54.8459 135.644 54.8459C134.842 54.8611 134.073 55.1693 133.482 55.7124C132.891 56.2554 132.519 56.9959 132.437 57.7941C132.395 58.1629 132.433 58.5364 132.547 58.8895C132.662 59.2426 132.85 59.5671 133.1 59.8415C133.35 60.1158 133.656 60.3335 133.997 60.4801C134.338 60.6267 134.706 60.6987 135.077 60.6913C135.535 60.7161 135.992 60.6332 136.412 60.4493C136.484 60.4196 136.564 60.4195 136.635 60.4488C136.707 60.4782 136.764 60.5347 136.794 60.606C136.824 60.6772 136.824 60.7575 136.795 60.8291C136.766 60.9007 136.71 60.9579 136.639 60.9882C136.147 61.2022 135.613 61.3006 135.077 61.2759Z" fill="white"/>
<path d="M135.368 65.043C133.93 65.043 132.523 64.6164 131.327 63.817C130.13 63.0177 129.198 61.8815 128.647 60.5523C128.097 59.223 127.953 57.7604 128.234 56.3493C128.514 54.9381 129.207 53.6419 130.224 52.6246C131.242 51.6072 132.538 50.9144 133.949 50.6337C135.36 50.353 136.823 50.497 138.152 51.0476C139.481 51.5982 140.618 52.5306 141.417 53.7269C142.216 54.9232 142.643 56.3297 142.643 57.7684C142.641 59.6971 141.874 61.5461 140.51 62.9099C139.146 64.2737 137.297 65.0408 135.368 65.043ZM135.368 50.8172C133.993 50.8172 132.65 51.2249 131.506 51.9887C130.363 52.7525 129.472 53.8382 128.946 55.1083C128.42 56.3785 128.282 57.7762 128.551 59.1246C128.819 60.473 129.481 61.7116 130.453 62.6837C131.425 63.6559 132.664 64.3179 134.012 64.5861C135.361 64.8543 136.758 64.7167 138.028 64.1906C139.299 63.6644 140.384 62.7735 141.148 61.6303C141.912 60.4872 142.32 59.1433 142.32 57.7684C142.317 55.9255 141.584 54.1586 140.281 52.8555C138.978 51.5523 137.211 50.8193 135.368 50.8172Z" fill="#A1A1A1"/>
</g>
<path d="M3.99387 56.7701C3.20396 56.7701 2.43178 56.5359 1.77499 56.097C1.11821 55.6582 0.606302 55.0344 0.304015 54.3046C0.00172861 53.5748 -0.0773608 52.7718 0.0767436 51.9971C0.230848 51.2223 0.611229 50.5107 1.16978 49.9521C1.72833 49.3936 2.43997 49.0132 3.21471 48.8591C3.98944 48.705 4.79248 48.7841 5.52226 49.0864C6.25205 49.3887 6.8758 49.9006 7.31465 50.5573C7.75351 51.2141 7.98774 51.9863 7.98774 52.7762C7.98654 53.8351 7.56538 54.8503 6.81664 55.599C6.0679 56.3477 5.05274 56.7689 3.99387 56.7701ZM3.99387 48.9599C3.23907 48.9599 2.50121 49.1837 1.87361 49.603C1.24601 50.0224 0.756862 50.6184 0.468011 51.3158C0.179159 52.0131 0.103581 52.7805 0.250836 53.5208C0.398092 54.2611 0.761566 54.9411 1.29529 55.4748C1.82902 56.0085 2.50904 56.372 3.24934 56.5193C3.98964 56.6665 4.75698 56.5909 5.45433 56.3021C6.15168 56.0132 6.74772 55.5241 7.16707 54.8965C7.58642 54.2689 7.81024 53.531 7.81024 52.7762C7.8091 51.7644 7.40665 50.7944 6.69119 50.0789C5.97573 49.3634 5.00568 48.961 3.99387 48.9599Z" fill="white"/>
<path d="M2.70972 55.1226C2.66959 55.1224 2.63015 55.1122 2.59495 55.0929C2.55975 55.0736 2.52993 55.0459 2.50816 55.0122C2.48639 54.9785 2.47337 54.9399 2.47028 54.8999C2.46719 54.8599 2.47413 54.8197 2.49047 54.7831L2.76817 54.1635C2.3855 53.8236 2.14177 53.3544 2.08372 52.8459C2.02567 52.3374 2.15739 51.8253 2.45361 51.4079C2.74983 50.9905 3.18971 50.6972 3.68889 50.5841C4.18807 50.4711 4.71141 50.5463 5.15856 50.7953C5.6057 51.0444 5.94517 51.4497 6.11187 51.9336C6.27858 52.4175 6.26077 52.946 6.06188 53.4176C5.86298 53.8891 5.497 54.2707 5.03411 54.4891C4.57121 54.7075 4.04399 54.7473 3.55355 54.6009L2.84482 55.0807C2.805 55.1079 2.75793 55.1225 2.70972 55.1226ZM4.14272 50.8387C3.77352 50.8385 3.4134 50.9532 3.11229 51.1668C2.81117 51.3804 2.58397 51.6824 2.46217 52.0309C2.34038 52.3795 2.33003 52.7572 2.43256 53.1119C2.53509 53.4666 2.74541 53.7806 3.03438 54.0104L3.12186 54.0801L2.82307 54.7468L3.50875 54.2826L3.57646 54.3054C3.82105 54.3875 4.08057 54.4155 4.33706 54.3874C4.59354 54.3593 4.84084 54.2758 5.06183 54.1426C5.28282 54.0094 5.4722 53.8298 5.61685 53.6161C5.76151 53.4025 5.85798 53.1599 5.89957 52.9053C5.94117 52.6506 5.92689 52.39 5.85774 52.1414C5.78859 51.8928 5.66621 51.6623 5.49909 51.4657C5.33197 51.2691 5.1241 51.1112 4.88989 51.003C4.65568 50.8947 4.40073 50.8387 4.14272 50.8387Z" fill="white"/>
<path d="M4.13633 52.8114C4.29576 52.8114 4.425 52.6821 4.425 52.5227C4.425 52.3633 4.29576 52.234 4.13633 52.234C3.9769 52.234 3.84766 52.3633 3.84766 52.5227C3.84766 52.6821 3.9769 52.8114 4.13633 52.8114Z" fill="white"/>
<path d="M3.31992 52.8114C3.47935 52.8114 3.60859 52.6821 3.60859 52.5227C3.60859 52.3633 3.47935 52.234 3.31992 52.234C3.1605 52.234 3.03125 52.3633 3.03125 52.5227C3.03125 52.6821 3.1605 52.8114 3.31992 52.8114Z" fill="white"/>
<path d="M4.96054 52.8114C5.11997 52.8114 5.24922 52.6821 5.24922 52.5227C5.24922 52.3633 5.11997 52.234 4.96054 52.234C4.80111 52.234 4.67188 52.3633 4.67188 52.5227C4.67188 52.6821 4.80111 52.8114 4.96054 52.8114Z" fill="white"/>
<circle cx="60.0211" cy="75.0847" r="9.35707" fill="#0A2F4F"/>
<circle cx="57.2828" cy="74.4" r="9.24296" stroke="#A1A1A1" stroke-width="0.228221"/>
<path d="M56.1862 72.6588H57.0078C57.0804 72.6588 57.15 72.6282 57.2014 72.5737C57.2528 72.5191 57.2816 72.4452 57.2816 72.3681C57.2816 72.2909 57.2528 72.217 57.2014 72.1624C57.15 72.1079 57.0804 72.0773 57.0078 72.0773H56.1862C56.1135 72.0773 56.0439 72.1079 55.9925 72.1624C55.9411 72.217 55.9123 72.2909 55.9123 72.3681C55.9123 72.4452 55.9411 72.5191 55.9925 72.5737C56.0439 72.6282 56.1135 72.6588 56.1862 72.6588ZM58.3771 72.6588C58.4312 72.6588 58.4842 72.6418 58.5292 72.6098C58.5743 72.5779 58.6094 72.5325 58.6301 72.4793C58.6508 72.4262 58.6563 72.3677 58.6457 72.3113C58.6351 72.2549 58.609 72.2031 58.5707 72.1624C58.5324 72.1218 58.4836 72.0941 58.4305 72.0829C58.3774 72.0716 58.3223 72.0774 58.2723 72.0994C58.2222 72.1214 58.1795 72.1587 58.1494 72.2065C58.1193 72.2543 58.1032 72.3105 58.1032 72.3681C58.1032 72.4452 58.1321 72.5191 58.1834 72.5737C58.2348 72.6282 58.3045 72.6588 58.3771 72.6588ZM58.3771 73.8219C58.3229 73.8219 58.27 73.839 58.2249 73.8709C58.1799 73.9029 58.1448 73.9483 58.1241 74.0014C58.1033 74.0546 58.0979 74.113 58.1085 74.1694C58.119 74.2258 58.1451 74.2776 58.1834 74.3183C58.2217 74.359 58.2705 74.3867 58.3237 74.3979C58.3768 74.4091 58.4318 74.4033 58.4819 74.3813C58.5319 74.3593 58.5747 74.3221 58.6048 74.2742C58.6349 74.2264 58.6509 74.1702 58.6509 74.1127C58.6509 74.0356 58.6221 73.9616 58.5707 73.9071C58.5194 73.8526 58.4497 73.8219 58.3771 73.8219ZM59.7464 76.4389H58.0539C58.013 76.3169 57.9471 76.2062 57.8609 76.1146C57.7747 76.0231 57.6703 75.9531 57.5555 75.9097V75.2758H58.6509C58.8689 75.2758 59.0778 75.1839 59.2319 75.0203C59.386 74.8567 59.4725 74.6348 59.4725 74.4035V73.8219C59.4713 73.6067 59.3953 73.3996 59.2589 73.2404C59.3953 73.0811 59.4713 72.874 59.4725 72.6588V72.0773C59.4725 71.8459 59.386 71.624 59.2319 71.4605C59.0778 71.2969 58.8689 71.205 58.6509 71.205H55.9123C55.6944 71.205 55.4854 71.2969 55.3313 71.4605C55.1773 71.624 55.0907 71.8459 55.0907 72.0773V72.6588C55.0919 72.874 55.168 73.0811 55.3043 73.2404C55.168 73.3996 55.0919 73.6067 55.0907 73.8219V74.4035C55.0907 74.6348 55.1773 74.8567 55.3313 75.0203C55.4854 75.1839 55.6944 75.2758 55.9123 75.2758H57.0078V75.9097C56.8929 75.9531 56.7886 76.0231 56.7024 76.1146C56.6162 76.2062 56.5502 76.3169 56.5093 76.4389H54.8168C54.7442 76.4389 54.6745 76.4695 54.6232 76.5241C54.5718 76.5786 54.543 76.6525 54.543 76.7297C54.543 76.8068 54.5718 76.8807 54.6232 76.9353C54.6745 76.9898 54.7442 77.0204 54.8168 77.0204H56.5093C56.5669 77.1888 56.6719 77.3343 56.8101 77.4372C56.9482 77.54 57.1129 77.5951 57.2816 77.5951C57.4504 77.5951 57.615 77.54 57.7532 77.4372C57.8913 77.3343 57.9964 77.1888 58.0539 77.0204H59.7464C59.819 77.0204 59.8887 76.9898 59.9401 76.9353C59.9914 76.8807 60.0203 76.8068 60.0203 76.7297C60.0203 76.6525 59.9914 76.5786 59.9401 76.5241C59.8887 76.4695 59.819 76.4389 59.7464 76.4389ZM55.6384 72.0773C55.6384 72.0002 55.6673 71.9262 55.7186 71.8717C55.77 71.8171 55.8397 71.7865 55.9123 71.7865H58.6509C58.7236 71.7865 58.7932 71.8171 58.8446 71.8717C58.896 71.9262 58.9248 72.0002 58.9248 72.0773V72.6588C58.9248 72.7359 58.896 72.8099 58.8446 72.8644C58.7932 72.919 58.7236 72.9496 58.6509 72.9496H55.9123C55.8397 72.9496 55.77 72.919 55.7186 72.8644C55.6673 72.8099 55.6384 72.7359 55.6384 72.6588V72.0773ZM55.9123 74.6942C55.8397 74.6942 55.77 74.6636 55.7186 74.6091C55.6673 74.5546 55.6384 74.4806 55.6384 74.4035V73.8219C55.6384 73.7448 55.6673 73.6708 55.7186 73.6163C55.77 73.5618 55.8397 73.5311 55.9123 73.5311H58.6509C58.7236 73.5311 58.7932 73.5618 58.8446 73.6163C58.896 73.6708 58.9248 73.7448 58.9248 73.8219V74.4035C58.9248 74.4806 58.896 74.5546 58.8446 74.6091C58.7932 74.6636 58.7236 74.6942 58.6509 74.6942H55.9123ZM57.2816 77.0204C57.2275 77.0204 57.1745 77.0034 57.1295 76.9714C57.0844 76.9395 57.0493 76.8941 57.0286 76.8409C57.0079 76.7878 57.0025 76.7293 57.013 76.6729C57.0236 76.6165 57.0497 76.5647 57.088 76.5241C57.1263 76.4834 57.1751 76.4557 57.2282 76.4445C57.2813 76.4333 57.3364 76.439 57.3864 76.461C57.4365 76.483 57.4792 76.5203 57.5093 76.5681C57.5394 76.6159 57.5555 76.6722 57.5555 76.7297C57.5555 76.8068 57.5266 76.8807 57.4753 76.9353C57.4239 76.9898 57.3543 77.0204 57.2816 77.0204ZM57.0078 73.8219H56.1862C56.1135 73.8219 56.0439 73.8526 55.9925 73.9071C55.9411 73.9616 55.9123 74.0356 55.9123 74.1127C55.9123 74.1898 55.9411 74.2638 55.9925 74.3183C56.0439 74.3728 56.1135 74.4035 56.1862 74.4035H57.0078C57.0804 74.4035 57.15 74.3728 57.2014 74.3183C57.2528 74.2638 57.2816 74.1898 57.2816 74.1127C57.2816 74.0356 57.2528 73.9616 57.2014 73.9071C57.15 73.8526 57.0804 73.8219 57.0078 73.8219Z" fill="#0A74E6"/>
<circle cx="188.906" cy="72.5118" r="6.51109" stroke="white" stroke-width="0.203472"/>
<path d="M188.121 70.9803C188.396 70.8407 188.706 70.7673 189.022 70.7673C189.337 70.7673 189.648 70.8407 189.923 70.9803C189.952 70.9955 189.984 71.0054 190.018 71.0094C190.052 71.0134 190.086 71.0113 190.119 71.0034C190.152 70.9955 190.182 70.9818 190.209 70.9632C190.236 70.9445 190.258 70.9213 190.275 70.8949C190.309 70.8419 190.318 70.7791 190.3 70.7203C190.282 70.6615 190.239 70.6114 190.18 70.5809C189.827 70.4017 189.428 70.3075 189.022 70.3075C188.616 70.3075 188.217 70.4017 187.863 70.5809C187.805 70.6114 187.761 70.6615 187.744 70.7203C187.726 70.7791 187.735 70.8419 187.768 70.8949C187.785 70.9213 187.807 70.9445 187.834 70.9632C187.861 70.9818 187.892 70.9955 187.925 71.0034C187.957 71.0113 187.992 71.0134 188.025 71.0094C188.059 71.0054 188.091 70.9955 188.121 70.9803ZM190.674 72.1968C190.647 72.1404 190.617 72.0856 190.582 72.0329C190.564 72.0069 190.541 71.9843 190.513 71.9664C190.486 71.9485 190.455 71.9356 190.422 71.9285C190.389 71.9215 190.354 71.9203 190.321 71.9251C190.287 71.93 190.255 71.9407 190.226 71.9567C190.169 71.9887 190.127 72.0399 190.111 72.0992C190.095 72.1584 190.106 72.2209 190.141 72.273C190.181 72.3345 190.214 72.3995 190.239 72.4669C190.254 72.5066 190.28 72.5419 190.316 72.5691C190.351 72.5964 190.394 72.6145 190.44 72.6215C190.619 72.6493 190.782 72.7327 190.899 72.8573C191.016 72.9819 191.081 73.1395 191.081 73.3025C191.081 73.4862 191 73.6623 190.855 73.7922C190.71 73.9221 190.514 73.995 190.309 73.995H187.39C187.285 73.9805 187.187 73.9373 187.111 73.8711C187.034 73.805 186.983 73.7193 186.963 73.6257C186.947 73.5578 186.949 73.4877 186.968 73.4206C186.987 73.3534 187.022 73.2909 187.071 73.2377C187.121 73.1845 187.183 73.142 187.253 73.1132C187.324 73.0845 187.4 73.0703 187.477 73.0717C187.546 73.0717 187.611 73.0474 187.659 73.0041C187.708 72.9608 187.735 72.9021 187.735 72.8408C187.734 72.6389 187.794 72.4405 187.907 72.2661C187.924 72.2397 187.935 72.2106 187.94 72.1804C187.944 72.1502 187.942 72.1196 187.933 72.0902C187.924 72.0608 187.909 72.0332 187.888 72.0091C187.867 71.9851 187.841 71.9649 187.812 71.9498C187.753 71.9197 187.683 71.9118 187.617 71.9278C187.552 71.9438 187.496 71.9824 187.462 72.0352C187.341 72.2193 187.264 72.4235 187.235 72.6354C187.021 72.6823 186.828 72.79 186.687 72.9424C186.567 73.069 186.487 73.2222 186.456 73.3861C186.425 73.5499 186.444 73.7183 186.51 73.8733C186.577 74.0284 186.689 74.1644 186.835 74.2671C186.981 74.3698 187.155 74.4353 187.338 74.4567H187.372H190.309C190.617 74.456 190.916 74.3557 191.149 74.1742C191.382 73.9928 191.535 73.7422 191.579 73.4682C191.623 73.1942 191.556 72.9151 191.39 72.6817C191.224 72.4483 190.97 72.2762 190.674 72.1968ZM189.76 71.6866C189.76 71.6866 189.76 71.6866 189.76 71.6728C189.774 71.6588 189.785 71.6433 189.794 71.6266C189.818 71.5697 189.817 71.5064 189.789 71.4506C189.762 71.3948 189.711 71.351 189.647 71.3288C189.503 71.2809 189.352 71.2514 189.199 71.2411C189.174 71.2411 189.148 71.2411 189.122 71.2411C189.053 71.2365 188.983 71.2365 188.914 71.2411C188.887 71.2399 188.86 71.2399 188.834 71.2411C188.681 71.2514 188.53 71.2809 188.386 71.3288C188.324 71.3528 188.276 71.3973 188.25 71.4529C188.225 71.5085 188.225 71.5708 188.25 71.6266C188.258 71.6421 188.269 71.6568 188.28 71.6705C188.28 71.6789 188.28 71.6874 188.28 71.6959C188.297 71.7221 188.32 71.7451 188.347 71.7635C188.374 71.7819 188.405 71.7954 188.437 71.8031C188.47 71.8108 188.504 71.8126 188.538 71.8085C188.572 71.8044 188.604 71.7943 188.633 71.779C188.751 71.72 188.884 71.689 189.019 71.689C189.154 71.689 189.287 71.72 189.405 71.779C189.435 71.7943 189.468 71.8041 189.503 71.8078C189.537 71.8115 189.572 71.8089 189.605 71.8003C189.638 71.7917 189.669 71.7772 189.695 71.7577C189.722 71.7381 189.744 71.714 189.76 71.6866ZM188.764 72.3792C188.764 72.4248 188.779 72.4695 188.808 72.5074C188.836 72.5454 188.876 72.575 188.923 72.5924C188.97 72.6099 189.022 72.6145 189.072 72.6056C189.122 72.5967 189.168 72.5747 189.204 72.5424C189.24 72.5101 189.264 72.469 189.274 72.4242C189.284 72.3794 189.279 72.333 189.26 72.2908C189.24 72.2486 189.207 72.2126 189.165 72.1872C189.122 72.1619 189.073 72.1483 189.022 72.1483C188.953 72.1483 188.888 72.1726 188.84 72.2159C188.791 72.2592 188.764 72.3179 188.764 72.3792Z" fill="#0A74E6"/>
<circle cx="213.619" cy="20.0465" r="12.4984" fill="#0A2F4F"/>
<circle cx="215.591" cy="20.0464" r="13.3206" stroke="#A1A1A1" stroke-width="0.328905"/>
<path d="M218.327 18.5109L213.319 15.6762C213.049 15.5217 212.741 15.4408 212.428 15.4417C212.115 15.4425 211.808 15.5251 211.538 15.681C211.268 15.8369 211.044 16.0606 210.89 16.3294C210.736 16.5981 210.657 16.9024 210.66 17.2112V22.901C210.66 23.3652 210.847 23.8103 211.18 24.1384C211.512 24.4666 211.963 24.651 212.433 24.651C212.744 24.6505 213.05 24.5693 213.319 24.4156L218.327 21.5809C218.596 21.4272 218.819 21.2064 218.975 20.9405C219.13 20.6747 219.212 20.3732 219.212 20.0664C219.212 19.7595 219.13 19.458 218.975 19.1922C218.819 18.9264 218.596 18.7055 218.327 18.5518V18.5109ZM217.809 20.6548L212.801 23.5304C212.689 23.5932 212.562 23.6262 212.433 23.6262C212.304 23.6262 212.177 23.5932 212.065 23.5304C211.953 23.4666 211.86 23.3749 211.796 23.2644C211.731 23.1539 211.697 23.0286 211.697 22.901V17.1907C211.697 17.0632 211.731 16.9378 211.796 16.8274C211.86 16.7169 211.953 16.6251 212.065 16.5614C212.178 16.4995 212.304 16.4661 212.433 16.4641C212.562 16.4668 212.688 16.5001 212.801 16.5614L217.809 19.4165C217.92 19.4803 218.013 19.572 218.078 19.6825C218.143 19.793 218.177 19.9183 218.177 20.0459C218.177 20.1735 218.143 20.2988 218.078 20.4093C218.013 20.5198 217.92 20.6115 217.809 20.6752V20.6548Z" fill="#0A74E6"/>
<path d="M186.573 146H142.641V97.8499H186.573V146ZM142.992 145.649H186.222V98.2013H142.992V145.649Z" fill="#A1A1A1"/>
<path d="M184.006 141.497H178.301V141.782H184.006V141.497Z" fill="#A1A1A1"/>
<path d="M184.006 142.638H178.301V142.924H184.006V142.638Z" fill="#A1A1A1"/>
<path d="M184.006 143.779H178.301V144.065H184.006V143.779Z" fill="#A1A1A1"/>
<path d="M164.605 106.461V110.327C166.899 110.327 169.142 111.007 171.049 112.281C172.956 113.556 174.443 115.367 175.321 117.486C176.199 119.606 176.428 121.938 175.981 124.188C175.533 126.437 174.429 128.504 172.807 130.126L175.54 132.86C177.703 130.697 179.176 127.942 179.773 124.942C180.369 121.942 180.063 118.833 178.893 116.007C177.722 113.181 175.74 110.766 173.197 109.067C170.654 107.368 167.664 106.461 164.605 106.461Z" fill="#262626"/>
<path d="M175.538 132.86L172.804 130.126C170.821 132.109 168.187 133.307 165.389 133.497C162.591 133.686 159.819 132.855 157.586 131.158L155.246 134.237C158.223 136.5 161.919 137.607 165.65 137.354C169.381 137.101 172.894 135.504 175.538 132.86Z" fill="#BADEFF"/>
<path d="M153.011 121.925C153.011 120.402 153.311 118.894 153.893 117.487C154.476 116.079 155.331 114.801 156.408 113.724C157.485 112.647 158.763 111.792 160.17 111.21C161.578 110.627 163.086 110.327 164.609 110.327V106.461C161.372 106.461 158.216 107.477 155.587 109.365C152.957 111.254 150.987 113.92 149.954 116.988C148.92 120.056 148.876 123.371 149.826 126.465C150.777 129.56 152.674 132.278 155.252 134.237L157.592 131.158C156.167 130.077 155.012 128.681 154.217 127.079C153.422 125.477 153.009 123.713 153.011 121.925Z" fill="#0A74E6"/>
<path d="M56.5545 139.215H24.5391V104.126H56.5545V139.215ZM24.7952 138.959H56.2984V104.382H24.7952V138.959Z" fill="#A1A1A1"/>
<path d="M34.3407 124.15H29.719C29.4039 124.15 29.1484 124.405 29.1484 124.72V132.8C29.1484 133.115 29.4039 133.37 29.719 133.37H34.3407C34.6558 133.37 34.9112 133.115 34.9112 132.8V124.72C34.9112 124.405 34.6558 124.15 34.3407 124.15Z" fill="#575A89"/>
<path d="M42.6688 117.875H38.0471C37.732 117.875 37.4766 118.13 37.4766 118.445V132.8C37.4766 133.115 37.732 133.37 38.0471 133.37H42.6688C42.9839 133.37 43.2393 133.115 43.2393 132.8V118.445C43.2393 118.13 42.9839 117.875 42.6688 117.875Z" fill="#E6E6E6"/>
<path d="M50.9891 110.575H46.3674C46.0523 110.575 45.7969 110.831 45.7969 111.146V132.8C45.7969 133.115 46.0523 133.37 46.3674 133.37H50.9891C51.3042 133.37 51.5597 133.115 51.5597 132.8V111.146C51.5597 110.831 51.3042 110.575 50.9891 110.575Z" fill="#0A74E6"/>
<path d="M53.4778 135.053H27.6094V108.288H27.8654V134.797H53.4778V135.053Z" fill="white"/>
<path d="M116.676 44.4351H45.6445V0H116.676V44.4351ZM45.9689 44.1108H116.352V0.324345H45.9689V44.1108Z" fill="#A1A1A1"/>
<path d="M106.81 35.1421H55.5082C55.4656 35.1421 55.4248 35.1252 55.3947 35.0951C55.3646 35.0649 55.3477 35.0241 55.3477 34.9815V10.3924C55.3477 10.3498 55.3646 10.3089 55.3947 10.2788C55.4248 10.2487 55.4656 10.2318 55.5082 10.2318C55.5508 10.2318 55.5916 10.2487 55.6217 10.2788C55.6518 10.3089 55.6688 10.3498 55.6688 10.3924V34.821H106.81C106.832 34.8209 106.853 34.825 106.872 34.833C106.892 34.8411 106.909 34.8529 106.924 34.8678C106.939 34.8827 106.951 34.9004 106.959 34.92C106.967 34.9395 106.972 34.9604 106.972 34.9815C106.972 35.0027 106.967 35.0236 106.959 35.0431C106.951 35.0626 106.939 35.0803 106.924 35.0952C106.909 35.1102 106.892 35.122 106.872 35.13C106.853 35.1381 106.832 35.1422 106.81 35.1421Z" fill="#A1A1A1"/>
<path d="M66.4709 33.3759H61.8047C61.6784 33.3758 61.5572 33.3255 61.4679 33.2362C61.3785 33.1468 61.3283 33.0257 61.3281 32.8993V26.467C61.3283 26.3407 61.3785 26.2196 61.4679 26.1302C61.5572 26.0409 61.6784 25.9906 61.8047 25.9905H66.4709C66.5972 25.9906 66.7184 26.0409 66.8077 26.1302C66.897 26.2196 66.9473 26.3407 66.9475 26.467V32.8993C66.9473 33.0257 66.8971 33.1468 66.8077 33.2362C66.7184 33.3255 66.5972 33.3758 66.4709 33.3759Z" fill="#0A74E6"/>
<path d="M74.9787 33.3758H70.3125C70.1862 33.3757 70.065 33.3254 69.9757 33.2361C69.8863 33.1467 69.8361 33.0256 69.8359 32.8993V20.366C69.8361 20.2396 69.8863 20.1185 69.9757 20.0291C70.065 19.9398 70.1862 19.8895 70.3125 19.8894H74.9787C75.105 19.8895 75.2262 19.9398 75.3155 20.0291C75.4049 20.1185 75.4551 20.2396 75.4553 20.366V32.8993C75.4551 33.0256 75.4049 33.1467 75.3155 33.2361C75.2262 33.3254 75.105 33.3757 74.9787 33.3758Z" fill="#0A74E6"/>
<path d="M83.4904 33.3759H78.8243C78.6979 33.3758 78.5768 33.3255 78.4874 33.2362C78.3981 33.1468 78.3478 33.0257 78.3477 32.8993V26.467C78.3478 26.3407 78.3981 26.2196 78.4874 26.1302C78.5768 26.0409 78.6979 25.9906 78.8243 25.9905H83.4904C83.6167 25.9906 83.7379 26.0409 83.8272 26.1302C83.9166 26.2196 83.9669 26.3407 83.967 26.467V32.8993C83.9669 33.0257 83.9166 33.1468 83.8272 33.2362C83.7379 33.3255 83.6167 33.3758 83.4904 33.3759Z" fill="#0A74E6"/>
<path d="M92.0021 33.3761H87.336C87.2125 33.3788 87.093 33.3324 87.0037 33.2471C86.9143 33.1618 86.8625 33.0446 86.8594 32.9212V17.9364C86.8625 17.8129 86.9143 17.6957 87.0037 17.6104C87.093 17.5252 87.2125 17.4788 87.336 17.4814H92.0021C92.1256 17.4788 92.2451 17.5252 92.3344 17.6104C92.4238 17.6957 92.4756 17.8129 92.4787 17.9364V32.9212C92.4756 33.0446 92.4238 33.1618 92.3344 33.2471C92.2451 33.3324 92.1256 33.3788 92.0021 33.3761Z" fill="#0A74E6"/>
<path d="M100.51 33.376H95.8438C95.7174 33.3759 95.5963 33.3256 95.5069 33.2363C95.4176 33.1469 95.3673 33.0258 95.3672 32.8994V13.6229C95.3673 13.4966 95.4176 13.3754 95.5069 13.2861C95.5963 13.1968 95.7174 13.1465 95.8438 13.1464H100.51C100.636 13.1465 100.757 13.1968 100.847 13.2861C100.936 13.3754 100.986 13.4966 100.987 13.6229V32.8994C100.986 33.0258 100.936 33.1469 100.847 33.2363C100.757 33.3256 100.636 33.3759 100.51 33.376Z" fill="#0A74E6"/>
<path d="M81.178 23.3163L72.6486 16.9276L64.2354 23.229L64.043 22.972L72.6486 16.5263L81.1374 22.8847L89.5733 13.6533L89.6071 13.6395L98.1163 10.2109L98.2364 10.5089L89.7609 13.9238L81.178 23.3163Z" fill="white"/>
<path d="M64.1352 24.0641C64.6672 24.0641 65.0985 23.6328 65.0985 23.1008C65.0985 22.5687 64.6672 22.1375 64.1352 22.1375C63.6032 22.1375 63.1719 22.5687 63.1719 23.1008C63.1719 23.6328 63.6032 24.0641 64.1352 24.0641Z" fill="white"/>
<path d="M72.6469 17.8025C73.1789 17.8025 73.6102 17.3712 73.6102 16.8392C73.6102 16.3071 73.1789 15.8759 72.6469 15.8759C72.1149 15.8759 71.6836 16.3071 71.6836 16.8392C71.6836 17.3712 72.1149 17.8025 72.6469 17.8025Z" fill="white"/>
<path d="M81.1547 24.0641C81.6867 24.0641 82.118 23.6328 82.118 23.1008C82.118 22.5687 81.6867 22.1375 81.1547 22.1375C80.6227 22.1375 80.1914 22.5687 80.1914 23.1008C80.1914 23.6328 80.6227 24.0641 81.1547 24.0641Z" fill="white"/>
<path d="M89.6664 14.7522C90.1985 14.7522 90.6298 14.3209 90.6298 13.7889C90.6298 13.2569 90.1985 12.8256 89.6664 12.8256C89.1344 12.8256 88.7031 13.2569 88.7031 13.7889C88.7031 14.3209 89.1344 14.7522 89.6664 14.7522Z" fill="white"/>
<path d="M98.1743 11.2196C98.7063 11.2196 99.1376 10.7883 99.1376 10.2563C99.1376 9.72426 98.7063 9.29297 98.1743 9.29297C97.6422 9.29297 97.2109 9.72426 97.2109 10.2563C97.2109 10.7883 97.6422 11.2196 98.1743 11.2196Z" fill="white"/>
</svg>
