<svg width="192" height="146" viewBox="0 0 192 146" fill="none" xmlns="http://www.w3.org/2000/svg">
<path d="M1 80.1719C1 80.1719 31.1746 8.96484 97.2155 8.96484C169.89 8.96484 191.568 80.1719 191.568 80.1719" stroke="url(#paint0_linear_1458_17900)" stroke-width="0.586161"/>
<circle cx="22.2618" cy="47.6422" r="8.96491" fill="url(#paint1_linear_1458_17900)"/>
<path d="M23.5646 43.8776L23.9668 43.152C23.9719 43.1427 23.9752 43.1324 23.9764 43.1219C23.9776 43.1113 23.9767 43.1006 23.9738 43.0903C23.9709 43.0801 23.966 43.0705 23.9593 43.0622C23.9527 43.0539 23.9445 43.0469 23.9352 43.0418C23.9164 43.0314 23.8942 43.0288 23.8736 43.0348C23.8529 43.0407 23.8354 43.0546 23.825 43.0734L23.4183 43.8071C23.0713 43.655 22.6966 43.5764 22.3177 43.5764C21.9388 43.5764 21.564 43.655 21.217 43.8071L20.8103 43.0734C20.7999 43.0546 20.7825 43.0407 20.7618 43.0348C20.7411 43.0288 20.719 43.0314 20.7002 43.0418C20.6814 43.0522 20.6675 43.0697 20.6615 43.0903C20.6556 43.111 20.6581 43.1332 20.6686 43.152L21.0708 43.8776C20.6879 44.0664 20.3644 44.3569 20.1357 44.7174C19.9071 45.0779 19.7821 45.4944 19.7746 45.9212H24.8608C24.8532 45.4944 24.7283 45.0779 24.4996 44.7174C24.271 44.3569 23.9474 44.0664 23.5646 43.8776ZM21.1439 44.9905C21.1019 44.9905 21.0608 44.9781 21.0259 44.9547C20.991 44.9314 20.9638 44.8982 20.9477 44.8594C20.9316 44.8206 20.9274 44.7779 20.9356 44.7367C20.9438 44.6955 20.964 44.6577 20.9937 44.6279C21.0234 44.5982 21.0613 44.578 21.1025 44.5698C21.1437 44.5616 21.1864 44.5658 21.2252 44.5819C21.264 44.598 21.2972 44.6252 21.3205 44.6601C21.3438 44.6951 21.3563 44.7361 21.3563 44.7781C21.3562 44.8344 21.3338 44.8884 21.294 44.9282C21.2542 44.9681 21.2002 44.9904 21.1439 44.9905ZM23.4914 44.9905C23.4494 44.9905 23.4084 44.9781 23.3734 44.9547C23.3385 44.9314 23.3113 44.8982 23.2952 44.8594C23.2792 44.8206 23.2749 44.7779 23.2831 44.7367C23.2913 44.6955 23.3116 44.6577 23.3413 44.6279C23.371 44.5982 23.4088 44.578 23.45 44.5698C23.4912 44.5616 23.5339 44.5658 23.5727 44.5819C23.6115 44.598 23.6447 44.6252 23.668 44.6601C23.6914 44.6951 23.7038 44.7361 23.7038 44.7781C23.7038 44.8344 23.6814 44.8884 23.6416 44.9282C23.6017 44.9681 23.5478 44.9904 23.4914 44.9905ZM19.7745 49.8086C19.7745 49.9716 19.8393 50.128 19.9546 50.2433C20.0699 50.3586 20.2263 50.4234 20.3894 50.4234H20.7974V51.681C20.7972 51.756 20.8118 51.8303 20.8403 51.8996C20.8689 51.969 20.9108 52.032 20.9638 52.0851C21.0168 52.1382 21.0797 52.1804 21.1489 52.2091C21.2182 52.2379 21.2925 52.2527 21.3675 52.2527C21.4425 52.2527 21.5167 52.2379 21.586 52.2091C21.6553 52.1804 21.7182 52.1382 21.7712 52.0851C21.8241 52.032 21.8661 51.969 21.8947 51.8996C21.9232 51.8303 21.9378 51.756 21.9376 51.681V50.4234H22.6977V51.681C22.6975 51.756 22.7121 51.8303 22.7407 51.8996C22.7693 51.969 22.8112 52.032 22.8642 52.0851C22.9171 52.1382 22.9801 52.1804 23.0493 52.2091C23.1186 52.2379 23.1929 52.2527 23.2679 52.2527C23.3429 52.2527 23.4171 52.2379 23.4864 52.2091C23.5557 52.1804 23.6186 52.1382 23.6716 52.0851C23.7245 52.032 23.7665 51.969 23.795 51.8996C23.8236 51.8303 23.8382 51.756 23.838 51.681V50.4234H24.246C24.4091 50.4234 24.5655 50.3586 24.6808 50.2433C24.7961 50.128 24.8608 49.9716 24.8608 49.8086V46.1224H19.7745V49.8086ZM18.992 46.0245C18.8408 46.0247 18.6959 46.0848 18.5891 46.1917C18.4822 46.2986 18.422 46.4435 18.4219 46.5947V48.9702C18.4217 49.0452 18.4363 49.1195 18.4648 49.1888C18.4934 49.2582 18.5354 49.3212 18.5883 49.3743C18.6413 49.4274 18.7042 49.4695 18.7735 49.4983C18.8427 49.527 18.917 49.5418 18.992 49.5418C19.067 49.5418 19.1413 49.527 19.2105 49.4983C19.2798 49.4695 19.3427 49.4274 19.3957 49.3743C19.4487 49.3212 19.4906 49.2582 19.5192 49.1888C19.5477 49.1195 19.5623 49.0452 19.5621 48.9702V46.5947C19.562 46.4435 19.5018 46.2986 19.395 46.1917C19.2881 46.0848 19.1432 46.0247 18.992 46.0245ZM25.6433 46.0245C25.4922 46.0247 25.3473 46.0848 25.2404 46.1917C25.1335 46.2986 25.0734 46.4435 25.0732 46.5947V48.9702C25.073 49.0452 25.0876 49.1195 25.1162 49.1888C25.1447 49.2582 25.1867 49.3212 25.2397 49.3743C25.2926 49.4274 25.3555 49.4695 25.4248 49.4983C25.4941 49.527 25.5683 49.5418 25.6433 49.5418C25.7183 49.5418 25.7926 49.527 25.8619 49.4983C25.9312 49.4695 25.9941 49.4274 26.047 49.3743C26.1 49.3212 26.142 49.2582 26.1705 49.1888C26.1991 49.1195 26.2137 49.0452 26.2135 48.9702V46.5947C26.2133 46.4435 26.1532 46.2986 26.0463 46.1917C25.9394 46.0848 25.7945 46.0247 25.6433 46.0245Z" fill="white"/>
<circle cx="96.2813" cy="8.96491" r="8.96491" fill="white"/>
<path d="M97.4946 5.50753C97.6616 5.31502 97.789 5.09141 97.8693 4.84955C97.9497 4.60769 97.9815 4.35233 97.9629 4.09814C97.4501 4.13954 96.9741 4.38071 96.6375 4.7697C96.4762 4.95613 96.3541 5.17302 96.2782 5.40752C96.2023 5.64202 96.1742 5.88936 96.1957 6.1349C96.4458 6.13699 96.693 6.08148 96.9183 5.97269C97.1435 5.8639 97.3407 5.70474 97.4946 5.50753ZM98.6079 8.79461C98.6109 8.45607 98.7001 8.12386 98.8671 7.82934C99.034 7.53482 99.2733 7.2877 99.5623 7.11131C99.3799 6.84853 99.1388 6.63187 98.8581 6.47849C98.5774 6.32511 98.2649 6.23924 97.9452 6.22768C97.256 6.15699 96.6198 6.62973 96.2531 6.62973C95.8864 6.62973 95.3695 6.23652 94.7951 6.24535C94.4196 6.25772 94.0538 6.3672 93.7332 6.5631C93.4126 6.759 93.1483 7.03464 92.966 7.36314C92.1884 8.71509 92.7672 10.7253 93.5448 11.8166C93.8982 12.3512 94.34 12.9565 94.9232 12.9344C95.5064 12.9123 95.6964 12.5721 96.3724 12.5721C97.0483 12.5721 97.256 12.9344 97.8304 12.9211C98.4047 12.9079 98.8112 12.3733 99.1823 11.8387C99.4452 11.4506 99.6506 11.0265 99.792 10.5795C99.4419 10.4302 99.1431 10.1816 98.9327 9.86438C98.7223 9.54717 98.6094 9.17527 98.6079 8.79461Z" fill="black"/>
<circle cx="171.59" cy="47.6422" r="8.96491" fill="url(#paint2_linear_1458_17900)"/>
<path fill-rule="evenodd" clip-rule="evenodd" d="M175.721 43.5439L171.356 44.191V47.3854H175.721V43.5439ZM170.861 44.2526L167.492 44.7456V47.3854H170.861V44.2526ZM170.861 51.0316L167.492 50.5386V47.8989H170.861V51.0316ZM171.356 51.0933L175.721 51.7404V47.899H171.356V51.0933Z" fill="white"/>
<rect x="70.6702" y="47.1299" width="50.9719" height="98.614" rx="4.61053" stroke="white" stroke-width="0.512281"/>
<rect x="74.2539" y="51.2281" width="43.8" height="90.9298" rx="3.84211" fill="#0A2F4F"/>
<path d="M96.0539 90.7642C95.4361 90.7591 94.8307 90.9373 94.3143 91.2763C93.7978 91.6152 93.3935 92.0997 93.1523 92.6685C92.9112 93.2373 92.8442 93.8647 92.9597 94.4716C93.0753 95.0785 93.3681 95.6375 93.8014 96.0779C94.2346 96.5183 94.7887 96.8203 95.3935 96.9458C95.9984 97.0713 96.6269 97.0146 97.1996 96.7829C97.7722 96.5512 98.2633 96.1549 98.6108 95.6441C98.9582 95.1333 99.1463 94.5309 99.1514 93.9131C99.1581 93.0848 98.8356 92.2878 98.2547 91.6972C97.6738 91.1067 96.8822 90.7711 96.0539 90.7642ZM106.401 100.784C106.343 100.479 106.276 100.166 106.199 99.8477C106.421 99.7843 106.638 99.7184 106.851 99.65C110.872 98.3547 113.498 96.2284 113.516 94.0317C113.534 91.9255 111.11 89.8682 107.343 88.5365C106.971 88.4058 106.597 88.2844 106.22 88.1725C106.284 87.9181 106.344 87.6626 106.4 87.406C107.286 83.2757 106.757 79.938 104.863 78.8252C103.047 77.7578 100.054 78.8304 97.0181 81.4282C96.7189 81.6847 96.4265 81.9486 96.1407 82.2202C95.9523 82.0366 95.7606 81.8566 95.5655 81.6802C92.43 78.8495 89.2738 77.6416 87.3637 78.7263C85.532 79.7666 84.9663 82.8956 85.7012 86.8229C85.7745 87.2118 85.8574 87.5987 85.9502 87.9835C85.5013 88.107 85.0673 88.239 84.6523 88.38C80.9387 89.6404 78.557 91.6444 78.5397 93.743C78.5217 95.9107 81.0425 98.106 84.8887 99.456C85.2006 99.565 85.5151 99.6662 85.8321 99.7595C85.7254 100.172 85.6304 100.588 85.547 101.006C84.7837 104.853 85.3297 107.917 87.1391 108.981C89.008 110.079 92.1688 108.992 95.26 106.335C95.5042 106.125 95.7496 105.902 95.9953 105.668C96.2999 105.967 96.6127 106.257 96.9337 106.538C99.8852 109.121 102.813 110.178 104.638 109.142C106.523 108.071 107.16 104.79 106.401 100.784L106.401 100.784ZM88.1016 80.0256C89.2774 79.3579 91.8567 80.3452 94.564 82.7892C94.737 82.9455 94.9105 83.1085 95.0847 83.2782C94.0015 84.4312 92.996 85.6547 92.0748 86.9407C90.5038 87.0686 88.9428 87.298 87.4014 87.6275C87.3151 87.2697 87.2379 86.9098 87.1699 86.5479L87.1699 86.548C86.5402 83.183 86.9978 80.6525 88.1016 80.0256ZM88.8796 92.1069C88.4529 91.0713 88.089 90.0535 87.7932 89.0711C88.793 88.8561 89.8587 88.6822 90.9687 88.553C90.5927 89.1288 90.2304 89.7132 89.8818 90.3063C89.5338 90.8986 89.1998 91.4988 88.8796 92.1069ZM85.3837 98.0461C83.9063 97.5679 82.5295 96.8219 81.3222 95.8453C80.9759 95.6035 80.683 95.2933 80.4613 94.9339C80.2397 94.5744 80.0942 94.1733 80.0337 93.7554C80.0443 92.4818 81.9565 90.873 85.1325 89.7949C85.5313 89.6603 85.9337 89.5373 86.3396 89.4262C86.7974 90.9385 87.3547 92.4188 88.0079 93.8576C87.3225 95.3058 86.7336 96.7976 86.245 98.3235C85.9556 98.2381 85.6686 98.1457 85.3837 98.0461ZM103.218 92.2264C102.9 91.6104 102.569 91.0009 102.227 90.398C101.889 89.8046 101.54 89.2186 101.177 88.6401C102.292 88.7902 103.36 88.9862 104.362 89.2237C104.031 90.2432 103.649 91.2454 103.218 92.2264ZM97.9897 82.5634C100.591 80.3375 103.011 79.47 104.106 80.1134C105.271 80.7985 105.704 83.5262 104.939 87.0923C104.889 87.3247 104.834 87.556 104.776 87.7864C103.238 87.4245 101.678 87.1648 100.105 87.0089C99.2147 85.7065 98.2371 84.4655 97.1793 83.2947C97.4434 83.0443 97.7135 82.8006 97.9897 82.5634ZM96.1234 84.3545C96.8443 85.1536 97.5244 85.9886 98.1612 86.8562C96.7846 86.7798 95.4066 86.7681 94.0273 86.8211C94.7142 85.9307 95.4173 85.104 96.1234 84.3545ZM88.8523 95.6211C89.1636 96.2346 89.4891 96.8406 89.8289 97.4391C90.1756 98.0495 90.5367 98.6512 90.9122 99.2445C89.8305 99.118 88.7561 98.9361 87.693 98.6995C88.0101 97.7049 88.399 96.6716 88.8523 95.6211ZM94.286 105.201C93.1336 106.242 91.7995 107.062 90.3503 107.62L90.3502 107.62C89.9678 107.799 89.5528 107.898 89.1307 107.91C88.7087 107.923 88.2886 107.848 87.8963 107.692C86.7983 107.047 86.36 104.586 87.0127 101.297C87.0904 100.908 87.1787 100.522 87.2777 100.138C88.8289 100.484 90.4018 100.725 91.9855 100.859C92.8933 102.167 93.8861 103.415 94.9574 104.593C94.7386 104.801 94.5148 105.004 94.286 105.201ZM96.0065 103.526C95.3046 102.756 94.6052 101.905 93.9229 100.991C94.5923 101.022 95.2743 101.041 95.9689 101.047C96.6819 101.053 97.3858 101.043 98.0807 101.018C97.4326 101.889 96.7403 102.726 96.0064 103.527L96.0065 103.526ZM100.886 96.7735C100.348 97.6896 99.7813 98.5874 99.1852 99.4671C98.1469 99.5327 97.0741 99.5621 95.9813 99.553C94.8929 99.5441 93.8344 99.5015 92.8153 99.427C92.2188 98.5399 91.6564 97.6314 91.1283 96.7013C90.603 95.7767 90.1133 94.8332 89.6594 93.8707C90.1277 92.9163 90.6314 91.9805 91.1704 91.0632L91.1704 91.0636C91.7089 90.1469 92.2817 89.2516 92.8886 88.3777C93.9294 88.3076 94.9963 88.2752 96.0744 88.2841C97.1574 88.293 98.2249 88.3433 99.2643 88.4313C99.8503 89.3129 100.405 90.2145 100.927 91.1359C101.453 92.0592 101.948 92.9988 102.412 93.9548C101.937 94.9123 101.428 95.8518 100.886 96.7736L100.886 96.7735ZM106.845 89.9455C110.072 91.0863 112.033 92.7501 112.022 94.0194C112.011 95.3716 109.864 97.1093 106.393 98.2279L106.393 98.228C106.201 98.2896 106.005 98.3492 105.804 98.4068C105.327 96.8872 104.748 95.4019 104.069 93.9611C104.745 92.5507 105.326 91.0966 105.807 89.6087C106.164 89.7154 106.51 89.8277 106.845 89.9455ZM103.203 95.6858C103.64 96.6941 104.023 97.7244 104.353 98.7724C103.273 99.0056 102.183 99.1823 101.085 99.3017C101.46 98.7187 101.823 98.1283 102.174 97.5307C102.531 96.9236 102.874 96.3086 103.203 95.6858ZM103.9 107.842C102.792 108.471 100.442 107.622 97.9176 105.414C97.6283 105.161 97.3373 104.891 97.0447 104.605C98.1144 103.44 99.1042 102.204 100.007 100.906C101.602 100.785 103.187 100.554 104.75 100.215C104.819 100.503 104.88 100.786 104.933 101.063L104.933 101.063C105.259 102.581 105.303 104.146 105.063 105.68C105.027 106.101 104.905 106.51 104.705 106.882C104.505 107.254 104.231 107.58 103.9 107.842Z" fill="#53C1DE"/>
<path fill-rule="evenodd" clip-rule="evenodd" d="M94.2428 123.476C94.7593 123.137 95.3647 122.959 95.9824 122.964C96.8107 122.971 97.6024 123.307 98.1833 123.897C98.3493 124.066 98.4942 124.252 98.6164 124.45H93.2968C93.5359 124.062 93.8583 123.729 94.2428 123.476ZM90.4268 124.45C90.6444 124.051 90.8684 123.655 91.0989 123.263L91.0989 123.264C91.6375 122.347 92.2102 121.452 92.8172 120.578C93.858 120.508 94.9248 120.475 96.0029 120.484C97.086 120.493 98.1535 120.543 99.1928 120.631C99.7788 121.513 100.333 122.415 100.856 123.336C101.066 123.705 101.271 124.076 101.471 124.45H104.762C105.122 123.583 105.447 122.702 105.736 121.809C106.093 121.915 106.439 122.028 106.773 122.146C108.623 122.799 110.057 123.625 110.942 124.45H112.885C111.964 123.007 109.959 121.687 107.271 120.737C106.9 120.606 106.526 120.484 106.148 120.373C106.213 120.118 106.273 119.863 106.328 119.606C107.215 115.476 106.685 112.138 104.791 111.025C102.975 109.958 99.9821 111.03 96.9466 113.628C96.6475 113.885 96.355 114.149 96.0692 114.42C95.8808 114.237 95.6891 114.057 95.494 113.88C92.3586 111.05 89.2023 109.842 87.2922 110.926C85.4606 111.967 84.8948 115.096 85.6298 119.023C85.703 119.412 85.786 119.799 85.8787 120.184C85.4298 120.307 84.9958 120.439 84.5808 120.58C81.7629 121.536 79.7119 122.921 78.8789 124.45H80.7206C81.5584 123.565 83.0585 122.675 85.0611 121.995C85.4598 121.86 85.8622 121.737 86.2681 121.626C86.5572 122.581 86.8859 123.523 87.2534 124.45H90.4268ZM94.4925 114.989C91.7853 112.545 89.206 111.558 88.0301 112.226C86.9263 112.852 86.4688 115.383 87.0984 118.748L87.0984 118.748C87.1665 119.11 87.2437 119.47 87.33 119.828C88.8713 119.498 90.4324 119.269 92.0033 119.141C92.9246 117.855 93.9301 116.631 95.0132 115.478C94.8391 115.309 94.6655 115.146 94.4925 114.989ZM87.7217 121.271C88.0175 122.254 88.3815 123.271 88.8082 124.307C89.1283 123.699 89.4624 123.099 89.8103 122.506C90.159 121.913 90.5213 121.329 90.8972 120.753C89.7872 120.882 88.7215 121.056 87.7217 121.271ZM102.155 122.598C102.498 123.201 102.828 123.81 103.146 124.426C103.578 123.445 103.96 122.443 104.291 121.424C103.288 121.186 102.221 120.99 101.106 120.84C101.468 121.419 101.818 122.005 102.155 122.598ZM104.034 112.313C102.94 111.67 100.519 112.537 97.9182 114.763C97.6421 115.001 97.372 115.244 97.1079 115.495C98.1656 116.666 99.1432 117.906 100.034 119.209C101.606 119.365 103.167 119.625 104.705 119.986C104.763 119.756 104.817 119.525 104.867 119.292C105.633 115.726 105.2 112.999 104.034 112.313ZM98.0897 119.056C97.4529 118.189 96.7728 117.354 96.052 116.554C95.3458 117.304 94.6427 118.131 93.9559 119.021C95.3351 118.968 96.7131 118.98 98.0897 119.056Z" fill="url(#paint3_linear_1458_17900)"/>
<defs>
<linearGradient id="paint0_linear_1458_17900" x1="96.2842" y1="8.96484" x2="96.348" y2="80.1719" gradientUnits="userSpaceOnUse">
<stop stop-color="#BCBCBC"/>
<stop offset="0.743386" stop-color="#4E4E4E" stop-opacity="0.110772"/>
<stop offset="0.95694" stop-color="#4E4E4E" stop-opacity="0"/>
</linearGradient>
<linearGradient id="paint1_linear_1458_17900" x1="22.2618" y1="38.6772" x2="24.1828" y2="56.6071" gradientUnits="userSpaceOnUse">
<stop stop-color="#32DE84"/>
<stop offset="0.410033" stop-color="#30D47E"/>
<stop offset="1" stop-color="#27A362"/>
</linearGradient>
<linearGradient id="paint2_linear_1458_17900" x1="171.59" y1="38.6772" x2="174.407" y2="60.065" gradientUnits="userSpaceOnUse">
<stop stop-color="#00A1F1"/>
<stop offset="0.342321" stop-color="#0195DE"/>
<stop offset="1" stop-color="#08567D"/>
</linearGradient>
<linearGradient id="paint3_linear_1458_17900" x1="96.0339" y1="94.4095" x2="95.7713" y2="125.125" gradientUnits="userSpaceOnUse">
<stop offset="0.217071" stop-color="#53C1DE"/>
<stop offset="0.547488" stop-color="#53C1DE" stop-opacity="0.126398"/>
<stop offset="1" stop-color="#53C1DE" stop-opacity="0"/>
</linearGradient>
</defs>
</svg>
