<svg width="85" height="20" viewBox="0 0 85 20" fill="none" xmlns="http://www.w3.org/2000/svg">
<path d="M17.5344 5.33553C16.7017 5.33469 15.9015 5.6589 15.3041 6.23915L11.6456 3.62001C11.715 3.33085 11.6819 3.02659 11.5518 2.75916C11.4218 2.49173 11.203 2.27772 10.9328 2.15367C10.6625 2.02963 10.3576 2.00323 10.07 2.079C9.7825 2.15476 9.53017 2.32799 9.35614 2.5691C9.1821 2.81021 9.09716 3.10426 9.11581 3.40103C9.13446 3.6978 9.25554 3.9789 9.45839 4.19633C9.66123 4.41376 9.93326 4.55404 10.228 4.59321C10.5228 4.63239 10.822 4.56803 11.0746 4.41113L15.5536 7.66977C15.9021 6.93612 16.6724 6.37487 17.5344 6.37487C18.0483 6.37561 18.5452 6.55896 18.9364 6.89218C19.3275 7.22541 19.5876 7.68682 19.67 8.19403C19.7524 8.70124 19.6519 9.22125 19.3864 9.66119C19.1208 10.1011 18.7076 10.4324 18.2204 10.5958L18.5151 11.5936C19.2422 11.3597 19.862 10.8738 20.2627 10.2235C20.6634 9.57316 20.8187 8.80115 20.7008 8.04646C20.5828 7.29178 20.1993 6.604 19.6192 6.107C19.0392 5.60999 18.3007 5.33642 17.5369 5.33553" fill="#0A7BFF"/>
<path d="M7.25987 2.22236C7.00712 3.01328 7.07382 3.8717 7.44573 4.61407L3.84961 7.30413C3.76458 7.2522 3.67339 7.21112 3.57816 7.18186C3.30698 7.09588 3.01494 7.10241 2.74788 7.2004C2.48082 7.29839 2.25386 7.48231 2.10265 7.72326C1.95144 7.96422 1.88454 8.24857 1.91244 8.53167C1.94035 8.81477 2.06149 9.08058 2.25684 9.28738C2.45219 9.49417 2.71069 9.63023 2.99174 9.67418C3.2728 9.71814 3.5605 9.66752 3.80966 9.53025C4.05882 9.39299 4.25534 9.17685 4.36836 8.9158C4.48138 8.65474 4.5045 8.36354 4.43408 8.08792L8.88491 4.8146C8.29799 4.26314 7.9923 3.35953 8.25152 2.54028C8.40942 2.05453 8.73421 1.64038 9.16831 1.37123C9.60241 1.10209 10.1178 0.995344 10.6231 1.06992C11.1284 1.14449 11.591 1.39556 11.9288 1.77863C12.2667 2.16169 12.458 2.65201 12.4688 3.16266L13.5045 3.18467C13.5014 2.42272 13.2264 1.68692 12.7289 1.10979C12.2314 0.532672 11.5441 0.152175 10.791 0.0368464C10.0378 -0.0784819 9.2682 0.0789378 8.6208 0.480752C7.97341 0.882566 7.49079 1.50236 7.25987 2.22848" fill="#EB3D00"/>
<path d="M1.31955 10.8867C1.98865 11.376 2.82143 11.5869 3.64278 11.4748L5.06117 15.7129C4.98596 15.7772 4.91828 15.8498 4.85942 15.9293C4.69107 16.1565 4.60301 16.4332 4.60909 16.716C4.61516 16.9987 4.71503 17.2714 4.89299 17.4911C5.07094 17.7109 5.31689 17.8653 5.59216 17.93C5.86744 17.9948 6.15642 17.9662 6.41367 17.8488C6.67092 17.7313 6.88186 17.5318 7.0133 17.2814C7.14475 17.031 7.18925 16.744 7.13982 16.4656C7.09038 16.1872 6.94982 15.9331 6.74021 15.7433C6.53061 15.5534 6.26386 15.4387 5.98191 15.417L4.27617 10.186C3.57064 10.5627 2.62056 10.5627 1.92725 10.0577C1.51193 9.76064 1.21657 9.32482 1.09459 8.829C0.972608 8.33318 1.03205 7.81008 1.26217 7.35428C1.49229 6.89847 1.8779 6.54003 2.34928 6.34378C2.82066 6.14753 3.34671 6.1264 3.83231 6.28423L4.17712 5.31581C3.45852 5.0731 2.67665 5.09656 1.9739 5.38193C1.27114 5.6673 0.694265 6.19559 0.348322 6.87058C0.00237898 7.54558 -0.089614 8.32238 0.0890966 9.05951C0.267807 9.79664 0.705332 10.4451 1.32199 10.8867" fill="#00BCD4"/>
<path d="M17.734 15.8683C17.4797 15.0831 16.928 14.4286 16.197 14.0452L17.5653 9.79371C17.6651 9.78651 17.7636 9.76721 17.8588 9.73624C18.0972 9.65791 18.3071 9.51071 18.462 9.31321C18.6169 9.11571 18.7098 8.87676 18.729 8.6265C18.7483 8.37625 18.6929 8.12591 18.57 7.90708C18.4471 7.68824 18.2621 7.51072 18.0384 7.39691C17.8147 7.2831 17.5623 7.2381 17.313 7.26759C17.0638 7.29708 16.8289 7.39974 16.6379 7.56262C16.4469 7.72549 16.3085 7.94128 16.24 8.18276C16.1716 8.42423 16.1762 8.68057 16.2533 8.91943C16.3258 9.14466 16.4606 9.34475 16.6421 9.49657L14.9217 14.7153C15.7189 14.8217 16.4905 15.3731 16.7558 16.1826C16.9081 16.669 16.8836 17.1935 16.6865 17.6635C16.4895 18.1336 16.1326 18.5188 15.679 18.7511C15.2254 18.9835 14.7043 19.048 14.2077 18.9333C13.7111 18.8186 13.2711 18.5321 12.9653 18.1243L12.1094 18.7064C12.5581 19.3121 13.2064 19.7397 13.9398 19.9137C14.6732 20.0877 15.4446 19.9969 16.1175 19.6574C16.7905 19.3178 17.3218 18.7513 17.6176 18.058C17.9134 17.3647 17.9546 16.5891 17.734 15.8683Z" fill="#86C351"/>
<path d="M7.80175 19.3031C8.4698 18.8149 8.92117 18.0854 9.05997 17.2697L13.5328 17.2232C13.6451 17.4967 13.8489 17.7228 14.1093 17.8628C14.3697 18.0028 14.6707 18.048 14.9608 17.9908C15.2509 17.9336 15.5121 17.7774 15.6999 17.549C15.8876 17.3206 15.9903 17.0341 15.9903 16.7384C15.9903 16.4427 15.8876 16.1562 15.6999 15.9278C15.5121 15.6994 15.2509 15.5432 14.9608 15.486C14.6707 15.4287 14.3697 15.474 14.1093 15.614C13.8489 15.754 13.6451 15.98 13.5328 16.2536L8.03041 16.2682C8.17836 17.0569 7.89346 17.9642 7.20261 18.4692C6.79046 18.7828 6.27915 18.9375 5.76229 18.9048C5.24544 18.8722 4.75762 18.6545 4.38817 18.2916C4.01871 17.9287 3.79235 17.4448 3.75052 16.9286C3.70869 16.4125 3.85419 15.8985 4.16039 15.4808L3.3387 14.8535C2.88847 15.4682 2.67331 16.2238 2.7322 16.9835C2.79109 17.7432 3.12014 18.4566 3.65973 18.9946C4.19932 19.5326 4.91375 19.8595 5.6736 19.9161C6.43344 19.9726 7.18842 19.7552 7.80175 19.3031Z" fill="#9032E9"/>
<path d="M81.2746 14.7892C80.4443 14.7892 79.7281 14.6059 79.126 14.2394C78.5276 13.8691 78.0657 13.353 77.7403 12.691C77.4186 12.0253 77.2578 11.2511 77.2578 10.3684C77.2578 9.48578 77.4186 8.70785 77.7403 8.03464C78.0657 7.35769 78.5182 6.83034 79.0979 6.4526C79.6814 6.07111 80.3621 5.88037 81.14 5.88037C81.5888 5.88037 82.032 5.95517 82.4696 6.10477C82.9072 6.25438 83.3055 6.49748 83.6645 6.83408C84.0236 7.16695 84.3097 7.60828 84.5229 8.15806C84.7361 8.70785 84.8426 9.3848 84.8426 10.1889V10.7499H78.2003V9.60547H83.4962C83.4962 9.11926 83.399 8.68541 83.2045 8.30393C83.0138 7.92244 82.7407 7.62137 82.3854 7.4007C82.0339 7.18004 81.6187 7.06971 81.14 7.06971C80.6126 7.06971 80.1564 7.20061 79.7711 7.46241C79.3896 7.72048 79.0961 8.05708 78.8903 8.47223C78.6846 8.88737 78.5818 9.33244 78.5818 9.80743V10.5704C78.5818 11.2212 78.694 11.7728 78.9184 12.2254C79.1465 12.6742 79.4626 13.0164 79.8665 13.252C80.2704 13.4839 80.7398 13.5998 81.2746 13.5998C81.6225 13.5998 81.9366 13.5512 82.2171 13.454C82.5014 13.353 82.7463 13.2034 82.952 13.0052C83.1577 12.8032 83.3167 12.5526 83.4289 12.2534L84.708 12.6125C84.5734 13.0463 84.3471 13.4278 84.0292 13.7569C83.7113 14.0823 83.3186 14.3366 82.8511 14.5199C82.3836 14.6994 81.8581 14.7892 81.2746 14.7892Z" fill="#B9B9B9"/>
<path d="M69.7459 9.42594V14.6097H68.4219V5.99257H69.701V7.33899H69.8132C70.0151 6.90141 70.3218 6.54984 70.7332 6.2843C71.1446 6.01501 71.6757 5.88037 72.3265 5.88037C72.9099 5.88037 73.4205 6.00005 73.858 6.23942C74.2956 6.47504 74.636 6.83409 74.8791 7.31655C75.1222 7.79528 75.2437 8.40117 75.2437 9.13422V14.6097H73.9198V9.22398C73.9198 8.54703 73.744 8.01968 73.3924 7.64194C73.0408 7.26045 72.5584 7.06971 71.945 7.06971C71.5224 7.06971 71.1446 7.16134 70.8118 7.3446C70.4826 7.52787 70.2227 7.79528 70.032 8.14684C69.8412 8.49841 69.7459 8.92477 69.7459 9.42594Z" fill="#B9B9B9"/>
<path d="M62.0569 14.8116C61.5108 14.8116 61.0153 14.7088 60.5702 14.5031C60.1251 14.2936 59.7717 13.9925 59.5099 13.5998C59.2481 13.2034 59.1172 12.7247 59.1172 12.1637C59.1172 11.67 59.2144 11.2698 59.4089 10.9631C59.6034 10.6527 59.8633 10.4096 60.1887 10.2338C60.5141 10.058 60.8731 9.92711 61.2659 9.84109C61.6623 9.75133 62.0606 9.68027 62.4608 9.62791C62.9844 9.56058 63.4089 9.51009 63.7343 9.47643C64.0634 9.43903 64.3028 9.37732 64.4524 9.2913C64.6057 9.20528 64.6824 9.05568 64.6824 8.84249V8.79761C64.6824 8.24409 64.5309 7.81398 64.228 7.50729C63.9288 7.20061 63.4744 7.04727 62.8647 7.04727C62.2327 7.04727 61.7371 7.18565 61.3781 7.46241C61.019 7.73918 60.7666 8.03464 60.6207 8.34881L59.364 7.9C59.5884 7.37639 59.8876 6.96873 60.2616 6.677C60.6394 6.38154 61.0508 6.17584 61.4959 6.05989C61.9447 5.94021 62.386 5.88037 62.8198 5.88037C63.0966 5.88037 63.4145 5.91403 63.7736 5.98135C64.1363 6.04493 64.486 6.17771 64.8226 6.37967C65.163 6.58163 65.4454 6.88645 65.6698 7.29411C65.8942 7.70178 66.0064 8.24783 66.0064 8.93226V14.6097H64.6824V13.4428H64.6151C64.5253 13.6298 64.3757 13.8299 64.1663 14.043C63.9568 14.2562 63.6782 14.4376 63.3304 14.5872C62.9825 14.7368 62.558 14.8116 62.0569 14.8116ZM62.2588 13.6223C62.7824 13.6223 63.2238 13.5194 63.5828 13.3137C63.9456 13.108 64.2186 12.8425 64.4019 12.5171C64.5889 12.1917 64.6824 11.8495 64.6824 11.4905V10.2787C64.6263 10.346 64.5029 10.4077 64.3121 10.4638C64.1251 10.5162 63.9082 10.5629 63.6614 10.6041C63.4183 10.6415 63.1808 10.6751 62.9489 10.705C62.7207 10.7312 62.5356 10.7537 62.3935 10.7724C62.0494 10.8172 61.7277 10.8902 61.4285 10.9912C61.1331 11.0884 60.8937 11.2361 60.7105 11.4344C60.5309 11.6288 60.4412 11.8944 60.4412 12.231C60.4412 12.691 60.6113 13.0388 60.9517 13.2745C61.2958 13.5063 61.7315 13.6223 62.2588 13.6223Z" fill="#B9B9B9"/>
<path d="M57.0935 3.12012V14.6096H55.7695V3.12012H57.0935Z" fill="#B9B9B9"/>
<path d="M53.5945 5.99273V7.11475H49.1289V5.99273H53.5945ZM50.4304 3.92822H51.7544V12.1414C51.7544 12.5154 51.8087 12.7959 51.9171 12.9829C52.0293 13.1662 52.1714 13.2896 52.3435 13.3532C52.5193 13.413 52.7044 13.4429 52.8989 13.4429C53.0447 13.4429 53.1644 13.4354 53.2579 13.4205C53.3514 13.4018 53.4262 13.3868 53.4823 13.3756L53.7516 14.5649C53.6619 14.5986 53.5366 14.6323 53.3757 14.6659C53.2149 14.7033 53.0111 14.722 52.7642 14.722C52.3902 14.722 52.0237 14.6416 51.6647 14.4808C51.3094 14.32 51.0139 14.075 50.7783 13.7459C50.5464 13.4167 50.4304 13.0016 50.4304 12.5004V3.92822Z" fill="#B9B9B9"/>
<path d="M47.6962 7.92244L46.5069 8.25905C46.4321 8.06082 46.3217 7.86821 46.1759 7.68121C46.0337 7.49046 45.8393 7.33338 45.5924 7.20996C45.3456 7.08654 45.0295 7.02483 44.6443 7.02483C44.117 7.02483 43.6775 7.14638 43.3259 7.38948C42.9781 7.62885 42.8042 7.93366 42.8042 8.30393C42.8042 8.63305 42.9239 8.89298 43.1632 9.08373C43.4026 9.27447 43.7766 9.43342 44.2853 9.56059L45.5644 9.87475C46.3348 10.0618 46.9089 10.3479 47.2867 10.7331C47.6644 11.1146 47.8533 11.6064 47.8533 12.2085C47.8533 12.7022 47.7112 13.1436 47.4269 13.5325C47.1464 13.9215 46.7537 14.2282 46.2488 14.4526C45.7439 14.677 45.1567 14.7892 44.4872 14.7892C43.6083 14.7892 42.8809 14.5984 42.3049 14.217C41.7289 13.8355 41.3643 13.2782 41.2109 12.5451L42.4676 12.231C42.5873 12.6948 42.8136 13.0426 43.1464 13.2745C43.483 13.5063 43.9225 13.6223 44.4648 13.6223C45.0819 13.6223 45.5718 13.4914 45.9346 13.2296C46.3012 12.964 46.4844 12.6461 46.4844 12.2759C46.4844 11.9767 46.3797 11.7261 46.1703 11.5241C45.9608 11.3184 45.6392 11.1651 45.2053 11.0641L43.7691 10.7275C42.98 10.5405 42.4003 10.2506 42.03 9.85792C41.6635 9.46147 41.4802 8.96592 41.4802 8.37125C41.4802 7.88504 41.6167 7.45493 41.8898 7.08093C42.1665 6.70692 42.5424 6.41333 43.0174 6.20015C43.4961 5.98696 44.0384 5.88037 44.6443 5.88037C45.497 5.88037 46.1665 6.06737 46.6527 6.44138C47.1427 6.81538 47.4905 7.30907 47.6962 7.92244Z" fill="#B9B9B9"/>
<path d="M35.2287 14.8116C34.6827 14.8116 34.1871 14.7088 33.7421 14.5031C33.297 14.2936 32.9436 13.9925 32.6818 13.5998C32.42 13.2034 32.2891 12.7247 32.2891 12.1637C32.2891 11.67 32.3863 11.2698 32.5808 10.9631C32.7753 10.6527 33.0352 10.4096 33.3606 10.2338C33.686 10.058 34.045 9.92711 34.4377 9.84109C34.8342 9.75133 35.2325 9.68027 35.6327 9.62791C36.1563 9.56058 36.5808 9.51009 36.9062 9.47643C37.2353 9.43903 37.4746 9.37732 37.6242 9.2913C37.7776 9.20528 37.8543 9.05568 37.8543 8.84249V8.79761C37.8543 8.24409 37.7028 7.81398 37.3998 7.50729C37.1006 7.20061 36.6462 7.04727 36.0366 7.04727C35.4045 7.04727 34.909 7.18565 34.5499 7.46241C34.1909 7.73918 33.9384 8.03464 33.7926 8.34881L32.5359 7.9C32.7603 7.37639 33.0595 6.96873 33.4335 6.677C33.8113 6.38154 34.2227 6.17584 34.6677 6.05989C35.1165 5.94021 35.5579 5.88037 35.9917 5.88037C36.2685 5.88037 36.5864 5.91403 36.9454 5.98135C37.3082 6.04493 37.6579 6.17771 37.9945 6.37967C38.3349 6.58163 38.6172 6.88645 38.8416 7.29411C39.066 7.70178 39.1782 8.24783 39.1782 8.93226V14.6097H37.8543V13.4428H37.7869C37.6972 13.6298 37.5476 13.8299 37.3381 14.043C37.1287 14.2562 36.8501 14.4376 36.5022 14.5872C36.1544 14.7368 35.7299 14.8116 35.2287 14.8116ZM35.4307 13.6223C35.9543 13.6223 36.3956 13.5194 36.7547 13.3137C37.1175 13.108 37.3905 12.8425 37.5738 12.5171C37.7608 12.1917 37.8543 11.8495 37.8543 11.4905V10.2787C37.7982 10.346 37.6747 10.4077 37.484 10.4638C37.297 10.5162 37.0801 10.5629 36.8332 10.6041C36.5901 10.6415 36.3526 10.6751 36.1207 10.705C35.8926 10.7312 35.7075 10.7537 35.5654 10.7724C35.2213 10.8172 34.8996 10.8902 34.6004 10.9912C34.305 11.0884 34.0656 11.2361 33.8823 11.4344C33.7028 11.6288 33.613 11.8944 33.613 12.231C33.613 12.691 33.7832 13.0388 34.1236 13.2745C34.4676 13.5063 34.9034 13.6223 35.4307 13.6223Z" fill="#B9B9B9"/>
<path d="M31.0826 5.99247V7.11449H26.4375V5.99247H31.0826ZM27.8288 14.6096V4.80314C27.8288 4.30945 27.9447 3.89804 28.1766 3.56892C28.4085 3.23979 28.7096 2.99295 29.0798 2.82839C29.4501 2.66382 29.8409 2.58154 30.2524 2.58154C30.5777 2.58154 30.8433 2.60772 31.049 2.66008C31.2547 2.71245 31.408 2.76107 31.509 2.80595L31.1275 3.9504C31.0602 3.92796 30.9667 3.89991 30.847 3.86625C30.7311 3.83259 30.5777 3.81576 30.387 3.81576C29.9494 3.81576 29.6334 3.92609 29.4389 4.14676C29.2482 4.36742 29.1528 4.69093 29.1528 5.1173V14.6096H27.8288Z" fill="#B9B9B9"/>
</svg>
