<svg width="88" height="20" viewBox="0 0 88 20" fill="none" xmlns="http://www.w3.org/2000/svg">
<g clip-path="url(#clip0_2075_6237)">
<path d="M43.5922 5.00023C40.1953 5.00023 37.7461 7.21561 37.7461 10.5387C37.7461 13.8618 40.503 16.0771 43.8999 16.0771C45.9522 16.0771 47.7615 15.2648 48.8815 13.8956L46.5276 12.5356C45.9061 13.2156 44.9615 13.6125 43.8999 13.6125C42.4261 13.6125 41.1738 12.8433 40.7092 11.6125H49.3307C49.3984 11.2679 49.4384 10.911 49.4384 10.5356C49.4384 7.21561 46.9892 5.00023 43.5922 5.00023ZM40.6815 9.46176C41.0661 8.23407 42.1184 7.46176 43.5892 7.46176C45.063 7.46176 46.1153 8.23407 46.4969 9.46176H40.6815ZM76.7245 5.00023C73.3276 5.00023 70.8784 7.21561 70.8784 10.5387C70.8784 13.8618 73.6353 16.0771 77.0322 16.0771C79.0845 16.0771 80.8938 15.2648 82.0138 13.8956L79.6599 12.5356C79.0384 13.2156 78.0938 13.6125 77.0322 13.6125C75.5584 13.6125 74.3061 12.8433 73.8415 11.6125H82.463C82.5307 11.2679 82.5707 10.911 82.5707 10.5356C82.5707 7.21561 80.1215 5.00023 76.7245 5.00023ZM73.8169 9.46176C74.2015 8.23407 75.2538 7.46176 76.7245 7.46176C78.1984 7.46176 79.2507 8.23407 79.6322 9.46176H73.8169ZM61.8076 10.5387C61.8076 12.3848 63.0138 13.6156 64.8845 13.6156C66.1522 13.6156 67.103 13.0402 67.5922 12.1018L69.9553 13.4648C68.9769 15.0956 67.143 16.0771 64.8845 16.0771C61.4845 16.0771 59.0384 13.8618 59.0384 10.5387C59.0384 7.21561 61.4876 5.00023 64.8845 5.00023C67.143 5.00023 68.9738 5.98176 69.9553 7.61253L67.5922 8.97561C67.103 8.03715 66.1522 7.46176 64.8845 7.46176C63.0169 7.46176 61.8076 8.69253 61.8076 10.5387ZM87.1861 1.61561V15.7695H84.4168V1.61561H87.1861ZM11.5645 0.0771484L22.9338 19.7695H0.195312L11.5645 0.0771484ZM39.9892 1.61561L31.463 16.3848L22.9369 1.61561H26.1338L31.463 10.8464L36.7922 1.61561H39.9892ZM58.1153 5.30792V8.28946C57.8076 8.20023 57.4815 8.13869 57.1307 8.13869C55.343 8.13869 54.0538 9.36946 54.0538 11.2156V15.7695H51.2845V5.30792H54.0538V8.13869C54.0538 6.57561 55.8722 5.30792 58.1153 5.30792Z" fill="white"/>
</g>
<defs>
<clipPath id="clip0_2075_6237">
<rect width="87.3846" height="20" fill="white"/>
</clipPath>
</defs>
</svg>
