<svg width="34" height="20" viewBox="0 0 34 20" fill="none" xmlns="http://www.w3.org/2000/svg">
<g clip-path="url(#clip0_2075_5966)">
<path d="M9.49584 7.29643C9.49584 7.70302 9.53979 8.03269 9.61672 8.27445C9.70463 8.51621 9.81452 8.77995 9.96836 9.06566C10.0233 9.15357 10.0453 9.24148 10.0453 9.31841C10.0453 9.4283 9.97935 9.53819 9.8365 9.64808L9.14419 10.1096C9.04529 10.1756 8.94639 10.2085 8.85847 10.2085C8.74858 10.2085 8.63869 10.1536 8.5288 10.0547C8.37496 9.88984 8.24309 9.71401 8.1332 9.53819C8.02331 9.35137 7.91342 9.14258 7.79254 8.88984C6.9354 9.90082 5.85847 10.4063 4.56177 10.4063C3.63869 10.4063 2.90243 10.1426 2.36397 9.61511C1.82551 9.08764 1.55078 8.38434 1.55078 7.50522C1.55078 6.57116 1.88045 5.81291 2.55078 5.24148C3.22111 4.67006 4.11122 4.38434 5.24309 4.38434C5.61671 4.38434 6.00133 4.41731 6.40792 4.47225C6.81452 4.5272 7.2321 4.61511 7.67166 4.71401V3.91181C7.67166 3.07665 7.49584 2.49423 7.15518 2.15357C6.80353 1.81291 6.21012 1.64808 5.36397 1.64808C4.97935 1.64808 4.58375 1.69203 4.17715 1.79093C3.77056 1.88984 3.37496 2.01072 2.99034 2.16456C2.81452 2.24148 2.68265 2.28544 2.60573 2.30742C2.5288 2.3294 2.47386 2.34039 2.4299 2.34039C2.27606 2.34039 2.19913 2.2305 2.19913 1.99973V1.46126C2.19913 1.28544 2.22111 1.15357 2.27606 1.07665C2.331 0.999726 2.4299 0.922803 2.58375 0.84588C2.96836 0.648078 3.4299 0.483243 3.96836 0.351375C4.50682 0.208518 5.07825 0.142583 5.68265 0.142583C6.99034 0.142583 7.94639 0.439287 8.56177 1.03269C9.16617 1.6261 9.47386 2.5272 9.47386 3.73599V7.29643H9.49584ZM5.0343 8.96676C5.39693 8.96676 5.77056 8.90083 6.16617 8.76896C6.56177 8.63709 6.91342 8.39533 7.21012 8.06566C7.38595 7.85687 7.51781 7.6261 7.58375 7.36236C7.64968 7.09863 7.69364 6.77995 7.69364 6.40632V5.94478C7.37496 5.86786 7.0343 5.80192 6.68265 5.75797C6.331 5.71401 5.99034 5.69203 5.64968 5.69203C4.91342 5.69203 4.37496 5.83489 4.01232 6.13159C3.64968 6.4283 3.47386 6.84588 3.47386 7.39533C3.47386 7.91181 3.60573 8.29643 3.88045 8.56017C4.14419 8.83489 4.5288 8.96676 5.0343 8.96676ZM13.8585 10.1536C13.6607 10.1536 13.5288 10.1206 13.4409 10.0437C13.353 9.97775 13.2761 9.8239 13.2101 9.61511L10.6277 1.12061C10.5618 0.900825 10.5288 0.757968 10.5288 0.681045C10.5288 0.505221 10.6167 0.40632 10.7925 0.40632H11.8695C12.0783 0.40632 12.2211 0.439287 12.298 0.51621C12.3859 0.582144 12.4519 0.73599 12.5178 0.944781L14.364 8.21951L16.0783 0.944781C16.1332 0.725001 16.1991 0.582144 16.287 0.51621C16.375 0.450276 16.5288 0.40632 16.7266 0.40632H17.6057C17.8145 0.40632 17.9574 0.439287 18.0453 0.51621C18.1332 0.582144 18.2101 0.73599 18.2541 0.944781L19.9903 8.30742L21.8914 0.944781C21.9574 0.725001 22.0343 0.582144 22.1112 0.51621C22.1991 0.450276 22.342 0.40632 22.5398 0.40632H23.5618C23.7376 0.40632 23.8365 0.494232 23.8365 0.681045C23.8365 0.73599 23.8255 0.790935 23.8145 0.856869C23.8035 0.922803 23.7815 1.01072 23.7376 1.13159L21.0892 9.6261C21.0233 9.84588 20.9464 9.98874 20.8585 10.0547C20.7706 10.1206 20.6277 10.1646 20.4409 10.1646H19.4958C19.287 10.1646 19.1442 10.1316 19.0563 10.0547C18.9684 9.97775 18.8914 9.83489 18.8475 9.61511L17.1442 2.5272L15.4519 9.60412C15.3969 9.8239 15.331 9.96676 15.2431 10.0437C15.1552 10.1206 15.0013 10.1536 14.8035 10.1536H13.8585ZM27.9794 10.4503C27.4079 10.4503 26.8365 10.3843 26.287 10.2525C25.7376 10.1206 25.309 9.97775 25.0233 9.81291C24.8475 9.71401 24.7266 9.60412 24.6826 9.50522C24.6387 9.40632 24.6167 9.29643 24.6167 9.19753V8.63709C24.6167 8.40632 24.7046 8.29643 24.8695 8.29643C24.9354 8.29643 25.0013 8.30742 25.0673 8.3294C25.1332 8.35137 25.2321 8.39533 25.342 8.43929C25.7156 8.60412 26.1222 8.73599 26.5508 8.8239C26.9903 8.91181 27.4189 8.95577 27.8585 8.95577C28.5508 8.95577 29.0892 8.83489 29.4629 8.59313C29.8365 8.35137 30.0343 7.99973 30.0343 7.54918C30.0343 7.24148 29.9354 6.98874 29.7376 6.77995C29.5398 6.57115 29.1662 6.38434 28.6277 6.20852L27.0343 5.71401C26.2321 5.46126 25.6387 5.08764 25.2761 4.59313C24.9134 4.10962 24.7266 3.57115 24.7266 2.99973C24.7266 2.53819 24.8255 2.13159 25.0233 1.77995C25.2211 1.4283 25.4848 1.12061 25.8145 0.878847C26.1442 0.6261 26.5178 0.439287 26.9574 0.307419C27.3969 0.175551 27.8585 0.120605 28.342 0.120605C28.5837 0.120605 28.8365 0.131594 29.0783 0.164562C29.331 0.197529 29.5618 0.241485 29.7925 0.285441C30.0123 0.340386 30.2211 0.395331 30.4189 0.461265C30.6167 0.527199 30.7706 0.593133 30.8804 0.659067C31.0343 0.746979 31.1442 0.834891 31.2101 0.933792C31.2761 1.0217 31.309 1.14258 31.309 1.29643V1.81291C31.309 2.04368 31.2211 2.16456 31.0563 2.16456C30.9684 2.16456 30.8255 2.12061 30.6387 2.03269C30.0123 1.74698 29.309 1.60412 28.5288 1.60412C27.9024 1.60412 27.4079 1.70302 27.0673 1.91181C26.7266 2.12061 26.5508 2.43929 26.5508 2.88984C26.5508 3.19753 26.6607 3.46126 26.8804 3.67006C27.1002 3.87885 27.5068 4.08764 28.0892 4.27445L29.6497 4.76896C30.4409 5.0217 31.0123 5.37335 31.353 5.8239C31.6936 6.27445 31.8585 6.79094 31.8585 7.36236C31.8585 7.83489 31.7596 8.26346 31.5728 8.63709C31.375 9.01071 31.1112 9.34039 30.7706 9.60412C30.4299 9.87885 30.0233 10.0766 29.5508 10.2195C29.0563 10.3734 28.5398 10.4503 27.9794 10.4503Z" fill="white"/>
<path fill-rule="evenodd" clip-rule="evenodd" d="M30.0552 15.7909C26.4399 18.4612 21.1871 19.8788 16.6706 19.8788C10.341 19.8788 4.63766 17.5381 0.329969 13.648C-0.0106901 13.3403 0.297002 12.9227 0.703596 13.1645C5.36294 15.8678 11.1102 17.5051 17.0552 17.5051C21.0662 17.5051 25.4728 16.67 29.5278 14.9557C30.1322 14.681 30.6487 15.3513 30.0552 15.7909Z" fill="#FF9900"/>
<path fill-rule="evenodd" clip-rule="evenodd" d="M31.5602 14.0767C31.0987 13.4833 28.5052 13.791 27.3294 13.9338C26.9778 13.9778 26.9228 13.6701 27.2415 13.4393C29.3074 11.9888 32.7031 12.4064 33.0987 12.8899C33.4943 13.3844 32.9888 16.78 31.0547 18.4064C30.758 18.6591 30.4723 18.5272 30.6041 18.1976C31.0437 17.1097 32.0217 14.6591 31.5602 14.0767Z" fill="#FF9900"/>
</g>
<defs>
<clipPath id="clip0_2075_5966">
<rect width="33.4066" height="20" fill="white"/>
</clipPath>
</defs>
</svg>
