<svg width="194" height="35" viewBox="40 0 154 45" fill="none" xmlns="http://www.w3.org/2000/svg">
<g clip-path="url(#clip0_2726_1490)">
<path fill-rule="evenodd" clip-rule="evenodd" d="M-0.00390625 18.3825C-0.00390625 9.19927 6.69067 1.57961 15.4657 0.137695V8.53477C11.2523 9.82564 8.18856 13.7462 8.18856 18.3825C8.18856 19.08 8.25789 19.7613 8.39012 20.42L1.06496 24.593C0.372923 22.652 -0.00390625 20.5612 -0.00390625 18.3825ZM4.05761 29.9465C7.44639 34.1693 12.6507 36.8728 18.4864 36.8728C24.3125 36.8728 29.5093 34.1782 32.8984 29.9673L25.6884 25.7429C23.8315 27.5601 21.2897 28.6803 18.4864 28.6803C15.7112 28.6803 13.1924 27.5825 11.3405 25.7974L4.05761 29.9465ZM36.9767 18.3825C36.9767 20.5703 36.5967 22.6694 35.8991 24.6174L28.5984 20.3398C28.7204 19.7061 28.7842 19.0517 28.7842 18.3825C28.7842 13.7799 25.7647 9.88258 21.5986 8.56328V0.152973C30.3286 1.63266 36.9767 9.23121 36.9767 18.3825ZM22.6013 18.3724C22.6013 20.6417 20.7581 22.4813 18.4843 22.4813C16.2105 22.4813 14.3672 20.6417 14.3672 18.3724C14.3672 16.103 16.2105 14.2634 18.4843 14.2634C20.7581 14.2634 22.6013 16.103 22.6013 18.3724Z" fill="#0A74E6"/>
</g>
<path d="M58.2854 30.3777L53.5483 23.5867C53.3495 23.6088 53.0514 23.6198 52.6538 23.6198H47.4198V30.3777H43.1133V7.18885H52.6538C54.6635 7.18885 56.4082 7.52012 57.8879 8.18266C59.3897 8.8452 60.5381 9.79484 61.3331 11.0316C62.1282 12.2683 62.5257 13.7369 62.5257 15.4375C62.5257 17.1822 62.095 18.6839 61.2337 19.9427C60.3945 21.2016 59.1799 22.1402 57.5898 22.7585L62.9232 30.3777H58.2854ZM58.1861 15.4375C58.1861 13.9578 57.7002 12.8204 56.7285 12.0254C55.7567 11.2303 54.3323 10.8328 52.4551 10.8328H47.4198V20.0752H52.4551C54.3323 20.0752 55.7567 19.6777 56.7285 18.8827C57.7002 18.0655 58.1861 16.9171 58.1861 15.4375Z" fill="white"/>
<path d="M83.5761 21.6322C83.5761 21.9193 83.554 22.3279 83.5098 22.8579H69.6296C69.8725 24.1609 70.5019 25.1989 71.5178 25.9718C72.5558 26.7227 73.8367 27.0982 75.3606 27.0982C77.304 27.0982 78.9052 26.4577 80.164 25.1768L82.3835 27.7276C81.5884 28.6772 80.5836 29.395 79.3689 29.8808C78.1543 30.3667 76.785 30.6096 75.2612 30.6096C73.3177 30.6096 71.6062 30.2231 70.1265 29.4502C68.6468 28.6772 67.4984 27.6061 66.6813 26.2369C65.8863 24.8455 65.4887 23.2775 65.4887 21.5328C65.4887 19.8102 65.8752 18.2643 66.6482 16.8951C67.4432 15.5037 68.5364 14.4216 69.9277 13.6486C71.3191 12.8756 72.8871 12.4892 74.6318 12.4892C76.3544 12.4892 77.8893 12.8756 79.2364 13.6486C80.6057 14.3995 81.6657 15.4706 82.4166 16.8619C83.1896 18.2312 83.5761 19.8213 83.5761 21.6322ZM74.6318 15.8019C73.3067 15.8019 72.1804 16.1994 71.2528 16.9944C70.3474 17.7674 69.7952 18.8054 69.5965 20.1084H79.6339C79.4573 18.8275 78.9162 17.7895 78.0107 16.9944C77.1053 16.1994 75.9789 15.8019 74.6318 15.8019Z" fill="white"/>
<path d="M108.556 7.18885V30.3777H105.012L92.2245 14.6755V30.3777H87.9511V7.18885H91.4957L104.283 22.891V7.18885H108.556Z" fill="white"/>
<path d="M121.13 12.4892C123.736 12.4892 125.724 13.1186 127.093 14.3774C128.484 15.6141 129.18 17.4913 129.18 20.009V30.3777H125.271V28.2245C124.763 28.9974 124.034 29.5937 123.085 30.0133C122.157 30.4109 121.031 30.6096 119.706 30.6096C118.381 30.6096 117.221 30.3888 116.227 29.9471C115.234 29.4833 114.461 28.8539 113.908 28.0588C113.378 27.2417 113.113 26.3252 113.113 25.3093C113.113 23.7192 113.699 22.4493 114.869 21.4997C116.062 20.528 117.928 20.0421 120.468 20.0421H125.039V19.7771C125.039 18.5404 124.664 17.5907 123.913 16.9282C123.184 16.2656 122.091 15.9344 120.633 15.9344C119.639 15.9344 118.657 16.089 117.685 16.3981C116.735 16.7073 115.929 17.138 115.267 17.6901L113.643 14.6755C114.571 13.9688 115.686 13.4278 116.989 13.0523C118.292 12.6769 119.673 12.4892 121.13 12.4892ZM120.567 27.5951C121.605 27.5951 122.521 27.3632 123.317 26.8994C124.134 26.4135 124.708 25.7289 125.039 24.8455V22.7917H120.766C118.381 22.7917 117.188 23.5757 117.188 25.1437C117.188 25.8945 117.486 26.4908 118.082 26.9325C118.679 27.3742 119.507 27.5951 120.567 27.5951Z" fill="white"/>
<path d="M145.128 29.417C144.642 29.8146 144.046 30.1127 143.339 30.3115C142.655 30.5102 141.926 30.6096 141.153 30.6096C139.209 30.6096 137.708 30.1017 136.648 29.0858C135.587 28.0699 135.057 26.5902 135.057 24.6468V16.1331H132.142V12.8204H135.057V8.77895H139.198V12.8204H143.935V16.1331H139.198V24.5474C139.198 25.4087 139.408 26.0712 139.828 26.535C140.247 26.9767 140.855 27.1975 141.65 27.1975C142.577 27.1975 143.35 26.9546 143.969 26.4687L145.128 29.417Z" fill="white"/>
<path d="M148.534 12.6879H152.675V30.3777H148.534V12.6879ZM150.621 9.77275C149.871 9.77275 149.241 9.54087 148.733 9.07709C148.225 8.59123 147.971 7.99494 147.971 7.28823C147.971 6.58152 148.225 5.99628 148.733 5.5325C149.241 5.04664 149.871 4.80371 150.621 4.80371C151.372 4.80371 152.002 5.0356 152.51 5.49938C153.018 5.94107 153.272 6.50423 153.272 7.18885C153.272 7.91764 153.018 8.53601 152.51 9.04396C152.024 9.52982 151.394 9.77275 150.621 9.77275Z" fill="white"/>
<path d="M174.674 12.6879L167.088 30.3777H162.814L155.228 12.6879H159.535L165.034 25.8062L170.698 12.6879H174.674Z" fill="white"/>
<path d="M193.406 21.6322C193.406 21.9193 193.384 22.3279 193.34 22.8579H179.46C179.703 24.1609 180.332 25.1989 181.348 25.9718C182.386 26.7227 183.667 27.0982 185.191 27.0982C187.134 27.0982 188.735 26.4577 189.994 25.1768L192.214 27.7276C191.419 28.6772 190.414 29.395 189.199 29.8808C187.984 30.3667 186.615 30.6096 185.091 30.6096C183.148 30.6096 181.436 30.2231 179.957 29.4502C178.477 28.6772 177.329 27.6061 176.511 26.2369C175.716 24.8455 175.319 23.2775 175.319 21.5328C175.319 19.8102 175.705 18.2643 176.478 16.8951C177.273 15.5037 178.367 14.4216 179.758 13.6486C181.149 12.8756 182.717 12.4892 184.462 12.4892C186.185 12.4892 187.719 12.8756 189.067 13.6486C190.436 14.3995 191.496 15.4706 192.247 16.8619C193.02 18.2312 193.406 19.8213 193.406 21.6322ZM184.462 15.8019C183.137 15.8019 182.01 16.1994 181.083 16.9944C180.177 17.7674 179.625 18.8054 179.427 20.1084H189.464C189.287 18.8275 188.746 17.7895 187.841 16.9944C186.935 16.1994 185.809 15.8019 184.462 15.8019Z" fill="white"/>
<defs>
<clipPath id="clip0_2726_1490">
<rect width="37" height="37" fill="white" transform="translate(-0.00390625)"/>
</clipPath>
</defs>
</svg>
