<svg width="764" height="152" viewBox="0 0 764 152" fill="none" xmlns="http://www.w3.org/2000/svg">
<g clip-path="url(#clip0_409_8)">
<path d="M227.394 126L208.779 99.3141C207.998 99.4009 206.826 99.4443 205.264 99.4443H184.696V126H167.774V34.8773H205.264C213.161 34.8773 220.017 36.1791 225.832 38.7826C231.733 41.3861 236.246 45.1178 239.37 49.9777C242.494 54.8375 244.056 60.6086 244.056 67.291C244.056 74.1469 242.364 80.0481 238.979 84.9948C235.682 89.9415 230.909 93.6298 224.66 96.0597L245.618 126H227.394ZM227.003 67.291C227.003 61.4765 225.094 57.0071 221.276 53.8829C217.457 50.7587 211.86 49.1966 204.483 49.1966H184.696V85.5155H204.483C211.86 85.5155 217.457 83.9534 221.276 80.8292C225.094 77.6182 227.003 73.1055 227.003 67.291ZM326.775 91.6337C326.775 92.7619 326.689 94.3674 326.515 96.4502H271.972C272.926 101.57 275.4 105.649 279.392 108.687C283.471 111.637 288.504 113.113 294.492 113.113C302.129 113.113 308.421 110.596 313.367 105.562L322.089 115.586C318.965 119.318 315.016 122.138 310.243 124.047C305.47 125.957 300.09 126.911 294.102 126.911C286.465 126.911 279.739 125.393 273.924 122.355C268.11 119.318 263.597 115.109 260.386 109.728C257.262 104.261 255.7 98.0991 255.7 91.2432C255.7 84.4741 257.219 78.3993 260.256 73.0187C263.38 67.5513 267.676 63.2989 273.143 60.2615C278.611 57.2241 284.772 55.7054 291.628 55.7054C298.397 55.7054 304.429 57.2241 309.723 60.2615C315.103 63.2122 319.269 67.4212 322.219 72.8885C325.257 78.2691 326.775 84.5175 326.775 91.6337ZM291.628 68.7229C286.421 68.7229 281.995 70.285 278.35 73.4092C274.792 76.4466 272.623 80.5255 271.842 85.6457H311.285C310.59 80.6122 308.464 76.5334 304.906 73.4092C301.348 70.285 296.922 68.7229 291.628 68.7229ZM424.937 34.8773V126H411.008L360.76 64.2969V126H343.968V34.8773H357.897L408.144 96.5804V34.8773H424.937ZM474.347 55.7054C484.588 55.7054 492.398 58.1787 497.779 63.1254C503.246 67.9852 505.98 75.3618 505.98 85.2552V126H490.619V117.539C488.623 120.576 485.759 122.919 482.028 124.568C478.383 126.13 473.957 126.911 468.75 126.911C463.543 126.911 458.987 126.043 455.081 124.308C451.176 122.485 448.139 120.012 445.969 116.888C443.886 113.677 442.845 110.075 442.845 106.083C442.845 99.8348 445.145 94.8447 449.744 91.113C454.431 87.2946 461.764 85.3853 471.744 85.3853H489.708V84.3439C489.708 79.4841 488.233 75.7524 485.282 73.1489C482.418 70.5454 478.122 69.2436 472.395 69.2436C468.49 69.2436 464.628 69.8511 460.809 71.0661C457.077 72.281 453.91 73.9733 451.306 76.1429L444.928 64.2969C448.573 61.5199 452.955 59.3937 458.075 57.9184C463.196 56.443 468.62 55.7054 474.347 55.7054ZM472.134 115.065C476.213 115.065 479.815 114.154 482.939 112.332C486.15 110.422 488.406 107.732 489.708 104.261V96.1899H472.915C463.543 96.1899 458.857 99.2707 458.857 105.432C458.857 108.383 460.028 110.726 462.371 112.462C464.714 114.197 467.969 115.065 472.134 115.065ZM568.649 122.225C566.74 123.787 564.397 124.959 561.62 125.74C558.929 126.521 556.066 126.911 553.028 126.911C545.391 126.911 539.49 124.915 535.324 120.923C531.159 116.931 529.076 111.117 529.076 103.48V70.0247H517.62V57.0071H529.076V41.1258H545.348V57.0071H563.963V70.0247H545.348V103.089C545.348 106.474 546.172 109.077 547.821 110.9C549.47 112.635 551.857 113.503 554.981 113.503C558.626 113.503 561.663 112.549 564.093 110.639L568.649 122.225ZM582.035 56.4864H598.307V126H582.035V56.4864ZM590.236 45.031C587.285 45.031 584.812 44.1198 582.816 42.2973C580.82 40.3881 579.822 38.0449 579.822 35.2679C579.822 32.4908 580.82 30.191 582.816 28.3686C584.812 26.4593 587.285 25.5047 590.236 25.5047C593.187 25.5047 595.66 26.416 597.656 28.2384C599.652 29.9741 600.65 32.1871 600.65 34.8773C600.65 37.7412 599.652 40.1711 597.656 42.1672C595.747 44.0764 593.273 45.031 590.236 45.031ZM684.751 56.4864L654.941 126H638.149L608.338 56.4864H625.261L646.87 108.036L669.13 56.4864H684.751ZM758.362 91.6337C758.362 92.7619 758.276 94.3674 758.102 96.4502H703.559C704.513 101.57 706.986 105.649 710.979 108.687C715.057 111.637 720.091 113.113 726.079 113.113C733.716 113.113 740.008 110.596 744.954 105.562L753.676 115.586C750.552 119.318 746.603 122.138 741.83 124.047C737.057 125.957 731.676 126.911 725.688 126.911C718.051 126.911 711.326 125.393 705.511 122.355C699.697 119.318 695.184 115.109 691.973 109.728C688.849 104.261 687.287 98.0991 687.287 91.2432C687.287 84.4741 688.805 78.3993 691.843 73.0187C694.967 67.5513 699.263 63.2989 704.73 60.2615C710.197 57.2241 716.359 55.7054 723.215 55.7054C729.984 55.7054 736.016 57.2241 741.309 60.2615C746.69 63.2122 750.856 67.4212 753.806 72.8885C756.844 78.2691 758.362 84.5175 758.362 91.6337ZM723.215 68.7229C718.008 68.7229 713.582 70.285 709.937 73.4092C706.379 76.4466 704.209 80.5255 703.428 85.6457H742.871C742.177 80.6122 740.051 76.5334 736.493 73.4092C732.935 70.285 728.509 68.7229 723.215 68.7229Z" fill="white"/>
<g clip-path="url(#clip1_409_8)">
<path fill-rule="evenodd" clip-rule="evenodd" d="M72.6973 120.085C82.3213 120.085 91.1746 116.748 98.1864 111.156L126.612 127.747C113.31 142.605 94.0818 151.94 72.6973 151.94C51.3855 151.94 32.2157 142.669 18.9187 127.898L47.3757 111.289C54.3607 116.8 63.1497 120.085 72.6973 120.085ZM142.199 100.062L113.6 83.3697C113.788 81.7549 113.885 80.1118 113.885 78.4458C113.885 61.0909 103.383 46.2158 88.4522 39.962V6.68282C121.027 13.9592 145.395 43.3259 145.395 78.4458C145.395 85.9688 144.277 93.2279 142.199 100.062ZM31.8203 83.5852L3.25517 100.258C1.13953 93.3664 0 86.0407 0 78.4458C0 43.3256 24.3673 13.9591 56.9425 6.68277V39.962C42.0123 46.2158 31.5097 61.0909 31.5097 78.4458C31.5097 80.186 31.6152 81.9012 31.8203 83.5852ZM72.6973 94.3735C81.3985 94.3735 88.4522 87.2423 88.4522 78.4461C88.4522 69.6496 81.3985 62.5186 72.6973 62.5186C63.9962 62.5186 56.9425 69.6496 56.9425 78.4461C56.9425 87.2423 63.9962 94.3735 72.6973 94.3735Z" fill="#0A74E6"/>
</g>
</g>
<defs>
<clipPath id="clip0_409_8">
<rect width="763.407" height="152" fill="white"/>
</clipPath>
<clipPath id="clip1_409_8">
<rect width="145.395" height="145.395" fill="white" transform="translate(0 6.68277)"/>
</clipPath>
</defs>
</svg>
