<svg width="109" height="20" viewBox="0 0 119 25"  fill="none" xmlns="http://www.w3.org/2000/svg">
<g clip-path="url(#clip0_2114_10304)">
<path d="M72.0312 0.00878906H90.9039V3.49219H83.4173V21.8179H79.6738V3.49219H72.0312V0.00878906Z" fill="white"/>
<path d="M40.9859 0.00878906V3.49219H25.8582V9.09592H38.0239V12.5793H25.8582V18.3345H40.9859V21.8179H22.1148V3.49219H22.1133V0.00878906H40.9859Z" fill="white"/>
<path d="M50.4106 0.0180664H45.5117L63.0584 21.8272H67.9715L59.1971 10.9301L67.9575 0.0347054L63.0584 0.0422761L56.7444 7.88404L50.4106 0.0180664Z" fill="white"/>
<path d="M55.4399 15.5964L52.9866 12.5461L45.5 21.8438H50.4129L55.4399 15.5964Z" fill="white"/>
<path fill-rule="evenodd" clip-rule="evenodd" d="M22.2494 21.8182L4.67915 0H0V21.8091H3.74333V4.66169L17.5468 21.8182H22.2494Z" fill="white"/>
<path d="M91.742 21.6849C91.4678 21.6849 91.2346 21.59 91.0393 21.4001C90.8441 21.2101 90.7476 20.9802 90.75 20.7077C90.7476 20.4428 90.8441 20.2153 91.0393 20.0254C91.2346 19.8355 91.4678 19.7405 91.742 19.7405C92.0057 19.7405 92.2364 19.8355 92.4317 20.0254C92.6297 20.2153 92.7284 20.4428 92.7311 20.7077C92.7284 20.8877 92.6828 21.0526 92.5915 21.2001C92.4977 21.3501 92.3786 21.4675 92.2287 21.5525C92.0816 21.64 91.9193 21.6849 91.742 21.6849Z" fill="white"/>
<path d="M98.1346 12.4976H99.7934V18.8884C99.7909 19.4757 99.6638 19.9781 99.4155 20.4005C99.1644 20.8229 98.8168 21.1452 98.3705 21.3727C97.9267 21.5976 97.4066 21.7126 96.8157 21.7126C96.2753 21.7126 95.791 21.6151 95.3598 21.4252C94.9286 21.2352 94.5862 20.9503 94.3352 20.5754C94.0813 20.2005 93.957 19.7331 93.957 19.1733H95.6186C95.6211 19.4182 95.6769 19.6306 95.7833 19.8081C95.8897 19.9856 96.0369 20.1205 96.2247 20.2155C96.4147 20.3105 96.6331 20.358 96.8789 20.358C97.1454 20.358 97.3736 20.303 97.5587 20.1905C97.7438 20.0805 97.886 19.9156 97.985 19.6956C98.0812 19.4782 98.1321 19.2083 98.1346 18.8884V12.4976Z" fill="white"/>
<path d="M106.618 14.9968C106.577 14.6094 106.399 14.307 106.09 14.092C105.778 13.8746 105.375 13.7671 104.88 13.7671C104.533 13.7671 104.234 13.8196 103.985 13.9221C103.736 14.0271 103.544 14.167 103.412 14.3445C103.28 14.5219 103.214 14.7244 103.209 14.9518C103.209 15.1418 103.254 15.3067 103.343 15.4442C103.432 15.5841 103.551 15.7016 103.706 15.7966C103.858 15.8941 104.028 15.974 104.213 16.039C104.401 16.104 104.589 16.159 104.776 16.204L105.641 16.4164C105.989 16.4964 106.326 16.6039 106.648 16.7413C106.97 16.8763 107.262 17.0488 107.518 17.2562C107.774 17.4637 107.977 17.7136 108.127 18.006C108.276 18.2984 108.352 18.6408 108.352 19.0357C108.352 19.5681 108.216 20.0355 107.939 20.4403C107.663 20.8427 107.264 21.1576 106.742 21.3851C106.222 21.61 105.593 21.725 104.852 21.725C104.137 21.725 103.513 21.6151 102.988 21.3951C102.461 21.1777 102.049 20.8577 101.753 20.4378C101.456 20.018 101.296 19.5056 101.273 18.9033H102.917C102.94 19.2182 103.041 19.4806 103.214 19.6931C103.389 19.903 103.617 20.058 103.896 20.1629C104.178 20.2654 104.492 20.3179 104.84 20.3179C105.202 20.3179 105.522 20.2629 105.798 20.1554C106.072 20.0479 106.288 19.898 106.443 19.7031C106.6 19.5106 106.679 19.2832 106.681 19.0232C106.679 18.7858 106.607 18.5883 106.47 18.4334C106.331 18.2784 106.138 18.1485 105.892 18.0435C105.644 17.9385 105.354 17.8435 105.025 17.7611L103.975 17.4961C103.216 17.3037 102.615 17.0113 102.176 16.6189C101.735 16.2265 101.517 15.7066 101.517 15.0543C101.517 14.5194 101.664 14.0496 101.961 13.6472C102.255 13.2448 102.658 12.9324 103.168 12.7099C103.681 12.485 104.259 12.375 104.903 12.375C105.557 12.375 106.13 12.485 106.625 12.7099C107.12 12.9324 107.508 13.2423 107.789 13.6372C108.071 14.0321 108.218 14.4844 108.226 14.9968H106.618Z" fill="white"/>
</g>
<defs>
<clipPath id="clip0_2114_10304">
<rect width="108.35" height="22" fill="white"/>
</clipPath>
</defs>
</svg>
