<svg width="121" height="173" viewBox="0 0 121 173" fill="none" xmlns="http://www.w3.org/2000/svg">
<path d="M69.1419 12.6725C67.7642 12.6855 66.6685 15.0485 66.6762 15.9789L66.6908 17.6632L71.6792 17.62L71.6646 15.9357C71.6561 15.0053 70.5196 12.6616 69.1419 12.6725Z" fill="#373737"/>
<path d="M72.8795 19.2357L65.5156 19.2995L65.731 44.1617L73.0948 44.0979L72.8795 19.2357Z" fill="#817F7F"/>
<path d="M73.4959 23.7478L64.9565 23.8218C64.8247 22.9194 65.0967 18.7256 65.8828 17.8016L66.5715 16.6814L71.72 16.5278L72.2986 17.732C73.8149 17.8845 74.268 22.0193 73.4959 23.7478Z" fill="#817F7F"/>
<path d="M52.1451 20.5594L44.7812 20.6232L44.9966 45.4854L52.3605 45.4216L52.1451 20.5594Z" fill="#817F7F"/>
<path d="M48.5443 13.9947C47.1666 14.0077 46.0709 16.3707 46.0785 17.3011L46.0931 18.9854L51.0815 18.9422L51.0669 17.2579C51.0584 16.3275 49.922 13.9838 48.5443 13.9947Z" fill="#373737"/>
<path d="M52.9004 25.0708L44.3609 25.1447C43.5645 24.1352 43.5707 19.8985 45.2873 19.1246L45.9759 18.0044L51.1245 17.8508L51.703 19.055C52.5357 19.7911 52.8923 24.0082 52.9004 25.0708Z" fill="#817F7F"/>
<path d="M70.8207 60.375L68.5547 60.3946C68.2104 60.4058 67.8718 60.3039 67.5908 60.1046C67.3484 59.9169 67.2402 59.6675 67.2944 59.4201L67.7825 57.1888C67.8745 56.7678 68.3983 56.4582 69.0279 56.4527L70.2793 56.4419C70.9089 56.4365 71.4381 56.7369 71.5373 57.1562L72.064 59.3787C72.1225 59.6252 72.0187 59.8765 71.7795 60.0683C71.502 60.2724 71.1652 60.3802 70.8207 60.375Z" fill="black"/>
<path d="M49.0824 60.0794L46.8165 60.099C46.4721 60.1102 46.1336 60.0083 45.8525 59.809C45.6101 59.6214 45.5019 59.3719 45.5561 59.1245L46.0442 56.8932C46.1362 56.4722 46.66 56.1626 47.2896 56.1572L48.541 56.1463C49.1707 56.1409 49.6998 56.4414 49.7991 56.8607L50.3257 59.0832C50.3842 59.3296 50.2804 59.5809 50.0412 59.7727C49.7637 59.9769 49.4269 60.0846 49.0824 60.0794Z" fill="black"/>
<path d="M53.243 57.5361L43.4253 57.5562L44.3296 53.9603L52.3241 53.944L52.925 56.3271L53.243 57.5361Z" fill="#373737"/>
<path d="M64.9331 57.865L74.7561 57.845L73.8354 54.2651L65.8374 54.2814L64.9331 57.865Z" fill="#373737"/>
<path opacity="0.5" d="M47.9456 19.6827L47.9451 17.8714L48.4201 17.8686L48.4207 19.6741L48.3528 45.9874L47.8776 45.9915" fill="#2A2A2A"/>
<path opacity="0.5" d="M69.2525 18.3807L69.1826 16.5708L69.6572 16.5498L69.727 18.354L70.6687 44.6505L70.194 44.6728" fill="#2A2A2A"/>
<path opacity="0.5" d="M73.093 35.9444L73.0078 44.1704L67.0684 38.5263L67.0333 21.3102L67.0244 16.4956C67.0785 17.2143 67.6098 20.3272 67.7521 21.3087C68.3544 26.449 70.3955 31.5275 73.093 35.9444Z" fill="black"/>
<path d="M67.012 14.3322L67.075 45.188L50.8581 45.2211L50.7952 14.3653C50.7861 13.0918 50.8773 11.8195 51.0679 10.5603C51.165 9.91608 51.2984 9.27782 51.4673 8.64856C52.8075 3.89472 55.8375 2.41587 58.0423 0.360151C58.2671 0.14045 58.5688 0.0171596 58.8831 0.0165182C59.1974 0.0158768 59.4996 0.137936 59.7253 0.356717C61.9385 2.40342 64.957 3.86993 66.3166 8.60073C66.488 9.23523 66.6239 9.87878 66.7237 10.5284C66.9194 11.7868 67.0158 13.0587 67.012 14.3322Z" fill="#7BB8F9"/>
<path opacity="0.47" d="M67.0319 18.3343L67.0606 35.6892C65.2558 36.8468 63.3091 37.435 61.343 37.4166C59.3715 37.4461 57.417 36.8593 55.6059 35.6941L55.568 17.1346C57.3744 15.9621 57.5104 12.4943 59.482 12.5156C61.4481 12.4893 65.7545 15.7529 67.0319 18.3343Z" fill="#1B3150"/>
<path d="M54.3396 26.715L53.8969 54.7536L43.5866 53.9156L34.9946 53.2318C33.1482 41.8925 51.9658 40.4648 54.3396 26.715Z" fill="#817F7F"/>
<path d="M63.4766 25.8756C65.906 39.6106 84.8021 41.7922 82.9938 53.1299L64.0996 54.7375L63.4766 25.8756Z" fill="#817F7F"/>
<path d="M34.9695 53.5321L53.8621 53.4935L53.8647 54.7586L34.9835 54.3458C34.8239 54.0769 34.8192 53.802 34.9695 53.5321Z" fill="#2A2A2A"/>
<path d="M82.9956 53.3637L83.008 53.3674C83.1549 53.6508 83.1471 53.9399 82.985 54.2232L64.0809 54.7384L64.0781 53.4023L82.9956 53.3637Z" fill="#2A2A2A"/>
<path opacity="0.3" d="M64.0352 28.128L64.0987 54.7322L74.4056 53.8521C66.1525 52.0171 64.4214 42.8477 64.0352 28.128Z" fill="black"/>
<path opacity="0.3" d="M53.7306 28.3905L54.9732 40.2507L54.7283 53.4854L52.0168 53.4208C54.1642 44.6511 53.5222 42.9493 53.7306 28.3905Z" fill="black"/>
<path d="M64.0404 25.2928C64.0404 25.2928 60.4984 27.531 58.4396 27.5551C56.3172 27.5799 53.8344 25.3136 53.8344 25.3136L53.8222 19.3367C53.7685 17.1029 54.5762 14.934 56.0778 13.2793C56.3956 12.8222 56.8189 12.4487 57.312 12.1903C57.805 11.932 58.3532 11.7965 58.9098 11.7953C59.4664 11.7942 60.0151 11.9275 60.5092 12.1838C61.0033 12.4401 61.4282 12.812 61.7478 13.2677C63.2562 14.9163 64.0727 17.0819 64.0282 19.3159L64.0404 25.2928Z" fill="#373737"/>
<path d="M64.0994 54.7308L64.0393 25.2952C64.0393 25.2952 61.8558 26.4844 58.8727 26.6973C56.1413 26.8922 53.8359 25.316 53.8359 25.316L53.896 54.7516L64.0994 54.7308Z" fill="#817F7F"/>
<path d="M41.7699 70.1832C43.319 67.2785 43.0419 64.249 45.768 62.4036C46.5328 61.8858 47.5248 61.827 48.6081 62.0941C49.9679 62.4293 50.3636 63.0576 50.9905 64.0998C51.9782 65.7416 49.3459 68.194 51.0239 69.0058C52.7298 69.8312 52.9398 66.3213 54.7996 65.9572C56.2889 65.6657 57.5322 65.6283 58.6156 66.691C60.0535 68.1013 60.057 69.5223 61.7586 69.7802C63.8395 70.0956 64.2665 69.7179 65.4544 66.2996C65.8542 65.1494 66.0271 63.2859 67.5132 62.4516C68.7164 61.7761 69.8053 61.6382 71.0398 62.2364C72.3095 62.8515 73.1803 63.8891 73.9673 65.366C76.3196 69.7802 75.0684 70.0495 78.1027 74.5364C80.2468 77.7068 83.6047 79.6416 85.5921 81.6691C90.2522 86.4233 87.2046 93.807 85.5921 97.3609C82.3022 104.612 90.8055 107.526 94.5079 112.34C98.0742 116.976 99.1261 121.179 98.0742 126.962C97.0993 132.321 94.383 134.825 90.5849 138.73C83.1889 146.336 72.5317 146.186 65.4837 149.116C57.6885 152.357 49.8507 155.11 43.8663 149.155C36.083 141.411 47.218 137.988 46.0208 130.917C45.4893 127.777 47.4554 121.47 43.6656 123.11C37.2562 125.882 37.9692 130.977 35.9924 139.262C34.0157 147.546 20.8484 142.278 15.5731 136.178C9.95942 129.687 13.8603 122.331 16.698 114.231C19.8643 105.194 30.9016 104.36 31.6735 94.8153C32.0184 90.5498 28.9462 88.185 29.8702 84.0066C31.4857 76.7013 38.2491 76.7848 41.7699 70.1832Z" fill="url(#paint0_radial_1458_18543)"/>
<defs>
<radialGradient id="paint0_radial_1458_18543" cx="0" cy="0" r="1" gradientUnits="userSpaceOnUse" gradientTransform="translate(60 66.5) rotate(90) scale(108.5 67.3289)">
<stop stop-color="#595858"/>
<stop offset="0.202634" stop-color="#595858" stop-opacity="0.831899"/>
<stop offset="0.339604" stop-color="#595858" stop-opacity="0.704557"/>
<stop offset="0.712757" stop-color="#47494C" stop-opacity="0.183271"/>
<stop offset="0.990094" stop-color="#47494C" stop-opacity="0"/>
</radialGradient>
</defs>
</svg>
