<svg width="37" height="32" viewBox="0 0 37 32" fill="none" xmlns="http://www.w3.org/2000/svg">
<g clip-path="url(#clip0_1932_599)">
<path fill-rule="evenodd" clip-rule="evenodd" d="M24.3801 1.61868C26.8096 2.97725 28.7265 5.09492 29.8372 7.64719C31.7125 8.20262 33.3585 9.3481 34.5309 10.9135C35.7033 12.4789 36.3397 14.3807 36.345 16.3365C36.347 17.9303 35.9298 19.4964 35.1351 20.8778C34.3407 22.2594 33.197 23.4079 31.8186 24.2079C31.3991 24.4488 30.9012 24.5134 30.4342 24.3873C29.9671 24.2612 29.5693 23.9546 29.3282 23.5352C29.0872 23.1158 29.0226 22.6178 29.1487 22.1508C29.2748 21.6837 29.5814 21.2857 30.0008 21.0448C30.9555 20.4766 31.7139 19.6304 32.1743 18.6196C32.635 17.6086 32.7758 16.4812 32.5781 15.388C32.3806 14.2948 31.8537 13.2881 31.0682 12.5025C30.2828 11.7169 29.276 11.1899 28.1829 10.992C27.8585 10.9364 27.5553 10.7938 27.3054 10.5793C27.0557 10.3647 26.8689 10.0865 26.765 9.77408C26.0681 7.74016 24.6726 6.01913 22.8267 4.91678C20.9809 3.81442 18.804 3.40213 16.6827 3.75311C14.5616 4.1041 12.6335 5.19564 11.241 6.83385C9.84859 8.47204 9.08196 10.5508 9.0773 12.7008C9.0773 13.1829 8.88579 13.6453 8.54487 13.9862C8.20395 14.3271 7.74157 14.5188 7.25945 14.5188C6.29521 14.5188 5.37044 14.9017 4.68863 15.5835C4.00679 16.2653 3.62373 17.1902 3.62373 18.1544C3.64604 18.8828 3.88675 19.5878 4.31463 20.1778C4.74251 20.7677 5.33782 21.2153 6.0233 21.4628C6.50543 21.54 6.93718 21.8055 7.22354 22.2009C7.5099 22.5964 7.62744 23.0894 7.5503 23.5717C7.47317 24.0538 7.20765 24.4855 6.8122 24.7718C6.41675 25.0582 5.92373 25.1758 5.44159 25.0987C5.24433 25.0963 5.04842 25.0657 4.85989 25.0076C3.3811 24.4879 2.1099 23.504 1.23575 22.2029C0.36159 20.9018 -0.0687256 19.3532 0.00893315 17.7875C0.0865919 16.2221 0.668081 14.7234 1.66674 13.5152C2.66537 12.307 4.02769 11.4539 5.55066 11.0829C5.90985 8.32273 7.16417 5.75643 9.1214 3.7773C11.0786 1.79815 13.6308 0.515356 16.3868 0.125476C19.1429 -0.264424 21.9508 0.260109 24.3801 1.61868ZM15.011 16.1893C16.8645 15.2856 19.1699 15.5996 20.7094 17.139C22.157 18.5867 22.5247 20.7007 21.8201 22.4929L27.8861 28.5667C28.6751 29.3479 28.6751 30.6195 27.8861 31.4083C27.1049 32.1972 25.8335 32.1972 25.0446 31.4083L18.9478 25.3115C17.1786 25.978 15.0952 25.6026 13.6706 24.1779C12.1311 22.6384 11.8171 20.3483 12.7132 18.4872L15.4935 21.2675C15.7922 21.5739 16.2747 21.5739 16.5734 21.2675L17.7912 20.0497C18.0901 19.751 18.0901 19.2683 17.7912 18.9697L15.011 16.1893Z" fill="#0A74E6"/>
</g>
<defs>
<clipPath id="clip0_1932_599">
<rect width="37" height="32" fill="white"/>
</clipPath>
</defs>
</svg>
