<svg width="34" height="32" viewBox="0 0 34 32" fill="none" xmlns="http://www.w3.org/2000/svg">
<g clip-path="url(#clip0_1932_290)">
<path fill-rule="evenodd" clip-rule="evenodd" d="M21.4551 1.25836C22.683 0.437912 24.1266 0 25.6034 0C27.5837 0 29.4828 0.786665 30.8831 2.18694C32.2834 3.58721 33.0701 5.48638 33.0701 7.46667C33.0701 8.94343 32.6321 10.387 31.8117 11.6149C30.9912 12.8428 29.8251 13.7998 28.4608 14.365C27.0964 14.9301 25.5951 15.078 24.1467 14.7899C22.6983 14.5018 21.3679 13.7906 20.3237 12.7464C19.2794 11.7022 18.5683 10.3717 18.2802 8.92334C17.9921 7.47495 18.14 5.97365 18.7051 4.6093C19.2702 3.24494 20.2272 2.07881 21.4551 1.25836ZM23.233 11.0143C23.9346 11.4831 24.7595 11.7333 25.6034 11.7333C26.735 11.7333 27.8202 11.2838 28.6204 10.4837C29.4205 9.6835 29.8701 8.59826 29.8701 7.46667C29.8701 6.6228 29.6198 5.79788 29.151 5.09623C28.6822 4.39458 28.0158 3.84771 27.2362 3.52478C26.4565 3.20185 25.5987 3.11735 24.771 3.28198C23.9434 3.44661 23.1831 3.85297 22.5864 4.44968C21.9897 5.04638 21.5833 5.80663 21.4187 6.63428C21.2541 7.46193 21.3386 8.31982 21.6615 9.09945C21.9844 9.87908 22.5313 10.5454 23.233 11.0143ZM20.8 32.0001H3.73333C2.74319 32.0001 1.7936 31.6068 1.09347 30.9067C0.393332 30.2065 0 29.2569 0 28.2668V11.2001C0 10.21 0.393332 9.2604 1.09347 8.56026C1.7936 7.86013 2.74319 7.4668 3.73333 7.4668H10.1333C11.1235 7.4668 12.0731 7.86013 12.7732 8.56026C13.4733 9.2604 13.8667 10.21 13.8667 11.2001V18.1335H20.8C21.7901 18.1335 22.7397 18.5268 23.4399 19.2269C24.14 19.9271 24.5333 20.8767 24.5333 21.8668V28.2668C24.5333 29.2569 24.14 30.2065 23.4399 30.9067C22.7397 31.6068 21.7901 32.0001 20.8 32.0001ZM21.1771 21.4897C21.0771 21.3897 20.9415 21.3335 20.8 21.3335H13.8667V28.8001H20.8C20.9415 28.8001 21.0771 28.7439 21.1771 28.6439C21.2771 28.5439 21.3333 28.4082 21.3333 28.2668V21.8668C21.3333 21.7253 21.2771 21.5897 21.1771 21.4897ZM3.35621 10.823C3.25619 10.923 3.2 11.0587 3.2 11.2001V18.1335H10.6667V11.2001C10.6667 11.0587 10.6105 10.923 10.5105 10.823C10.4104 10.723 10.2748 10.6668 10.1333 10.6668H3.73333C3.59188 10.6668 3.45623 10.723 3.35621 10.823ZM10.6667 28.8001V21.3335H3.2V28.2668C3.2 28.4082 3.25619 28.5439 3.35621 28.6439C3.45623 28.7439 3.59188 28.8001 3.73333 28.8001H10.6667Z" fill="#0A74E6"/>
</g>
<defs>
<clipPath id="clip0_1932_290">
<rect width="34" height="32" fill="white"/>
</clipPath>
</defs>
</svg>
