<svg width="38" height="37" viewBox="0 0 38 45" fill="none" xmlns="http://www.w3.org/2000/svg">
<path fill-rule="evenodd" clip-rule="evenodd" d="M18.7385 0H32.9498C35.2248 0 37.069 1.84062 37.069 4.11113C37.069 6.38163 35.2248 8.22224 32.9498 8.22224H18.7385C16.4636 8.22224 14.6193 6.38163 14.6193 4.11113C14.6193 1.84062 16.4636 0 18.7385 0ZM18.3266 14.3892H4.1153C1.84032 14.3892 -0.00390625 16.2299 -0.00390625 18.5004C-0.00390625 20.7709 1.84032 22.6115 4.1153 22.6115H18.3266C20.6015 22.6115 22.4458 20.7709 22.4458 18.5004C22.4458 16.2299 20.6015 14.3892 18.3266 14.3892ZM4.1153 37C6.39027 37 8.2345 35.1593 8.2345 32.8888C8.2345 30.6183 6.39027 28.7777 4.1153 28.7777C1.84032 28.7777 -0.00390625 30.6183 -0.00390625 32.8888C-0.00390625 35.1593 1.84032 37 4.1153 37Z" fill="#0A74E6"/>
</svg>
