<svg width="16" height="16" viewBox="0 0 16 16" fill="none" xmlns="http://www.w3.org/2000/svg">
<path d="M7.99997 0C6.10036 8.07646e-05 4.26276 0.693191 2.81597 1.95531C1.36919 3.21743 0.40762 4.9662 0.103328 6.88872C-0.200964 8.81123 0.171875 10.782 1.15513 12.4485C2.13839 14.1149 3.66791 15.3683 5.47 15.9843C5.87 16.0561 6.01999 15.81 6.01999 15.5947C6.01999 15.3999 6.00999 14.7539 6.00999 14.067C3.99999 14.4464 3.48 13.5646 3.32 13.1033C3.14246 12.6545 2.86102 12.2569 2.5 11.9447C2.22001 11.7909 1.82001 11.4115 2.49 11.4013C2.74582 11.4297 2.99119 11.521 3.2053 11.6673C3.41942 11.8137 3.59597 12.0108 3.72 12.242C3.82941 12.4435 3.97654 12.6209 4.15294 12.7641C4.32935 12.9072 4.53157 13.0132 4.74801 13.0761C4.96446 13.1389 5.19087 13.1574 5.41429 13.1304C5.6377 13.1034 5.85372 13.0314 6.04996 12.9187C6.0846 12.5017 6.26585 12.1118 6.55998 11.8216C4.77999 11.6166 2.92 10.9091 2.92 7.77174C2.90876 6.95655 3.20215 6.16784 3.74 5.56736C3.49542 4.85886 3.52404 4.08133 3.81999 3.39374C3.81999 3.39374 4.48997 3.17842 6.01998 4.23448C7.329 3.86535 8.71093 3.86535 10.02 4.23448C11.5499 3.16818 12.2199 3.39374 12.2199 3.39374C12.5159 4.08132 12.5445 4.85887 12.2999 5.56736C12.8394 6.16681 13.133 6.95621 13.1199 7.77174C13.1199 10.9194 11.2499 11.6166 9.46995 11.8216C9.66087 12.02 9.80791 12.2583 9.90109 12.5201C9.99426 12.7819 10.0314 13.0612 10.01 13.3391C10.01 14.4362 9.99994 15.3179 9.99994 15.5947C9.99994 15.81 10.1499 16.0664 10.5499 15.9843C12.3489 15.3633 13.874 14.107 14.853 12.4397C15.8321 10.7724 16.2014 8.80261 15.895 6.88196C15.5886 4.9613 14.6265 3.2148 13.1803 1.95422C11.7341 0.693631 9.89812 0.00101291 7.99997 0Z" fill="#565656"/>
</svg>
