<svg width="251" height="146" viewBox="0 0 251 146" fill="none" xmlns="http://www.w3.org/2000/svg">
<rect x="115.902" y="25.2861" width="33.7154" height="48.1649" rx="1.80618" fill="white"/>
<rect x="120.121" y="34.9192" width="130.647" height="76.1607" rx="1.80618" fill="#0A74E6" fill-opacity="0.05"/>
<path d="M237.896 25.2861H117.337C116.878 25.2865 116.438 25.4382 116.113 25.7079C115.788 25.9777 115.606 26.3434 115.605 26.7249V94.5896C115.606 94.9711 115.788 95.3368 116.113 95.6065C116.438 95.8763 116.878 96.028 117.337 96.0283H237.896C238.147 96.0283 238.394 95.9832 238.621 95.896C238.849 95.8089 239.051 95.6817 239.213 95.5234C239.227 95.511 239.239 95.4978 239.251 95.4838C239.354 95.3788 239.438 95.2615 239.499 95.1357C239.586 94.9628 239.631 94.7771 239.63 94.5896V26.7249C239.63 26.3431 239.447 25.9772 239.122 25.7074C238.796 25.4376 238.356 25.2861 237.896 25.2861ZM239.136 94.5896C239.136 94.7903 239.065 94.9866 238.931 95.1539C238.812 95.3011 238.651 95.4213 238.462 95.5036C238.287 95.5788 238.093 95.6178 237.896 95.6175H117.337C117.009 95.6172 116.695 95.5088 116.463 95.3161C116.231 95.1234 116.1 94.8621 116.1 94.5896V26.7249C116.1 26.4524 116.231 26.1911 116.463 25.9984C116.695 25.8057 117.009 25.6973 117.337 25.697H237.896C238.225 25.6969 238.539 25.8052 238.772 25.9979C239.004 26.1906 239.135 26.4521 239.136 26.7249V94.5896Z" fill="#565656"/>
<path d="M239.137 32.2275H116.103C115.966 32.2275 115.855 32.3384 115.855 32.4751C115.855 32.6118 115.966 32.7226 116.103 32.7226H239.137C239.274 32.7226 239.385 32.6118 239.385 32.4751C239.385 32.3384 239.274 32.2275 239.137 32.2275Z" fill="#565656"/>
<path d="M120.063 30.4851C120.884 30.4851 121.549 29.8201 121.549 28.9997C121.549 28.1794 120.884 27.5144 120.063 27.5144C119.243 27.5144 118.578 28.1794 118.578 28.9997C118.578 29.8201 119.243 30.4851 120.063 30.4851Z" fill="#565656"/>
<path d="M124.333 30.4851C125.153 30.4851 125.818 29.8201 125.818 28.9997C125.818 28.1794 125.153 27.5144 124.333 27.5144C123.513 27.5144 122.848 28.1794 122.848 28.9997C122.848 29.8201 123.513 30.4851 124.333 30.4851Z" fill="#565656"/>
<path d="M128.603 30.4851C129.423 30.4851 130.088 29.8201 130.088 28.9997C130.088 28.1794 129.423 27.5144 128.603 27.5144C127.782 27.5144 127.117 28.1794 127.117 28.9997C127.117 29.8201 127.782 30.4851 128.603 30.4851Z" fill="#565656"/>
<rect x="132.762" y="44.5525" width="39.736" height="40.6391" rx="1.80618" fill="#0A74E6" fill-opacity="0.3"/>
<path d="M184.071 56.5933C183.868 56.6271 183.681 56.7527 183.546 56.9465C183.41 57.1403 183.336 57.3892 183.336 57.6469C183.336 57.9045 183.41 58.1534 183.546 58.3473C183.681 58.5411 183.868 58.6666 184.071 58.7005H218.725C218.928 58.6666 219.115 58.5411 219.25 58.3473C219.385 58.1534 219.46 57.9045 219.46 57.6469C219.46 57.3892 219.385 57.1403 219.25 56.9465C219.115 56.7527 218.928 56.6271 218.725 56.5933H184.071Z" fill="#0A74E6" fill-opacity="0.2"/>
<path d="M184.328 76.1602C184.054 76.194 183.802 76.3196 183.619 76.5134C183.437 76.7072 183.336 76.9561 183.336 77.2138C183.336 77.4714 183.437 77.7203 183.619 77.9142C183.802 78.108 184.054 78.2335 184.328 78.2674H231.111C231.385 78.2335 231.637 78.108 231.82 77.9142C232.002 77.7203 232.103 77.4714 232.103 77.2138C232.103 76.9561 232.002 76.7072 231.82 76.5134C231.637 76.3196 231.385 76.194 231.111 76.1602H184.328Z" fill="#0A74E6" fill-opacity="0.2"/>
<path d="M184.444 62.915C184.137 62.9489 183.856 63.0744 183.652 63.2682C183.448 63.4621 183.336 63.711 183.336 63.9686C183.336 64.2263 183.448 64.4752 183.652 64.669C183.856 64.8628 184.137 64.9884 184.444 65.0223H206.913C207.219 64.9884 207.501 64.8628 207.704 64.669C207.908 64.4752 208.02 64.2263 208.02 63.9686C208.02 63.711 207.908 63.4621 207.704 63.2682C207.501 63.0744 207.219 62.9489 206.913 62.915H184.444Z" fill="#0A74E6" fill-opacity="0.2"/>
<path d="M184.071 69.5378C183.868 69.5717 183.681 69.6972 183.546 69.8911C183.41 70.0849 183.336 70.3338 183.336 70.5914C183.336 70.8491 183.41 71.098 183.546 71.2918C183.681 71.4857 183.868 71.6112 184.071 71.6451H218.725C218.928 71.6112 219.115 71.4857 219.25 71.2918C219.385 71.098 219.46 70.8491 219.46 70.5914C219.46 70.3338 219.385 70.0849 219.25 69.8911C219.115 69.6972 218.928 69.5717 218.725 69.5378H184.071Z" fill="#0A74E6" fill-opacity="0.2"/>
<path d="M122.291 2.41515e-09H1.73186C1.27266 0.000346895 0.832386 0.15204 0.507688 0.421781C0.18299 0.691523 0.000402835 1.05727 0 1.43873V69.3035C0.000402835 69.6849 0.18299 70.0507 0.507688 70.3204C0.832386 70.5901 1.27266 70.7418 1.73186 70.7422H122.291C122.541 70.7422 122.788 70.6971 123.016 70.6099C123.243 70.5227 123.445 70.3956 123.608 70.2373C123.621 70.2249 123.634 70.2117 123.645 70.1977C123.749 70.0927 123.832 69.9753 123.894 69.8496C123.981 69.6766 124.025 69.4909 124.025 69.3035V1.43874C124.024 1.057 123.841 0.691046 123.516 0.421273C123.191 0.151499 122.75 -2.20883e-05 122.291 2.41515e-09ZM123.53 69.3035C123.53 69.5042 123.459 69.7005 123.325 69.8677C123.207 70.0149 123.046 70.1352 122.857 70.2175C122.682 70.2926 122.488 70.3317 122.291 70.3314H1.73186C1.40381 70.331 1.08931 70.2226 0.857348 70.0299C0.625383 69.8372 0.494891 69.576 0.494493 69.3035V1.43874C0.494891 1.16622 0.625383 0.904963 0.857348 0.712265C1.08931 0.519568 1.40381 0.411166 1.73186 0.410835H122.291C122.619 0.4108 122.934 0.519031 123.166 0.711759C123.399 0.904488 123.53 1.16595 123.53 1.43874V69.3035Z" fill="#565656"/>
<path d="M123.779 6.94141H0.25V7.43651H123.779V6.94141Z" fill="#565656"/>
<path d="M4.45798 5.19868C5.27831 5.19868 5.9433 4.53367 5.9433 3.71335C5.9433 2.89303 5.27831 2.22803 4.45798 2.22803C3.63766 2.22803 2.97266 2.89303 2.97266 3.71335C2.97266 4.53367 3.63766 5.19868 4.45798 5.19868Z" fill="#565656"/>
<path d="M8.72751 5.19868C9.54784 5.19868 10.2128 4.53367 10.2128 3.71335C10.2128 2.89303 9.54784 2.22803 8.72751 2.22803C7.90719 2.22803 7.24219 2.89303 7.24219 3.71335C7.24219 4.53367 7.90719 5.19868 8.72751 5.19868Z" fill="#565656"/>
<path d="M12.997 5.19868C13.8174 5.19868 14.4824 4.53367 14.4824 3.71335C14.4824 2.89303 13.8174 2.22803 12.997 2.22803C12.1767 2.22803 11.5117 2.89303 11.5117 3.71335C11.5117 4.53367 12.1767 5.19868 12.997 5.19868Z" fill="#565656"/>
<path d="M25.2632 50.1905C26.4096 50.1905 27.339 49.2612 27.339 48.1148C27.339 46.9684 26.4096 46.0391 25.2632 46.0391C24.1168 46.0391 23.1875 46.9684 23.1875 48.1148C23.1875 49.2612 24.1168 50.1905 25.2632 50.1905Z" fill="#0A74E6"/>
<path d="M43.6226 44.7543C44.769 44.7543 45.6984 43.8249 45.6984 42.6785C45.6984 41.5321 44.769 40.6028 43.6226 40.6028C42.4762 40.6028 41.5469 41.5321 41.5469 42.6785C41.5469 43.8249 42.4762 44.7543 43.6226 44.7543Z" fill="#0A74E6"/>
<path d="M61.9859 50.1905C63.1323 50.1905 64.0616 49.2612 64.0616 48.1148C64.0616 46.9684 63.1323 46.0391 61.9859 46.0391C60.8395 46.0391 59.9102 46.9684 59.9102 48.1148C59.9102 49.2612 60.8395 50.1905 61.9859 50.1905Z" fill="#0A74E6"/>
<path d="M80.3453 22.7694C81.4917 22.7694 82.421 21.8401 82.421 20.6937C82.421 19.5473 81.4917 18.6179 80.3453 18.6179C79.1989 18.6179 78.2695 19.5473 78.2695 20.6937C78.2695 21.8401 79.1989 22.7694 80.3453 22.7694Z" fill="#0A74E6"/>
<path d="M98.7125 22.514C99.8589 22.514 100.788 21.5847 100.788 20.4383C100.788 19.2919 99.8589 18.3625 98.7125 18.3625C97.5661 18.3625 96.6367 19.2919 96.6367 20.4383C96.6367 21.5847 97.5661 22.514 98.7125 22.514Z" fill="#0A74E6"/>
<path d="M62.2155 48.58L43.836 42.8696L25.708 48.3919L25.293 47.8381L43.836 42.0052L62.1282 47.65L80.3052 20.4026L80.3784 20.3728L98.7141 20.3406L98.9726 20.9826L80.7098 20.9854L62.2155 48.58Z" fill="#0A74E6" fill-opacity="0.1"/>
<path d="M47.6264 64.4204C47.3979 64.4204 47.1455 64.4505 47.0565 64.661C46.9976 64.8005 46.9648 64.9832 46.9648 65.173C46.9648 65.3627 46.9976 65.5455 47.0565 65.685C47.1455 65.8955 47.3979 65.9256 47.6264 65.9256H61.9569C62.1854 65.9256 62.4378 65.8955 62.5267 65.685C62.5857 65.5455 62.6184 65.3627 62.6184 65.173C62.6184 64.9832 62.5857 64.8005 62.5267 64.661C62.4378 64.4505 62.1854 64.4204 61.9569 64.4204H47.6264Z" fill="#A1A1A1"/>
<path d="M34.2376 64.4204C34.1792 64.4357 34.1248 64.5216 34.0851 64.661C34.0455 64.8005 34.0234 64.9832 34.0234 65.173C34.0234 65.3627 34.0455 65.5455 34.0851 65.685C34.1248 65.8244 34.1792 65.9103 34.2376 65.9256H44.3454C44.4037 65.9103 44.4581 65.8244 44.4978 65.685C44.5375 65.5455 44.5595 65.3627 44.5595 65.173C44.5595 64.9832 44.5375 64.8005 44.4978 64.661C44.4581 64.5216 44.4037 64.4357 44.3454 64.4204H34.2376Z" fill="#A1A1A1"/>
<path d="M65.5412 64.4204C65.4013 64.4357 65.2707 64.5216 65.1754 64.661C65.0802 64.8005 65.0273 64.9832 65.0273 65.173C65.0273 65.3627 65.0802 65.5455 65.1754 65.685C65.2707 65.8244 65.4013 65.9103 65.5412 65.9256H89.8C89.94 65.9103 90.0706 65.8244 90.1658 65.685C90.261 65.5455 90.3139 65.3627 90.3139 65.173C90.3139 64.9832 90.261 64.8005 90.1658 64.661C90.0706 64.5216 89.94 64.4357 89.8 64.4204H65.5412Z" fill="#A1A1A1"/>
<rect x="70.457" y="122.387" width="71.8572" height="16.0765" rx="1.21792" fill="#0A74E6" fill-opacity="0.05"/>
<rect x="54.1914" y="81.1279" width="113.489" height="64.4205" rx="1.80618" fill="white"/>
<path d="M166.298 80.9773H55.4864C55.0643 80.9776 54.6596 81.117 54.3612 81.365C54.0627 81.6129 53.8949 81.9491 53.8945 82.2997V144.678C53.8949 145.028 54.0627 145.364 54.3612 145.612C54.6596 145.86 55.0643 146 55.4864 146H166.298C166.528 146 166.756 145.958 166.964 145.878C167.173 145.798 167.359 145.681 167.508 145.536C167.521 145.524 167.533 145.512 167.543 145.499C167.638 145.403 167.715 145.295 167.771 145.179C167.851 145.021 167.892 144.85 167.892 144.678V82.2997C167.891 81.9488 167.723 81.6125 167.424 81.3645C167.125 81.1165 166.72 80.9773 166.298 80.9773ZM167.437 144.678C167.437 144.862 167.372 145.042 167.249 145.196C167.14 145.331 166.992 145.442 166.818 145.518C166.657 145.587 166.479 145.623 166.298 145.622H55.4864C55.1848 145.622 54.8958 145.522 54.6826 145.345C54.4694 145.168 54.3494 144.928 54.349 144.678V82.2997C54.3494 82.0492 54.4694 81.8091 54.6826 81.632C54.8958 81.4549 55.1848 81.3552 55.4864 81.3549H166.298C166.6 81.3549 166.889 81.4544 167.103 81.6315C167.316 81.8087 167.437 82.049 167.437 82.2997V144.678Z" fill="#565656"/>
<path d="M167.667 87.3574H54.125V87.8125H167.667V87.3574Z" fill="#565656"/>
<path d="M57.9863 85.7561C58.7403 85.7561 59.3516 85.1449 59.3516 84.3909C59.3516 83.6369 58.7403 83.0256 57.9863 83.0256C57.2323 83.0256 56.6211 83.6369 56.6211 84.3909C56.6211 85.1449 57.2323 85.7561 57.9863 85.7561Z" fill="#565656"/>
<path d="M61.916 85.7561C62.67 85.7561 63.2813 85.1449 63.2813 84.3909C63.2813 83.6369 62.67 83.0256 61.916 83.0256C61.162 83.0256 60.5508 83.6369 60.5508 84.3909C60.5508 85.1449 61.162 85.7561 61.916 85.7561Z" fill="#565656"/>
<path d="M65.834 85.7561C66.588 85.7561 67.1992 85.1449 67.1992 84.3909C67.1992 83.6369 66.588 83.0256 65.834 83.0256C65.08 83.0256 64.4688 83.6369 64.4688 84.3909C64.4688 85.1449 65.08 85.7561 65.834 85.7561Z" fill="#565656"/>
<path d="M82.2123 97.3962C82.0229 97.2068 81.7161 97.2059 81.5256 97.3941L76.5229 102.334C76.3298 102.525 76.3298 102.837 76.5229 103.028L81.5255 107.968C81.7161 108.156 82.0229 108.155 82.2123 107.965L82.8076 107.37C82.9978 107.18 82.9979 106.871 82.8076 106.681L79.1878 103.061C78.9975 102.871 78.9975 102.562 79.1878 102.372L82.8435 98.7161C83.0338 98.5259 83.0338 98.2174 82.8435 98.0271L82.2123 97.3962Z" fill="#0A74E6"/>
<path d="M88.5891 97.3962C88.7785 97.2068 89.0852 97.2059 89.2758 97.3941L94.2783 102.334C94.4715 102.525 94.4715 102.837 94.2783 103.028L89.2758 107.968C89.0853 108.156 88.7785 108.155 88.5891 107.965L87.9938 107.37C87.8035 107.18 87.8035 106.871 87.9938 106.681L91.6138 103.061C91.8041 102.871 91.8041 102.562 91.6138 102.372L87.9578 98.7161C87.7676 98.5259 87.7676 98.2174 87.9579 98.0271L88.5891 97.3962Z" fill="#0A74E6"/>
<path d="M105.012 98.4663C104.546 98.4663 104.168 98.7344 104.168 99.0649C104.168 99.3954 104.546 99.6635 105.012 99.6635H144.791C145.257 99.6635 145.635 99.3954 145.635 99.0649C145.635 98.7344 145.257 98.4663 144.791 98.4663H105.012Z" fill="#E6E6E6"/>
<path d="M144.631 134.185H77.7119C77.0278 134.185 76.4734 133.79 76.4727 133.303V121.492C76.4734 121.006 77.0278 120.611 77.7119 120.611H144.631C145.315 120.611 145.869 121.006 145.87 121.492V133.303C145.87 133.79 145.315 134.185 144.631 134.185ZM77.7119 120.963C77.3014 120.963 76.9688 121.2 76.9683 121.492V133.303C76.9683 133.595 77.3014 133.832 77.7119 133.832H144.631C145.041 133.832 145.374 133.595 145.375 133.303V121.492C145.375 121.2 145.041 120.964 144.631 120.963L77.7119 120.963Z" fill="black"/>
<path d="M84.5838 130.387C86.2373 130.387 87.5777 129.046 87.5777 127.393C87.5777 125.739 86.2373 124.399 84.5838 124.399C82.9303 124.399 81.5898 125.739 81.5898 127.393C81.5898 129.046 82.9303 130.387 84.5838 130.387Z" fill="#0A74E6" fill-opacity="0.3"/>
<path d="M93.0252 124.999C92.8664 124.999 92.7141 125.061 92.6017 125.174C92.4893 125.286 92.426 125.438 92.4258 125.597C92.4256 125.755 92.4884 125.908 92.6006 126.02C92.7127 126.133 92.8649 126.196 93.0236 126.196H121.246C121.405 126.196 121.557 126.133 121.669 126.021C121.782 125.908 121.845 125.756 121.845 125.597C121.845 125.439 121.782 125.286 121.669 125.174C121.557 125.062 121.405 124.999 121.246 124.999H93.0252Z" fill="#0A74E6" fill-opacity="0.3"/>
<path d="M93.0252 128.59C92.9465 128.59 92.8687 128.606 92.796 128.636C92.7234 128.666 92.6573 128.71 92.6017 128.765C92.4893 128.877 92.426 129.029 92.4258 129.188C92.4256 129.347 92.4884 129.499 92.6006 129.612C92.7127 129.724 92.8649 129.787 93.0236 129.788H105.168C105.327 129.788 105.48 129.725 105.592 129.613C105.704 129.501 105.768 129.348 105.768 129.19C105.768 129.031 105.705 128.879 105.593 128.766C105.481 128.654 105.329 128.591 105.17 128.59H93.0252Z" fill="#0A74E6" fill-opacity="0.3"/>
<path d="M104.72 102.052C104.57 102.064 104.429 102.133 104.327 102.244C104.225 102.355 104.168 102.5 104.168 102.651C104.168 102.802 104.225 102.947 104.327 103.058C104.429 103.169 104.57 103.237 104.72 103.249H130.791C130.941 103.237 131.082 103.169 131.184 103.058C131.286 102.947 131.343 102.802 131.343 102.651C131.343 102.5 131.286 102.355 131.184 102.244C131.082 102.133 130.941 102.064 130.791 102.052H104.72Z" fill="#E6E6E6"/>
<path d="M104.893 105.639C104.493 105.639 104.168 105.907 104.168 106.238C104.168 106.568 104.493 106.836 104.893 106.836H139.067C139.467 106.836 139.792 106.568 139.792 106.238C139.792 105.907 139.467 105.639 139.067 105.639H104.893Z" fill="#E6E6E6"/>
</svg>
