<svg width="254" height="146" viewBox="0 0 254 146" fill="none" xmlns="http://www.w3.org/2000/svg">
<rect x="98.1368" y="17.0135" width="56.77" height="109.831" rx="5.13498" stroke="black" stroke-width="0.570553"/>
<rect x="102.129" y="21.5784" width="48.7823" height="101.273" rx="4.27915" fill="#0A74E6" fill-opacity="0.1"/>
<path d="M117.661 88.6618H113.689C113.514 88.6616 113.346 88.5918 113.221 88.4677C113.097 88.3436 113.028 88.1754 113.027 87.9999V85.1631C113.028 84.9876 113.097 84.8194 113.221 84.6953C113.346 84.5712 113.514 84.5014 113.689 84.5012H117.661C117.836 84.5014 118.004 84.5712 118.129 84.6953C118.253 84.8194 118.322 84.9876 118.323 85.1631V87.9999C118.322 88.1754 118.253 88.3436 118.129 88.4677C118.004 88.5918 117.836 88.6616 117.661 88.6618ZM113.689 84.8795C113.614 84.8795 113.542 84.9095 113.489 84.9626C113.436 85.0158 113.406 85.0879 113.406 85.1631V87.9999C113.406 88.0751 113.436 88.1472 113.489 88.2004C113.542 88.2536 113.614 88.2835 113.689 88.2836H117.661C117.736 88.2835 117.808 88.2536 117.861 88.2004C117.914 88.1472 117.944 88.0751 117.944 87.9999V85.1631C117.944 85.0879 117.914 85.0158 117.861 84.9626C117.808 84.9094 117.736 84.8795 117.661 84.8794L113.689 84.8795Z" fill="#565656"/>
<path d="M115.676 86.9593C115.634 86.9593 115.593 86.9453 115.56 86.9194L113.858 85.5956C113.839 85.5803 113.822 85.5614 113.81 85.5398C113.798 85.5182 113.79 85.4944 113.787 85.4698C113.784 85.4451 113.785 85.4201 113.792 85.3962C113.799 85.3722 113.81 85.3498 113.825 85.3302C113.84 85.3106 113.859 85.2942 113.881 85.2819C113.902 85.2696 113.926 85.2617 113.951 85.2587C113.975 85.2556 114 85.2574 114.024 85.264C114.048 85.2706 114.071 85.2818 114.09 85.297L115.676 86.5305L117.262 85.297C117.282 85.2818 117.304 85.2706 117.328 85.264C117.352 85.2574 117.377 85.2556 117.402 85.2587C117.426 85.2617 117.45 85.2696 117.472 85.2819C117.493 85.2942 117.512 85.3106 117.528 85.3302C117.543 85.3498 117.554 85.3722 117.561 85.3962C117.567 85.4201 117.569 85.4451 117.566 85.4698C117.563 85.4944 117.555 85.5182 117.543 85.5398C117.53 85.5614 117.514 85.5803 117.494 85.5956L115.792 86.9194C115.759 86.9453 115.718 86.9593 115.676 86.9593Z" fill="#565656"/>
<path d="M115.676 91.2884C114.745 91.2884 113.835 91.0123 113.061 90.4951C112.287 89.9779 111.683 89.2428 111.327 88.3826C110.971 87.5225 110.878 86.5761 111.059 85.663C111.241 84.7499 111.689 83.9112 112.347 83.2529C113.006 82.5946 113.844 82.1463 114.758 81.9647C115.671 81.7831 116.617 81.8763 117.477 82.2326C118.337 82.5888 119.072 83.1922 119.59 83.9662C120.107 84.7403 120.383 85.6504 120.383 86.5813C120.381 87.8293 119.885 89.0257 119.003 89.9082C118.12 90.7906 116.924 91.287 115.676 91.2884ZM115.676 82.0835C114.786 82.0835 113.917 82.3473 113.177 82.8415C112.437 83.3357 111.861 84.0382 111.52 84.8601C111.18 85.682 111.091 86.5863 111.264 87.4588C111.438 88.3313 111.866 89.1328 112.495 89.7618C113.124 90.3908 113.926 90.8192 114.798 90.9928C115.671 91.1663 116.575 91.0772 117.397 90.7368C118.219 90.3964 118.921 89.8199 119.416 89.0802C119.91 88.3405 120.174 87.4709 120.174 86.5813C120.172 85.3888 119.698 84.2456 118.855 83.4024C118.012 82.5591 116.868 82.0848 115.676 82.0835Z" fill="#565656"/>
<path d="M246.742 55.9755C246.706 55.9755 246.67 55.9647 246.64 55.9446C246.61 55.9244 246.586 55.8958 246.573 55.8623C246.559 55.8288 246.555 55.7919 246.562 55.7563C246.569 55.7208 246.587 55.6881 246.612 55.6624L247.804 54.4704C247.839 54.4365 247.885 54.4175 247.934 54.4177C247.982 54.4178 248.028 54.4371 248.063 54.4714C248.097 54.5056 248.116 54.552 248.116 54.6004C248.117 54.6488 248.098 54.6953 248.064 54.7298L246.872 55.9218C246.855 55.9388 246.834 55.9524 246.812 55.9616C246.79 55.9708 246.766 55.9755 246.742 55.9755ZM249.768 55.517C249.732 55.517 249.696 55.5063 249.666 55.4861C249.636 55.466 249.612 55.4373 249.598 55.4038C249.585 55.3703 249.581 55.3334 249.588 55.2979C249.595 55.2623 249.613 55.2296 249.638 55.204L250.647 54.1954C250.681 54.1614 250.728 54.1424 250.776 54.1426C250.825 54.1428 250.871 54.1621 250.905 54.1963C250.939 54.2305 250.959 54.2769 250.959 54.3253C250.959 54.3737 250.94 54.4202 250.906 54.4547L249.898 55.4633C249.88 55.4804 249.86 55.4939 249.838 55.5031C249.816 55.5123 249.792 55.5171 249.768 55.517ZM249.218 55.517C249.194 55.5171 249.17 55.5123 249.147 55.5031C249.125 55.4939 249.105 55.4804 249.088 55.4633L248.354 54.7298C248.337 54.7128 248.324 54.6926 248.314 54.6703C248.305 54.648 248.3 54.624 248.3 54.5998C248.3 54.5756 248.304 54.5517 248.314 54.5293C248.323 54.5069 248.336 54.4866 248.354 54.4695C248.371 54.4524 248.391 54.4389 248.413 54.4296C248.436 54.4204 248.46 54.4157 248.484 54.4158C248.508 54.4159 248.532 54.4208 248.554 54.4301C248.577 54.4395 248.597 54.4532 248.614 54.4704L249.347 55.204C249.373 55.2296 249.39 55.2623 249.398 55.2979C249.405 55.3334 249.401 55.3703 249.387 55.4038C249.373 55.4373 249.35 55.466 249.32 55.4861C249.289 55.5063 249.254 55.517 249.218 55.517Z" fill="black"/>
<path d="M251.052 54.5082C250.962 54.5082 250.873 54.4813 250.798 54.431C250.722 54.3806 250.663 54.309 250.629 54.2252C250.594 54.1414 250.585 54.0493 250.603 53.9603C250.62 53.8714 250.664 53.7897 250.728 53.7256C250.792 53.6615 250.874 53.6178 250.963 53.6001C251.052 53.5824 251.144 53.5915 251.228 53.6262C251.311 53.6609 251.383 53.7197 251.433 53.7951C251.484 53.8705 251.511 53.9591 251.511 54.0498C251.511 54.1713 251.462 54.2879 251.376 54.3738C251.29 54.4598 251.174 54.5081 251.052 54.5082ZM251.052 53.9581C251.034 53.9581 251.016 53.9635 251.001 53.9735C250.986 53.9836 250.974 53.9979 250.967 54.0147C250.961 54.0314 250.959 54.0499 250.962 54.0677C250.966 54.0855 250.975 54.1018 250.987 54.1146C251 54.1274 251.017 54.1362 251.034 54.1397C251.052 54.1432 251.071 54.1414 251.087 54.1345C251.104 54.1275 251.118 54.1158 251.128 54.1007C251.139 54.0856 251.144 54.0679 251.144 54.0498C251.144 54.0255 251.134 54.0022 251.117 53.985C251.1 53.9678 251.077 53.9581 251.052 53.9581Z" fill="black"/>
<path d="M249.494 56.0668C249.403 56.0668 249.314 56.0399 249.239 55.9896C249.164 55.9392 249.105 55.8676 249.07 55.7838C249.035 55.7 249.026 55.6079 249.044 55.5189C249.062 55.43 249.105 55.3483 249.169 55.2842C249.234 55.2201 249.315 55.1764 249.404 55.1587C249.493 55.141 249.585 55.1501 249.669 55.1848C249.753 55.2195 249.824 55.2783 249.875 55.3537C249.925 55.4291 249.952 55.5177 249.952 55.6084C249.952 55.7299 249.904 55.8465 249.818 55.9324C249.732 56.0184 249.615 56.0667 249.494 56.0668ZM249.494 55.5167C249.475 55.5167 249.458 55.5221 249.443 55.5321C249.428 55.5422 249.416 55.5565 249.409 55.5733C249.402 55.59 249.4 55.6085 249.404 55.6263C249.407 55.644 249.416 55.6604 249.429 55.6732C249.442 55.686 249.458 55.6948 249.476 55.6983C249.494 55.7018 249.512 55.7 249.529 55.6931C249.545 55.6861 249.56 55.6744 249.57 55.6593C249.58 55.6442 249.585 55.6265 249.585 55.6084C249.585 55.5841 249.576 55.5608 249.558 55.5436C249.541 55.5264 249.518 55.5167 249.494 55.5167Z" fill="black"/>
<path d="M248.208 54.783C248.118 54.783 248.029 54.7561 247.954 54.7058C247.878 54.6554 247.82 54.5838 247.785 54.5C247.75 54.4162 247.741 54.324 247.759 54.2351C247.776 54.1462 247.82 54.0645 247.884 54.0004C247.948 53.9363 248.03 53.8926 248.119 53.8749C248.208 53.8572 248.3 53.8663 248.384 53.901C248.468 53.9357 248.539 53.9944 248.59 54.0698C248.64 54.1452 248.667 54.2339 248.667 54.3246C248.667 54.4461 248.618 54.5626 248.532 54.6486C248.447 54.7345 248.33 54.7829 248.208 54.783ZM248.208 54.2329C248.19 54.2329 248.173 54.2382 248.158 54.2483C248.142 54.2584 248.131 54.2727 248.124 54.2895C248.117 54.3062 248.115 54.3247 248.119 54.3424C248.122 54.3602 248.131 54.3766 248.144 54.3894C248.156 54.4022 248.173 54.4109 248.191 54.4145C248.208 54.418 248.227 54.4162 248.244 54.4093C248.26 54.4023 248.275 54.3906 248.285 54.3755C248.295 54.3604 248.3 54.3427 248.3 54.3246C248.3 54.3002 248.29 54.2769 248.273 54.2597C248.256 54.2426 248.233 54.2329 248.208 54.2329Z" fill="black"/>
<path d="M246.466 56.5253C246.376 56.5253 246.287 56.4984 246.212 56.4481C246.136 56.3977 246.077 56.3261 246.043 56.2423C246.008 56.1585 245.999 56.0664 246.017 55.9774C246.034 55.8885 246.078 55.8068 246.142 55.7427C246.206 55.6786 246.288 55.6349 246.377 55.6172C246.466 55.5995 246.558 55.6086 246.642 55.6433C246.725 55.678 246.797 55.7368 246.847 55.8122C246.898 55.8875 246.925 55.9762 246.925 56.0669C246.925 56.1884 246.876 56.3049 246.79 56.3909C246.704 56.4768 246.588 56.5252 246.466 56.5253ZM246.466 55.9752C246.448 55.9752 246.43 55.9805 246.415 55.9906C246.4 56.0007 246.389 56.015 246.382 56.0318C246.375 56.0485 246.373 56.067 246.376 56.0848C246.38 56.1025 246.389 56.1189 246.401 56.1317C246.414 56.1445 246.431 56.1533 246.448 56.1568C246.466 56.1603 246.485 56.1585 246.501 56.1516C246.518 56.1446 246.532 56.1329 246.543 56.1178C246.553 56.1027 246.558 56.085 246.558 56.0669C246.558 56.0425 246.548 56.0192 246.531 56.0021C246.514 55.9849 246.491 55.9752 246.466 55.9752Z" fill="black"/>
<path d="M248.76 59.6227C247.857 59.6227 246.974 59.3551 246.224 58.8535C245.473 58.352 244.888 57.6391 244.543 56.8051C244.197 55.971 244.107 55.0533 244.283 54.1678C244.459 53.2824 244.894 52.4691 245.532 51.8308C246.171 51.1924 246.984 50.7577 247.869 50.5816C248.755 50.4055 249.672 50.4959 250.506 50.8413C251.341 51.1868 252.053 51.7718 252.555 52.5225C253.056 53.2731 253.324 54.1556 253.324 55.0583C253.323 56.2685 252.841 57.4286 251.986 58.2843C251.13 59.14 249.97 59.6214 248.76 59.6227ZM248.76 50.6968C247.897 50.6968 247.054 50.9526 246.337 51.4318C245.619 51.9111 245.06 52.5923 244.73 53.3892C244.4 54.1862 244.314 55.0632 244.482 55.9092C244.65 56.7553 245.066 57.5324 245.676 58.1424C246.286 58.7524 247.063 59.1678 247.909 59.3361C248.755 59.5044 249.632 59.418 250.429 59.0879C251.226 58.7578 251.907 58.1987 252.386 57.4815C252.866 56.7642 253.121 55.921 253.121 55.0583C253.12 53.902 252.66 52.7933 251.842 51.9757C251.025 51.158 249.916 50.6981 248.76 50.6968Z" fill="black"/>
<g opacity="0.5">
<path d="M135.051 59.5222C134.856 59.5239 134.662 59.4845 134.483 59.4066C134.304 59.3286 134.144 59.2139 134.012 59.0698C133.856 58.889 133.738 58.6777 133.668 58.4493C133.597 58.221 133.574 57.9805 133.601 57.7429C133.638 57.2904 133.828 56.8639 134.139 56.5332C134.288 56.3717 134.469 56.2424 134.67 56.1533C134.871 56.0642 135.088 56.0171 135.308 56.0149C135.513 56.014 135.715 56.0562 135.903 56.1387C136.09 56.2212 136.258 56.3422 136.395 56.4938C136.551 56.6699 136.668 56.8763 136.74 57.1001C136.812 57.324 136.837 57.5603 136.813 57.7942C136.784 58.2743 136.577 58.7262 136.233 59.0617C135.912 59.3603 135.489 59.525 135.051 59.5222ZM135.308 56.5994C134.736 56.5994 134.242 57.1242 134.183 57.7942C134.163 57.951 134.176 58.1101 134.221 58.2617C134.266 58.4132 134.341 58.5539 134.443 58.675C134.52 58.7595 134.614 58.8267 134.719 58.8719C134.823 58.9172 134.937 58.9396 135.051 58.9376C135.586 58.9376 136.158 58.5682 136.231 57.7428C136.248 57.5897 136.233 57.4347 136.187 57.2877C136.141 57.1407 136.065 57.0048 135.964 56.8886C135.881 56.7971 135.78 56.724 135.667 56.6742C135.554 56.6244 135.432 56.5989 135.308 56.5994Z" fill="#565656"/>
<path d="M135.07 61.2757C134.617 61.2831 134.169 61.1942 133.754 61.015C133.338 60.8358 132.966 60.5703 132.661 60.2363C132.357 59.9022 132.126 59.5071 131.986 59.0772C131.845 58.6474 131.798 58.1926 131.847 57.743C131.942 56.7993 132.381 55.9236 133.08 55.2819C133.778 54.6401 134.688 54.2769 135.636 54.2612C136.688 54.2612 137.554 54.5993 138.14 55.2389C138.695 55.8455 138.955 56.6993 138.872 57.6431C138.794 58.5372 138.414 59.0028 138.11 59.236C137.975 59.3456 137.82 59.4267 137.654 59.4745C137.487 59.5222 137.312 59.5357 137.14 59.514C136.659 59.4287 136.127 58.9916 136.211 58.0406L136.366 56.2824C136.373 56.2055 136.41 56.1345 136.469 56.085C136.529 56.0355 136.605 56.0116 136.682 56.0184C136.759 56.0251 136.83 56.0621 136.88 56.1212C136.93 56.1803 136.954 56.2567 136.948 56.3337L136.793 58.0919C136.751 58.5647 136.919 58.8811 137.242 58.9384C137.428 58.9529 137.612 58.893 137.754 58.772C137.966 58.6102 138.23 58.2741 138.29 57.5918C138.36 56.802 138.159 56.1249 137.709 55.6337C137.237 55.1182 136.52 54.8458 135.636 54.8458C134.834 54.861 134.065 55.1692 133.474 55.7122C132.883 56.2553 132.512 56.9958 132.429 57.794C132.387 58.1628 132.425 58.5363 132.539 58.8894C132.654 59.2424 132.842 59.567 133.092 59.8413C133.342 60.1157 133.648 60.3334 133.989 60.48C134.33 60.6265 134.698 60.6986 135.07 60.6912C135.527 60.7159 135.985 60.633 136.404 60.4491C136.476 60.4195 136.556 60.4193 136.628 60.4487C136.699 60.4781 136.756 60.5346 136.786 60.6058C136.816 60.6771 136.816 60.7573 136.787 60.829C136.758 60.9006 136.702 60.9578 136.631 60.988C136.139 61.2021 135.605 61.3005 135.07 61.2757Z" fill="#565656"/>
<path d="M135.36 65.043C133.922 65.043 132.515 64.6164 131.319 63.817C130.123 63.0177 129.19 61.8815 128.64 60.5523C128.089 59.223 127.945 57.7604 128.226 56.3493C128.506 54.9381 129.199 53.6419 130.217 52.6246C131.234 51.6072 132.53 50.9144 133.941 50.6337C135.352 50.353 136.815 50.497 138.144 51.0476C139.474 51.5982 140.61 52.5306 141.409 53.7269C142.208 54.9232 142.635 56.3297 142.635 57.7684C142.633 59.6971 141.866 61.5462 140.502 62.9099C139.138 64.2737 137.289 65.0408 135.36 65.043ZM135.36 50.8172C133.986 50.8172 132.642 51.2249 131.499 51.9887C130.355 52.7525 129.465 53.8382 128.938 55.1083C128.412 56.3785 128.275 57.7762 128.543 59.1246C128.811 60.473 129.473 61.7116 130.445 62.6837C131.417 63.6559 132.656 64.3179 134.004 64.5861C135.353 64.8543 136.75 64.7167 138.021 64.1906C139.291 63.6644 140.376 62.7735 141.14 61.6304C141.904 60.4872 142.312 59.1433 142.312 57.7684C142.31 55.9255 141.577 54.1586 140.273 52.8555C138.97 51.5523 137.203 50.8193 135.36 50.8172Z" fill="#565656"/>
</g>
<path d="M3.99387 56.7702C3.20396 56.7702 2.43178 56.536 1.775 56.0971C1.11821 55.6583 0.606302 55.0345 0.304015 54.3047C0.00172861 53.5749 -0.0773609 52.7719 0.0767436 51.9972C0.230848 51.2224 0.611229 50.5108 1.16978 49.9522C1.72834 49.3937 2.43997 49.0133 3.21471 48.8592C3.98944 48.7051 4.79248 48.7842 5.52226 49.0865C6.25205 49.3888 6.8758 49.9007 7.31466 50.5575C7.75351 51.2143 7.98775 51.9864 7.98775 52.7763C7.98655 53.8352 7.56538 54.8504 6.81664 55.5991C6.06791 56.3479 5.05275 56.769 3.99387 56.7702ZM3.99387 48.96C3.23907 48.96 2.50121 49.1838 1.87361 49.6032C1.24601 50.0225 0.756863 50.6185 0.468011 51.3159C0.179159 52.0132 0.103581 52.7806 0.250836 53.5209C0.398092 54.2612 0.761567 54.9412 1.2953 55.4749C1.82902 56.0087 2.50904 56.3721 3.24934 56.5194C3.98964 56.6666 4.75698 56.5911 5.45433 56.3022C6.15168 56.0134 6.74772 55.5242 7.16707 54.8966C7.58642 54.269 7.81024 53.5312 7.81024 52.7763C7.8091 51.7645 7.40665 50.7945 6.69119 50.079C5.97573 49.3636 5.00569 48.9611 3.99387 48.96Z" fill="black"/>
<path d="M2.70581 55.1224C2.66569 55.1223 2.62624 55.1121 2.59104 55.0928C2.55585 55.0735 2.52602 55.0458 2.50425 55.0121C2.48248 54.9784 2.46946 54.9397 2.46638 54.8997C2.46329 54.8597 2.47023 54.8196 2.48657 54.7829L2.76426 54.1634C2.3816 53.8235 2.13787 53.3543 2.07982 52.8458C2.02177 52.3372 2.15348 51.8252 2.4497 51.4078C2.74592 50.9904 3.1858 50.6971 3.68498 50.584C4.18416 50.471 4.70751 50.5462 5.15465 50.7952C5.6018 51.0443 5.94127 51.4496 6.10797 51.9335C6.27467 52.4174 6.25687 52.9458 6.05797 53.4174C5.85908 53.889 5.49309 54.2706 5.0302 54.489C4.56731 54.7074 4.04009 54.7472 3.54965 54.6008L2.84092 55.0806C2.80109 55.1078 2.75403 55.1223 2.70581 55.1224ZM4.13881 50.8386C3.76962 50.8384 3.4095 50.953 3.10838 51.1667C2.80726 51.3803 2.58006 51.6823 2.45827 52.0308C2.33647 52.3793 2.32612 52.7571 2.42865 53.1118C2.53118 53.4665 2.7415 53.7804 3.03047 54.0102L3.11796 54.08L2.81917 54.7467L3.50485 54.2825L3.57256 54.3052C3.81714 54.3874 4.07667 54.4154 4.33315 54.3873C4.58963 54.3592 4.83694 54.2757 5.05792 54.1425C5.27891 54.0093 5.46829 53.8297 5.61295 53.616C5.7576 53.4023 5.85407 53.1598 5.89567 52.9051C5.93726 52.6505 5.92299 52.3899 5.85383 52.1413C5.78468 51.8927 5.6623 51.6621 5.49518 51.4656C5.32806 51.269 5.12019 51.1111 4.88598 51.0028C4.65177 50.8946 4.39683 50.8385 4.13881 50.8386Z" fill="black"/>
<path d="M4.14024 52.8117C4.29967 52.8117 4.4289 52.6825 4.4289 52.523C4.4289 52.3636 4.29967 52.2344 4.14024 52.2344C3.98081 52.2344 3.85156 52.3636 3.85156 52.523C3.85156 52.6825 3.98081 52.8117 4.14024 52.8117Z" fill="black"/>
<path d="M3.32383 52.8117C3.48326 52.8117 3.6125 52.6825 3.6125 52.523C3.6125 52.3636 3.48326 52.2344 3.32383 52.2344C3.1644 52.2344 3.03516 52.3636 3.03516 52.523C3.03516 52.6825 3.1644 52.8117 3.32383 52.8117Z" fill="black"/>
<path d="M4.95664 52.8117C5.11607 52.8117 5.24531 52.6825 5.24531 52.523C5.24531 52.3636 5.11607 52.2344 4.95664 52.2344C4.79721 52.2344 4.66797 52.3636 4.66797 52.523C4.66797 52.6825 4.79721 52.8117 4.95664 52.8117Z" fill="black"/>
<circle cx="57.2829" cy="74.3998" r="9.24296" stroke="#565656" stroke-width="0.228221"/>
<circle cx="60.0211" cy="75.0844" r="9.35707" fill="#0A74E6" fill-opacity="0.1"/>
<path d="M56.1862 72.6587H57.0078C57.0804 72.6587 57.1501 72.6281 57.2014 72.5735C57.2528 72.519 57.2816 72.445 57.2816 72.3679C57.2816 72.2908 57.2528 72.2169 57.2014 72.1623C57.1501 72.1078 57.0804 72.0772 57.0078 72.0772H56.1862C56.1135 72.0772 56.0439 72.1078 55.9925 72.1623C55.9412 72.2169 55.9123 72.2908 55.9123 72.3679C55.9123 72.445 55.9412 72.519 55.9925 72.5735C56.0439 72.6281 56.1135 72.6587 56.1862 72.6587ZM58.3771 72.6587C58.4313 72.6587 58.4842 72.6417 58.5292 72.6097C58.5743 72.5778 58.6094 72.5323 58.6301 72.4792C58.6508 72.4261 58.6563 72.3676 58.6457 72.3112C58.6351 72.2548 58.609 72.203 58.5707 72.1623C58.5324 72.1217 58.4836 72.094 58.4305 72.0827C58.3774 72.0715 58.3223 72.0773 58.2723 72.0993C58.2222 72.1213 58.1795 72.1586 58.1494 72.2064C58.1193 72.2542 58.1032 72.3104 58.1032 72.3679C58.1032 72.445 58.1321 72.519 58.1834 72.5735C58.2348 72.6281 58.3045 72.6587 58.3771 72.6587ZM58.3771 73.8218C58.3229 73.8218 58.27 73.8389 58.2249 73.8708C58.1799 73.9028 58.1448 73.9482 58.1241 74.0013C58.1033 74.0544 58.0979 74.1129 58.1085 74.1693C58.1191 74.2257 58.1451 74.2775 58.1834 74.3182C58.2217 74.3589 58.2705 74.3865 58.3237 74.3978C58.3768 74.409 58.4318 74.4032 58.4819 74.3812C58.5319 74.3592 58.5747 74.3219 58.6048 74.2741C58.6349 74.2263 58.651 74.1701 58.651 74.1126C58.651 74.0355 58.6221 73.9615 58.5707 73.907C58.5194 73.8524 58.4497 73.8218 58.3771 73.8218ZM59.7464 76.4388H58.0539C58.013 76.3168 57.9471 76.2061 57.8609 76.1145C57.7747 76.023 57.6703 75.953 57.5555 75.9096V75.2757H58.651C58.8689 75.2757 59.0778 75.1838 59.2319 75.0202C59.386 74.8566 59.4725 74.6347 59.4725 74.4034V73.8218C59.4713 73.6066 59.3953 73.3995 59.2589 73.2403C59.3953 73.081 59.4713 72.8739 59.4725 72.6587V72.0772C59.4725 71.8458 59.386 71.6239 59.2319 71.4603C59.0778 71.2967 58.8689 71.2048 58.651 71.2048H55.9123C55.6944 71.2048 55.4854 71.2967 55.3313 71.4603C55.1773 71.6239 55.0907 71.8458 55.0907 72.0772V72.6587C55.0919 72.8739 55.168 73.081 55.3043 73.2403C55.168 73.3995 55.0919 73.6066 55.0907 73.8218V74.4034C55.0907 74.6347 55.1773 74.8566 55.3313 75.0202C55.4854 75.1838 55.6944 75.2757 55.9123 75.2757H57.0078V75.9096C56.8929 75.953 56.7886 76.023 56.7024 76.1145C56.6162 76.2061 56.5502 76.3168 56.5093 76.4388H54.8168C54.7442 76.4388 54.6745 76.4694 54.6232 76.5239C54.5718 76.5785 54.543 76.6524 54.543 76.7295C54.543 76.8067 54.5718 76.8806 54.6232 76.9352C54.6745 76.9897 54.7442 77.0203 54.8168 77.0203H56.5093C56.5669 77.1887 56.6719 77.3342 56.8101 77.437C56.9482 77.5399 57.1129 77.595 57.2816 77.595C57.4504 77.595 57.615 77.5399 57.7532 77.437C57.8914 77.3342 57.9964 77.1887 58.0539 77.0203H59.7464C59.819 77.0203 59.8887 76.9897 59.9401 76.9352C59.9914 76.8806 60.0203 76.8067 60.0203 76.7295C60.0203 76.6524 59.9914 76.5785 59.9401 76.5239C59.8887 76.4694 59.819 76.4388 59.7464 76.4388ZM55.6384 72.0772C55.6384 72 55.6673 71.9261 55.7186 71.8715C55.77 71.817 55.8397 71.7864 55.9123 71.7864H58.651C58.7236 71.7864 58.7932 71.817 58.8446 71.8715C58.896 71.9261 58.9248 72 58.9248 72.0772V72.6587C58.9248 72.7358 58.896 72.8098 58.8446 72.8643C58.7932 72.9188 58.7236 72.9495 58.651 72.9495H55.9123C55.8397 72.9495 55.77 72.9188 55.7186 72.8643C55.6673 72.8098 55.6384 72.7358 55.6384 72.6587V72.0772ZM55.9123 74.6941C55.8397 74.6941 55.77 74.6635 55.7186 74.609C55.6673 74.5544 55.6384 74.4805 55.6384 74.4034V73.8218C55.6384 73.7447 55.6673 73.6707 55.7186 73.6162C55.77 73.5617 55.8397 73.531 55.9123 73.531H58.651C58.7236 73.531 58.7932 73.5617 58.8446 73.6162C58.896 73.6707 58.9248 73.7447 58.9248 73.8218V74.4034C58.9248 74.4805 58.896 74.5544 58.8446 74.609C58.7932 74.6635 58.7236 74.6941 58.651 74.6941H55.9123ZM57.2816 77.0203C57.2275 77.0203 57.1745 77.0033 57.1295 76.9713C57.0844 76.9394 57.0493 76.894 57.0286 76.8408C57.0079 76.7877 57.0025 76.7292 57.013 76.6728C57.0236 76.6164 57.0497 76.5646 57.088 76.5239C57.1263 76.4833 57.1751 76.4556 57.2282 76.4444C57.2813 76.4331 57.3364 76.4389 57.3864 76.4609C57.4365 76.4829 57.4792 76.5202 57.5093 76.568C57.5394 76.6158 57.5555 76.672 57.5555 76.7295C57.5555 76.8067 57.5266 76.8806 57.4753 76.9352C57.4239 76.9897 57.3543 77.0203 57.2816 77.0203ZM57.0078 73.8218H56.1862C56.1135 73.8218 56.0439 73.8524 55.9925 73.907C55.9412 73.9615 55.9123 74.0355 55.9123 74.1126C55.9123 74.1897 55.9412 74.2637 55.9925 74.3182C56.0439 74.3727 56.1135 74.4034 56.1862 74.4034H57.0078C57.0804 74.4034 57.1501 74.3727 57.2014 74.3182C57.2528 74.2637 57.2816 74.1897 57.2816 74.1126C57.2816 74.0355 57.2528 73.9615 57.2014 73.907C57.1501 73.8524 57.0804 73.8218 57.0078 73.8218Z" fill="#0A74E6"/>
<circle cx="188.906" cy="72.5118" r="6.5111" stroke="black" stroke-width="0.203472"/>
<path d="M188.121 70.9802C188.396 70.8406 188.706 70.7672 189.022 70.7672C189.337 70.7672 189.648 70.8406 189.923 70.9802C189.952 70.9954 189.984 71.0053 190.018 71.0093C190.052 71.0133 190.086 71.0112 190.119 71.0033C190.152 70.9953 190.182 70.9817 190.209 70.963C190.236 70.9444 190.258 70.9212 190.275 70.8947C190.309 70.8417 190.318 70.779 190.3 70.7202C190.282 70.6614 190.239 70.6113 190.18 70.5808C189.827 70.4016 189.428 70.3074 189.022 70.3074C188.616 70.3074 188.217 70.4016 187.863 70.5808C187.805 70.6113 187.761 70.6614 187.744 70.7202C187.726 70.779 187.735 70.8417 187.768 70.8947C187.785 70.9212 187.807 70.9444 187.834 70.963C187.861 70.9817 187.892 70.9953 187.925 71.0033C187.957 71.0112 187.992 71.0133 188.025 71.0093C188.059 71.0053 188.091 70.9954 188.121 70.9802ZM190.674 72.1967C190.647 72.1402 190.617 72.0855 190.582 72.0328C190.564 72.0068 190.541 71.9842 190.513 71.9663C190.486 71.9484 190.455 71.9355 190.422 71.9284C190.389 71.9213 190.354 71.9202 190.321 71.925C190.287 71.9299 190.255 71.9406 190.226 71.9566C190.169 71.9886 190.127 72.0398 190.111 72.099C190.095 72.1583 190.106 72.2208 190.141 72.2729C190.181 72.3344 190.214 72.3993 190.239 72.4668C190.254 72.5064 190.28 72.5418 190.316 72.569C190.351 72.5963 190.394 72.6144 190.44 72.6214C190.619 72.6491 190.782 72.7326 190.899 72.8572C191.016 72.9817 191.081 73.1394 191.081 73.3024C191.081 73.4861 191 73.6622 190.855 73.7921C190.71 73.922 190.514 73.9949 190.309 73.9949H187.39C187.285 73.9804 187.187 73.9372 187.111 73.871C187.034 73.8049 186.983 73.7192 186.963 73.6256C186.947 73.5577 186.949 73.4876 186.968 73.4205C186.987 73.3533 187.022 73.2908 187.071 73.2376C187.121 73.1844 187.183 73.1418 187.253 73.1131C187.324 73.0844 187.4 73.0702 187.477 73.0716C187.546 73.0716 187.611 73.0472 187.659 73.004C187.708 72.9607 187.735 72.9019 187.735 72.8407C187.734 72.6388 187.794 72.4404 187.907 72.2659C187.924 72.2396 187.935 72.2105 187.94 72.1803C187.944 72.1501 187.942 72.1194 187.933 72.09C187.924 72.0606 187.909 72.0331 187.888 72.009C187.867 71.9849 187.841 71.9648 187.812 71.9497C187.753 71.9196 187.683 71.9117 187.617 71.9277C187.552 71.9437 187.496 71.9823 187.462 72.0351C187.341 72.2191 187.264 72.4234 187.235 72.6353C187.021 72.6822 186.828 72.7898 186.687 72.9423C186.567 73.0688 186.487 73.2221 186.456 73.386C186.425 73.5498 186.444 73.7181 186.51 73.8732C186.577 74.0283 186.689 74.1643 186.835 74.267C186.981 74.3697 187.155 74.4352 187.338 74.4566H187.372H190.309C190.617 74.4558 190.916 74.3556 191.149 74.1741C191.382 73.9927 191.535 73.7421 191.579 73.4681C191.623 73.1941 191.556 72.9149 191.39 72.6816C191.224 72.4482 190.97 72.2761 190.674 72.1967ZM189.76 71.6865C189.76 71.6865 189.76 71.6865 189.76 71.6727C189.774 71.6587 189.785 71.6431 189.794 71.6265C189.818 71.5696 189.817 71.5063 189.789 71.4505C189.762 71.3947 189.711 71.3509 189.647 71.3287C189.503 71.2808 189.352 71.2513 189.199 71.241C189.174 71.241 189.148 71.241 189.122 71.241C189.053 71.2364 188.983 71.2364 188.914 71.241C188.887 71.2398 188.86 71.2398 188.834 71.241C188.681 71.2513 188.53 71.2808 188.386 71.3287C188.324 71.3527 188.276 71.3972 188.25 71.4528C188.225 71.5084 188.225 71.5707 188.25 71.6265C188.258 71.642 188.269 71.6566 188.28 71.6704C188.28 71.6788 188.28 71.6873 188.28 71.6958C188.297 71.722 188.32 71.745 188.347 71.7634C188.374 71.7818 188.405 71.7952 188.437 71.803C188.47 71.8107 188.504 71.8125 188.538 71.8084C188.572 71.8043 188.604 71.7942 188.633 71.7789C188.751 71.7198 188.884 71.6888 189.019 71.6888C189.154 71.6888 189.287 71.7198 189.405 71.7789C189.435 71.7942 189.468 71.804 189.503 71.8077C189.537 71.8113 189.572 71.8088 189.605 71.8002C189.638 71.7916 189.669 71.7771 189.695 71.7575C189.722 71.738 189.744 71.7139 189.76 71.6865ZM188.764 72.379C188.764 72.4247 188.779 72.4693 188.808 72.5073C188.836 72.5453 188.876 72.5748 188.923 72.5923C188.97 72.6098 189.022 72.6144 189.072 72.6055C189.122 72.5965 189.168 72.5746 189.204 72.5423C189.24 72.51 189.264 72.4689 189.274 72.4241C189.284 72.3793 189.279 72.3329 189.26 72.2907C189.24 72.2485 189.207 72.2125 189.165 72.1871C189.122 72.1617 189.073 72.1482 189.022 72.1482C188.953 72.1482 188.888 72.1725 188.84 72.2158C188.791 72.2591 188.764 72.3178 188.764 72.379Z" fill="#0A74E6"/>
<circle cx="215.591" cy="20.0465" r="13.3206" stroke="#565656" stroke-width="0.328905"/>
<circle cx="213.616" cy="20.0465" r="12.4984" fill="#0A74E6" fill-opacity="0.1"/>
<path d="M218.323 18.511L213.316 15.6763C213.045 15.5218 212.737 15.4409 212.424 15.4418C212.111 15.4426 211.804 15.5252 211.534 15.6811C211.264 15.837 211.041 16.0607 210.886 16.3295C210.732 16.5982 210.653 16.9025 210.656 17.2113V22.9012C210.656 23.3653 210.843 23.8104 211.176 24.1386C211.508 24.4667 211.959 24.6511 212.429 24.6511C212.74 24.6506 213.046 24.5694 213.316 24.4157L218.323 21.581C218.592 21.4273 218.815 21.2065 218.971 20.9406C219.126 20.6748 219.208 20.3733 219.208 20.0665C219.208 19.7596 219.126 19.4581 218.971 19.1923C218.815 18.9265 218.592 18.7056 218.323 18.5519V18.511ZM217.805 20.6549L212.797 23.5305C212.685 23.5933 212.558 23.6263 212.429 23.6263C212.3 23.6263 212.173 23.5933 212.061 23.5305C211.949 23.4668 211.856 23.375 211.792 23.2645C211.727 23.1541 211.693 23.0287 211.693 22.9012V17.1908C211.693 17.0633 211.727 16.938 211.792 16.8275C211.856 16.717 211.949 16.6253 212.061 16.5615C212.174 16.4997 212.3 16.4663 212.429 16.4643C212.558 16.4669 212.684 16.5002 212.797 16.5615L217.805 19.4166C217.917 19.4804 218.01 19.5721 218.074 19.6826C218.139 19.7931 218.173 19.9184 218.173 20.046C218.173 20.1736 218.139 20.2989 218.074 20.4094C218.01 20.5199 217.917 20.6116 217.805 20.6754V20.6549Z" fill="#0A74E6"/>
<path d="M186.569 146H142.637V97.8499H186.569V146ZM142.988 145.649H186.218V98.2013H142.988V145.649Z" fill="#3F3D56"/>
<path d="M184.002 141.497H178.297V141.782H184.002V141.497Z" fill="#3F3D56" fill-opacity="0.3"/>
<path d="M184.002 142.638H178.297V142.923H184.002V142.638Z" fill="#3F3D56" fill-opacity="0.3"/>
<path d="M184.002 143.779H178.297V144.065H184.002V143.779Z" fill="#3F3D56" fill-opacity="0.3"/>
<path d="M164.602 106.46V110.327C166.895 110.327 169.138 111.007 171.045 112.281C172.952 113.556 174.439 115.367 175.317 117.486C176.195 119.606 176.424 121.938 175.977 124.187C175.529 126.437 174.425 128.504 172.803 130.126L175.536 132.86C177.699 130.697 179.172 127.941 179.769 124.942C180.365 121.942 180.059 118.833 178.889 116.007C177.718 113.181 175.736 110.766 173.193 109.067C170.65 107.367 167.66 106.46 164.602 106.46Z" fill="#E6E6E6"/>
<path d="M175.534 132.86L172.8 130.126C170.818 132.109 168.183 133.307 165.385 133.496C162.587 133.686 159.815 132.855 157.582 131.158L155.242 134.237C158.219 136.499 161.916 137.607 165.646 137.354C169.377 137.1 172.89 135.504 175.534 132.86Z" fill="#1C25B7"/>
<path d="M153.003 121.925C153.003 120.402 153.303 118.893 153.886 117.486C154.469 116.079 155.323 114.801 156.4 113.724C157.477 112.647 158.755 111.792 160.163 111.209C161.57 110.627 163.078 110.327 164.601 110.327V106.46C161.364 106.46 158.208 107.476 155.579 109.365C152.95 111.254 150.979 113.92 149.946 116.988C148.912 120.056 148.868 123.37 149.818 126.465C150.769 129.56 152.667 132.278 155.244 134.237L157.584 131.158C156.159 130.077 155.004 128.681 154.209 127.079C153.414 125.477 153.002 123.713 153.003 121.925Z" fill="#0A74E6"/>
<path d="M56.5467 139.215H24.5312V104.126H56.5467V139.215ZM24.7874 138.959H56.2906V104.382H24.7874V138.959Z" fill="#3F3D56"/>
<path d="M34.3329 124.15H29.7112C29.3961 124.15 29.1406 124.405 29.1406 124.72V132.8C29.1406 133.115 29.3961 133.37 29.7112 133.37H34.3329C34.648 133.37 34.9034 133.115 34.9034 132.8V124.72C34.9034 124.405 34.648 124.15 34.3329 124.15Z" fill="#575A89"/>
<path d="M42.6571 117.875H38.0354C37.7203 117.875 37.4648 118.13 37.4648 118.445V132.8C37.4648 133.115 37.7203 133.37 38.0354 133.37H42.6571C42.9722 133.37 43.2276 133.115 43.2276 132.8V118.445C43.2276 118.13 42.9722 117.875 42.6571 117.875Z" fill="#E6E6E6"/>
<path d="M50.9813 110.575H46.3596C46.0445 110.575 45.7891 110.83 45.7891 111.146V132.799C45.7891 133.115 46.0445 133.37 46.3596 133.37H50.9813C51.2964 133.37 51.5518 133.115 51.5518 132.799V111.146C51.5518 110.83 51.2964 110.575 50.9813 110.575Z" fill="#0A74E6"/>
<path d="M53.4739 135.053H27.6055V108.288H27.8615V134.796H53.4739V135.053Z" fill="#3F3D56"/>
<path d="M116.676 44.4352H45.6445V0H116.676V44.4352ZM45.9689 44.1108H116.352V0.324345H45.9689V44.1108Z" fill="#3F3D56"/>
<path d="M106.81 35.142H55.5082C55.4656 35.142 55.4248 35.1251 55.3947 35.0949C55.3646 35.0648 55.3477 35.024 55.3477 34.9814V10.3922C55.3477 10.3497 55.3646 10.3088 55.3947 10.2787C55.4248 10.2486 55.4656 10.2317 55.5082 10.2317C55.5508 10.2317 55.5916 10.2486 55.6217 10.2787C55.6518 10.3088 55.6688 10.3497 55.6688 10.3922V34.8209H106.81C106.832 34.8208 106.853 34.8249 106.872 34.8329C106.892 34.841 106.909 34.8528 106.924 34.8677C106.939 34.8826 106.951 34.9003 106.959 34.9199C106.967 34.9394 106.972 34.9603 106.972 34.9814C106.972 35.0025 106.967 35.0235 106.959 35.043C106.951 35.0625 106.939 35.0802 106.924 35.0951C106.909 35.1101 106.892 35.1219 106.872 35.1299C106.853 35.1379 106.832 35.142 106.81 35.142Z" fill="#3F3D56"/>
<path d="M66.4709 33.3757H61.8047C61.6784 33.3755 61.5572 33.3253 61.4679 33.2359C61.3785 33.1466 61.3283 33.0255 61.3281 32.8991V26.4668C61.3283 26.3404 61.3785 26.2193 61.4679 26.13C61.5572 26.0406 61.6784 25.9904 61.8047 25.9902H66.4709C66.5972 25.9904 66.7184 26.0406 66.8077 26.13C66.8971 26.2193 66.9473 26.3404 66.9475 26.4668V32.8991C66.9473 33.0254 66.8971 33.1466 66.8077 33.2359C66.7184 33.3253 66.5972 33.3755 66.4709 33.3757Z" fill="#0A74E6"/>
<path d="M74.9826 33.3763H70.3164C70.1901 33.3762 70.069 33.3259 69.9796 33.2366C69.8903 33.1472 69.84 33.0261 69.8398 32.8998V20.3665C69.84 20.2401 69.8903 20.119 69.9796 20.0296C70.069 19.9403 70.1901 19.89 70.3164 19.8899H74.9826C75.1089 19.89 75.2301 19.9403 75.3194 20.0296C75.4088 20.119 75.459 20.2401 75.4592 20.3665V32.8998C75.459 33.0261 75.4088 33.1472 75.3194 33.2366C75.2301 33.3259 75.1089 33.3762 74.9826 33.3763Z" fill="#0A74E6"/>
<path d="M83.4904 33.3757H78.8243C78.6979 33.3755 78.5768 33.3253 78.4874 33.2359C78.3981 33.1466 78.3478 33.0255 78.3477 32.8991V26.4668C78.3478 26.3404 78.3981 26.2193 78.4874 26.13C78.5768 26.0406 78.6979 25.9904 78.8243 25.9902H83.4904C83.6168 25.9904 83.7379 26.0406 83.8272 26.13C83.9166 26.2193 83.9669 26.3404 83.967 26.4668V32.8991C83.9669 33.0255 83.9166 33.1466 83.8272 33.2359C83.7379 33.3253 83.6168 33.3755 83.4904 33.3757Z" fill="#0A74E6"/>
<path d="M91.9982 33.376H87.3321C87.2086 33.3787 87.0891 33.3323 86.9998 33.247C86.9104 33.1617 86.8585 33.0445 86.8555 32.9211V17.9363C86.8585 17.8128 86.9104 17.6956 86.9998 17.6103C87.0891 17.525 87.2086 17.4787 87.3321 17.4813H91.9982C92.1217 17.4787 92.2412 17.525 92.3305 17.6103C92.4198 17.6956 92.4717 17.8128 92.4748 17.9363V32.9211C92.4717 33.0445 92.4198 33.1617 92.3305 33.247C92.2412 33.3323 92.1217 33.3787 91.9982 33.376Z" fill="#0A74E6"/>
<path d="M100.506 33.3761H95.8399C95.7135 33.376 95.5924 33.3257 95.503 33.2364C95.4137 33.147 95.3634 33.0259 95.3633 32.8996V13.623C95.3634 13.4967 95.4137 13.3756 95.503 13.2862C95.5924 13.1969 95.7135 13.1466 95.8399 13.1465H100.506C100.632 13.1466 100.754 13.1969 100.843 13.2862C100.932 13.3756 100.982 13.4967 100.983 13.623V32.8996C100.982 33.0259 100.932 33.147 100.843 33.2364C100.754 33.3257 100.632 33.376 100.506 33.3761Z" fill="#0A74E6"/>
<path d="M64.1352 24.0641C64.6672 24.0641 65.0985 23.6328 65.0985 23.1008C65.0985 22.5687 64.6672 22.1375 64.1352 22.1375C63.6032 22.1375 63.1719 22.5687 63.1719 23.1008C63.1719 23.6328 63.6032 24.0641 64.1352 24.0641Z" fill="#3F3D56"/>
<path d="M72.6469 17.8024C73.1789 17.8024 73.6102 17.3711 73.6102 16.839C73.6102 16.307 73.1789 15.8757 72.6469 15.8757C72.1149 15.8757 71.6836 16.307 71.6836 16.839C71.6836 17.3711 72.1149 17.8024 72.6469 17.8024Z" fill="#3F3D56"/>
<path d="M81.1547 24.0641C81.6867 24.0641 82.118 23.6328 82.118 23.1008C82.118 22.5687 81.6867 22.1375 81.1547 22.1375C80.6227 22.1375 80.1914 22.5687 80.1914 23.1008C80.1914 23.6328 80.6227 24.0641 81.1547 24.0641Z" fill="#3F3D56"/>
<path d="M89.6664 14.7521C90.1985 14.7521 90.6298 14.3208 90.6298 13.7888C90.6298 13.2567 90.1985 12.8254 89.6664 12.8254C89.1344 12.8254 88.7031 13.2567 88.7031 13.7888C88.7031 14.3208 89.1344 14.7521 89.6664 14.7521Z" fill="#3F3D56"/>
<path d="M98.1743 11.2195C98.7063 11.2195 99.1376 10.7882 99.1376 10.2562C99.1376 9.72414 98.7063 9.29285 98.1743 9.29285C97.6422 9.29285 97.2109 9.72414 97.2109 10.2562C97.2109 10.7882 97.6422 11.2195 98.1743 11.2195Z" fill="#3F3D56"/>
<path d="M81.178 23.3163L72.6486 16.9276L64.2354 23.229L64.043 22.972L72.6486 16.5263L81.1374 22.8847L89.5733 13.6533L89.6072 13.6395L98.1163 10.2109L98.2364 10.5089L89.7609 13.9238L81.178 23.3163Z" fill="#3F3D56"/>
</svg>
