<svg width="235" height="146" viewBox="0 0 235 146" fill="none" xmlns="http://www.w3.org/2000/svg">
<circle cx="14.1269" cy="57.9393" r="14.1269" fill="#0A74E6" fill-opacity="0.1"/>
<circle cx="16.0214" cy="55.2347" r="13.9916" stroke="black" stroke-width="0.270447"/>
<path d="M14.1359 49.2307C13.5267 49.2307 12.6129 49.5353 12.6129 50.7537C12.6129 51.9721 12.6129 52.5814 12.6129 53.4952C12.6129 54.409 11.0898 55.0183 11.0898 55.0183C11.0898 55.0183 12.6129 55.6275 12.6129 56.5413C12.6129 57.4551 12.6129 58.6736 12.6129 59.892C12.6129 61.1105 13.5267 61.4151 14.1359 61.4151" stroke="#0A74E6" stroke-width="1.21844" stroke-linecap="round" stroke-linejoin="round"/>
<path d="M18.9297 49.2307C19.5389 49.2307 20.4527 49.5353 20.4527 50.7537C20.4527 51.9721 20.4527 52.5814 20.4527 53.4952C20.4527 54.409 21.9758 55.0183 21.9758 55.0183C21.9758 55.0183 20.4527 55.6275 20.4527 56.5413C20.4527 57.4551 20.4527 58.6736 20.4527 59.892C20.4527 61.1105 19.5389 61.4151 18.9297 61.4151" stroke="#0A74E6" stroke-width="1.21844" stroke-linecap="round" stroke-linejoin="round"/>
<path d="M108.594 62.2867L108.595 62.2866C108.796 62.2638 108.989 62.1951 109.159 62.0866L104.691 23.5829L108.594 62.2867ZM108.594 62.2867L71.3586 66.6074L66.8753 27.971C66.8753 27.971 66.8753 27.9709 66.8753 27.9708C66.7858 27.1914 67.0091 26.4082 67.4963 25.7932C67.9834 25.1781 68.6946 24.7814 69.4738 24.69C69.4739 24.69 69.474 24.69 69.4741 24.69L101.41 20.9842L108.594 62.2867ZM103.768 21.3778L103.588 21.6051C102.973 21.118 102.19 20.8947 101.411 20.9841L103.768 21.3778ZM103.768 21.3778L103.588 21.6051M103.768 21.3778L103.588 21.6051M103.588 21.6051C104.203 22.0922 104.6 22.8034 104.691 23.5826L103.588 21.6051Z" fill="white" stroke="#565656" stroke-width="0.581296"/>
<path d="M97.3958 52.2668L75.4246 54.8163C75.3304 54.8273 75.2394 54.8566 75.1566 54.9027C75.0738 54.9489 75.0009 55.0108 74.9421 55.0851C74.8232 55.2352 74.7689 55.4263 74.7909 55.6164C74.813 55.8065 74.9097 55.9801 75.0597 56.0989C75.2097 56.2177 75.4008 56.2721 75.591 56.25L97.5622 53.7005C97.6563 53.6896 97.7474 53.6602 97.8302 53.6141C97.913 53.568 97.9859 53.506 98.0447 53.4317C98.1036 53.3575 98.1472 53.2723 98.1731 53.1812C98.1991 53.09 98.2068 52.9946 98.1959 52.9005C98.1849 52.8064 98.1556 52.7153 98.1095 52.6325C98.0633 52.5497 98.0014 52.4768 97.9271 52.418C97.8528 52.3591 97.7676 52.3155 97.6765 52.2896C97.5853 52.2636 97.49 52.2559 97.3958 52.2668Z" fill="#E4E4E4"/>
<path d="M97.0646 49.4363L75.0933 51.9859C74.9991 51.9966 74.908 52.0258 74.8251 52.0718C74.7423 52.1178 74.6693 52.1797 74.6103 52.254C74.5514 52.3282 74.5077 52.4134 74.4817 52.5045C74.4557 52.5957 74.448 52.6911 74.4589 52.7852C74.4699 52.8794 74.4992 52.9705 74.5454 53.0532C74.5916 53.136 74.6536 53.2089 74.728 53.2677C74.8023 53.3265 74.8876 53.37 74.9788 53.3958C75.07 53.4216 75.1654 53.4292 75.2595 53.4181L97.2308 50.8686C97.3249 50.8577 97.4159 50.8285 97.4987 50.7824C97.5815 50.7364 97.6544 50.6745 97.7133 50.6002C97.7721 50.526 97.8157 50.4409 97.8417 50.3498C97.8676 50.2587 97.8754 50.1634 97.8644 50.0693C97.8535 49.9752 97.8242 49.8842 97.7781 49.8014C97.7319 49.7187 97.67 49.6458 97.5957 49.587C97.5214 49.5283 97.4363 49.4847 97.3451 49.4588C97.254 49.433 97.1587 49.4253 97.0646 49.4363Z" fill="#E4E4E4"/>
<path d="M84.2938 48.0484L74.7696 49.1536C74.6755 49.1645 74.5844 49.1939 74.5017 49.24C74.4189 49.2861 74.346 49.3481 74.2871 49.4224C74.2283 49.4967 74.1847 49.5818 74.1587 49.673C74.1328 49.7641 74.1251 49.8595 74.136 49.9536C74.1469 50.0478 74.1763 50.1388 74.2224 50.2216C74.2685 50.3044 74.3305 50.3773 74.4048 50.4361C74.4791 50.495 74.5642 50.5386 74.6554 50.5645C74.7465 50.5905 74.8419 50.5982 74.936 50.5873L84.4602 49.4821C84.5543 49.4712 84.6454 49.4418 84.7282 49.3957C84.811 49.3496 84.8839 49.2876 84.9427 49.2133C85.0016 49.139 85.0452 49.0539 85.0711 48.9627C85.0971 48.8716 85.1048 48.7762 85.0939 48.6821C85.0829 48.588 85.0536 48.4969 85.0075 48.4141C84.9613 48.3313 84.8994 48.2584 84.8251 48.1996C84.7508 48.1407 84.6656 48.0971 84.5745 48.0712C84.4833 48.0452 84.388 48.0375 84.2938 48.0484Z" fill="#E4E4E4"/>
<path d="M95.7765 39.5085L73.8837 42.6614C73.6943 42.6887 73.5234 42.7901 73.4088 42.9433C73.2941 43.0966 73.245 43.2891 73.2723 43.4785C73.2996 43.668 73.401 43.8388 73.5542 43.9535C73.7075 44.0681 73.9 44.1172 74.0894 44.0899L95.9823 40.937C96.0761 40.9235 96.1663 40.8917 96.2478 40.8433C96.3293 40.7949 96.4004 40.731 96.4572 40.6551C96.514 40.5792 96.5552 40.4929 96.5787 40.4011C96.6021 40.3092 96.6072 40.2137 96.5937 40.1199C96.5801 40.0261 96.5483 39.9359 96.4999 39.8544C96.4515 39.7729 96.3876 39.7017 96.3117 39.645C96.2358 39.5882 96.1495 39.5469 96.0577 39.5235C95.9658 39.5001 95.8703 39.495 95.7765 39.5085Z" fill="#E4E4E4"/>
<path d="M95.3703 36.6878L73.4774 39.8407C73.3836 39.8542 73.2934 39.8861 73.2119 39.9344C73.1304 39.9828 73.0593 40.0468 73.0025 40.1227C72.8879 40.2759 72.8388 40.4684 72.866 40.6579C72.8933 40.8473 72.9947 41.0181 73.148 41.1328C73.3012 41.2475 73.4937 41.2965 73.6832 41.2693L95.576 38.1164C95.6698 38.1029 95.76 38.071 95.8415 38.0226C95.923 37.9743 95.9942 37.9103 96.0509 37.8344C96.1077 37.7585 96.149 37.6722 96.1724 37.5804C96.1958 37.4886 96.2009 37.393 96.1874 37.2992C96.1739 37.2054 96.142 37.1152 96.0937 37.0337C96.0453 36.9522 95.9813 36.8811 95.9055 36.8243C95.8296 36.7675 95.7433 36.7262 95.6514 36.7028C95.5596 36.6794 95.4641 36.6743 95.3703 36.6878Z" fill="#E4E4E4"/>
<path d="M82.5616 35.6518L73.0714 37.0185C72.8819 37.0458 72.7111 37.1472 72.5965 37.3004C72.4818 37.4537 72.4327 37.6462 72.46 37.8356C72.4873 38.0251 72.5887 38.1959 72.7419 38.3106C72.8952 38.4252 73.0877 38.4743 73.2771 38.447L82.7673 37.0803C82.8611 37.0668 82.9513 37.0349 83.0328 36.9866C83.1143 36.9382 83.1855 36.8742 83.2423 36.7984C83.299 36.7225 83.3403 36.6362 83.3637 36.5443C83.3871 36.4525 83.3922 36.357 83.3787 36.2632C83.3652 36.1694 83.3334 36.0791 83.285 35.9977C83.2366 35.9162 83.1727 35.845 83.0968 35.7882C83.0209 35.7314 82.9346 35.6902 82.8427 35.6668C82.7509 35.6434 82.6554 35.6382 82.5616 35.6518Z" fill="#E4E4E4"/>
<path d="M56.4861 54.2334C56.2816 54.2336 56.0856 54.315 55.941 54.4595C55.7964 54.6041 55.7151 54.8002 55.7148 55.0046V134.751C55.7151 134.956 55.7964 135.152 55.941 135.297C56.0856 135.441 56.2816 135.523 56.4861 135.523H156.473C156.677 135.523 156.873 135.441 157.018 135.297C157.162 135.152 157.244 134.956 157.244 134.751V67.8057C157.244 67.6012 157.162 67.4052 157.018 67.2606C156.873 67.116 156.677 67.0346 156.473 67.0343H99.0869C98.5044 67.0348 97.9427 66.8178 97.5118 66.4257L84.6106 54.7036C84.2778 54.4007 83.8439 54.233 83.3939 54.2334H56.4861Z" fill="#333333"/>
<path d="M190.884 23.4934L137.346 0.476794C135.911 -0.138383 134.29 -0.159047 132.839 0.419331C131.388 0.997708 130.226 2.1279 129.608 3.56197L101.555 68.8147L164.458 95.8578C164.974 96.0815 165.543 96.1519 166.098 96.0607L193.969 31.2318C194.584 29.7963 194.605 28.1754 194.026 26.7247C193.448 25.2739 192.318 24.1119 190.884 23.4934Z" fill="#0A74E6" fill-opacity="0.05"/>
<path d="M149.284 105.616L149.284 105.616C149.708 105.8 150.171 105.869 150.629 105.82L178.439 41.1315L149.284 105.616ZM149.284 105.616L86.6287 78.6793M149.284 105.616L86.6287 78.6793M86.6287 78.6793L114.575 13.6753C114.575 13.6752 114.575 13.6751 114.575 13.675C115.165 12.3068 116.274 11.2286 117.658 10.6768C119.042 10.1249 120.589 10.1446 121.959 10.7316L175.495 33.7479L86.6287 78.6793ZM178.494 36.831C179.046 38.2151 179.026 39.7616 178.439 41.1312L175.496 33.7481C176.864 34.3382 177.942 35.4469 178.494 36.831Z" fill="white" stroke="#565656" stroke-width="0.540893"/>
<path d="M139.009 18.3906L121.295 10.8181L89.6523 81.1343L126.163 96.685L139.009 18.3906Z" fill="white"/>
<path d="M89.7675 27.839L72.5192 29.9659C72.175 30.0085 71.8618 30.186 71.6485 30.4595C71.4352 30.7329 71.3392 31.0799 71.3817 31.4241C71.4241 31.7683 71.6015 32.0816 71.8749 32.295C72.1482 32.5085 72.4952 32.6046 72.8394 32.5623L90.0876 30.4354C90.2582 30.4144 90.4229 30.36 90.5724 30.2754C90.7219 30.1908 90.8533 30.0775 90.9591 29.9421C91.0648 29.8066 91.1428 29.6517 91.1887 29.4861C91.2345 29.3205 91.2473 29.1475 91.2263 28.977C91.2052 28.8065 91.1508 28.6418 91.0661 28.4923C90.9814 28.3428 90.8681 28.2115 90.7326 28.1058C90.5972 28.0001 90.4422 27.9222 90.2766 27.8764C90.111 27.8306 89.938 27.8179 89.7675 27.839L89.7675 27.839Z" fill="#0A74E6" fill-opacity="0.7"/>
<path d="M104.009 96.9764L104.01 96.9762C104.208 96.9322 104.393 96.8436 104.551 96.7177L96.0426 58.9009L104.009 96.9764ZM104.009 96.9764L67.4385 105.204L58.9012 67.257C58.9012 67.2569 58.9012 67.2568 58.9012 67.2568C58.7299 66.4911 58.8693 65.6887 59.2888 65.0257C59.7083 64.3627 60.3736 63.8931 61.1388 63.7199C61.1389 63.7199 61.139 63.7199 61.1391 63.7199L92.5055 56.6631L104.009 96.9764ZM94.8918 56.8056L94.7368 57.0506C94.0738 56.6312 93.2715 56.4918 92.5058 56.663L94.8918 56.8056ZM94.8918 56.8056L94.7368 57.0506M94.8918 56.8056L94.7368 57.0506M94.7368 57.0506C95.3998 57.4701 95.8693 58.1354 96.0425 58.9006L94.7368 57.0506Z" fill="white" stroke="#565656" stroke-width="0.581296"/>
<path d="M116.667 89.9578L116.666 89.9575C116.472 89.8982 116.295 89.7954 116.148 89.6576L127.584 52.621L116.667 89.9578ZM116.667 89.9578L152.483 101.017L163.959 63.8528C163.959 63.8527 163.959 63.8527 163.959 63.8526C164.19 63.1027 164.113 62.2919 163.747 61.5981C163.38 60.9043 162.754 60.3842 162.004 60.1518C162.004 60.1517 162.004 60.1517 162.004 60.1517L131.285 50.6663L116.667 89.9578ZM128.895 50.622L129.03 50.8784C129.724 50.512 130.535 50.4357 131.285 50.6662L128.895 50.622ZM128.895 50.622L129.03 50.8784M128.895 50.622L129.03 50.8784M129.03 50.8784C128.336 51.2448 127.816 51.8713 127.584 52.6207L129.03 50.8784Z" fill="white" stroke="#565656" stroke-width="0.581296"/>
<path d="M93.1257 82.1681L64.3516 88.5624L68.7113 73.7393L76.2681 80.7149L80.0466 67.3451L93.1257 82.1681Z" fill="#0A74E6" fill-opacity="0.3"/>
<path d="M86.5626 94.0774L86.5617 94.0774C86.3588 94.0733 86.1603 94.0226 85.9812 93.9302L86.8881 55.1788L86.5626 94.0774ZM86.5626 94.0774L124.037 94.9545L124.947 56.0695C124.947 56.0695 124.947 56.0694 124.947 56.0693C124.965 55.2849 124.67 54.5256 124.129 53.958C123.587 53.3904 122.842 53.0608 122.058 53.0414C122.058 53.0414 122.058 53.0414 122.058 53.0414L89.9162 52.2892L86.5626 94.0774ZM87.6044 52.8981L87.8046 53.1079C88.3722 52.5662 89.1315 52.2718 89.9158 52.2892L87.6044 52.8981ZM87.6044 52.8981L87.8046 53.1079M87.6044 52.8981L87.8046 53.1079M87.8046 53.1079C87.237 53.6495 86.9074 54.3941 86.8881 55.1785L87.8046 53.1079Z" fill="white" stroke="#565656" stroke-width="0.581296"/>
<circle cx="71.0377" cy="67.6358" r="2.61583" fill="#0A74E6" fill-opacity="0.3"/>
<path d="M151.09 86.9809L123.643 76.2335L135.531 66.3644L137.911 76.3695L148.506 67.3822L151.09 86.9809Z" fill="#0A74E6" fill-opacity="0.15"/>
<circle cx="142.534" cy="60.0788" r="2.61583" fill="#0A74E6" fill-opacity="0.15"/>
<path d="M50.3074 75.9954C50.2004 75.9954 50.0944 76.0149 49.9955 76.0527C49.8966 76.0906 49.8067 76.1461 49.731 76.2161C49.6553 76.286 49.5953 76.3691 49.5543 76.4605C49.5133 76.552 49.4922 76.65 49.4922 76.749C49.4922 76.7772 49.5173 134.824 49.5173 134.824C49.5396 135.008 49.6346 135.179 49.784 135.302C49.9335 135.426 50.1269 135.494 50.3273 135.494H163.853C164.053 135.494 164.247 135.426 164.396 135.302C164.545 135.179 164.64 135.009 164.663 134.824L171.729 76.8336C171.742 76.7281 171.731 76.6214 171.696 76.5203C171.661 76.4192 171.603 76.326 171.527 76.2469C171.451 76.1674 171.357 76.1038 171.252 76.0604C171.148 76.017 171.034 75.9949 170.919 75.9954L50.3074 75.9954Z" fill="#565656"/>
<path d="M140.994 30.8559C140.936 30.705 140.848 30.5673 140.736 30.4506C140.624 30.3339 140.49 30.2405 140.341 30.1759C140.193 30.1113 140.033 30.0766 139.872 30.074C139.71 30.0714 139.549 30.1008 139.399 30.1606L131.333 33.3301C131.182 33.3886 131.045 33.4765 130.928 33.5885C130.811 33.7006 130.718 33.8346 130.653 33.983C130.589 34.1313 130.554 34.2909 130.551 34.4527C130.549 34.6145 130.578 34.7752 130.638 34.9255L133.807 42.9912C133.866 43.142 133.954 43.2797 134.066 43.3964C134.178 43.5131 134.312 43.6065 134.46 43.6711C134.609 43.7358 134.768 43.7704 134.93 43.773C135.092 43.7756 135.252 43.7462 135.403 43.6864C135.554 43.6279 135.691 43.54 135.808 43.428C135.925 43.3159 136.018 43.1819 136.083 43.0336C136.147 42.8852 136.182 42.7256 136.185 42.5638C136.187 42.4021 136.158 42.2414 136.098 42.091L133.367 35.1658L140.299 32.4513C140.45 32.3927 140.588 32.3049 140.704 32.1928C140.821 32.0808 140.914 31.9467 140.979 31.7984C141.044 31.6501 141.078 31.4904 141.081 31.3287C141.083 31.1669 141.054 31.0062 140.994 30.8559ZM150.905 41.8593L147.735 33.7936C147.676 33.6432 147.588 33.5059 147.476 33.3895C147.364 33.2732 147.23 33.1801 147.082 33.1155C146.782 32.9852 146.444 32.979 146.14 33.0983C145.99 33.1574 145.852 33.2456 145.736 33.3577C145.62 33.4699 145.526 33.6039 145.462 33.752C145.331 34.0512 145.325 34.39 145.445 34.6937L148.175 41.619L141.244 44.3335C141.093 44.392 140.955 44.4799 140.838 44.5919C140.722 44.704 140.628 44.838 140.564 44.9864C140.499 45.1347 140.465 45.2943 140.462 45.4561C140.459 45.6179 140.489 45.7785 140.548 45.9289C140.607 46.0797 140.695 46.2174 140.807 46.3341C140.919 46.4508 141.053 46.5442 141.201 46.6088C141.35 46.6735 141.509 46.7081 141.671 46.7107C141.833 46.7134 141.994 46.6839 142.144 46.6241L150.21 43.4547C150.36 43.3961 150.498 43.3083 150.615 43.1962C150.732 43.0842 150.825 42.9501 150.89 42.8018C150.954 42.6535 150.989 42.4938 150.991 42.3321C150.994 42.1703 150.965 42.0096 150.905 41.8593Z" fill="#0A74E6"/>
<path d="M91.5591 58.4369C91.259 58.4324 90.8066 58.5755 90.7974 59.1757C90.7882 59.776 90.7836 60.0761 90.7768 60.5262C90.7699 60.9764 90.015 61.2651 90.015 61.2651C90.015 61.2651 90.7607 61.5766 90.7538 62.0268C90.7469 62.477 90.7378 63.0772 90.7286 63.6774C90.7194 64.2776 91.1673 64.4346 91.4674 64.4392" stroke="#0A74E6" stroke-width="0.600292" stroke-linecap="round" stroke-linejoin="round"/>
<path d="M119.539 67.6118C119.839 67.6174 120.287 67.7758 120.275 68.376C120.264 68.9762 120.259 69.2763 120.25 69.7264C120.242 70.1765 120.987 70.4905 120.987 70.4905C120.987 70.4905 120.231 70.7767 120.223 71.2269C120.214 71.677 120.203 72.2772 120.192 72.8774C120.181 73.4776 119.728 73.6193 119.428 73.6137" stroke="#0A74E6" stroke-width="0.600292" stroke-linecap="round" stroke-linejoin="round"/>
<rect width="15.8545" height="0.81134" rx="0.40567" transform="matrix(0.9998 0.0199883 -0.0188123 0.999823 93.8438 60.9835)" fill="#0A74E6"/>
<rect width="3.48017" height="0.81134" rx="0.40567" transform="matrix(0.999804 0.0197801 -0.0190008 0.999819 111.426 61.3303)" fill="#0A74E6"/>
<rect width="5.00137" height="0.81134" rx="0.40567" transform="matrix(0.999804 0.0197801 -0.0190008 0.999819 116.293 61.3766)" fill="#0A74E6"/>
<rect width="6.28169" height="0.81134" rx="0.40567" transform="matrix(0.999865 0.0164358 -0.0152598 0.999884 89.5195 69.4231)" fill="#0A74E6"/>
<rect width="19.0239" height="0.81134" rx="0.40567" transform="matrix(0.999868 0.0162276 -0.0154483 0.999881 97.6328 69.5536)" fill="#0A74E6"/>
<path d="M164.699 146H234.025V110.904H164.699V146Z" fill="#0A74E6" fill-opacity="0.05"/>
<path d="M145.391 140.557H219.175V103.204H145.391V140.557Z" fill="white"/>
<path d="M219.61 140.992H144.957V102.77H219.61V140.992ZM145.391 140.558H219.175V103.205H145.391V140.558Z" fill="#565656"/>
<path d="M166.153 115.774H158.637V116.4H166.153V115.774Z" fill="#0A74E6"/>
<path d="M176.176 115.774H168.66V116.4H176.176V115.774Z" fill="#0A74E6"/>
<path d="M190.739 121.568H183.223V122.194H190.739V121.568Z" fill="#0A74E6"/>
<path d="M200.919 121.568H193.402V122.194H200.919V121.568Z" fill="#0A74E6"/>
<path d="M200.919 115.774H178.84V116.4H200.919V115.774Z" fill="#0A74E6"/>
<path d="M180.716 121.568H158.637V122.194H180.716V121.568Z" fill="#0A74E6"/>
<path d="M180.716 127.362H158.637V127.988H180.716V127.362Z" fill="#0A74E6"/>
<path d="M200.916 127.362H185.57V127.988H200.916V127.362Z" fill="#0A74E6"/>
<path d="M156.527 118.418L153.883 115.774L156.527 113.13L157.056 113.659L154.941 115.774L157.056 117.889L156.527 118.418Z" fill="#0A74E6"/>
<path d="M208.041 130.632L207.512 130.103L209.627 127.988L207.512 125.873L208.041 125.344L210.685 127.988L208.041 130.632Z" fill="#0A74E6"/>
<path d="M205.257 125.218L203.691 130.385L204.408 130.602L205.974 125.435L205.257 125.218Z" fill="#0A74E6"/>
</svg>
