<svg width="243" height="146" viewBox="0 0 243 146" fill="none" xmlns="http://www.w3.org/2000/svg">
<path d="M157.059 15.2925H2.22425C1.63449 15.293 1.06904 15.5275 0.65203 15.9446C0.235017 16.3616 0.000517366 16.927 0 17.5168V122.437C0.000517366 123.027 0.235017 123.593 0.65203 124.01C1.06904 124.427 1.63449 124.661 2.22425 124.662H157.059C157.381 124.662 157.699 124.592 157.991 124.457C158.283 124.322 158.542 124.126 158.751 123.881C158.768 123.862 158.785 123.841 158.799 123.82C158.932 123.658 159.039 123.476 159.118 123.282C159.23 123.014 159.287 122.727 159.286 122.437V17.5168C159.286 16.9266 159.051 16.3609 158.633 15.9438C158.216 15.5267 157.65 15.2924 157.059 15.2925ZM158.651 122.437C158.651 122.748 158.56 123.051 158.388 123.31C158.236 123.537 158.029 123.723 157.786 123.85C157.562 123.967 157.312 124.027 157.059 124.027H2.22425C1.80293 124.026 1.39902 123.858 1.1011 123.56C0.803187 123.263 0.635595 122.859 0.635083 122.437V17.5168C0.635595 17.0955 0.803187 16.6916 1.1011 16.3937C1.39902 16.0957 1.80293 15.9282 2.22425 15.9276H157.059C157.481 15.9276 157.886 16.0949 158.184 16.3929C158.483 16.6908 158.65 17.0951 158.651 17.5168V122.437Z" fill="#565656"/>
<path d="M158.967 24.2074H0.316406V24.8433H158.967V24.2074Z" fill="#565656"/>
<path d="M5.72012 21.969C6.77367 21.969 7.62774 21.115 7.62774 20.0614C7.62774 19.0079 6.77367 18.1538 5.72012 18.1538C4.66657 18.1538 3.8125 19.0079 3.8125 20.0614C3.8125 21.115 4.66657 21.969 5.72012 21.969Z" fill="#565656"/>
<path d="M11.2045 21.969C12.258 21.969 13.1121 21.115 13.1121 20.0614C13.1121 19.0079 12.258 18.1538 11.2045 18.1538C10.1509 18.1538 9.29688 19.0079 9.29688 20.0614C9.29688 21.115 10.1509 21.969 11.2045 21.969Z" fill="#565656"/>
<path d="M16.6928 21.969C17.7463 21.969 18.6004 21.115 18.6004 20.0614C18.6004 19.0079 17.7463 18.1538 16.6928 18.1538C15.6392 18.1538 14.7852 19.0079 14.7852 20.0614C14.7852 21.115 15.6392 21.969 16.6928 21.969Z" fill="#565656"/>
<path d="M140.153 70.3064H16.438C15.2883 70.3051 14.1861 69.8478 13.3731 69.0349C12.5601 68.2219 12.1029 67.1197 12.1016 65.97V39.6965C12.1029 38.5468 12.5601 37.4446 13.3731 36.6316C14.1861 35.8187 15.2883 35.3614 16.438 35.3601H140.153C141.303 35.3614 142.405 35.8187 143.218 36.6316C144.031 37.4446 144.488 38.5468 144.489 39.6965V65.97C144.488 67.1197 144.031 68.2219 143.218 69.0349C142.405 69.8478 141.303 70.3051 140.153 70.3064ZM16.438 35.8703C15.4235 35.8714 14.451 36.2749 13.7337 36.9922C13.0164 37.7095 12.6129 38.6821 12.6117 39.6965V65.97C12.6129 66.9844 13.0164 67.957 13.7337 68.6743C14.451 69.3916 15.4235 69.7951 16.438 69.7963H140.153C141.167 69.7951 142.14 69.3916 142.857 68.6743C143.575 67.957 143.978 66.9844 143.979 65.97V39.6965C143.978 38.6821 143.575 37.7095 142.857 36.9922C142.14 36.2749 141.167 35.8714 140.153 35.8703H16.438Z" fill="#F2F2F2"/>
<path d="M43.7318 117.752H16.438C15.2883 117.75 14.1861 117.293 13.3731 116.48C12.5601 115.667 12.1029 114.565 12.1016 113.415V94.029C12.1029 92.8793 12.5601 91.7771 13.3731 90.9642C14.1861 90.1512 15.2883 89.6939 16.438 89.6926H43.7318C44.8815 89.6939 45.9837 90.1512 46.7967 90.9642C47.6096 91.7771 48.0669 92.8793 48.0682 94.029V113.415C48.0669 114.565 47.6096 115.667 46.7967 116.48C45.9837 117.293 44.8815 117.75 43.7318 117.752ZM16.438 90.2028C15.4235 90.2039 14.451 90.6074 13.7337 91.3247C13.0164 92.0421 12.6129 93.0146 12.6117 94.029V113.415C12.6129 114.43 13.0164 115.402 13.7337 116.12C14.451 116.837 15.4235 117.24 16.438 117.242H43.7318C44.7462 117.24 45.7188 116.837 46.4361 116.12C47.1534 115.402 47.5569 114.43 47.558 113.415V94.029C47.5569 93.0146 47.1534 92.0421 46.4361 91.3247C45.7188 90.6074 44.7462 90.2039 43.7318 90.2028H16.438Z" fill="#F2F2F2"/>
<path d="M140.154 117.752H112.86C111.71 117.75 110.608 117.293 109.795 116.48C108.982 115.667 108.525 114.565 108.523 113.415V94.029C108.525 92.8793 108.982 91.7771 109.795 90.9642C110.608 90.1512 111.71 89.6939 112.86 89.6926H140.154C141.303 89.6939 142.406 90.1512 143.219 90.9642C144.031 91.7771 144.489 92.8793 144.49 94.029V113.415C144.489 114.565 144.031 115.667 143.219 116.48C142.406 117.293 141.303 117.75 140.154 117.752ZM112.86 90.2028C111.845 90.2039 110.873 90.6074 110.156 91.3247C109.438 92.0421 109.035 93.0146 109.034 94.029V113.415C109.035 114.43 109.438 115.402 110.156 116.12C110.873 116.837 111.845 117.24 112.86 117.242H140.154C141.168 117.24 142.141 116.837 142.858 116.12C143.575 115.402 143.979 114.43 143.98 113.415V94.029C143.979 93.0146 143.575 92.0421 142.858 91.3247C142.141 90.6074 141.168 90.2039 140.154 90.2028H112.86Z" fill="#F2F2F2"/>
<path d="M93.9857 117.752H66.6919C65.5422 117.75 64.4399 117.293 63.627 116.48C62.814 115.667 62.3568 114.565 62.3555 113.415V94.029C62.3568 92.8793 62.814 91.7771 63.627 90.9642C64.4399 90.1512 65.5422 89.6939 66.6919 89.6926H93.9857C95.1354 89.6939 96.2376 90.1512 97.0506 90.9642C97.8635 91.7771 98.3208 92.8793 98.3221 94.029V113.415C98.3208 114.565 97.8635 115.667 97.0506 116.48C96.2376 117.293 95.1354 117.75 93.9857 117.752ZM66.6919 90.2028C65.6774 90.2039 64.7049 90.6074 63.9876 91.3247C63.2703 92.0421 62.8668 93.0146 62.8656 94.029V113.415C62.8668 114.43 63.2703 115.402 63.9876 116.12C64.7049 116.837 65.6774 117.24 66.6919 117.242H93.9857C95.0001 117.24 95.9727 116.837 96.69 116.12C97.4073 115.402 97.8108 114.43 97.8119 113.415V94.029C97.8108 93.0146 97.4073 92.0421 96.69 91.3247C95.9727 90.6074 95.0001 90.2039 93.9857 90.2028H66.6919Z" fill="#F2F2F2"/>
<path d="M13.6212 36.5565L13.5 37.052L144.175 69.0237L144.297 68.5283L13.6212 36.5565Z" fill="#F2F2F2"/>
<path d="M142.969 36.5484L13.5 68.6228L13.6227 69.118L143.092 37.0436L142.969 36.5484Z" fill="#F2F2F2"/>
<path d="M145.256 79.1068H21.5409C20.425 79.1055 19.3552 78.6617 18.5662 77.8726C17.7771 77.0836 17.3333 76.0138 17.332 74.8979V48.6244C17.3333 47.5085 17.7771 46.4387 18.5662 45.6497C19.3552 44.8606 20.425 44.4168 21.5409 44.4155H145.256C146.372 44.4168 147.442 44.8607 148.231 45.6497C149.02 46.4387 149.464 47.5085 149.465 48.6244V74.8979C149.464 76.0138 149.02 77.0836 148.231 77.8726C147.442 78.6616 146.372 79.1055 145.256 79.1068Z" fill="white"/>
<path d="M64.0638 90.8446L63.75 91.2468L96.4429 116.749L96.7567 116.347L64.0638 90.8446Z" fill="#F2F2F2"/>
<path d="M96.6076 90.8447L64.3438 116.662L64.6625 117.06L96.9263 91.2431L96.6076 90.8447Z" fill="#F2F2F2"/>
<path d="M13.8138 90.8448L13.5 91.2471L46.1929 116.75L46.5067 116.347L13.8138 90.8448Z" fill="#F2F2F2"/>
<path d="M46.3537 90.8447L14.0898 116.662L14.4086 117.06L46.6724 91.2431L46.3537 90.8447Z" fill="#F2F2F2"/>
<path d="M110.236 90.8443L109.922 91.2466L142.615 116.749L142.928 116.347L110.236 90.8443Z" fill="#F2F2F2"/>
<path d="M142.776 90.8447L110.512 116.662L110.83 117.06L143.094 91.2431L142.776 90.8447Z" fill="#F2F2F2"/>
<path d="M97.8113 136.245H70.5175C69.4016 136.244 68.3318 135.8 67.5427 135.011C66.7537 134.222 66.3099 133.152 66.3086 132.037V112.65C66.3099 111.534 66.7537 110.465 67.5427 109.676C68.3318 108.887 69.4016 108.443 70.5175 108.441H97.8113C98.9272 108.443 99.997 108.887 100.786 109.676C101.575 110.465 102.019 111.534 102.02 112.65V132.037C102.019 133.152 101.575 134.222 100.786 135.011C99.997 135.8 98.9272 136.244 97.8113 136.245Z" fill="#0A74E6"/>
<path d="M87.722 120.94H80.5797C80.0385 120.94 79.5195 120.725 79.1368 120.343C78.7541 119.96 78.5391 119.441 78.5391 118.9C78.5391 118.358 78.7541 117.839 79.1368 117.457C79.5195 117.074 80.0385 116.859 80.5797 116.859H87.722C88.2632 116.859 88.7823 117.074 89.165 117.457C89.5477 117.839 89.7627 118.358 89.7627 118.9C89.7627 119.441 89.5477 119.96 89.165 120.343C88.7823 120.725 88.2632 120.94 87.722 120.94Z" fill="white"/>
<path d="M91.9444 127.828H76.3844C75.8432 127.828 75.3241 127.613 74.9414 127.23C74.5587 126.847 74.3438 126.328 74.3438 125.787C74.3438 125.246 74.5587 124.727 74.9414 124.344C75.3241 123.961 75.8432 123.746 76.3844 123.746H91.9444C92.4857 123.746 93.0047 123.961 93.3874 124.344C93.7701 124.727 93.9851 125.246 93.9851 125.787C93.9851 126.328 93.7701 126.847 93.3874 127.23C93.0047 127.613 92.4857 127.828 91.9444 127.828Z" fill="white"/>
<path d="M48.0691 121.45H20.7753C19.6594 121.449 18.5896 121.005 17.8005 120.216C17.0115 119.427 16.5677 118.357 16.5664 117.242V97.8553C16.5677 96.7395 17.0115 95.6697 17.8005 94.8806C18.5896 94.0916 19.6594 93.6477 20.7753 93.6465H48.0691C49.185 93.6477 50.2548 94.0916 51.0438 94.8806C51.8329 95.6697 52.2767 96.7395 52.278 97.8553V117.242C52.2767 118.357 51.8329 119.427 51.0438 120.216C50.2548 121.005 49.185 121.449 48.0691 121.45Z" fill="#0A74E6"/>
<path d="M37.9838 106.146H30.8414C30.3002 106.146 29.7812 105.931 29.3985 105.548C29.0158 105.165 28.8008 104.646 28.8008 104.105C28.8008 103.564 29.0158 103.045 29.3985 102.662C29.7812 102.279 30.3002 102.064 30.8414 102.064H37.9838C38.525 102.064 39.044 102.279 39.4267 102.662C39.8094 103.045 40.0244 103.564 40.0244 104.105C40.0244 104.646 39.8094 105.165 39.4267 105.548C39.044 105.931 38.525 106.146 37.9838 106.146Z" fill="white"/>
<path d="M42.2023 113.033H26.6422C26.101 113.033 25.582 112.818 25.1993 112.435C24.8166 112.052 24.6016 111.533 24.6016 110.992C24.6016 110.451 24.8166 109.932 25.1993 109.549C25.582 109.167 26.101 108.952 26.6422 108.952H42.2023C42.7435 108.952 43.2625 109.167 43.6452 109.549C44.0279 109.932 44.2429 110.451 44.2429 110.992C44.2429 111.533 44.0279 112.052 43.6452 112.435C43.2625 112.818 42.7435 113.033 42.2023 113.033Z" fill="white"/>
<path d="M145.741 126.884H118.447C117.331 126.883 116.261 126.439 115.472 125.65C114.683 124.861 114.24 123.791 114.238 122.675V103.289C114.24 102.173 114.683 101.103 115.472 100.314C116.261 99.5249 117.331 99.0811 118.447 99.0798H145.741C146.857 99.0811 147.927 99.5249 148.716 100.314C149.505 101.103 149.949 102.173 149.95 103.289V122.675C149.949 123.791 149.505 124.861 148.716 125.65C147.927 126.439 146.857 126.883 145.741 126.884Z" fill="#E6E6E6"/>
<path d="M135.652 111.579H128.509C127.968 111.579 127.449 111.364 127.066 110.981C126.684 110.598 126.469 110.079 126.469 109.538C126.469 108.997 126.684 108.478 127.066 108.095C127.449 107.713 127.968 107.498 128.509 107.498H135.652C136.193 107.498 136.712 107.713 137.095 108.095C137.477 108.478 137.692 108.997 137.692 109.538C137.692 110.079 137.477 110.598 137.095 110.981C136.712 111.364 136.193 111.579 135.652 111.579Z" fill="white"/>
<path d="M139.874 118.466H124.314C123.773 118.466 123.254 118.251 122.871 117.868C122.488 117.486 122.273 116.967 122.273 116.425C122.273 115.884 122.488 115.365 122.871 114.982C123.254 114.6 123.773 114.385 124.314 114.385H139.874C140.415 114.385 140.934 114.6 141.317 114.982C141.7 115.365 141.915 115.884 141.915 116.425C141.915 116.967 141.7 117.486 141.317 117.868C140.934 118.251 140.415 118.466 139.874 118.466Z" fill="white"/>
<path d="M111.144 78.6568V78.9793H56.6328V78.6417L56.9263 78.2266L74.2081 53.8287C74.2881 53.7178 74.3933 53.6275 74.515 53.5652C74.6367 53.5029 74.7715 53.4705 74.9083 53.4705C75.045 53.4705 75.1798 53.5029 75.3015 53.5652C75.4232 53.6275 75.5284 53.7178 75.6084 53.8287L87.1969 70.189L95.4462 58.6453C95.5263 58.5349 95.6314 58.4451 95.7529 58.3831C95.8743 58.3212 96.0088 58.2889 96.1451 58.2889C96.2815 58.2889 96.4159 58.3212 96.5374 58.3831C96.6589 58.4451 96.764 58.5349 96.8441 58.6453L110.851 78.2441L111.144 78.6568Z" fill="#0A74E6" fill-opacity="0.4"/>
<path d="M56.5205 62.4236C60.0246 62.4236 62.8653 59.583 62.8653 56.0789C62.8653 52.5748 60.0246 49.7341 56.5205 49.7341C53.0164 49.7341 50.1758 52.5748 50.1758 56.0789C50.1758 59.583 53.0164 62.4236 56.5205 62.4236Z" fill="#0A74E6" fill-opacity="0.2"/>
<path d="M145.255 79.2344H21.5395C20.3898 79.2331 19.2876 78.7758 18.4747 77.9629C17.6617 77.1499 17.2044 76.0477 17.2031 74.898V48.6245C17.2044 47.4748 17.6617 46.3726 18.4747 45.5596C19.2876 44.7467 20.3898 44.2894 21.5395 44.2881H145.255C146.404 44.2894 147.506 44.7467 148.319 45.5596C149.132 46.3726 149.59 47.4748 149.591 48.6245V74.898C149.59 76.0477 149.132 77.1499 148.319 77.9629C147.506 78.7758 146.404 79.2331 145.255 79.2344ZM21.5395 44.7983C20.5251 44.7994 19.5525 45.2029 18.8352 45.9202C18.1179 46.6375 17.7144 47.6101 17.7133 48.6245V74.898C17.7144 75.9124 18.1179 76.885 18.8352 77.6023C19.5525 78.3196 20.5251 78.7231 21.5395 78.7242H145.255C146.269 78.7231 147.242 78.3196 147.959 77.6023C148.676 76.885 149.08 75.9124 149.081 74.898V48.6245C149.08 47.6101 148.676 46.6375 147.959 45.9202C147.242 45.2029 146.269 44.7994 145.255 44.7983H21.5395Z" fill="#565656"/>
<path d="M235.387 4.14417H178.612C177.679 4.14549 176.783 4.51703 176.123 5.17735C175.463 5.83766 175.091 6.73285 175.09 7.66667V79.3601C175.091 80.2939 175.463 81.1891 176.123 81.8494C176.783 82.5098 177.679 82.8813 178.612 82.8826H235.387C236.321 82.8813 237.216 82.5098 237.876 81.8494C238.537 81.1891 238.908 80.2939 238.909 79.3601V7.66667C238.908 6.73285 238.537 5.83766 237.876 5.17735C237.216 4.51703 236.321 4.14549 235.387 4.14417ZM238.495 79.3601C238.494 80.1841 238.166 80.9741 237.584 81.5568C237.001 82.1394 236.211 82.4672 235.387 82.4682H178.612C177.788 82.4672 176.998 82.1394 176.416 81.5568C175.833 80.9741 175.505 80.1841 175.504 79.3601V7.66667C175.505 6.84266 175.833 6.05269 176.416 5.47003C176.998 4.88736 177.788 4.55958 178.612 4.55858H235.387C236.211 4.55958 237.001 4.88736 237.584 5.47003C238.166 6.05269 238.494 6.84266 238.495 7.66667V79.3601Z" fill="#565656"/>
<path d="M224.197 53.7702H189.801C186.287 53.7533 186.273 48.4012 189.801 48.3828H224.197C227.708 48.3993 227.727 53.7518 224.197 53.7702Z" fill="#565656" fill-opacity="0.1"/>
<path d="M224.197 63.716H189.801C186.287 63.6991 186.273 58.347 189.801 58.3286H224.197C227.708 58.3451 227.727 63.6976 224.197 63.716Z" fill="#565656" fill-opacity="0.1"/>
<path d="M224.197 73.662H189.801C186.287 73.6451 186.273 68.293 189.801 68.2747H224.197C227.708 68.2911 227.727 73.6436 224.197 73.662Z" fill="#565656" fill-opacity="0.1"/>
<path d="M237.044 10.7747C235.978 10.7747 234.937 10.4588 234.051 9.8668C233.165 9.27483 232.474 8.43344 232.066 7.44903C231.659 6.46461 231.552 5.38139 231.76 4.33635C231.968 3.2913 232.481 2.33137 233.234 1.57793C233.988 0.824493 234.948 0.311392 235.993 0.103519C237.038 -0.104354 238.121 0.00233486 239.105 0.410092C240.09 0.817849 240.931 1.50836 241.523 2.39431C242.115 3.28026 242.431 4.32185 242.431 5.38737C242.429 6.81569 241.861 8.18505 240.851 9.19503C239.841 10.205 238.472 10.7731 237.044 10.7747Z" fill="#0A74E6"/>
<path d="M239.532 5.18034H237.252V2.59026C237.252 2.53531 237.231 2.4826 237.192 2.44374C237.153 2.40488 237.1 2.38306 237.045 2.38306C236.99 2.38306 236.938 2.40488 236.899 2.44374C236.86 2.4826 236.838 2.53531 236.838 2.59026V5.18034H234.559C234.504 5.18034 234.451 5.20217 234.412 5.24103C234.373 5.27989 234.352 5.3326 234.352 5.38755C234.352 5.4425 234.373 5.4952 234.412 5.53406C234.451 5.57292 234.504 5.59476 234.559 5.59476H236.838V8.18484C236.838 8.23979 236.86 8.29249 236.899 8.33135C236.938 8.37021 236.99 8.39204 237.045 8.39204C237.1 8.39204 237.153 8.37021 237.192 8.33135C237.231 8.29249 237.252 8.23979 237.252 8.18484V5.59476H239.532C239.587 5.59476 239.639 5.57292 239.678 5.53406C239.717 5.4952 239.739 5.4425 239.739 5.38755C239.739 5.3326 239.717 5.27989 239.678 5.24103C239.639 5.20217 239.587 5.18034 239.532 5.18034Z" fill="white"/>
<path d="M223.576 41.9178H190.423C189.516 41.9168 188.647 41.5563 188.006 40.9153C187.365 40.2744 187.005 39.4054 187.004 38.4989V19.9333C187.005 19.0269 187.365 18.1579 188.006 17.5169C188.647 16.876 189.516 16.5154 190.423 16.5144H223.576C224.482 16.5154 225.351 16.876 225.992 17.5169C226.633 18.1579 226.994 19.0269 226.995 19.9333V38.4989C226.994 39.4054 226.633 40.2744 225.992 40.9153C225.351 41.5563 224.482 41.9168 223.576 41.9178Z" fill="#0A74E6" fill-opacity="0.4"/>
<rect x="197.258" y="93.2969" width="45.1753" height="45.7365" fill="#0A74E6" fill-opacity="0.1"/>
<path d="M178.513 103.032C178.482 101.306 179.873 99.8906 181.599 99.8906H218.722C220.427 99.8906 221.809 101.273 221.809 102.977V137.895C221.809 139.659 220.332 141.065 218.57 140.978L182.041 139.175C180.419 139.095 179.136 137.772 179.107 136.148L178.513 103.032Z" fill="white"/>
<path d="M218.959 99.6145H177.994C177.225 99.616 176.487 99.9225 175.942 100.467C175.398 101.011 175.091 101.749 175.09 102.519V143.095C175.091 143.866 175.397 144.604 175.941 145.148C176.486 145.693 177.224 145.999 177.994 146H218.959C219.729 145.999 220.467 145.693 221.012 145.148C221.556 144.604 221.862 143.866 221.863 143.095V102.519C221.862 101.749 221.556 101.011 221.012 100.466C220.467 99.9216 219.729 99.6153 218.959 99.6145ZM221.521 143.095C221.521 143.775 221.25 144.426 220.77 144.907C220.289 145.387 219.638 145.657 218.959 145.658H177.994C177.315 145.657 176.664 145.387 176.183 144.907C175.703 144.426 175.432 143.775 175.432 143.095V102.519C175.433 101.84 175.703 101.188 176.183 100.708C176.664 100.228 177.315 99.9573 177.994 99.9562H218.959C219.638 99.957 220.289 100.227 220.77 100.708C221.25 101.188 221.521 101.84 221.521 102.519V143.095Z" fill="#3F3D56"/>
<path d="M215.731 115.417H181.218C180.856 115.417 180.508 115.273 180.252 115.017C179.996 114.76 179.852 114.413 179.852 114.05C179.852 113.688 179.996 113.34 180.252 113.084C180.508 112.827 180.856 112.683 181.218 112.683H215.731C216.094 112.683 216.441 112.827 216.698 113.084C216.954 113.34 217.098 113.688 217.098 114.05C217.098 114.413 216.954 114.76 216.698 115.017C216.441 115.273 216.094 115.417 215.731 115.417Z" fill="#CCCCCC"/>
<path d="M205.907 109.608H191.043C190.68 109.608 190.332 109.464 190.076 109.208C189.82 108.951 189.676 108.604 189.676 108.241C189.676 107.879 189.82 107.531 190.076 107.275C190.332 107.018 190.68 106.874 191.043 106.874H205.907C206.27 106.874 206.617 107.018 206.874 107.275C207.13 107.531 207.274 107.879 207.274 108.241C207.274 108.604 207.13 108.951 206.874 109.208C206.617 109.464 206.27 109.608 205.907 109.608Z" fill="#0A74E6" fill-opacity="0.4"/>
<path d="M196.001 123.618H181.136C180.774 123.618 180.426 123.474 180.17 123.218C179.914 122.961 179.77 122.614 179.77 122.251C179.77 121.889 179.914 121.541 180.17 121.285C180.426 121.028 180.774 120.884 181.136 120.884H196.001C196.363 120.884 196.711 121.028 196.967 121.285C197.224 121.541 197.368 121.889 197.368 122.251C197.368 122.614 197.224 122.961 196.967 123.218C196.711 123.474 196.363 123.618 196.001 123.618Z" fill="#CCCCCC"/>
<path d="M196.001 129.598H181.136C180.774 129.598 180.426 129.454 180.17 129.198C179.914 128.941 179.77 128.594 179.77 128.231C179.77 127.869 179.914 127.521 180.17 127.265C180.426 127.008 180.774 126.864 181.136 126.864H196.001C196.363 126.864 196.711 127.008 196.967 127.265C197.224 127.521 197.368 127.869 197.368 128.231C197.368 128.594 197.224 128.941 196.967 129.198C196.711 129.454 196.363 129.598 196.001 129.598Z" fill="#CCCCCC"/>
<path d="M195.997 135.578H181.132C180.77 135.578 180.422 135.434 180.166 135.178C179.91 134.921 179.766 134.574 179.766 134.211C179.766 133.849 179.91 133.501 180.166 133.245C180.422 132.988 180.77 132.844 181.132 132.844H195.997C196.359 132.844 196.707 132.988 196.963 133.245C197.22 133.501 197.364 133.849 197.364 134.211C197.364 134.574 197.22 134.921 196.963 135.178C196.707 135.434 196.359 135.578 195.997 135.578Z" fill="#CCCCCC"/>
<path d="M214.539 124.79C215.948 124.79 217.09 123.648 217.09 122.239C217.09 120.83 215.948 119.688 214.539 119.688C213.13 119.688 211.988 120.83 211.988 122.239C211.988 123.648 213.13 124.79 214.539 124.79Z" fill="#0A74E6"/>
<path d="M214.284 123.212C214.226 123.212 214.17 123.194 214.125 123.159L214.122 123.157L213.522 122.699C213.466 122.656 213.43 122.592 213.42 122.522C213.411 122.452 213.43 122.381 213.473 122.325C213.516 122.269 213.579 122.232 213.649 122.223C213.72 122.214 213.79 122.233 213.846 122.276L214.235 122.573L215.152 121.376C215.174 121.349 215.2 121.325 215.23 121.308C215.261 121.29 215.294 121.279 215.329 121.275C215.363 121.27 215.399 121.272 215.432 121.281C215.466 121.29 215.498 121.306 215.526 121.327L215.526 121.327L215.52 121.335L215.526 121.327C215.582 121.37 215.618 121.434 215.628 121.504C215.637 121.574 215.618 121.645 215.575 121.701L214.496 123.108C214.471 123.14 214.439 123.167 214.402 123.185C214.365 123.203 214.325 123.212 214.284 123.212L214.284 123.212Z" fill="white"/>
<path d="M214.539 130.77C215.948 130.77 217.09 129.628 217.09 128.219C217.09 126.81 215.948 125.668 214.539 125.668C213.13 125.668 211.988 126.81 211.988 128.219C211.988 129.628 213.13 130.77 214.539 130.77Z" fill="#0A74E6"/>
<path d="M214.284 129.192C214.226 129.192 214.17 129.173 214.125 129.139L214.122 129.137L213.522 128.678C213.495 128.657 213.471 128.63 213.454 128.6C213.436 128.57 213.425 128.536 213.42 128.502C213.416 128.467 213.418 128.432 213.427 128.398C213.436 128.364 213.452 128.333 213.473 128.305C213.494 128.277 213.521 128.254 213.551 128.236C213.581 128.219 213.615 128.207 213.649 128.203C213.684 128.198 213.719 128.201 213.753 128.21C213.787 128.219 213.819 128.234 213.846 128.255L214.235 128.553L215.152 127.356C215.174 127.328 215.2 127.305 215.23 127.288C215.261 127.27 215.294 127.259 215.329 127.254C215.363 127.25 215.399 127.252 215.432 127.261C215.466 127.27 215.498 127.286 215.526 127.307L215.526 127.307L215.52 127.315L215.526 127.307C215.582 127.35 215.618 127.413 215.628 127.483C215.637 127.553 215.618 127.624 215.575 127.68L214.496 129.088C214.471 129.12 214.439 129.146 214.402 129.164C214.365 129.182 214.325 129.192 214.284 129.192L214.284 129.192Z" fill="white"/>
<path d="M214.539 136.762C215.948 136.762 217.09 135.62 217.09 134.211C217.09 132.802 215.948 131.66 214.539 131.66C213.13 131.66 211.988 132.802 211.988 134.211C211.988 135.62 213.13 136.762 214.539 136.762Z" fill="#0A74E6"/>
<path d="M214.284 135.184C214.226 135.184 214.17 135.166 214.124 135.131L214.122 135.129L213.522 134.67C213.466 134.627 213.429 134.564 213.42 134.494C213.411 134.424 213.43 134.353 213.473 134.297C213.516 134.241 213.579 134.204 213.649 134.195C213.719 134.186 213.79 134.205 213.846 134.248L214.234 134.545L215.152 133.348C215.173 133.321 215.2 133.297 215.23 133.28C215.26 133.262 215.294 133.251 215.328 133.246C215.363 133.242 215.398 133.244 215.432 133.253C215.466 133.262 215.498 133.278 215.525 133.299L215.525 133.299L215.52 133.307L215.526 133.299C215.582 133.342 215.618 133.406 215.627 133.476C215.637 133.546 215.618 133.616 215.575 133.673L214.496 135.08C214.471 135.112 214.439 135.139 214.402 135.157C214.365 135.175 214.325 135.184 214.284 135.184L214.284 135.184Z" fill="white"/>
</svg>
