<svg width="284" height="146" viewBox="0 0 284 146" fill="none" xmlns="http://www.w3.org/2000/svg">
<path d="M283.194 6.98254H24.7578V146H283.194V6.98254Z" fill="#0A74E6" fill-opacity="0.05"/>
<path d="M3.8087 0.317392H251.677C253.606 0.317392 255.169 1.88051 255.169 3.8087V133.622C255.169 135.55 253.606 137.113 251.677 137.113H3.8087C1.8805 137.113 0.317392 135.55 0.317392 133.622V3.8087C0.317392 1.8805 1.88051 0.317392 3.8087 0.317392Z" fill="white" stroke="#565656" stroke-width="0.634784"/>
<path d="M48.4366 19.3757H46.1836V22.9805H48.4366V19.3757Z" fill="black"/>
<path d="M56.1006 18.4742H53.8477V22.079H56.1006V18.4742Z" fill="black"/>
<path d="M60.1553 18.4742H57.9023V22.079H60.1553V18.4742Z" fill="black"/>
<path d="M60.1553 29.2885H57.9023V32.8932H60.1553V29.2885Z" fill="black"/>
<path d="M64.6592 23.8811H62.4062V27.4858H64.6592V23.8811Z" fill="black"/>
<path d="M64.6592 29.739H62.4062V33.3438H64.6592V29.739Z" fill="black"/>
<path d="M60.1553 41.0037H57.9023V44.6084H60.1553V41.0037Z" fill="black"/>
<path d="M64.6592 46.8616H62.4062V50.4663H64.6592V46.8616Z" fill="black"/>
<path d="M60.1553 68.9407H57.9023V72.5454H60.1553V68.9407Z" fill="black"/>
<path d="M56.1006 46.8616H53.8477V50.4663H56.1006V46.8616Z" fill="black"/>
<path d="M48.4366 25.233H46.1836V28.8378H48.4366V25.233Z" fill="black"/>
<path d="M48.4366 81.5569H46.1836V85.1616H48.4366V81.5569Z" fill="black"/>
<path d="M48.4366 93.2726H46.1836V96.8773H48.4366V93.2726Z" fill="black"/>
<path d="M48.4366 99.1301H46.1836V102.735H48.4366V99.1301Z" fill="black"/>
<path d="M48.4393 31.5414H45.2852V31.992H48.4393V31.5414Z" fill="black"/>
<path d="M60.6034 36.9484H57.4492V37.399H60.6034V36.9484Z" fill="black"/>
<path d="M48.4393 60.3793H45.2852V60.8299H48.4393V60.3793Z" fill="black"/>
<path d="M48.4393 65.3357H45.2852V65.7863H48.4393V65.3357Z" fill="black"/>
<path d="M60.6034 94.1737H57.4492V94.6243H60.6034V94.1737Z" fill="black"/>
<path d="M57.0018 104.988H53.8477V105.439H57.0018V104.988Z" fill="black"/>
<path d="M46.1836 35.5968V36.4979H47.0847V38.3003H46.1836V39.2013H48.4365V35.5968H46.1836Z" fill="black"/>
<path d="M53.8477 29.2885V30.1895H54.7487V31.9919H53.8477V32.893H56.1006V29.2885H53.8477Z" fill="black"/>
<path d="M62.4062 35.1464V36.0477H63.3073V37.8501H62.4062V38.7512H64.6592V35.1464H62.4062Z" fill="black"/>
<path d="M62.4062 52.7195V53.6205H63.3073V55.423H62.4062V56.324H64.6592V52.7195H62.4062Z" fill="black"/>
<path d="M62.4062 58.5768V59.4781H63.3073V61.2806H62.4062V62.1816H64.6592V58.5768H62.4062Z" fill="black"/>
<path d="M62.4062 40.5532V41.4543H63.3073V43.2567H62.4062V44.1581H64.6592V40.5532H62.4062Z" fill="black"/>
<path d="M57.9023 23.8811V24.7825H58.8037V26.5846H57.9023V27.4859H60.1556V23.8811H57.9023Z" fill="black"/>
<path d="M60.1553 52.7195H57.9023V56.3242H60.1553V52.7195Z" fill="black"/>
<path d="M60.1553 63.5333H57.9023V67.1381H60.1553V63.5333Z" fill="black"/>
<path d="M57.9023 58.1263V59.0274H58.8037V60.8298H57.9023V61.7312H60.1556V58.1263H57.9023Z" fill="black"/>
<path d="M53.8477 35.1464V36.0477H54.7487V37.8501H53.8477V38.7512H56.1006V35.1464H53.8477Z" fill="black"/>
<path d="M53.8477 41.0037V41.905H54.7487V43.7071H53.8477V44.6085H56.1006V41.0037H53.8477Z" fill="black"/>
<path d="M56.1006 58.5768H53.8477V62.1815H56.1006V58.5768Z" fill="black"/>
<path d="M53.8477 52.7195V53.6205H54.7487V55.423H53.8477V56.324H56.1006V52.7195H53.8477Z" fill="black"/>
<path d="M56.1006 70.2926H53.8477V73.8973H56.1006V70.2926Z" fill="black"/>
<path d="M53.8477 64.4348V65.3359H54.7487V67.1383H53.8477V68.0396H56.1006V64.4348H53.8477Z" fill="black"/>
<path d="M56.1006 82.0079H53.8477V85.6127H56.1006V82.0079Z" fill="black"/>
<path d="M60.1553 81.1063H57.9023V84.7111H60.1553V81.1063Z" fill="black"/>
<path d="M53.8477 76.1495V77.0509H54.7487V78.8533H53.8477V79.7544H56.1006V76.1495H53.8477Z" fill="black"/>
<path d="M62.4062 76.1495V77.0509H63.3073V78.8533H62.4062V79.7544H64.6592V76.1495H62.4062Z" fill="black"/>
<path d="M87.6397 23.8811H85.3867V27.4858H87.6397V23.8811Z" fill="black"/>
<path d="M87.6397 29.739H85.3867V33.3438H87.6397V29.739Z" fill="black"/>
<path d="M87.6397 46.8616H85.3867V50.4663H87.6397V46.8616Z" fill="black"/>
<path d="M85.3867 35.1464V36.0477H86.2881V37.8501H85.3867V38.7512H87.6397V35.1464H85.3867Z" fill="black"/>
<path d="M85.3867 52.7195V53.6205H86.2881V55.423H85.3867V56.324H87.6397V52.7195H85.3867Z" fill="black"/>
<path d="M85.3867 58.5768V59.4781H86.2881V61.2806H85.3867V62.1816H87.6397V58.5768H85.3867Z" fill="black"/>
<path d="M85.3867 40.5532V41.4543H86.2881V43.2567H85.3867V44.1581H87.6397V40.5532H85.3867Z" fill="black"/>
<path d="M85.3867 76.1495V77.0509H86.2881V78.8533H85.3867V79.7544H87.6397V76.1495H85.3867Z" fill="black"/>
<path d="M56.1006 93.7231H53.8477V97.3279H56.1006V93.7231Z" fill="black"/>
<path d="M60.1553 86.9642H57.9023V90.569H60.1553V86.9642Z" fill="black"/>
<path d="M56.1006 109.043H53.8477V112.648H56.1006V109.043Z" fill="black"/>
<path d="M60.1553 98.2291H57.9023V101.834H60.1553V98.2291Z" fill="black"/>
<path d="M53.8477 87.8652V88.7663H54.7487V90.5687H53.8477V91.4701H56.1006V87.8652H53.8477Z" fill="black"/>
<path d="M53.8477 115.352V116.253H54.7487V118.055H53.8477V118.956H56.1006V115.352H53.8477Z" fill="black"/>
<path d="M80.8819 18.4742H78.6289V22.079H80.8819V18.4742Z" fill="black"/>
<path d="M80.8819 46.8616H78.6289V50.4663H80.8819V46.8616Z" fill="black"/>
<path d="M81.7831 104.988H78.6289V105.439H81.7831V104.988Z" fill="black"/>
<path d="M78.6289 29.2885V30.1895H79.5303V31.9919H78.6289V32.893H80.8819V29.2885H78.6289Z" fill="black"/>
<path d="M78.6289 35.1464V36.0477H79.5303V37.8501H78.6289V38.7512H80.8819V35.1464H78.6289Z" fill="black"/>
<path d="M78.6289 41.0037V41.905H79.5303V43.7071H78.6289V44.6085H80.8819V41.0037H78.6289Z" fill="black"/>
<path d="M80.8819 58.5768H78.6289V62.1815H80.8819V58.5768Z" fill="black"/>
<path d="M78.6289 52.7195V53.6205H79.5303V55.423H78.6289V56.324H80.8819V52.7195H78.6289Z" fill="black"/>
<path d="M80.8819 70.2926H78.6289V73.8973H80.8819V70.2926Z" fill="black"/>
<path d="M78.6289 64.4348V65.3359H79.5303V67.1383H78.6289V68.0396H80.8819V64.4348H78.6289Z" fill="black"/>
<path d="M80.8819 82.0079H78.6289V85.6127H80.8819V82.0079Z" fill="black"/>
<path d="M78.6289 76.1495V77.0509H79.5303V78.8533H78.6289V79.7544H80.8819V76.1495H78.6289Z" fill="black"/>
<path d="M80.8819 93.7231H78.6289V97.3279H80.8819V93.7231Z" fill="black"/>
<path d="M80.8819 109.043H78.6289V112.648H80.8819V109.043Z" fill="black"/>
<path d="M78.6289 87.8652V88.7663H79.5303V90.5687H78.6289V91.4701H80.8819V87.8652H78.6289Z" fill="black"/>
<path d="M78.6289 115.352V116.253H79.5303V118.055H78.6289V118.956H80.8819V115.352H78.6289Z" fill="black"/>
<path d="M91.6944 18.4742H89.4414V22.079H91.6944V18.4742Z" fill="black"/>
<path d="M91.6944 46.8616H89.4414V50.4663H91.6944V46.8616Z" fill="black"/>
<path d="M92.5956 104.988H89.4414V105.439H92.5956V104.988Z" fill="black"/>
<path d="M89.4414 29.2885V30.1895H90.3428V31.9919H89.4414V32.893H91.6944V29.2885H89.4414Z" fill="black"/>
<path d="M89.4414 35.1464V36.0477H90.3428V37.8501H89.4414V38.7512H91.6944V35.1464H89.4414Z" fill="black"/>
<path d="M89.4414 41.0037V41.905H90.3428V43.7071H89.4414V44.6085H91.6944V41.0037H89.4414Z" fill="black"/>
<path d="M91.6944 58.5768H89.4414V62.1815H91.6944V58.5768Z" fill="black"/>
<path d="M89.4414 52.7195V53.6205H90.3428V55.423H89.4414V56.324H91.6944V52.7195H89.4414Z" fill="black"/>
<path d="M91.6944 70.2926H89.4414V73.8973H91.6944V70.2926Z" fill="black"/>
<path d="M89.4414 64.4348V65.3359H90.3428V67.1383H89.4414V68.0396H91.6944V64.4348H89.4414Z" fill="black"/>
<path d="M91.6944 82.0079H89.4414V85.6127H91.6944V82.0079Z" fill="black"/>
<path d="M89.4414 76.1495V77.0509H90.3428V78.8533H89.4414V79.7544H91.6944V76.1495H89.4414Z" fill="black"/>
<path d="M91.6944 93.7231H89.4414V97.3279H91.6944V93.7231Z" fill="black"/>
<path d="M91.6944 109.043H89.4414V112.648H91.6944V109.043Z" fill="black"/>
<path d="M89.4414 87.8652V88.7663H90.3428V90.5687H89.4414V91.4701H91.6944V87.8652H89.4414Z" fill="black"/>
<path d="M89.4414 115.352V116.253H90.3428V118.055H89.4414V118.956H91.6944V115.352H89.4414Z" fill="black"/>
<path d="M57.9023 109.043V109.945H58.8037V111.747H57.9023V112.648H60.1556V109.043H57.9023Z" fill="black"/>
<path d="M57.9023 114.901V115.802H58.8037V117.605H57.9023V118.506H60.1556V114.901H57.9023Z" fill="black"/>
<path d="M46.1836 46.8616V47.7626H47.0847V49.5651H46.1836V50.4664H48.4365V46.8616H46.1836Z" fill="black"/>
<path d="M46.1836 69.8422V70.7432H47.0847V72.5456H46.1836V73.4467H48.4365V69.8422H46.1836Z" fill="black"/>
<path d="M46.1836 75.6991V76.6005H47.0847V78.4029H46.1836V79.3039H48.4365V75.6991H46.1836Z" fill="black"/>
<path d="M46.1836 87.4148V88.3159H47.0847V90.1183H46.1836V91.0193H48.4365V87.4148H46.1836Z" fill="black"/>
<path d="M46.1836 104.087V104.988H47.0847V106.791H46.1836V107.692H48.4365V104.087H46.1836Z" fill="black"/>
<path d="M46.1836 109.043V109.945H47.0847V111.747H46.1836V112.648H48.4365V109.043H46.1836Z" fill="black"/>
<path d="M71.8702 19.3757H69.6172V22.9804H71.8702V19.3757Z" fill="black"/>
<path d="M71.8702 25.233H69.6172V28.8377H71.8702V25.233Z" fill="black"/>
<path d="M71.869 31.5414H68.7148V31.992H71.869V31.5414Z" fill="black"/>
<path d="M71.869 60.3793H68.7148V60.8299H71.869V60.3793Z" fill="black"/>
<path d="M71.869 65.3357H68.7148V65.7863H71.869V65.3357Z" fill="black"/>
<path d="M69.6172 35.5968V36.4979H70.5182V38.3003H69.6172V39.2013H71.8701V35.5968H69.6172Z" fill="black"/>
<path d="M69.6172 46.8616V47.7626H70.5182V49.5651H69.6172V50.4664H71.8701V46.8616H69.6172Z" fill="black"/>
<path d="M69.6172 69.8422V70.7433H70.5182V72.5457H69.6172V73.4468H71.8701V69.8422H69.6172Z" fill="black"/>
<path d="M97.5498 58.5768H95.2969V62.1815H97.5498V58.5768Z" fill="black"/>
<path d="M97.5498 64.4348H95.2969V68.0396H97.5498V64.4348Z" fill="black"/>
<path d="M97.5526 70.743H94.3984V71.1936H97.5526V70.743Z" fill="black"/>
<path d="M97.5526 99.5811H94.3984V100.032H97.5526V99.5811Z" fill="black"/>
<path d="M97.5526 104.537H94.3984V104.988H97.5526V104.537Z" fill="black"/>
<path d="M95.3008 74.7981V75.6992H96.2018V77.5016H95.3008V78.4029H97.5537V74.7981H95.3008Z" fill="black"/>
<path d="M95.3008 86.0634V86.9647H96.2018V88.7668H95.3008V89.6682H97.5537V86.0634H95.3008Z" fill="black"/>
<path d="M95.3008 109.043V109.945H96.2018V111.747H95.3008V112.648H97.5537V109.043H95.3008Z" fill="black"/>
<path d="M104.761 19.3757H102.508V22.9805H104.761V19.3757Z" fill="black"/>
<path d="M112.425 18.4742H110.172V22.079H112.425V18.4742Z" fill="black"/>
<path d="M116.48 18.4742H114.227V22.079H116.48V18.4742Z" fill="black"/>
<path d="M116.48 29.2885H114.227V32.8932H116.48V29.2885Z" fill="black"/>
<path d="M120.983 23.8811H118.73V27.4858H120.983V23.8811Z" fill="black"/>
<path d="M120.983 29.739H118.73V33.3438H120.983V29.739Z" fill="black"/>
<path d="M116.48 41.0037H114.227V44.6084H116.48V41.0037Z" fill="black"/>
<path d="M120.983 46.8616H118.73V50.4663H120.983V46.8616Z" fill="black"/>
<path d="M116.48 68.9407H114.227V72.5454H116.48V68.9407Z" fill="black"/>
<path d="M112.425 46.8616H110.172V50.4663H112.425V46.8616Z" fill="black"/>
<path d="M104.761 25.233H102.508V28.8378H104.761V25.233Z" fill="black"/>
<path d="M104.761 81.5569H102.508V85.1616H104.761V81.5569Z" fill="black"/>
<path d="M104.761 93.2726H102.508V96.8773H104.761V93.2726Z" fill="black"/>
<path d="M104.761 99.1301H102.508V102.735H104.761V99.1301Z" fill="black"/>
<path d="M104.764 31.5414H101.609V31.992H104.764V31.5414Z" fill="black"/>
<path d="M116.928 36.9484H113.773V37.399H116.928V36.9484Z" fill="black"/>
<path d="M104.764 60.3793H101.609V60.8299H104.764V60.3793Z" fill="black"/>
<path d="M104.764 65.3357H101.609V65.7863H104.764V65.3357Z" fill="black"/>
<path d="M116.928 94.1737H113.773V94.6243H116.928V94.1737Z" fill="black"/>
<path d="M113.326 104.988H110.172V105.439H113.326V104.988Z" fill="black"/>
<path d="M102.508 35.5968V36.4979H103.409V38.3003H102.508V39.2013H104.761V35.5968H102.508Z" fill="black"/>
<path d="M110.172 29.2885V30.1895H111.073V31.9919H110.172V32.893H112.425V29.2885H110.172Z" fill="black"/>
<path d="M118.73 35.1464V36.0477H119.632V37.8501H118.73V38.7512H120.983V35.1464H118.73Z" fill="black"/>
<path d="M118.73 52.7195V53.6205H119.632V55.423H118.73V56.324H120.983V52.7195H118.73Z" fill="black"/>
<path d="M118.73 58.5768V59.4781H119.632V61.2806H118.73V62.1816H120.983V58.5768H118.73Z" fill="black"/>
<path d="M118.73 40.5532V41.4543H119.632V43.2567H118.73V44.1581H120.983V40.5532H118.73Z" fill="black"/>
<path d="M114.227 23.8811V24.7825H115.128V26.5846H114.227V27.4859H116.48V23.8811H114.227Z" fill="black"/>
<path d="M116.48 52.7195H114.227V56.3242H116.48V52.7195Z" fill="black"/>
<path d="M116.48 63.5333H114.227V67.1381H116.48V63.5333Z" fill="black"/>
<path d="M114.227 58.1263V59.0274H115.128V60.8298H114.227V61.7312H116.48V58.1263H114.227Z" fill="black"/>
<path d="M110.172 35.1464V36.0477H111.073V37.8501H110.172V38.7512H112.425V35.1464H110.172Z" fill="black"/>
<path d="M110.172 41.0037V41.905H111.073V43.7071H110.172V44.6085H112.425V41.0037H110.172Z" fill="black"/>
<path d="M112.425 58.5768H110.172V62.1815H112.425V58.5768Z" fill="black"/>
<path d="M110.172 52.7195V53.6205H111.073V55.423H110.172V56.324H112.425V52.7195H110.172Z" fill="black"/>
<path d="M112.425 70.2926H110.172V73.8973H112.425V70.2926Z" fill="black"/>
<path d="M110.172 64.4348V65.3359H111.073V67.1383H110.172V68.0396H112.425V64.4348H110.172Z" fill="black"/>
<path d="M112.425 82.0079H110.172V85.6127H112.425V82.0079Z" fill="black"/>
<path d="M116.48 81.1063H114.227V84.7111H116.48V81.1063Z" fill="black"/>
<path d="M110.172 76.1495V77.0509H111.073V78.8533H110.172V79.7544H112.425V76.1495H110.172Z" fill="black"/>
<path d="M118.73 76.1495V77.0509H119.632V78.8533H118.73V79.7544H120.983V76.1495H118.73Z" fill="black"/>
<path d="M143.964 23.8811H141.711V27.4858H143.964V23.8811Z" fill="black"/>
<path d="M143.964 29.739H141.711V33.3438H143.964V29.739Z" fill="black"/>
<path d="M143.964 46.8616H141.711V50.4663H143.964V46.8616Z" fill="black"/>
<path d="M141.711 35.1464V36.0477H142.612V37.8501H141.711V38.7512H143.964V35.1464H141.711Z" fill="black"/>
<path d="M141.711 52.7195V53.6205H142.612V55.423H141.711V56.324H143.964V52.7195H141.711Z" fill="black"/>
<path d="M141.711 58.5768V59.4781H142.612V61.2806H141.711V62.1816H143.964V58.5768H141.711Z" fill="black"/>
<path d="M141.711 40.5532V41.4543H142.612V43.2567H141.711V44.1581H143.964V40.5532H141.711Z" fill="black"/>
<path d="M141.711 76.1495V77.0509H142.612V78.8533H141.711V79.7544H143.964V76.1495H141.711Z" fill="black"/>
<path d="M112.425 93.7231H110.172V97.3279H112.425V93.7231Z" fill="black"/>
<path d="M116.48 86.9642H114.227V90.569H116.48V86.9642Z" fill="black"/>
<path d="M112.425 109.043H110.172V112.648H112.425V109.043Z" fill="black"/>
<path d="M116.48 98.2291H114.227V101.834H116.48V98.2291Z" fill="black"/>
<path d="M110.172 87.8652V88.7663H111.073V90.5687H110.172V91.4701H112.425V87.8652H110.172Z" fill="black"/>
<path d="M110.172 115.352V116.253H111.073V118.055H110.172V118.956H112.425V115.352H110.172Z" fill="black"/>
<path d="M137.206 18.4742H134.953V22.079H137.206V18.4742Z" fill="black"/>
<path d="M137.206 46.8616H134.953V50.4663H137.206V46.8616Z" fill="black"/>
<path d="M138.107 104.988H134.953V105.439H138.107V104.988Z" fill="black"/>
<path d="M134.953 29.2884V30.1895H135.854V31.9919H134.953V32.8929H137.206V29.2884H134.953Z" fill="black"/>
<path d="M134.953 35.1464V36.0477H135.854V37.8501H134.953V38.7512H137.206V35.1464H134.953Z" fill="black"/>
<path d="M134.953 41.0037V41.905H135.854V43.7071H134.953V44.6085H137.206V41.0037H134.953Z" fill="black"/>
<path d="M137.206 58.5768H134.953V62.1816H137.206V58.5768Z" fill="black"/>
<path d="M134.953 52.7195V53.6205H135.854V55.423H134.953V56.324H137.206V52.7195H134.953Z" fill="black"/>
<path d="M137.206 70.2926H134.953V73.8973H137.206V70.2926Z" fill="black"/>
<path d="M134.953 64.4348V65.3359H135.854V67.1383H134.953V68.0396H137.206V64.4348H134.953Z" fill="black"/>
<path d="M137.206 82.0079H134.953V85.6127H137.206V82.0079Z" fill="black"/>
<path d="M134.953 76.1495V77.0509H135.854V78.8533H134.953V79.7544H137.206V76.1495H134.953Z" fill="black"/>
<path d="M137.206 93.7232H134.953V97.328H137.206V93.7232Z" fill="black"/>
<path d="M137.206 109.043H134.953V112.648H137.206V109.043Z" fill="black"/>
<path d="M134.953 87.8652V88.7663H135.854V90.5687H134.953V91.4701H137.206V87.8652H134.953Z" fill="black"/>
<path d="M134.953 115.352V116.253H135.854V118.055H134.953V118.956H137.206V115.352H134.953Z" fill="black"/>
<path d="M148.019 18.4742H145.766V22.079H148.019V18.4742Z" fill="black"/>
<path d="M148.019 46.8616H145.766V50.4663H148.019V46.8616Z" fill="black"/>
<path d="M148.92 104.988H145.766V105.439H148.92V104.988Z" fill="black"/>
<path d="M145.766 29.2885V30.1895H146.667V31.9919H145.766V32.893H148.019V29.2885H145.766Z" fill="black"/>
<path d="M145.766 35.1464V36.0477H146.667V37.8501H145.766V38.7512H148.019V35.1464H145.766Z" fill="black"/>
<path d="M145.766 41.0037V41.905H146.667V43.7071H145.766V44.6085H148.019V41.0037H145.766Z" fill="black"/>
<path d="M148.019 58.5768H145.766V62.1815H148.019V58.5768Z" fill="black"/>
<path d="M145.766 52.7195V53.6205H146.667V55.423H145.766V56.324H148.019V52.7195H145.766Z" fill="black"/>
<path d="M148.019 70.2926H145.766V73.8973H148.019V70.2926Z" fill="black"/>
<path d="M145.766 64.4348V65.3359H146.667V67.1383H145.766V68.0396H148.019V64.4348H145.766Z" fill="black"/>
<path d="M148.019 82.0079H145.766V85.6127H148.019V82.0079Z" fill="black"/>
<path d="M145.766 76.1495V77.0509H146.667V78.8533H145.766V79.7544H148.019V76.1495H145.766Z" fill="black"/>
<path d="M148.019 93.7231H145.766V97.3279H148.019V93.7231Z" fill="black"/>
<path d="M148.019 109.043H145.766V112.648H148.019V109.043Z" fill="black"/>
<path d="M145.766 87.8652V88.7663H146.667V90.5687H145.766V91.4701H148.019V87.8652H145.766Z" fill="black"/>
<path d="M145.766 115.352V116.253H146.667V118.055H145.766V118.956H148.019V115.352H145.766Z" fill="black"/>
<path d="M114.227 109.043V109.945H115.128V111.747H114.227V112.648H116.48V109.043H114.227Z" fill="black"/>
<path d="M114.227 114.901V115.802H115.128V117.605H114.227V118.506H116.48V114.901H114.227Z" fill="black"/>
<path d="M102.508 46.8616V47.7626H103.409V49.5651H102.508V50.4664H104.761V46.8616H102.508Z" fill="black"/>
<path d="M102.508 69.8422V70.7432H103.409V72.5456H102.508V73.4467H104.761V69.8422H102.508Z" fill="black"/>
<path d="M102.508 75.6991V76.6005H103.409V78.4029H102.508V79.3039H104.761V75.6991H102.508Z" fill="black"/>
<path d="M102.508 87.4148V88.3159H103.409V90.1183H102.508V91.0193H104.761V87.4148H102.508Z" fill="black"/>
<path d="M102.508 104.087V104.988H103.409V106.791H102.508V107.692H104.761V104.087H102.508Z" fill="black"/>
<path d="M102.508 109.043V109.945H103.409V111.747H102.508V112.648H104.761V109.043H102.508Z" fill="black"/>
<path d="M128.194 19.3757H125.941V22.9805H128.194V19.3757Z" fill="black"/>
<path d="M128.194 25.233H125.941V28.8378H128.194V25.233Z" fill="black"/>
<path d="M128.193 31.5414H125.039V31.992H128.193V31.5414Z" fill="black"/>
<path d="M128.193 60.3793H125.039V60.8299H128.193V60.3793Z" fill="black"/>
<path d="M128.193 65.3357H125.039V65.7863H128.193V65.3357Z" fill="black"/>
<path d="M125.941 35.5968V36.4979H126.843V38.3003H125.941V39.2013H128.194V35.5968H125.941Z" fill="black"/>
<path d="M125.941 46.8616V47.7626H126.843V49.5651H125.941V50.4664H128.194V46.8616H125.941Z" fill="black"/>
<path d="M125.941 69.8422V70.7432H126.843V72.5456H125.941V73.4467H128.194V69.8422H125.941Z" fill="black"/>
<path d="M153.878 58.5768H151.625V62.1815H153.878V58.5768Z" fill="black"/>
<path d="M153.878 64.4348H151.625V68.0396H153.878V64.4348Z" fill="black"/>
<path d="M153.877 70.743H150.723V71.1936H153.877V70.743Z" fill="black"/>
<path d="M153.877 99.5811H150.723V100.032H153.877V99.5811Z" fill="black"/>
<path d="M153.877 104.537H150.723V104.988H153.877V104.537Z" fill="black"/>
<path d="M151.625 74.7981V75.6992H152.526V77.5016H151.625V78.4029H153.878V74.7981H151.625Z" fill="black"/>
<path d="M151.625 86.0634V86.9647H152.526V88.7668H151.625V89.6682H153.878V86.0634H151.625Z" fill="black"/>
<path d="M151.625 109.043V109.945H152.526V111.747H151.625V112.648H153.878V109.043H151.625Z" fill="black"/>
<path d="M161.085 19.3757H158.832V22.9805H161.085V19.3757Z" fill="black"/>
<path d="M168.749 18.4742H166.496V22.079H168.749V18.4742Z" fill="black"/>
<path d="M172.804 18.4742H170.551V22.079H172.804V18.4742Z" fill="black"/>
<path d="M172.804 29.2885H170.551V32.8932H172.804V29.2885Z" fill="black"/>
<path d="M177.308 23.881H175.055V27.4858H177.308V23.881Z" fill="black"/>
<path d="M177.308 29.739H175.055V33.3438H177.308V29.739Z" fill="black"/>
<path d="M172.804 41.0037H170.551V44.6084H172.804V41.0037Z" fill="black"/>
<path d="M177.308 46.8616H175.055V50.4663H177.308V46.8616Z" fill="black"/>
<path d="M172.804 68.9407H170.551V72.5454H172.804V68.9407Z" fill="black"/>
<path d="M168.749 46.8616H166.496V50.4663H168.749V46.8616Z" fill="black"/>
<path d="M161.085 25.233H158.832V28.8378H161.085V25.233Z" fill="black"/>
<path d="M161.085 81.5569H158.832V85.1616H161.085V81.5569Z" fill="black"/>
<path d="M161.085 93.2726H158.832V96.8773H161.085V93.2726Z" fill="black"/>
<path d="M161.085 99.1301H158.832V102.735H161.085V99.1301Z" fill="black"/>
<path d="M161.088 31.5414H157.934V31.992H161.088V31.5414Z" fill="black"/>
<path d="M173.252 36.9484H170.098V37.399H173.252V36.9484Z" fill="black"/>
<path d="M161.088 60.3793H157.934V60.8299H161.088V60.3793Z" fill="black"/>
<path d="M161.088 65.3357H157.934V65.7863H161.088V65.3357Z" fill="black"/>
<path d="M173.252 94.1737H170.098V94.6243H173.252V94.1737Z" fill="black"/>
<path d="M169.65 104.988H166.496V105.439H169.65V104.988Z" fill="black"/>
<path d="M158.832 35.5968V36.4979H159.733V38.3003H158.832V39.2013H161.085V35.5968H158.832Z" fill="black"/>
<path d="M166.496 29.2885V30.1895H167.397V31.9919H166.496V32.893H168.749V29.2885H166.496Z" fill="black"/>
<path d="M175.055 35.1464V36.0477H175.956V37.8501H175.055V38.7512H177.308V35.1464H175.055Z" fill="black"/>
<path d="M175.055 52.7195V53.6205H175.956V55.423H175.055V56.324H177.308V52.7195H175.055Z" fill="black"/>
<path d="M175.055 58.5768V59.4782H175.956V61.2806H175.055V62.1817H177.308V58.5768H175.055Z" fill="black"/>
<path d="M175.055 40.5532V41.4542H175.956V43.2566H175.055V44.158H177.308V40.5532H175.055Z" fill="black"/>
<path d="M170.551 23.8811V24.7825H171.452V26.5846H170.551V27.4859H172.804V23.8811H170.551Z" fill="black"/>
<path d="M172.804 52.7195H170.551V56.3242H172.804V52.7195Z" fill="black"/>
<path d="M172.804 63.5333H170.551V67.1381H172.804V63.5333Z" fill="black"/>
<path d="M170.551 58.1263V59.0274H171.452V60.8298H170.551V61.7312H172.804V58.1263H170.551Z" fill="black"/>
<path d="M166.496 35.1464V36.0477H167.397V37.8501H166.496V38.7512H168.749V35.1464H166.496Z" fill="black"/>
<path d="M166.496 41.0037V41.905H167.397V43.7071H166.496V44.6085H168.749V41.0037H166.496Z" fill="black"/>
<path d="M168.749 58.5768H166.496V62.1815H168.749V58.5768Z" fill="black"/>
<path d="M166.496 52.7195V53.6205H167.397V55.423H166.496V56.324H168.749V52.7195H166.496Z" fill="black"/>
<path d="M168.749 70.2926H166.496V73.8973H168.749V70.2926Z" fill="black"/>
<path d="M166.496 64.4348V65.3359H167.397V67.1383H166.496V68.0396H168.749V64.4348H166.496Z" fill="black"/>
<path d="M168.749 82.0079H166.496V85.6127H168.749V82.0079Z" fill="black"/>
<path d="M172.804 81.1063H170.551V84.7111H172.804V81.1063Z" fill="black"/>
<path d="M166.496 76.1495V77.0509H167.397V78.8533H166.496V79.7544H168.749V76.1495H166.496Z" fill="black"/>
<path d="M175.055 76.1495V77.0509H175.956V78.8533H175.055V79.7544H177.308V76.1495H175.055Z" fill="black"/>
<path d="M200.288 23.881H198.035V27.4858H200.288V23.881Z" fill="black"/>
<path d="M200.288 29.739H198.035V33.3438H200.288V29.739Z" fill="black"/>
<path d="M200.288 46.8616H198.035V50.4663H200.288V46.8616Z" fill="black"/>
<path d="M198.035 35.1464V36.0477H198.936V37.8501H198.035V38.7512H200.288V35.1464H198.035Z" fill="black"/>
<path d="M198.035 52.7195V53.6205H198.936V55.423H198.035V56.324H200.288V52.7195H198.035Z" fill="black"/>
<path d="M198.035 58.5768V59.4782H198.936V61.2806H198.035V62.1817H200.288V58.5768H198.035Z" fill="black"/>
<path d="M198.035 40.5532V41.4542H198.936V43.2566H198.035V44.158H200.288V40.5532H198.035Z" fill="black"/>
<path d="M198.035 76.1495V77.0509H198.936V78.8533H198.035V79.7544H200.288V76.1495H198.035Z" fill="black"/>
<path d="M168.749 93.7231H166.496V97.3279H168.749V93.7231Z" fill="black"/>
<path d="M172.804 86.9642H170.551V90.569H172.804V86.9642Z" fill="black"/>
<path d="M168.749 109.043H166.496V112.648H168.749V109.043Z" fill="black"/>
<path d="M172.804 98.2291H170.551V101.834H172.804V98.2291Z" fill="black"/>
<path d="M166.496 87.8652V88.7663H167.397V90.5687H166.496V91.4701H168.749V87.8652H166.496Z" fill="black"/>
<path d="M166.496 115.352V116.253H167.397V118.055H166.496V118.956H168.749V115.352H166.496Z" fill="black"/>
<path d="M193.53 18.4742H191.277V22.079H193.53V18.4742Z" fill="black"/>
<path d="M193.53 46.8616H191.277V50.4663H193.53V46.8616Z" fill="black"/>
<path d="M194.431 104.988H191.277V105.439H194.431V104.988Z" fill="black"/>
<path d="M191.277 29.2884V30.1895H192.178V31.9919H191.277V32.8929H193.53V29.2884H191.277Z" fill="black"/>
<path d="M191.277 35.1464V36.0477H192.178V37.8501H191.277V38.7512H193.53V35.1464H191.277Z" fill="black"/>
<path d="M191.277 41.0037V41.905H192.178V43.7071H191.277V44.6085H193.53V41.0037H191.277Z" fill="black"/>
<path d="M193.53 58.5768H191.277V62.1816H193.53V58.5768Z" fill="black"/>
<path d="M191.277 52.7195V53.6205H192.178V55.423H191.277V56.324H193.53V52.7195H191.277Z" fill="black"/>
<path d="M193.53 70.2926H191.277V73.8973H193.53V70.2926Z" fill="black"/>
<path d="M191.277 64.4348V65.3359H192.178V67.1383H191.277V68.0396H193.53V64.4348H191.277Z" fill="black"/>
<path d="M193.53 82.0079H191.277V85.6127H193.53V82.0079Z" fill="black"/>
<path d="M191.277 76.1495V77.0509H192.178V78.8533H191.277V79.7544H193.53V76.1495H191.277Z" fill="black"/>
<path d="M193.53 93.7232H191.277V97.328H193.53V93.7232Z" fill="black"/>
<path d="M193.53 109.043H191.277V112.648H193.53V109.043Z" fill="black"/>
<path d="M191.277 87.8652V88.7663H192.178V90.5687H191.277V91.4701H193.53V87.8652H191.277Z" fill="black"/>
<path d="M191.277 115.352V116.253H192.178V118.055H191.277V118.956H193.53V115.352H191.277Z" fill="black"/>
<path d="M204.343 18.4742H202.09V22.079H204.343V18.4742Z" fill="black"/>
<path d="M204.343 46.8616H202.09V50.4663H204.343V46.8616Z" fill="black"/>
<path d="M205.244 104.988H202.09V105.439H205.244V104.988Z" fill="black"/>
<path d="M202.09 29.2884V30.1895H202.991V31.9919H202.09V32.8929H204.343V29.2884H202.09Z" fill="black"/>
<path d="M202.09 35.1464V36.0477H202.991V37.8501H202.09V38.7512H204.343V35.1464H202.09Z" fill="black"/>
<path d="M202.09 41.0037V41.905H202.991V43.7071H202.09V44.6085H204.343V41.0037H202.09Z" fill="black"/>
<path d="M204.343 58.5768H202.09V62.1816H204.343V58.5768Z" fill="black"/>
<path d="M202.09 52.7195V53.6205H202.991V55.423H202.09V56.324H204.343V52.7195H202.09Z" fill="black"/>
<path d="M204.343 70.2926H202.09V73.8973H204.343V70.2926Z" fill="black"/>
<path d="M202.09 64.4348V65.3359H202.991V67.1383H202.09V68.0396H204.343V64.4348H202.09Z" fill="black"/>
<path d="M204.343 82.0079H202.09V85.6127H204.343V82.0079Z" fill="black"/>
<path d="M202.09 76.1495V77.0509H202.991V78.8533H202.09V79.7544H204.343V76.1495H202.09Z" fill="black"/>
<path d="M204.343 93.7232H202.09V97.328H204.343V93.7232Z" fill="black"/>
<path d="M204.343 109.043H202.09V112.648H204.343V109.043Z" fill="black"/>
<path d="M202.09 87.8652V88.7663H202.991V90.5687H202.09V91.4701H204.343V87.8652H202.09Z" fill="black"/>
<path d="M202.09 115.352V116.253H202.991V118.055H202.09V118.956H204.343V115.352H202.09Z" fill="black"/>
<path d="M170.551 109.043V109.945H171.452V111.747H170.551V112.648H172.804V109.043H170.551Z" fill="black"/>
<path d="M170.551 114.901V115.802H171.452V117.605H170.551V118.506H172.804V114.901H170.551Z" fill="black"/>
<path d="M158.832 46.8616V47.7626H159.733V49.5651H158.832V50.4664H161.085V46.8616H158.832Z" fill="black"/>
<path d="M158.832 69.8422V70.7432H159.733V72.5456H158.832V73.4467H161.085V69.8422H158.832Z" fill="black"/>
<path d="M158.832 75.6991V76.6005H159.733V78.4029H158.832V79.3039H161.085V75.6991H158.832Z" fill="black"/>
<path d="M158.832 87.4148V88.3159H159.733V90.1183H158.832V91.0193H161.085V87.4148H158.832Z" fill="black"/>
<path d="M158.832 104.087V104.988H159.733V106.791H158.832V107.692H161.085V104.087H158.832Z" fill="black"/>
<path d="M158.832 109.043V109.945H159.733V111.747H158.832V112.648H161.085V109.043H158.832Z" fill="black"/>
<path d="M184.519 19.3757H182.266V22.9805H184.519V19.3757Z" fill="black"/>
<path d="M184.519 25.233H182.266V28.8378H184.519V25.233Z" fill="black"/>
<path d="M184.517 31.5414H181.363V31.992H184.517V31.5414Z" fill="black"/>
<path d="M184.517 60.3793H181.363V60.8299H184.517V60.3793Z" fill="black"/>
<path d="M184.517 65.3357H181.363V65.7863H184.517V65.3357Z" fill="black"/>
<path d="M182.266 35.5968V36.4979H183.167V38.3003H182.266V39.2013H184.519V35.5968H182.266Z" fill="black"/>
<path d="M182.266 46.8616V47.7626H183.167V49.5651H182.266V50.4664H184.519V46.8616H182.266Z" fill="black"/>
<path d="M182.266 69.8422V70.7432H183.167V72.5456H182.266V73.4467H184.519V69.8422H182.266Z" fill="black"/>
<path d="M210.202 58.5768H207.949V62.1815H210.202V58.5768Z" fill="black"/>
<path d="M210.202 64.4348H207.949V68.0396H210.202V64.4348Z" fill="black"/>
<path d="M210.201 70.743H207.047V71.1936H210.201V70.743Z" fill="black"/>
<path d="M210.201 99.5811H207.047V100.032H210.201V99.5811Z" fill="black"/>
<path d="M210.201 104.537H207.047V104.988H210.201V104.537Z" fill="black"/>
<path d="M207.949 74.7981V75.6992H208.851V77.5016H207.949V78.4029H210.202V74.7981H207.949Z" fill="black"/>
<path d="M207.949 86.0634V86.9647H208.851V88.7668H207.949V89.6682H210.202V86.0634H207.949Z" fill="black"/>
<path d="M207.949 109.043V109.945H208.851V111.747H207.949V112.648H210.202V109.043H207.949Z" fill="black"/>
</svg>
