<svg width="207" height="146" viewBox="0 0 207 146" fill="none" xmlns="http://www.w3.org/2000/svg">
<rect x="73.1158" y="12.5892" width="61.1357" height="118.278" rx="5.52986" stroke="black" stroke-width="0.614429"/>
<path d="M27.3585 131.826C27.7524 131.949 28.0839 132.218 28.284 132.579C29.0317 133.839 30.1992 134.649 31.5106 134.644C33.7504 134.635 35.5631 132.255 35.5517 129.325C35.5403 126.394 33.7111 124.04 31.4771 124.048C30.4229 124.053 29.4637 124.582 28.7456 125.45C28.4733 125.782 28.2428 126.146 28.0593 126.534L28.0215 126.764C28.0215 126.764 27.1598 127.506 25.9793 126.832L25.9124 109.652L9.13913 109.718C9.00279 109.541 8.91244 109.332 8.87614 109.112C8.83984 108.891 8.85873 108.665 8.93112 108.454C9.05488 108.06 9.3241 107.729 9.68379 107.528C10.9439 106.78 11.7556 105.613 11.7505 104.301C11.7418 102.062 9.35952 100.249 6.43116 100.26C3.50281 100.272 1.1347 102.097 1.14344 104.343C1.14755 105.397 1.67933 106.358 2.54672 107.076C2.87822 107.347 3.24155 107.577 3.62867 107.761L3.65204 107.799C3.90665 108.044 4.07614 108.363 4.13564 108.711C4.19513 109.059 4.14149 109.417 3.98258 109.732L0.0368409 109.747L0.159872 141.346C0.164678 142.58 0.659577 143.762 1.5357 144.632C2.41183 145.501 3.59741 145.987 4.83164 145.982L26.0593 145.899L26.0057 132.122C26.1827 131.954 26.4023 131.837 26.6408 131.785C26.8793 131.733 27.1275 131.747 27.3585 131.826Z" fill="#0A74E6" fill-opacity="0.15"/>
<path d="M76.7392 89.2885C76.7392 86.2919 79.3532 83.8643 82.5767 83.8643C85.8001 83.8643 88.4161 86.2919 88.4161 89.2885C88.4107 90.09 88.2224 90.8798 87.8657 91.5976C87.5089 92.3154 86.9931 92.9423 86.3575 93.4307H102.004V76.5871C102.182 76.4199 102.404 76.3048 102.643 76.254C102.882 76.2032 103.131 76.2186 103.363 76.2987C103.754 76.4223 104.083 76.6913 104.281 77.0503C105.018 78.3055 106.175 79.1147 107.48 79.1147C109.706 79.1147 111.516 76.7562 111.516 73.8461C111.516 70.936 109.713 68.5756 107.48 68.5756C106.43 68.5756 105.475 69.1004 104.758 69.9576C104.487 70.287 104.257 70.6477 104.072 71.0321L104.035 71.0552C103.778 71.3242 103.436 71.4975 103.067 71.5468C102.698 71.596 102.323 71.5182 102.004 71.3262V54.2577H85.9558C85.821 54.0811 85.732 53.8739 85.6968 53.6545C85.6615 53.4352 85.6812 53.2105 85.7539 53.0006C85.8776 52.6099 86.1466 52.2817 86.5055 52.0838C87.7606 51.3476 88.5699 50.1886 88.5699 48.8853C88.5699 46.6595 86.2114 44.8489 83.3013 44.8489C80.3912 44.8489 78.0308 46.6538 78.0308 48.8853C78.0308 49.9348 78.5556 50.8901 79.4128 51.6071C79.7421 51.8781 80.1029 52.1085 80.4873 52.2933L80.5104 52.3298C80.7624 52.5737 80.9296 52.892 80.9874 53.238C81.0452 53.584 80.9905 53.9394 80.8314 54.2519H76.1875V93.4307H78.7978C78.1621 92.9423 77.6463 92.3154 77.2896 91.5976C76.9328 90.8798 76.7446 90.09 76.7392 89.2885Z" fill="#0A74E6" fill-opacity="0.5"/>
<path d="M67.6088 30.3492C67.6088 27.4157 70.1679 25.0373 73.3253 25.0373C76.4827 25.0373 79.0398 27.4157 79.0398 30.3492C79.0324 31.1329 78.8463 31.9046 78.4958 32.6056C78.1453 33.3067 77.6396 33.9185 77.0171 34.3948H91.5246V17.7045C91.6992 17.5394 91.916 17.4258 92.151 17.376C92.3861 17.3262 92.6303 17.3422 92.8568 17.4222C93.239 17.5438 93.5602 17.807 93.7544 18.158C94.4751 19.3867 95.6097 20.1789 96.8855 20.1789C99.0644 20.1789 100.837 17.8701 100.837 15.0194C100.837 12.1687 99.0719 9.86175 96.8855 9.86175C95.8581 9.86175 94.9229 10.3736 94.221 11.2147C93.9549 11.5364 93.7293 11.8897 93.5493 12.2665L93.5135 12.4904C93.5135 12.4904 92.6724 13.2092 91.5246 12.5488V4.51409H80.7352C79.7482 4.5116 78.8025 4.11777 78.1055 3.41899C77.4085 2.72021 77.0171 1.77351 77.0171 0.78653V0H70.8848C70.2899 0.000246772 69.7009 0.117716 69.1515 0.345695C68.6021 0.573675 68.103 0.907694 67.6827 1.32866C67.2625 1.74963 66.9293 2.2493 66.7022 2.7991C66.4751 3.3489 66.3586 3.93806 66.3594 4.5329V34.3948H69.6222C69.0014 33.9176 68.4975 33.3053 68.1486 32.6043C67.7998 31.9034 67.6152 31.1321 67.6088 30.3492Z" fill="#0A74E6" fill-opacity="0.3"/>
<path d="M110.526 24.7631C113.545 24.7631 115.994 27.3791 115.994 30.6045C115.994 33.8298 113.545 36.4458 110.526 36.4458C109.705 36.4413 108.896 36.2472 108.163 35.8788C107.429 35.5104 106.791 34.9776 106.297 34.3218V50.5312H123.788C123.154 50.0422 122.64 49.4156 122.284 48.6987C121.928 47.9817 121.74 47.1932 121.733 46.3928C121.733 43.3924 124.342 40.9609 127.561 40.9609C128.996 40.9512 130.387 41.4519 131.486 42.3736V19.9789C131.486 18.7546 131.001 17.5802 130.136 16.7136C129.271 15.8469 128.098 15.3587 126.873 15.3562H120.338V16.1596C120.338 17.1697 119.937 18.1384 119.223 18.8528C118.509 19.5672 117.54 19.9688 116.53 19.9693H106.306V26.889C106.799 26.2344 107.436 25.7021 108.168 25.3334C108.899 24.9648 109.706 24.7696 110.526 24.7631Z" fill="#0A74E6" fill-opacity="0.3"/>
<path d="M131.977 92.6285C132.126 92.1593 132.45 91.765 132.88 91.5267C133.569 91.1334 134.164 90.5951 134.624 89.949V85.4147C133.56 83.8832 131.455 82.8391 129.03 82.8391C125.53 82.8391 122.696 85.0081 122.696 87.6899C122.696 88.9511 123.327 90.0991 124.357 90.9607C124.753 91.2865 125.186 91.5633 125.648 91.7854L125.676 91.8293C125.978 92.1226 126.179 92.5051 126.249 92.9208C126.318 93.3365 126.252 93.7634 126.062 94.1392H105.684V113.08C106.269 112.297 107.027 111.661 107.9 111.22C108.772 110.779 109.735 110.546 110.712 110.539C114.313 110.539 117.231 113.681 117.231 117.555C117.231 121.428 114.313 124.572 110.712 124.572C109.735 124.566 108.772 124.333 107.9 123.892C107.027 123.451 106.269 122.814 105.684 122.031V137.321H129.067C130.538 137.321 131.95 136.737 132.992 135.698C134.034 134.658 134.621 133.248 134.624 131.777V94.1415H132.227C132.063 93.9296 131.955 93.6805 131.911 93.4164C131.868 93.1524 131.89 92.8816 131.977 92.6285Z" fill="#0A74E6" fill-opacity="0.3"/>
<path d="M203.383 38.8742C203.626 38.4857 204.009 38.2054 204.452 38.0913C204.723 38.0126 204.988 37.9139 205.244 37.7961L206.765 31.8278C205.813 30.6185 204.479 29.7678 202.981 29.4149C199.843 28.6148 196.801 29.9133 196.191 32.3134C195.902 33.445 196.206 34.6194 196.935 35.6291C197.215 36.012 197.54 36.359 197.905 36.6623L197.92 36.7094C198.126 37.0428 198.219 37.4337 198.186 37.8243C198.153 38.2149 197.995 38.5845 197.736 38.8785L178.556 33.9948L174.228 50.9967C174.93 50.4283 175.754 50.0295 176.635 49.8314C177.516 49.6333 178.431 49.6411 179.309 49.8544C182.541 50.678 184.443 54.1648 183.557 57.6409C182.672 61.117 179.343 63.2712 176.111 62.4583C175.235 62.2275 174.424 61.797 173.743 61.2006C173.061 60.6042 172.527 59.8581 172.181 59.0207L167.738 76.4675L184.727 80.7908C184.176 80.0913 183.792 79.2753 183.604 78.405C183.415 77.5346 183.428 76.6328 183.641 75.768C184.464 72.5379 187.949 70.6341 191.427 71.5197C192.356 71.747 193.225 72.1707 193.976 72.7622C194.726 73.3538 195.342 74.0993 195.78 74.9488L204.523 40.6069L203.267 40.2839C203.169 40.0576 203.128 39.8105 203.148 39.5645C203.168 39.3186 203.249 39.0815 203.383 38.8742Z" fill="#0A74E6" fill-opacity="0.1"/>
<path d="M9.21875 100.762V28.5665H66.2071" stroke="#565656" stroke-width="0.153607" stroke-linecap="round" stroke-dasharray="9.22 9.22"/>
<path d="M191.09 71.5764V131.79H134.562" stroke="#565656" stroke-width="0.153607" stroke-linecap="round" stroke-dasharray="9.22 9.22"/>
</svg>
