<svg width="192" height="146" viewBox="0 0 192 146" fill="none" xmlns="http://www.w3.org/2000/svg">
<path d="M1 80.1719C1 80.1719 31.1746 8.96484 97.2155 8.96484C169.89 8.96484 191.568 80.1719 191.568 80.1719" stroke="url(#paint0_linear_1876_44)" stroke-width="0.586162"/>
<circle cx="22.2618" cy="47.6422" r="8.96491" fill="url(#paint1_linear_1876_44)"/>
<path d="M23.5606 43.8778L23.9629 43.1521C23.968 43.1428 23.9713 43.1326 23.9725 43.122C23.9737 43.1114 23.9728 43.1007 23.9699 43.0905C23.967 43.0802 23.9621 43.0707 23.9554 43.0623C23.9488 43.054 23.9406 43.0471 23.9313 43.0419C23.9125 43.0315 23.8903 43.029 23.8696 43.0349C23.849 43.0408 23.8315 43.0547 23.8211 43.0735L23.4144 43.8072C23.0674 43.6551 22.6927 43.5765 22.3138 43.5765C21.9349 43.5765 21.5601 43.6551 21.2131 43.8072L20.8064 43.0735C20.796 43.0547 20.7786 43.0408 20.7579 43.0349C20.7372 43.029 20.7151 43.0315 20.6962 43.0419C20.6774 43.0523 20.6636 43.0698 20.6576 43.0905C20.6517 43.1111 20.6542 43.1333 20.6647 43.1521L21.0669 43.8778C20.684 44.0665 20.3605 44.357 20.1318 44.7175C19.9032 45.078 19.7782 45.4945 19.7707 45.9213H24.8569C24.8493 45.4945 24.7244 45.078 24.4957 44.7175C24.2671 44.357 23.9435 44.0665 23.5606 43.8778ZM21.14 44.9906C21.098 44.9906 21.0569 44.9782 21.022 44.9548C20.9871 44.9315 20.9599 44.8983 20.9438 44.8595C20.9277 44.8207 20.9235 44.778 20.9317 44.7368C20.9399 44.6956 20.9601 44.6578 20.9898 44.6281C21.0195 44.5984 21.0574 44.5781 21.0986 44.5699C21.1398 44.5618 21.1825 44.566 21.2213 44.582C21.2601 44.5981 21.2933 44.6253 21.3166 44.6603C21.3399 44.6952 21.3524 44.7362 21.3524 44.7782C21.3523 44.8346 21.3299 44.8885 21.2901 44.9284C21.2503 44.9682 21.1963 44.9906 21.14 44.9906ZM23.4875 44.9906C23.4455 44.9906 23.4045 44.9782 23.3695 44.9548C23.3346 44.9315 23.3074 44.8983 23.2913 44.8595C23.2752 44.8207 23.271 44.778 23.2792 44.7368C23.2874 44.6956 23.3077 44.6578 23.3374 44.6281C23.3671 44.5984 23.4049 44.5781 23.4461 44.5699C23.4873 44.5618 23.53 44.566 23.5688 44.582C23.6076 44.5981 23.6408 44.6253 23.6641 44.6603C23.6875 44.6952 23.6999 44.7362 23.6999 44.7782C23.6999 44.8346 23.6775 44.8885 23.6376 44.9284C23.5978 44.9682 23.5438 44.9906 23.4875 44.9906ZM19.7706 49.8087C19.7706 49.9717 19.8354 50.1281 19.9507 50.2434C20.066 50.3587 20.2224 50.4235 20.3854 50.4235H20.7935V51.6811C20.7932 51.7561 20.8078 51.8304 20.8364 51.8998C20.865 51.9691 20.9069 52.0322 20.9599 52.0853C21.0129 52.1384 21.0758 52.1805 21.145 52.2092C21.2143 52.238 21.2886 52.2528 21.3636 52.2528C21.4386 52.2528 21.5128 52.238 21.5821 52.2092C21.6514 52.1805 21.7143 52.1384 21.7673 52.0853C21.8202 52.0322 21.8622 51.9691 21.8907 51.8998C21.9193 51.8304 21.9339 51.7561 21.9337 51.6811V50.4235H22.6938V51.6811C22.6936 51.7561 22.7082 51.8304 22.7368 51.8998C22.7654 51.9691 22.8073 52.0322 22.8603 52.0853C22.9132 52.1384 22.9762 52.1805 23.0454 52.2092C23.1147 52.238 23.189 52.2528 23.264 52.2528C23.339 52.2528 23.4132 52.238 23.4825 52.2092C23.5518 52.1805 23.6147 52.1384 23.6676 52.0853C23.7206 52.0322 23.7626 51.9691 23.7911 51.8998C23.8197 51.8304 23.8343 51.7561 23.8341 51.6811V50.4235H24.2421C24.4052 50.4235 24.5616 50.3587 24.6769 50.2434C24.7922 50.1281 24.8569 49.9717 24.8569 49.8087V46.1225H19.7706V49.8087ZM18.9881 46.0247C18.8369 46.0248 18.692 46.085 18.5851 46.1918C18.4783 46.2987 18.4181 46.4436 18.418 46.5948V48.9703C18.4178 49.0453 18.4324 49.1196 18.4609 49.1889C18.4895 49.2583 18.5314 49.3213 18.5844 49.3744C18.6374 49.4275 18.7003 49.4697 18.7696 49.4984C18.8388 49.5272 18.9131 49.542 18.9881 49.542C19.0631 49.542 19.1374 49.5272 19.2066 49.4984C19.2759 49.4697 19.3388 49.4275 19.3918 49.3744C19.4447 49.3213 19.4867 49.2583 19.5153 49.1889C19.5438 49.1196 19.5584 49.0453 19.5582 48.9703V46.5948C19.5581 46.4436 19.4979 46.2987 19.391 46.1918C19.2842 46.085 19.1392 46.0248 18.9881 46.0247ZM25.6394 46.0247C25.4883 46.0248 25.3434 46.085 25.2365 46.1918C25.1296 46.2987 25.0695 46.4436 25.0693 46.5948V48.9703C25.0691 49.0453 25.0837 49.1196 25.1123 49.1889C25.1408 49.2583 25.1828 49.3213 25.2358 49.3744C25.2887 49.4275 25.3516 49.4697 25.4209 49.4984C25.4902 49.5272 25.5644 49.542 25.6394 49.542C25.7144 49.542 25.7887 49.5272 25.858 49.4984C25.9272 49.4697 25.9902 49.4275 26.0431 49.3744C26.0961 49.3213 26.1381 49.2583 26.1666 49.1889C26.1952 49.1196 26.2098 49.0453 26.2096 48.9703V46.5948C26.2094 46.4436 26.1493 46.2987 26.0424 46.1918C25.9355 46.085 25.7906 46.0248 25.6394 46.0247Z" fill="white"/>
<circle cx="96.2813" cy="8.96491" r="8.96491" fill="black"/>
<path d="M97.4946 5.50753C97.6616 5.31502 97.789 5.09142 97.8693 4.84955C97.9497 4.60769 97.9815 4.35233 97.9629 4.09814C97.4501 4.13954 96.9741 4.38071 96.6375 4.7697C96.4762 4.95613 96.3541 5.17302 96.2782 5.40752C96.2023 5.64202 96.1742 5.88936 96.1957 6.1349C96.4458 6.13699 96.693 6.08148 96.9183 5.97269C97.1435 5.8639 97.3407 5.70474 97.4946 5.50753ZM98.6079 8.79461C98.6109 8.45607 98.7001 8.12386 98.8671 7.82934C99.034 7.53482 99.2733 7.28771 99.5623 7.11131C99.3799 6.84853 99.1388 6.63187 98.8581 6.47849C98.5774 6.32511 98.2649 6.23924 97.9452 6.22768C97.256 6.15699 96.6198 6.62973 96.2531 6.62973C95.8864 6.62973 95.3695 6.23652 94.7951 6.24535C94.4196 6.25772 94.0538 6.3672 93.7332 6.5631C93.4126 6.759 93.1483 7.03465 92.966 7.36314C92.1884 8.71509 92.7672 10.7253 93.5448 11.8166C93.8982 12.3512 94.34 12.9565 94.9232 12.9344C95.5064 12.9123 95.6964 12.5721 96.3724 12.5721C97.0483 12.5721 97.256 12.9344 97.8304 12.9211C98.4047 12.9079 98.8112 12.3733 99.1823 11.8387C99.4452 11.4506 99.6506 11.0265 99.792 10.5795C99.4419 10.4302 99.1431 10.1816 98.9327 9.86438C98.7223 9.54717 98.6094 9.17527 98.6079 8.79461Z" fill="white"/>
<circle cx="171.59" cy="47.6422" r="8.96491" fill="url(#paint2_linear_1876_44)"/>
<path fill-rule="evenodd" clip-rule="evenodd" d="M175.717 43.5439L171.352 44.191V47.3854H175.717V43.5439ZM170.857 44.2526L167.488 44.7456V47.3854H170.857V44.2526ZM170.857 51.0317L167.488 50.5387V47.8989H170.857V51.0317ZM171.352 51.0934L175.717 51.7405V47.899H171.352V51.0934Z" fill="white"/>
<rect x="70.6663" y="47.1299" width="50.9719" height="98.614" rx="4.61053" stroke="black" stroke-width="0.512281"/>
<rect x="74.25" y="51.2283" width="43.8" height="90.9298" rx="3.84211" fill="#0A74E6" fill-opacity="0.1"/>
<path d="M96.0539 90.7642C95.4361 90.7591 94.8307 90.9373 94.3143 91.2763C93.7978 91.6152 93.3935 92.0997 93.1524 92.6685C92.9112 93.2373 92.8442 93.8647 92.9597 94.4716C93.0753 95.0785 93.3681 95.6375 93.8014 96.0779C94.2346 96.5183 94.7887 96.8203 95.3935 96.9458C95.9984 97.0713 96.6269 97.0146 97.1996 96.7829C97.7722 96.5512 98.2633 96.1549 98.6108 95.6441C98.9582 95.1333 99.1463 94.5309 99.1514 93.9131C99.1581 93.0848 98.8356 92.2878 98.2547 91.6972C97.6738 91.1067 96.8822 90.7711 96.0539 90.7642ZM106.401 100.784C106.343 100.479 106.276 100.166 106.199 99.8477C106.421 99.7843 106.638 99.7184 106.851 99.65C110.872 98.3547 113.498 96.2284 113.516 94.0317C113.534 91.9255 111.11 89.8682 107.343 88.5365C106.971 88.4058 106.597 88.2844 106.22 88.1725C106.284 87.9181 106.344 87.6626 106.4 87.406C107.286 83.2757 106.757 79.938 104.863 78.8252C103.047 77.7578 100.054 78.8304 97.0181 81.4282C96.7189 81.6847 96.4265 81.9486 96.1407 82.2202C95.9523 82.0366 95.7606 81.8566 95.5655 81.6802C92.43 78.8495 89.2738 77.6416 87.3637 78.7263C85.532 79.7666 84.9663 82.8956 85.7012 86.8229C85.7745 87.2118 85.8574 87.5987 85.9502 87.9835C85.5013 88.107 85.0673 88.239 84.6523 88.38C80.9387 89.6404 78.557 91.6444 78.5397 93.743C78.5217 95.9107 81.0425 98.106 84.8887 99.456C85.2006 99.565 85.5151 99.6662 85.8321 99.7595C85.7254 100.172 85.6304 100.588 85.547 101.006C84.7837 104.853 85.3297 107.917 87.1391 108.981C89.008 110.079 92.1688 108.992 95.26 106.335C95.5042 106.125 95.7496 105.902 95.9953 105.668C96.2999 105.967 96.6127 106.257 96.9337 106.538C99.8852 109.121 102.813 110.178 104.638 109.142C106.523 108.071 107.16 104.79 106.401 100.784L106.401 100.784ZM88.1016 80.0256C89.2774 79.3579 91.8567 80.3452 94.564 82.7892C94.737 82.9455 94.9105 83.1085 95.0847 83.2782C94.0015 84.4312 92.996 85.6547 92.0748 86.9407C90.5038 87.0686 88.9428 87.298 87.4014 87.6275C87.3151 87.2697 87.2379 86.9098 87.1699 86.5479L87.1699 86.548C86.5402 83.183 86.9978 80.6525 88.1016 80.0256ZM88.8796 92.1069C88.4529 91.0713 88.089 90.0535 87.7932 89.0711C88.793 88.8561 89.8587 88.6822 90.9687 88.553C90.5927 89.1288 90.2304 89.7132 89.8818 90.3063C89.5338 90.8986 89.1998 91.4988 88.8796 92.1069ZM85.3837 98.0461C83.9063 97.5679 82.5295 96.8219 81.3222 95.8453C80.9759 95.6035 80.683 95.2933 80.4613 94.9339C80.2397 94.5744 80.0942 94.1733 80.0337 93.7554C80.0443 92.4818 81.9565 90.873 85.1325 89.7949C85.5313 89.6603 85.9337 89.5373 86.3396 89.4262C86.7974 90.9385 87.3547 92.4188 88.0079 93.8576C87.3225 95.3058 86.7336 96.7976 86.245 98.3235C85.9556 98.2381 85.6686 98.1457 85.3837 98.0461ZM103.218 92.2264C102.9 91.6104 102.569 91.0009 102.227 90.398C101.889 89.8046 101.54 89.2186 101.177 88.6401C102.292 88.7902 103.36 88.9862 104.362 89.2237C104.031 90.2432 103.649 91.2454 103.218 92.2264ZM97.9897 82.5634C100.591 80.3375 103.011 79.47 104.106 80.1134C105.271 80.7985 105.704 83.5262 104.939 87.0923C104.889 87.3247 104.834 87.556 104.776 87.7864C103.238 87.4245 101.678 87.1648 100.105 87.0089C99.2147 85.7065 98.2371 84.4655 97.1793 83.2947C97.4434 83.0443 97.7135 82.8006 97.9897 82.5634ZM96.1234 84.3545C96.8443 85.1536 97.5244 85.9886 98.1612 86.8562C96.7846 86.7798 95.4066 86.7681 94.0273 86.8211C94.7142 85.9307 95.4173 85.104 96.1234 84.3545ZM88.8523 95.6211C89.1636 96.2346 89.4891 96.8406 89.8289 97.4391C90.1756 98.0495 90.5367 98.6512 90.9122 99.2445C89.8305 99.118 88.7561 98.9361 87.693 98.6995C88.0101 97.7049 88.399 96.6716 88.8523 95.6211ZM94.286 105.201C93.1336 106.242 91.7995 107.062 90.3503 107.62L90.3502 107.62C89.9678 107.799 89.5528 107.898 89.1307 107.91C88.7087 107.923 88.2886 107.848 87.8964 107.692C86.7983 107.047 86.36 104.586 87.0127 101.297C87.0904 100.908 87.1787 100.522 87.2777 100.138C88.8289 100.484 90.4018 100.725 91.9855 100.859C92.8933 102.167 93.8861 103.415 94.9574 104.593C94.7386 104.801 94.5148 105.004 94.286 105.201ZM96.0065 103.526C95.3046 102.756 94.6052 101.905 93.9229 100.991C94.5923 101.022 95.2743 101.041 95.9689 101.047C96.6819 101.053 97.3858 101.043 98.0807 101.018C97.4326 101.889 96.7403 102.726 96.0064 103.527L96.0065 103.526ZM100.886 96.7735C100.348 97.6896 99.7813 98.5874 99.1852 99.4671C98.1469 99.5327 97.0741 99.5621 95.9813 99.553C94.8929 99.5441 93.8344 99.5015 92.8153 99.427C92.2188 98.5399 91.6564 97.6314 91.1283 96.7013C90.603 95.7767 90.1133 94.8332 89.6594 93.8707C90.1277 92.9163 90.6314 91.9805 91.1704 91.0632L91.1704 91.0636C91.7089 90.1469 92.2817 89.2516 92.8886 88.3777C93.9294 88.3076 94.9963 88.2752 96.0744 88.2841C97.1574 88.293 98.2249 88.3433 99.2643 88.4313C99.8503 89.3129 100.405 90.2145 100.927 91.1359C101.453 92.0592 101.948 92.9988 102.412 93.9548C101.937 94.9123 101.428 95.8518 100.886 96.7736L100.886 96.7735ZM106.845 89.9455C110.072 91.0863 112.033 92.7501 112.022 94.0194C112.011 95.3716 109.864 97.1093 106.393 98.2279L106.393 98.228C106.201 98.2896 106.005 98.3492 105.804 98.4068C105.327 96.8872 104.748 95.4019 104.069 93.9611C104.745 92.5507 105.326 91.0966 105.807 89.6087C106.164 89.7154 106.51 89.8277 106.845 89.9455ZM103.203 95.6858C103.64 96.6941 104.023 97.7244 104.353 98.7724C103.273 99.0057 102.183 99.1823 101.085 99.3017C101.46 98.7187 101.823 98.1283 102.174 97.5307C102.531 96.9236 102.874 96.3086 103.203 95.6858ZM103.9 107.842C102.792 108.471 100.442 107.622 97.9176 105.414C97.6283 105.161 97.3373 104.891 97.0447 104.605C98.1144 103.44 99.1042 102.204 100.007 100.906C101.602 100.785 103.187 100.554 104.75 100.215C104.819 100.503 104.88 100.786 104.933 101.063L104.933 101.063C105.259 102.581 105.303 104.146 105.063 105.68C105.027 106.101 104.905 106.51 104.705 106.882C104.505 107.254 104.231 107.58 103.9 107.842Z" fill="#53C1DE"/>
<path fill-rule="evenodd" clip-rule="evenodd" d="M94.2427 123.476C94.7592 123.137 95.3646 122.959 95.9823 122.964C96.8106 122.971 97.6023 123.307 98.1832 123.897C98.3492 124.066 98.4941 124.252 98.6162 124.45H93.2968C93.5359 124.062 93.8582 123.729 94.2427 123.476ZM90.4268 124.45C90.6444 124.051 90.8684 123.655 91.0989 123.263L91.0989 123.264C91.6374 122.347 92.2102 121.452 92.8171 120.578C93.8579 120.508 94.9247 120.475 96.0028 120.484C97.0859 120.493 98.1534 120.543 99.1928 120.631C99.7787 121.513 100.333 122.414 100.856 123.336C101.066 123.705 101.271 124.076 101.471 124.45H104.762C105.122 123.583 105.447 122.702 105.736 121.809C106.093 121.915 106.439 122.028 106.773 122.145C108.623 122.799 110.057 123.625 110.942 124.45H112.885C111.964 123.007 109.959 121.687 107.271 120.736C106.9 120.606 106.525 120.484 106.148 120.372C106.213 120.118 106.273 119.863 106.328 119.606C107.215 115.476 106.685 112.138 104.791 111.025C102.975 109.958 99.982 111.03 96.9466 113.628C96.6474 113.885 96.3549 114.149 96.0691 114.42C95.8807 114.237 95.689 114.057 95.494 113.88C92.3585 111.049 89.2023 109.842 87.2921 110.926C85.4605 111.967 84.8948 115.096 85.6297 119.023C85.7029 119.412 85.7859 119.799 85.8786 120.183C85.4297 120.307 84.9958 120.439 84.5807 120.58C81.7629 121.536 79.7119 122.921 78.8789 124.45H80.7206C81.5584 123.565 83.0585 122.675 85.061 121.995C85.4598 121.86 85.8621 121.737 86.268 121.626C86.5571 122.581 86.8858 123.523 87.2532 124.45H90.4268ZM94.4925 114.989C91.7852 112.545 89.2059 111.558 88.03 112.226C86.9262 112.852 86.4687 115.383 87.0984 118.748L87.0983 118.748C87.1664 119.11 87.2436 119.47 87.3299 119.827C88.8712 119.498 90.4323 119.269 92.0033 119.141C92.9245 117.855 93.93 116.631 95.0131 115.478C94.839 115.308 94.6654 115.145 94.4925 114.989ZM87.7216 121.271C88.0175 122.253 88.3814 123.271 88.8081 124.307C89.1282 123.699 89.4623 123.099 89.8103 122.506C90.1589 121.913 90.5212 121.329 90.8972 120.753C89.7872 120.882 88.7214 121.056 87.7216 121.271ZM102.155 122.598C102.498 123.201 102.828 123.81 103.146 124.426C103.578 123.445 103.96 122.443 104.29 121.424C103.288 121.186 102.221 120.99 101.106 120.84C101.468 121.419 101.818 122.005 102.155 122.598ZM104.034 112.313C102.94 111.67 100.519 112.537 97.9182 114.763C97.642 115 97.3719 115.244 97.1078 115.495C98.1656 116.665 99.1431 117.906 100.034 119.209C101.606 119.365 103.166 119.624 104.704 119.986C104.763 119.756 104.817 119.525 104.867 119.292C105.633 115.726 105.2 112.998 104.034 112.313ZM98.0896 119.056C97.4529 118.189 96.7728 117.354 96.0519 116.554C95.3458 117.304 94.6426 118.131 93.9558 119.021C95.3351 118.968 96.713 118.98 98.0896 119.056Z" fill="url(#paint3_linear_1876_44)"/>
<defs>
<linearGradient id="paint0_linear_1876_44" x1="96.2842" y1="8.96484" x2="96.348" y2="80.1719" gradientUnits="userSpaceOnUse">
<stop stop-color="#565656"/>
<stop offset="0.743386" stop-color="#565656" stop-opacity="0.110772"/>
<stop offset="0.95694" stop-color="#565656" stop-opacity="0"/>
</linearGradient>
<linearGradient id="paint1_linear_1876_44" x1="22.2618" y1="38.6772" x2="24.1828" y2="56.6071" gradientUnits="userSpaceOnUse">
<stop stop-color="#32DE84"/>
<stop offset="0.410033" stop-color="#30D47E"/>
<stop offset="1" stop-color="#27A362"/>
</linearGradient>
<linearGradient id="paint2_linear_1876_44" x1="171.59" y1="38.6772" x2="174.407" y2="60.065" gradientUnits="userSpaceOnUse">
<stop stop-color="#00A1F1"/>
<stop offset="0.342321" stop-color="#0195DE"/>
<stop offset="1" stop-color="#08567D"/>
</linearGradient>
<linearGradient id="paint3_linear_1876_44" x1="96.0339" y1="94.4094" x2="95.7713" y2="125.125" gradientUnits="userSpaceOnUse">
<stop offset="0.217071" stop-color="#53C1DE"/>
<stop offset="0.547488" stop-color="#53C1DE" stop-opacity="0.126398"/>
<stop offset="1" stop-color="#53C1DE" stop-opacity="0"/>
</linearGradient>
</defs>
</svg>
