<svg width="16" height="16" viewBox="0 0 16 16" fill="none" xmlns="http://www.w3.org/2000/svg">
<path d="M11.6672 5.03325L3.71719 12.9833C3.61719 13.0833 3.50052 13.1333 3.36719 13.1333C3.23385 13.1333 3.11719 13.0833 3.01719 12.9833C2.91719 12.8833 2.86719 12.7666 2.86719 12.6333C2.86719 12.4999 2.91719 12.3833 3.01719 12.2833L10.9672 4.33325H6.56719C6.42552 4.33325 6.30677 4.28506 6.21094 4.18867C6.1151 4.09227 6.06719 3.97282 6.06719 3.83034C6.06719 3.68784 6.1151 3.56936 6.21094 3.47492C6.30677 3.38047 6.42552 3.33325 6.56719 3.33325H12.1672C12.3089 3.33325 12.4276 3.38117 12.5234 3.477C12.6193 3.57284 12.6672 3.69159 12.6672 3.83325V9.43325C12.6672 9.57492 12.619 9.69367 12.5226 9.7895C12.4262 9.88534 12.3068 9.93325 12.1643 9.93325C12.0218 9.93325 11.9033 9.88534 11.8089 9.7895C11.7144 9.69367 11.6672 9.57492 11.6672 9.43325V5.03325Z" fill="#565656"/>
</svg>
