<svg width="14" height="16" viewBox="0 0 14 16" fill="none" xmlns="http://www.w3.org/2000/svg">
<path d="M13.4016 5.552C13.3932 5.47851 13.3771 5.4061 13.3536 5.336V5.264C13.3151 5.18174 13.2638 5.10613 13.2016 5.04L8.40156 0.24C8.33543 0.177773 8.25982 0.126465 8.17756 0.0879999H8.10556C8.02429 0.041393 7.93454 0.0114754 7.84156 0H3.00156C2.36504 0 1.75459 0.252856 1.30451 0.702944C0.854419 1.15303 0.601563 1.76348 0.601562 2.4V13.6C0.601562 14.2365 0.854419 14.847 1.30451 15.2971C1.75459 15.7471 2.36504 16 3.00156 16H11.0016C11.6381 16 12.2485 15.7471 12.6986 15.2971C13.1487 14.847 13.4016 14.2365 13.4016 13.6V5.6C13.4016 5.6 13.4016 5.6 13.4016 5.552ZM8.60156 2.728L10.6736 4.8H9.40156C9.18939 4.8 8.9859 4.71571 8.83587 4.56569C8.68584 4.41566 8.60156 4.21217 8.60156 4V2.728ZM11.8016 13.6C11.8016 13.8122 11.7173 14.0157 11.5672 14.1657C11.4172 14.3157 11.2137 14.4 11.0016 14.4H3.00156C2.78939 14.4 2.58591 14.3157 2.43588 14.1657C2.28585 14.0157 2.20156 13.8122 2.20156 13.6V2.4C2.20156 2.18783 2.28585 1.98434 2.43588 1.83431C2.58591 1.68429 2.78939 1.6 3.00156 1.6H7.00156V4C7.00156 4.63652 7.25442 5.24697 7.7045 5.69706C8.15459 6.14714 8.76504 6.4 9.40156 6.4H11.8016V13.6Z" fill="#565656"/>
</svg>
