<svg width="20" height="20" viewBox="0 0 20 20" fill="none" xmlns="http://www.w3.org/2000/svg">
<path d="M8.49917 15.0573C9.94174 15.0573 11.2887 14.5925 12.3837 13.8178L16.5028 17.8979C16.694 18.0873 16.946 18.182 17.2067 18.182C17.7716 18.182 18.18 17.7516 18.18 17.2007C18.18 16.9425 18.0931 16.7014 17.902 16.5121L13.8089 12.4491C14.6692 11.3301 15.1819 9.94423 15.1819 8.43784C15.1819 4.7967 12.1751 1.81836 8.49917 1.81836C4.81452 1.81836 1.81641 4.7967 1.81641 8.43784C1.81641 12.079 4.81452 15.0573 8.49917 15.0573ZM8.49917 13.6284C5.62271 13.6284 3.25898 11.2785 3.25898 8.43784C3.25898 5.59723 5.62271 3.24727 8.49917 3.24727C11.3669 3.24727 13.7394 5.59723 13.7394 8.43784C13.7394 11.2785 11.3669 13.6284 8.49917 13.6284Z" fill="#565656"/>
</svg>
