<svg width="16" height="16" viewBox="0 0 16 16" fill="none" xmlns="http://www.w3.org/2000/svg">
<path d="M0.75 13.6192C0.5375 13.6192 0.359375 13.5366 0.215625 13.3713C0.071875 13.2061 0 13.0013 0 12.7571C0 12.5128 0.071875 12.3097 0.215625 12.1478C0.359375 11.9859 0.5375 11.9049 0.75 11.9049H8.9C9.1125 11.9049 9.29062 11.9875 9.43437 12.1528C9.57812 12.318 9.65 12.5228 9.65 12.7671C9.65 13.0113 9.57812 13.2144 9.43437 13.3763C9.29062 13.5382 9.1125 13.6192 8.9 13.6192H0.75ZM0.75 8.84777C0.5375 8.84777 0.359375 8.76515 0.215625 8.59991C0.071875 8.43465 0 8.22989 0 7.98563C0 7.74134 0.071875 7.53824 0.215625 7.37634C0.359375 7.21443 0.5375 7.13348 0.75 7.13348H15.25C15.4625 7.13348 15.6406 7.2161 15.7844 7.38134C15.9281 7.5466 16 7.75136 16 7.99563C16 8.23991 15.9281 8.44301 15.7844 8.60491C15.6406 8.76682 15.4625 8.84777 15.25 8.84777H0.75ZM0.75 4.10491C0.5375 4.10491 0.359375 4.02229 0.215625 3.85705C0.071875 3.6918 0 3.48703 0 3.24277C0 2.99848 0.071875 2.79539 0.215625 2.63348C0.359375 2.47158 0.5375 2.39062 0.75 2.39062H15.25C15.4625 2.39062 15.6406 2.47324 15.7844 2.63848C15.9281 2.80374 16 3.0085 16 3.25277C16 3.49705 15.9281 3.70015 15.7844 3.86205C15.6406 4.02396 15.4625 4.10491 15.25 4.10491H0.75Z" fill="#565656"/>
</svg>
