<svg width="23" height="16" viewBox="0 0 23 16" fill="none" xmlns="http://www.w3.org/2000/svg">
<path d="M22.7646 5.6389C22.8158 4.1584 22.492 2.68898 21.8234 1.36707C21.3697 0.824662 20.7401 0.45862 20.0443 0.33273C17.1663 0.0715852 14.2763 -0.0354495 11.3869 0.0120845C8.50794 -0.037607 5.6284 0.0659739 2.76047 0.322387C2.19346 0.425528 1.66874 0.691484 1.25033 1.0878C0.319421 1.9463 0.215987 3.41507 0.112553 4.65628C-0.0375176 6.88794 -0.0375176 9.12715 0.112553 11.3588C0.142477 12.0574 0.246494 12.7509 0.422855 13.4275C0.547571 13.9499 0.799896 14.4332 1.15724 14.8342C1.57849 15.2515 2.11544 15.5326 2.69841 15.641C4.92836 15.9162 7.17526 16.0303 9.42163 15.9823C13.0418 16.034 16.2173 15.9823 19.9719 15.6927C20.5692 15.591 21.1213 15.3095 21.5545 14.8859C21.844 14.5962 22.0603 14.2416 22.1854 13.8516C22.5553 12.7165 22.737 11.5286 22.7233 10.3348C22.7646 9.75558 22.7646 6.25951 22.7646 5.6389ZM9.04926 10.9554V4.55284L15.1726 7.76965C13.4556 8.72124 11.1904 9.79696 9.04926 10.9554Z" fill="#565656"/>
</svg>
