<svg width="833" height="486" viewBox="0 0 833 486" fill="none" xmlns="http://www.w3.org/2000/svg">
<rect x="385" y="84.5" width="112" height="160" rx="6" fill="white"/>
<rect x="399" y="116.5" width="434" height="253" rx="6" fill="#0A74E6" fill-opacity="0.05"/>
<path d="M790.24 84.5H389.753C388.228 84.5012 386.765 85.0051 385.687 85.9011C384.608 86.7972 384.001 88.0122 384 89.2794V314.721C384.001 315.988 384.608 317.203 385.687 318.099C386.765 318.995 388.228 319.499 389.753 319.5H790.24C791.072 319.5 791.894 319.35 792.649 319.061C793.404 318.771 794.075 318.349 794.615 317.823C794.66 317.782 794.702 317.738 794.74 317.691C795.083 317.342 795.362 316.953 795.565 316.535C795.854 315.96 796.002 315.343 796 314.721V89.2794C795.998 88.0113 795.391 86.7956 794.311 85.8994C793.231 85.0033 791.767 84.4999 790.24 84.5ZM794.357 314.721C794.358 315.387 794.121 316.04 793.677 316.595C793.283 317.084 792.748 317.484 792.12 317.757C791.539 318.007 790.894 318.136 790.24 318.135H389.753C388.663 318.134 387.619 317.774 386.848 317.134C386.077 316.494 385.644 315.626 385.643 314.721V89.2794C385.644 88.3741 386.077 87.5062 386.848 86.8661C387.619 86.226 388.663 85.8659 389.753 85.8648H790.24C791.331 85.8646 792.377 86.2242 793.149 86.8644C793.921 87.5046 794.356 88.3732 794.357 89.2794V314.721Z" fill="#565656"/>
<path d="M794.353 107.559H385.642C385.188 107.559 384.82 107.927 384.82 108.381C384.82 108.835 385.188 109.204 385.642 109.204H794.353C794.807 109.204 795.175 108.835 795.175 108.381C795.175 107.927 794.807 107.559 794.353 107.559Z" fill="#565656"/>
<path d="M398.8 101.769C401.525 101.769 403.734 99.5603 403.734 96.8353C403.734 94.1102 401.525 91.9011 398.8 91.9011C396.075 91.9011 393.866 94.1102 393.866 96.8353C393.866 99.5603 396.075 101.769 398.8 101.769Z" fill="#565656"/>
<path d="M412.986 101.769C415.711 101.769 417.92 99.5603 417.92 96.8353C417.92 94.1102 415.711 91.9011 412.986 91.9011C410.261 91.9011 408.051 94.1102 408.051 96.8353C408.051 99.5603 410.261 101.769 412.986 101.769Z" fill="#565656"/>
<path d="M427.171 101.769C429.896 101.769 432.105 99.5603 432.105 96.8353C432.105 94.1102 429.896 91.9011 427.171 91.9011C424.446 91.9011 422.237 94.1102 422.237 96.8353C422.237 99.5603 424.446 101.769 427.171 101.769Z" fill="#565656"/>
<rect x="441" y="148.5" width="132" height="135" rx="6" fill="#0A74E6" fill-opacity="0.3"/>
<path d="M611.442 188.5C610.766 188.613 610.146 189.03 609.697 189.673C609.248 190.317 609 191.144 609 192C609 192.856 609.248 193.683 609.697 194.327C610.146 194.97 610.766 195.387 611.442 195.5H726.558C727.234 195.387 727.854 194.97 728.303 194.327C728.752 193.683 729 192.856 729 192C729 191.144 728.752 190.317 728.303 189.673C727.854 189.03 727.234 188.613 726.558 188.5H611.442Z" fill="#0A74E6" fill-opacity="0.2"/>
<path d="M612.297 253.5C611.384 253.613 610.547 254.03 609.941 254.673C609.334 255.317 609 256.144 609 257C609 257.856 609.334 258.683 609.941 259.327C610.547 259.97 611.384 260.387 612.297 260.5H767.703C768.616 260.387 769.453 259.97 770.059 259.327C770.666 258.683 771 257.856 771 257C771 256.144 770.666 255.317 770.059 254.673C769.453 254.03 768.616 253.613 767.703 253.5H612.297Z" fill="#0A74E6" fill-opacity="0.2"/>
<path d="M612.68 209.5C611.661 209.613 610.727 210.03 610.05 210.673C609.373 211.317 609 212.144 609 213C609 213.856 609.373 214.683 610.05 215.327C610.727 215.97 611.661 216.387 612.68 216.5H687.32C688.339 216.387 689.273 215.97 689.95 215.327C690.627 214.683 691 213.856 691 213C691 212.144 690.627 211.317 689.95 210.673C689.273 210.03 688.339 209.613 687.32 209.5H612.68Z" fill="#0A74E6" fill-opacity="0.2"/>
<path d="M611.442 231.5C610.766 231.613 610.146 232.03 609.697 232.673C609.248 233.317 609 234.144 609 235C609 235.856 609.248 236.683 609.697 237.327C610.146 237.97 610.766 238.387 611.442 238.5H726.558C727.234 238.387 727.854 237.97 728.303 237.327C728.752 236.683 729 235.856 729 235C729 234.144 728.752 233.317 728.303 232.673C727.854 232.03 727.234 231.613 726.558 231.5H611.442Z" fill="#0A74E6" fill-opacity="0.2"/>
<path d="M406.24 0.5H5.75311C4.22768 0.501152 2.76512 1.00506 1.6865 1.90112C0.607879 2.79718 0.00133819 4.01216 0 5.27936V230.721C0.00133819 231.988 0.607879 233.203 1.6865 234.099C2.76512 234.995 4.22768 235.499 5.75311 235.5H406.24C407.072 235.5 407.894 235.35 408.649 235.061C409.404 234.771 410.075 234.349 410.615 233.823C410.66 233.782 410.702 233.738 410.74 233.691C411.083 233.342 411.362 232.953 411.565 232.535C411.854 231.96 412.002 231.343 412 230.721V5.27937C411.998 4.01128 411.391 2.7956 410.311 1.89943C409.231 1.00327 407.767 0.499927 406.24 0.5ZM410.357 230.721C410.358 231.387 410.121 232.04 409.677 232.595C409.283 233.084 408.748 233.484 408.12 233.757C407.539 234.007 406.894 234.136 406.24 234.135H5.75311C4.66336 234.134 3.61861 233.774 2.84804 233.134C2.07747 232.494 1.64399 231.626 1.64267 230.721V5.27937C1.64399 4.3741 2.07747 3.50622 2.84804 2.86609C3.61861 2.22596 4.66336 1.86586 5.75311 1.86476H406.24C407.331 1.86465 408.377 2.22418 409.149 2.86441C409.921 3.50464 410.356 4.37321 410.357 5.27937V230.721Z" fill="#565656"/>
<path d="M411.175 23.5588H0.81987V25.2035H411.175V23.5588Z" fill="#565656"/>
<path d="M14.7999 17.7694C17.5249 17.7694 19.734 15.5603 19.734 12.8353C19.734 10.1102 17.5249 7.90112 14.7999 7.90112C12.0748 7.90112 9.86574 10.1102 9.86574 12.8353C9.86574 15.5603 12.0748 17.7694 14.7999 17.7694Z" fill="#565656"/>
<path d="M28.9856 17.7694C31.7106 17.7694 33.9197 15.5603 33.9197 12.8353C33.9197 10.1102 31.7106 7.90112 28.9856 7.90112C26.2605 7.90112 24.0514 10.1102 24.0514 12.8353C24.0514 15.5603 26.2605 17.7694 28.9856 17.7694Z" fill="#565656"/>
<path d="M43.1712 17.7694C45.8962 17.7694 48.1053 15.5603 48.1053 12.8353C48.1053 10.1102 45.8962 7.90112 43.1712 7.90112C40.4461 7.90112 38.2371 10.1102 38.2371 12.8353C38.2371 15.5603 40.4461 17.7694 43.1712 17.7694Z" fill="#565656"/>
<path d="M83.8955 167.229C87.7037 167.229 90.7909 164.142 90.7909 160.334C90.7909 156.526 87.7037 153.438 83.8955 153.438C80.0872 153.438 77 156.526 77 160.334C77 164.142 80.0872 167.229 83.8955 167.229Z" fill="#0A74E6"/>
<path d="M144.895 149.171C148.704 149.171 151.791 146.084 151.791 142.275C151.791 138.467 148.704 135.38 144.895 135.38C141.087 135.38 138 138.467 138 142.275C138 146.084 141.087 149.171 144.895 149.171Z" fill="#0A74E6"/>
<path d="M205.895 167.229C209.704 167.229 212.791 164.142 212.791 160.334C212.791 156.526 209.704 153.438 205.895 153.438C202.087 153.438 199 156.526 199 160.334C199 164.142 202.087 167.229 205.895 167.229Z" fill="#0A74E6"/>
<path d="M266.895 76.1386C270.704 76.1386 273.791 73.0514 273.791 69.2431C273.791 65.4349 270.704 62.3477 266.895 62.3477C263.087 62.3477 260 65.4349 260 69.2431C260 73.0514 263.087 76.1386 266.895 76.1386Z" fill="#0A74E6"/>
<path d="M327.895 75.2909C331.704 75.2909 334.791 72.2037 334.791 68.3955C334.791 64.5872 331.704 61.5 327.895 61.5C324.087 61.5 321 64.5872 321 68.3955C321 72.2037 324.087 75.2909 327.895 75.2909Z" fill="#0A74E6"/>
<path d="M206.654 161.879L145.598 142.91L85.3788 161.255L84 159.415L145.598 140.038L206.364 158.79L266.746 68.2763L266.99 68.1774L327.899 68.0703L328.758 70.2031L268.09 70.2124L206.654 161.879Z" fill="#0A74E6" fill-opacity="0.1"/>
<path d="M158.198 214.5C157.439 214.5 156.6 214.6 156.305 215.299C156.109 215.763 156 216.37 156 217C156 217.63 156.109 218.237 156.305 218.701C156.6 219.4 157.439 219.5 158.198 219.5H205.802C206.561 219.5 207.4 219.4 207.695 218.701C207.891 218.237 208 217.63 208 217C208 216.37 207.891 215.763 207.695 215.299C207.4 214.6 206.561 214.5 205.802 214.5H158.198Z" fill="#575A89" fill-opacity="0.2"/>
<path d="M113.711 214.5C113.518 214.551 113.337 214.836 113.205 215.299C113.073 215.763 113 216.37 113 217C113 217.63 113.073 218.237 113.205 218.701C113.337 219.164 113.518 219.449 113.711 219.5H147.289C147.482 219.449 147.663 219.164 147.795 218.701C147.927 218.237 148 217.63 148 217C148 216.37 147.927 215.763 147.795 215.299C147.663 214.836 147.482 214.551 147.289 214.5H113.711Z" fill="#575A89" fill-opacity="0.2"/>
<path d="M217.707 214.5C217.242 214.551 216.808 214.836 216.492 215.299C216.176 215.763 216 216.37 216 217C216 217.63 216.176 218.237 216.492 218.701C216.808 219.164 217.242 219.449 217.707 219.5H298.293C298.758 219.449 299.192 219.164 299.508 218.701C299.824 218.237 300 217.63 300 217C300 216.37 299.824 215.763 299.508 215.299C299.192 214.836 298.758 214.551 298.293 214.5H217.707Z" fill="#575A89" fill-opacity="0.2"/>
<rect x="234.023" y="407.058" width="238.704" height="53.4049" rx="4.04583" fill="#0A74E6" fill-opacity="0.05"/>
<rect x="180" y="270" width="377" height="214" rx="6" fill="white"/>
<path d="M552.395 269.5H184.288C182.886 269.501 181.542 269.964 180.55 270.788C179.559 271.611 179.001 272.728 179 273.893V481.107C179.001 482.272 179.559 483.389 180.55 484.212C181.542 485.036 182.886 485.499 184.288 485.5H552.395C553.16 485.5 553.915 485.362 554.609 485.096C555.304 484.83 555.92 484.442 556.416 483.959C556.458 483.921 556.497 483.88 556.531 483.838C556.847 483.517 557.103 483.159 557.289 482.775C557.556 482.247 557.692 481.68 557.689 481.107V273.893C557.688 272.727 557.129 271.61 556.137 270.786C555.144 269.963 553.798 269.5 552.395 269.5ZM556.18 481.107C556.18 481.72 555.963 482.319 555.555 482.83C555.192 483.28 554.7 483.647 554.124 483.898C553.589 484.127 552.997 484.247 552.395 484.246H184.288C183.286 484.245 182.326 483.914 181.618 483.325C180.91 482.737 180.511 481.939 180.51 481.107V273.893C180.511 273.061 180.91 272.263 181.618 271.675C182.326 271.086 183.286 270.755 184.288 270.754H552.395C553.398 270.754 554.36 271.085 555.069 271.673C555.779 272.262 556.178 273.06 556.18 273.893V481.107Z" fill="#565656"/>
<path d="M556.931 290.694H179.754V292.206H556.931V290.694Z" fill="#565656"/>
<path d="M192.603 285.373C195.108 285.373 197.138 283.343 197.138 280.838C197.138 278.333 195.108 276.303 192.603 276.303C190.099 276.303 188.068 278.333 188.068 280.838C188.068 283.343 190.099 285.373 192.603 285.373Z" fill="#565656"/>
<path d="M205.642 285.373C208.147 285.373 210.177 283.343 210.177 280.838C210.177 278.333 208.147 276.303 205.642 276.303C203.137 276.303 201.107 278.333 201.107 280.838C201.107 283.343 203.137 285.373 205.642 285.373Z" fill="#565656"/>
<path d="M218.681 285.373C221.185 285.373 223.216 283.343 223.216 280.838C223.216 278.333 221.185 276.303 218.681 276.303C216.176 276.303 214.146 278.333 214.146 280.838C214.146 283.343 216.176 285.373 218.681 285.373Z" fill="#565656"/>
<path d="M273.066 324.042C272.437 323.413 271.418 323.409 270.785 324.035L254.166 340.446C253.524 341.079 253.524 342.115 254.166 342.749L270.784 359.159C271.417 359.784 272.437 359.781 273.066 359.152L275.043 357.174C275.675 356.542 275.675 355.518 275.043 354.886L263.019 342.859C262.387 342.227 262.387 341.203 263.019 340.571L275.163 328.426C275.795 327.794 275.795 326.77 275.163 326.138L273.066 324.042Z" fill="#0A74E6"/>
<path d="M294.241 324.042C294.871 323.413 295.89 323.409 296.523 324.035L313.141 340.446C313.782 341.079 313.782 342.115 313.141 342.749L296.523 359.159C295.89 359.784 294.871 359.781 294.241 359.152L292.264 357.174C291.632 356.542 291.632 355.518 292.264 354.886L304.29 342.86C304.922 342.228 304.922 341.203 304.29 340.571L292.145 328.426C291.512 327.794 291.513 326.77 292.145 326.138L294.241 324.042Z" fill="#0A74E6"/>
<path d="M348.803 327.596C347.255 327.596 346 328.486 346 329.584C346 330.682 347.255 331.573 348.803 331.573H480.948C482.496 331.573 483.751 330.682 483.751 329.584C483.751 328.486 482.496 327.596 480.948 327.596H348.803Z" fill="#E6E6E6"/>
<path d="M480.417 446.252H258.117C255.844 446.252 254.002 444.94 254 443.323V404.088C254.002 402.471 255.844 401.159 258.117 401.159H480.417C482.689 401.159 484.531 402.471 484.533 404.088V443.323C484.531 444.939 482.689 446.25 480.417 446.252ZM258.117 402.33C256.753 402.33 255.648 403.117 255.647 404.087V443.322C255.647 444.292 256.753 445.078 258.117 445.079H480.417C481.78 445.079 482.885 444.292 482.887 443.322V404.088C482.887 403.118 481.78 402.332 480.417 402.331L258.117 402.33Z" fill="black"/>
<path d="M280.946 433.634C286.438 433.634 290.891 429.181 290.891 423.688C290.891 418.195 286.438 413.743 280.946 413.743C275.453 413.743 271 418.195 271 423.688C271 429.181 275.453 433.634 280.946 433.634Z" fill="#575A89" fill-opacity="0.5"/>
<path d="M308.991 415.735C308.464 415.735 307.958 415.944 307.584 416.316C307.211 416.688 307.001 417.194 307 417.721C306.999 418.249 307.208 418.755 307.581 419.128C307.953 419.502 308.459 419.712 308.986 419.712H402.739C403.266 419.712 403.772 419.503 404.145 419.13C404.518 418.757 404.727 418.251 404.727 417.724C404.727 417.196 404.518 416.691 404.145 416.318C403.772 415.945 403.266 415.735 402.739 415.735H308.991Z" fill="#575A89" fill-opacity="0.3"/>
<path d="M308.991 427.666C308.73 427.666 308.471 427.717 308.23 427.816C307.989 427.916 307.769 428.062 307.584 428.247C307.211 428.619 307.001 429.125 307 429.652C306.999 430.179 307.208 430.685 307.581 431.059C307.953 431.432 308.459 431.642 308.986 431.643H349.33C349.858 431.644 350.364 431.435 350.737 431.062C351.111 430.69 351.321 430.185 351.321 429.657C351.322 429.13 351.113 428.624 350.741 428.25C350.368 427.877 349.863 427.667 349.335 427.666H308.991Z" fill="#575A89" fill-opacity="0.3"/>
<path d="M347.835 339.509C347.335 339.549 346.869 339.776 346.529 340.145C346.189 340.513 346 340.996 346 341.497C346 341.999 346.189 342.482 346.529 342.85C346.869 343.219 347.335 343.446 347.835 343.486H434.439C434.939 343.446 435.405 343.219 435.745 342.85C436.085 342.482 436.274 341.999 436.274 341.497C436.274 340.996 436.085 340.513 435.745 340.145C435.405 339.776 434.939 339.549 434.439 339.509H347.835Z" fill="#E6E6E6"/>
<path d="M348.408 351.422C347.078 351.422 346 352.313 346 353.411C346 354.509 347.078 355.399 348.408 355.399H461.931C463.261 355.399 464.339 354.509 464.339 353.411C464.339 352.313 463.261 351.422 461.931 351.422H348.408Z" fill="#E6E6E6"/>
</svg>
