<svg width="888" height="513" viewBox="0 0 888 513" fill="none" xmlns="http://www.w3.org/2000/svg">
<rect x="344" y="60.1392" width="199" height="385" rx="18" stroke="black" stroke-width="2"/>
<rect x="358" y="76.1392" width="171" height="355" rx="15" fill="#0A74E6" fill-opacity="0.1"/>
<path d="M412.461 311.292H398.539C397.924 311.291 397.334 311.046 396.899 310.611C396.464 310.177 396.22 309.587 396.219 308.972V299.028C396.22 298.413 396.464 297.823 396.899 297.388C397.334 296.953 397.924 296.708 398.539 296.708H412.461C413.076 296.708 413.666 296.953 414.101 297.388C414.536 297.823 414.78 298.413 414.781 299.028V308.972C414.78 309.587 414.536 310.177 414.101 310.611C413.666 311.046 413.076 311.291 412.461 311.292ZM398.539 298.033C398.276 298.034 398.023 298.139 397.836 298.325C397.65 298.511 397.545 298.764 397.545 299.028V308.972C397.545 309.235 397.65 309.488 397.836 309.674C398.023 309.861 398.276 309.966 398.539 309.966H412.461C412.724 309.966 412.977 309.861 413.164 309.674C413.35 309.488 413.455 309.235 413.455 308.972V299.028C413.455 298.764 413.35 298.511 413.164 298.325C412.977 298.139 412.724 298.034 412.461 298.033L398.539 298.033Z" fill="#565656" fill-opacity="0.1"/>
<path d="M405.5 305.326C405.353 305.326 405.209 305.277 405.093 305.186L399.127 300.545C399.058 300.492 399 300.426 398.957 300.35C398.914 300.274 398.887 300.191 398.876 300.104C398.865 300.018 398.871 299.93 398.895 299.846C398.918 299.762 398.957 299.684 399.01 299.615C399.064 299.546 399.13 299.489 399.206 299.446C399.282 299.403 399.365 299.375 399.452 299.364C399.538 299.354 399.626 299.36 399.71 299.383C399.793 299.406 399.872 299.445 399.941 299.499L405.5 303.823L411.059 299.499C411.128 299.445 411.207 299.406 411.291 299.383C411.375 299.36 411.462 299.354 411.549 299.364C411.635 299.375 411.718 299.403 411.794 299.446C411.87 299.489 411.936 299.546 411.99 299.615C412.043 299.684 412.082 299.762 412.106 299.846C412.129 299.93 412.135 300.018 412.124 300.104C412.113 300.191 412.086 300.274 412.043 300.35C412 300.426 411.942 300.492 411.873 300.545L405.907 305.186C405.791 305.277 405.647 305.326 405.5 305.326Z" fill="#565656" fill-opacity="0.1"/>
<path d="M405.5 320.5C402.237 320.5 399.046 319.532 396.333 317.719C393.62 315.906 391.505 313.329 390.256 310.314C389.007 307.299 388.68 303.982 389.317 300.781C389.954 297.58 391.525 294.64 393.833 292.333C396.14 290.025 399.08 288.454 402.281 287.817C405.482 287.18 408.799 287.507 411.814 288.756C414.829 290.005 417.406 292.12 419.219 294.833C421.032 297.546 422 300.737 422 304C421.995 308.375 420.255 312.569 417.162 315.662C414.069 318.755 409.875 320.495 405.5 320.5ZM405.5 288.233C402.382 288.233 399.333 289.158 396.741 290.891C394.148 292.623 392.127 295.085 390.934 297.966C389.74 300.847 389.428 304.018 390.036 307.076C390.645 310.134 392.146 312.944 394.351 315.149C396.556 317.354 399.366 318.855 402.424 319.464C405.483 320.072 408.653 319.76 411.534 318.566C414.415 317.373 416.877 315.352 418.61 312.759C420.342 310.167 421.267 307.118 421.267 304C421.262 299.82 419.599 295.812 416.644 292.857C413.688 289.901 409.68 288.238 405.5 288.233Z" fill="#565656" fill-opacity="0.1"/>
<path d="M864.929 196.714C864.802 196.714 864.677 196.677 864.572 196.606C864.466 196.535 864.384 196.435 864.335 196.318C864.286 196.2 864.274 196.071 864.298 195.946C864.323 195.822 864.384 195.707 864.474 195.617L868.653 191.439C868.774 191.32 868.937 191.253 869.106 191.254C869.276 191.254 869.439 191.322 869.559 191.442C869.679 191.562 869.746 191.724 869.747 191.894C869.747 192.064 869.681 192.227 869.562 192.348L865.383 196.526C865.324 196.586 865.253 196.633 865.175 196.666C865.097 196.698 865.013 196.715 864.929 196.714ZM875.536 195.107C875.409 195.107 875.284 195.07 875.179 194.999C875.073 194.928 874.99 194.828 874.942 194.711C874.893 194.593 874.88 194.464 874.905 194.339C874.93 194.214 874.991 194.1 875.081 194.01L878.617 190.474C878.738 190.355 878.901 190.289 879.07 190.289C879.24 190.29 879.402 190.358 879.522 190.478C879.642 190.598 879.71 190.76 879.711 190.93C879.711 191.1 879.645 191.263 879.526 191.383L875.99 194.919C875.931 194.979 875.86 195.026 875.782 195.059C875.704 195.091 875.62 195.108 875.536 195.107ZM873.607 195.107C873.523 195.108 873.439 195.091 873.361 195.059C873.283 195.026 873.212 194.979 873.153 194.919L870.581 192.348C870.521 192.288 870.473 192.217 870.44 192.139C870.407 192.061 870.39 191.977 870.39 191.892C870.389 191.807 870.406 191.723 870.438 191.645C870.471 191.567 870.518 191.495 870.578 191.435C870.638 191.375 870.709 191.328 870.788 191.296C870.866 191.263 870.95 191.247 871.035 191.247C871.12 191.247 871.204 191.265 871.282 191.297C871.36 191.33 871.431 191.378 871.49 191.439L874.062 194.01C874.152 194.1 874.213 194.214 874.238 194.339C874.262 194.464 874.25 194.593 874.201 194.711C874.152 194.828 874.07 194.928 873.964 194.999C873.859 195.07 873.734 195.107 873.607 195.107Z" fill="#575A89" fill-opacity="0.3"/>
<path d="M880.036 191.571C879.718 191.571 879.407 191.477 879.143 191.301C878.878 191.124 878.672 190.873 878.551 190.579C878.429 190.286 878.397 189.962 878.459 189.651C878.521 189.339 878.674 189.053 878.899 188.828C879.124 188.603 879.41 188.45 879.722 188.388C880.034 188.326 880.357 188.358 880.651 188.48C880.944 188.601 881.195 188.807 881.372 189.071C881.548 189.336 881.643 189.646 881.643 189.964C881.642 190.39 881.473 190.799 881.171 191.1C880.87 191.401 880.462 191.571 880.036 191.571ZM880.036 189.643C879.972 189.643 879.91 189.662 879.857 189.697C879.804 189.732 879.763 189.783 879.739 189.841C879.714 189.9 879.708 189.965 879.72 190.027C879.733 190.089 879.763 190.147 879.808 190.192C879.853 190.237 879.91 190.267 879.973 190.28C880.035 190.292 880.1 190.286 880.159 190.261C880.217 190.237 880.267 190.196 880.303 190.143C880.338 190.09 880.357 190.028 880.357 189.964C880.357 189.879 880.323 189.797 880.263 189.737C880.202 189.677 880.121 189.643 880.036 189.643Z" fill="#575A89" fill-opacity="0.3"/>
<path d="M874.571 197.035C874.254 197.035 873.943 196.941 873.679 196.765C873.414 196.588 873.208 196.337 873.087 196.043C872.965 195.75 872.933 195.427 872.995 195.115C873.057 194.803 873.21 194.517 873.435 194.292C873.66 194.067 873.946 193.914 874.258 193.852C874.57 193.79 874.893 193.822 875.186 193.944C875.48 194.065 875.731 194.271 875.908 194.536C876.084 194.8 876.178 195.111 876.178 195.428C876.178 195.854 876.009 196.263 875.707 196.564C875.406 196.866 874.997 197.035 874.571 197.035ZM874.571 195.107C874.508 195.107 874.446 195.126 874.393 195.161C874.34 195.196 874.299 195.247 874.274 195.305C874.25 195.364 874.244 195.429 874.256 195.491C874.269 195.553 874.299 195.611 874.344 195.656C874.389 195.701 874.446 195.731 874.509 195.744C874.571 195.756 874.636 195.75 874.694 195.725C874.753 195.701 874.803 195.66 874.839 195.607C874.874 195.554 874.893 195.492 874.893 195.428C874.893 195.343 874.859 195.261 874.799 195.201C874.738 195.141 874.657 195.107 874.571 195.107Z" fill="#575A89" fill-opacity="0.3"/>
<path d="M870.072 192.536C869.754 192.536 869.443 192.441 869.179 192.265C868.914 192.088 868.708 191.837 868.587 191.544C868.465 191.25 868.433 190.927 868.495 190.615C868.557 190.303 868.71 190.017 868.935 189.792C869.16 189.567 869.446 189.414 869.758 189.352C870.07 189.29 870.393 189.322 870.687 189.444C870.98 189.566 871.231 189.771 871.408 190.036C871.584 190.3 871.679 190.611 871.679 190.929C871.678 191.355 871.509 191.763 871.207 192.064C870.906 192.366 870.498 192.535 870.072 192.536ZM870.072 190.607C870.008 190.607 869.946 190.626 869.893 190.661C869.84 190.697 869.799 190.747 869.775 190.806C869.75 190.864 869.744 190.929 869.756 190.991C869.769 191.054 869.799 191.111 869.844 191.156C869.889 191.201 869.947 191.231 870.009 191.244C870.071 191.256 870.136 191.25 870.195 191.226C870.253 191.201 870.304 191.16 870.339 191.107C870.374 191.054 870.393 190.992 870.393 190.929C870.393 190.843 870.359 190.762 870.299 190.701C870.238 190.641 870.157 190.607 870.072 190.607Z" fill="#575A89" fill-opacity="0.3"/>
<path d="M863.965 198.643C863.647 198.643 863.336 198.548 863.072 198.372C862.807 198.195 862.601 197.944 862.48 197.651C862.358 197.357 862.326 197.034 862.388 196.722C862.45 196.41 862.603 196.124 862.828 195.899C863.053 195.674 863.339 195.521 863.651 195.459C863.963 195.397 864.286 195.429 864.58 195.551C864.873 195.672 865.124 195.878 865.301 196.143C865.477 196.407 865.572 196.718 865.572 197.036C865.571 197.462 865.402 197.87 865.1 198.171C864.799 198.473 864.391 198.642 863.965 198.643ZM863.965 196.714C863.901 196.714 863.839 196.733 863.786 196.768C863.733 196.804 863.692 196.854 863.668 196.913C863.643 196.971 863.637 197.036 863.649 197.098C863.662 197.161 863.692 197.218 863.737 197.263C863.782 197.308 863.84 197.338 863.902 197.351C863.964 197.363 864.029 197.357 864.088 197.333C864.146 197.308 864.197 197.267 864.232 197.214C864.267 197.161 864.286 197.099 864.286 197.036C864.286 196.95 864.252 196.869 864.192 196.808C864.131 196.748 864.05 196.714 863.965 196.714Z" fill="#575A89" fill-opacity="0.3"/>
<path d="M872 209.5C868.836 209.5 865.742 208.562 863.111 206.804C860.48 205.045 858.429 202.547 857.218 199.623C856.007 196.699 855.69 193.482 856.307 190.379C856.925 187.275 858.449 184.424 860.686 182.186C862.924 179.949 865.775 178.425 868.879 177.807C871.982 177.19 875.199 177.507 878.123 178.718C881.047 179.929 883.545 181.98 885.304 184.611C887.062 187.242 888 190.336 888 193.5C887.995 197.742 886.308 201.809 883.308 204.808C880.309 207.808 876.242 209.495 872 209.5ZM872 178.211C868.976 178.211 866.02 179.108 863.506 180.788C860.992 182.468 859.032 184.856 857.875 187.649C856.718 190.443 856.415 193.517 857.005 196.483C857.595 199.448 859.051 202.173 861.189 204.311C863.327 206.449 866.052 207.905 869.017 208.495C871.983 209.085 875.057 208.782 877.851 207.625C880.644 206.468 883.032 204.508 884.712 201.994C886.392 199.48 887.289 196.524 887.289 193.5C887.284 189.447 885.672 185.56 882.806 182.694C879.94 179.828 876.053 178.216 872 178.211Z" fill="#575A89" fill-opacity="0.3"/>
<g opacity="0.5">
<path d="M473.414 209.147C472.73 209.153 472.052 209.015 471.425 208.742C470.797 208.469 470.234 208.067 469.772 207.562C469.224 206.928 468.813 206.187 468.565 205.387C468.317 204.586 468.237 203.743 468.331 202.91C468.461 201.324 469.126 199.829 470.217 198.67C470.74 198.104 471.374 197.651 472.079 197.338C472.784 197.026 473.546 196.861 474.317 196.853C475.034 196.85 475.744 196.998 476.4 197.287C477.056 197.576 477.644 198 478.126 198.532C478.672 199.149 479.084 199.873 479.337 200.657C479.589 201.442 479.677 202.27 479.593 203.09C479.491 204.773 478.765 206.357 477.557 207.533C476.433 208.58 474.951 209.157 473.414 209.147ZM474.317 198.902C472.312 198.902 470.579 200.742 470.372 203.09C470.304 203.64 470.349 204.198 470.506 204.729C470.663 205.26 470.928 205.753 471.283 206.178C471.553 206.474 471.882 206.709 472.25 206.868C472.617 207.027 473.014 207.105 473.414 207.098C475.29 207.098 477.296 205.803 477.552 202.91C477.611 202.373 477.558 201.83 477.397 201.315C477.235 200.799 476.969 200.323 476.615 199.916C476.324 199.595 475.97 199.339 475.574 199.164C475.178 198.99 474.75 198.9 474.317 198.902Z" fill="#3F3D56"/>
<path d="M473.481 215.294C471.896 215.32 470.324 215.009 468.868 214.381C467.413 213.752 466.108 212.822 465.039 211.651C463.971 210.48 463.164 209.095 462.672 207.588C462.179 206.081 462.013 204.487 462.184 202.911C462.52 199.603 464.057 196.533 466.506 194.284C468.954 192.034 472.143 190.761 475.467 190.706C479.156 190.706 482.191 191.891 484.244 194.133C486.191 196.259 487.103 199.252 486.811 202.561C486.535 205.695 485.205 207.327 484.139 208.144C483.667 208.529 483.123 208.813 482.539 208.98C481.955 209.148 481.343 209.195 480.74 209.119C479.053 208.82 477.188 207.288 477.481 203.954L478.024 197.791C478.049 197.521 478.18 197.273 478.388 197.099C478.596 196.926 478.864 196.842 479.134 196.865C479.404 196.889 479.653 197.019 479.828 197.226C480.002 197.433 480.088 197.701 480.065 197.971L479.522 204.134C479.376 205.791 479.965 206.901 481.097 207.101C481.749 207.152 482.395 206.942 482.892 206.518C483.633 205.951 484.559 204.773 484.77 202.381C485.014 199.612 484.31 197.239 482.733 195.517C481.078 193.71 478.566 192.755 475.467 192.755C472.655 192.808 469.959 193.889 467.888 195.792C465.817 197.696 464.514 200.292 464.225 203.09C464.079 204.382 464.211 205.692 464.612 206.929C465.013 208.167 465.674 209.305 466.55 210.266C467.426 211.228 468.498 211.991 469.694 212.505C470.889 213.019 472.18 213.271 473.481 213.245C475.086 213.332 476.688 213.042 478.161 212.397C478.411 212.293 478.692 212.292 478.943 212.395C479.193 212.498 479.393 212.696 479.498 212.946C479.603 213.196 479.605 213.477 479.503 213.728C479.401 213.98 479.204 214.18 478.954 214.286C477.231 215.036 475.359 215.381 473.481 215.294Z" fill="#3F3D56"/>
<path d="M474.5 228.5C469.457 228.5 464.526 227.004 460.333 224.202C456.14 221.401 452.871 217.418 450.941 212.758C449.011 208.099 448.506 202.972 449.49 198.025C450.474 193.079 452.903 188.535 456.469 184.969C460.035 181.403 464.579 178.974 469.525 177.99C474.472 177.006 479.599 177.511 484.258 179.441C488.918 181.371 492.9 184.64 495.702 188.833C498.504 193.026 500 197.957 500 203C499.992 209.761 497.303 216.242 492.523 221.023C487.742 225.803 481.261 228.492 474.5 228.5ZM474.5 178.633C469.681 178.633 464.97 180.062 460.963 182.74C456.956 185.417 453.832 189.223 451.988 193.675C450.144 198.128 449.661 203.027 450.602 207.754C451.542 212.48 453.862 216.822 457.27 220.23C460.678 223.638 465.02 225.958 469.746 226.898C474.473 227.839 479.372 227.356 483.825 225.512C488.277 223.668 492.083 220.544 494.76 216.537C497.438 212.53 498.867 207.819 498.867 203C498.859 196.54 496.29 190.346 491.722 185.778C487.154 181.21 480.96 178.641 474.5 178.633Z" fill="#565656"/>
</g>
<path d="M14 199.5C11.2311 199.5 8.5243 198.679 6.22202 197.141C3.91973 195.602 2.12531 193.416 1.06569 190.858C0.0060594 188.299 -0.271178 185.484 0.269015 182.769C0.809208 180.053 2.14258 177.558 4.10052 175.601C6.05846 173.643 8.55301 172.309 11.2687 171.769C13.9845 171.229 16.7994 171.506 19.3576 172.566C21.9157 173.625 24.1022 175.42 25.6406 177.722C27.1789 180.024 28 182.731 28 185.5C27.9958 189.212 26.5195 192.77 23.8949 195.395C21.2703 198.019 17.7117 199.496 14 199.5ZM14 172.122C11.3541 172.122 8.76767 172.907 6.56771 174.377C4.36774 175.847 2.65308 177.936 1.64055 180.381C0.628018 182.825 0.36309 185.515 0.879274 188.11C1.39546 190.705 2.66957 193.089 4.54049 194.96C6.4114 196.83 8.7951 198.105 11.3901 198.621C13.9852 199.137 16.675 198.872 19.1195 197.859C21.5639 196.847 23.6533 195.132 25.1232 192.932C26.5932 190.732 27.3778 188.146 27.3778 185.5C27.3738 181.953 25.9631 178.553 23.4551 176.045C20.9472 173.537 17.5468 172.126 14 172.122Z" fill="#CCCCCC"/>
<path d="M9.48746 193.725C9.3468 193.724 9.20851 193.689 9.08514 193.621C8.96177 193.553 8.85721 193.456 8.78091 193.338C8.7046 193.22 8.65896 193.085 8.64814 192.944C8.63731 192.804 8.66164 192.663 8.71891 192.535L9.69234 190.363C8.35095 189.172 7.49659 187.527 7.2931 185.744C7.08962 183.962 7.55132 182.167 8.58969 180.704C9.62806 179.241 11.17 178.212 12.9198 177.816C14.6696 177.42 16.5041 177.683 18.0715 178.556C19.6389 179.429 20.8289 180.85 21.4133 182.547C21.9976 184.243 21.9352 186.095 21.238 187.748C20.5408 189.401 19.2579 190.739 17.6353 191.504C16.0127 192.27 14.1646 192.409 12.4454 191.896L9.96104 193.578C9.82145 193.673 9.65646 193.725 9.48746 193.725ZM14.5106 178.709C13.2165 178.708 11.9541 179.11 10.8986 179.858C9.84307 180.607 9.04664 181.666 8.61971 182.888C8.19278 184.109 8.1565 185.434 8.5159 186.677C8.8753 187.92 9.61256 189.021 10.6255 189.826L10.9322 190.071L9.8848 192.408L12.2884 190.781L12.5257 190.86C13.3831 191.148 14.2928 191.247 15.1919 191.148C16.0909 191.05 16.9578 190.757 17.7325 190.29C18.5071 189.823 19.171 189.193 19.678 188.444C20.1851 187.695 20.5233 186.845 20.6691 185.952C20.8149 185.06 20.7648 184.146 20.5224 183.275C20.28 182.404 19.851 181.595 19.2652 180.906C18.6794 180.217 17.9507 179.664 17.1298 179.284C16.3088 178.905 15.4151 178.708 14.5106 178.709Z" fill="#BBBBBB"/>
<path d="M14.5106 185.623C15.0695 185.623 15.5225 185.17 15.5225 184.612C15.5225 184.053 15.0695 183.6 14.5106 183.6C13.9518 183.6 13.4987 184.053 13.4987 184.612C13.4987 185.17 13.9518 185.623 14.5106 185.623Z" fill="#BBBBBB"/>
<path d="M11.6436 185.623C12.2025 185.623 12.6555 185.17 12.6555 184.612C12.6555 184.053 12.2025 183.6 11.6436 183.6C11.0848 183.6 10.6317 184.053 10.6317 184.612C10.6317 185.17 11.0848 185.623 11.6436 185.623Z" fill="#BBBBBB"/>
<path d="M17.3776 185.623C17.9365 185.623 18.3895 185.17 18.3895 184.612C18.3895 184.053 17.9365 183.6 17.3776 183.6C16.8188 183.6 16.3657 184.053 16.3657 184.612C16.3657 185.17 16.8188 185.623 17.3776 185.623Z" fill="#BBBBBB"/>
<circle cx="200.8" cy="261.3" r="32.4" stroke="#565656" stroke-width="0.8"/>
<circle cx="210.4" cy="263.7" r="32.8" fill="#0A74E6" fill-opacity="0.1"/>
<path d="M196.96 255.196H199.84C200.095 255.196 200.339 255.089 200.519 254.898C200.699 254.707 200.8 254.448 200.8 254.177C200.8 253.907 200.699 253.648 200.519 253.456C200.339 253.265 200.095 253.158 199.84 253.158H196.96C196.705 253.158 196.461 253.265 196.281 253.456C196.101 253.648 196 253.907 196 254.177C196 254.448 196.101 254.707 196.281 254.898C196.461 255.089 196.705 255.196 196.96 255.196ZM204.64 255.196C204.83 255.196 205.015 255.137 205.173 255.025C205.331 254.913 205.454 254.753 205.527 254.567C205.6 254.381 205.619 254.176 205.582 253.978C205.544 253.781 205.453 253.599 205.319 253.456C205.185 253.314 205.013 253.217 204.827 253.177C204.641 253.138 204.448 253.158 204.273 253.235C204.097 253.313 203.947 253.443 203.842 253.611C203.736 253.779 203.68 253.976 203.68 254.177C203.68 254.448 203.781 254.707 203.961 254.898C204.141 255.089 204.385 255.196 204.64 255.196ZM204.64 259.274C204.45 259.274 204.264 259.333 204.107 259.445C203.949 259.557 203.826 259.717 203.753 259.903C203.68 260.089 203.661 260.294 203.698 260.492C203.735 260.689 203.827 260.871 203.961 261.014C204.095 261.156 204.266 261.253 204.453 261.293C204.639 261.332 204.832 261.312 205.007 261.234C205.183 261.157 205.333 261.027 205.438 260.859C205.544 260.691 205.6 260.494 205.6 260.293C205.6 260.022 205.499 259.763 205.319 259.572C205.139 259.381 204.895 259.274 204.64 259.274ZM209.44 268.447H203.507C203.364 268.02 203.133 267.631 202.83 267.31C202.528 266.99 202.163 266.744 201.76 266.592V264.37H205.6C206.364 264.37 207.096 264.048 207.636 263.474C208.177 262.901 208.48 262.123 208.48 261.312V259.274C208.476 258.519 208.209 257.793 207.731 257.235C208.209 256.677 208.476 255.951 208.48 255.196V253.158C208.48 252.347 208.177 251.569 207.636 250.996C207.096 250.422 206.364 250.1 205.6 250.1H196C195.236 250.1 194.504 250.422 193.963 250.996C193.423 251.569 193.12 252.347 193.12 253.158V255.196C193.124 255.951 193.391 256.677 193.869 257.235C193.391 257.793 193.124 258.519 193.12 259.274V261.312C193.12 262.123 193.423 262.901 193.963 263.474C194.504 264.048 195.236 264.37 196 264.37H199.84V266.592C199.437 266.744 199.072 266.99 198.769 267.31C198.467 267.631 198.236 268.02 198.093 268.447H192.16C191.905 268.447 191.661 268.554 191.481 268.746C191.301 268.937 191.2 269.196 191.2 269.466C191.2 269.737 191.301 269.996 191.481 270.187C191.661 270.378 191.905 270.486 192.16 270.486H198.093C198.295 271.076 198.663 271.586 199.147 271.946C199.631 272.307 200.208 272.5 200.8 272.5C201.391 272.5 201.969 272.307 202.453 271.946C202.937 271.586 203.305 271.076 203.507 270.486H209.44C209.695 270.486 209.939 270.378 210.119 270.187C210.299 269.996 210.4 269.737 210.4 269.466C210.4 269.196 210.299 268.937 210.119 268.746C209.939 268.554 209.695 268.447 209.44 268.447ZM195.04 253.158C195.04 252.888 195.141 252.628 195.321 252.437C195.501 252.246 195.745 252.139 196 252.139H205.6C205.855 252.139 206.099 252.246 206.279 252.437C206.459 252.628 206.56 252.888 206.56 253.158V255.196C206.56 255.467 206.459 255.726 206.279 255.917C206.099 256.108 205.855 256.216 205.6 256.216H196C195.745 256.216 195.501 256.108 195.321 255.917C195.141 255.726 195.04 255.467 195.04 255.196V253.158ZM196 262.331C195.745 262.331 195.501 262.224 195.321 262.033C195.141 261.842 195.04 261.582 195.04 261.312V259.274C195.04 259.003 195.141 258.744 195.321 258.553C195.501 258.362 195.745 258.254 196 258.254H205.6C205.855 258.254 206.099 258.362 206.279 258.553C206.459 258.744 206.56 259.003 206.56 259.274V261.312C206.56 261.582 206.459 261.842 206.279 262.033C206.099 262.224 205.855 262.331 205.6 262.331H196ZM200.8 270.486C200.61 270.486 200.424 270.426 200.267 270.314C200.109 270.202 199.986 270.043 199.913 269.856C199.84 269.67 199.821 269.465 199.858 269.267C199.895 269.07 199.987 268.888 200.121 268.746C200.255 268.603 200.426 268.506 200.613 268.467C200.799 268.427 200.992 268.447 201.167 268.525C201.343 268.602 201.493 268.732 201.598 268.9C201.704 269.068 201.76 269.265 201.76 269.466C201.76 269.737 201.659 269.996 201.479 270.187C201.299 270.378 201.055 270.486 200.8 270.486ZM199.84 259.274H196.96C196.705 259.274 196.461 259.381 196.281 259.572C196.101 259.763 196 260.022 196 260.293C196 260.563 196.101 260.822 196.281 261.014C196.461 261.205 196.705 261.312 196.96 261.312H199.84C200.095 261.312 200.339 261.205 200.519 261.014C200.699 260.822 200.8 260.563 200.8 260.293C200.8 260.022 200.699 259.763 200.519 259.572C200.339 259.381 200.095 259.274 199.84 259.274Z" fill="#0A74E6"/>
<circle cx="662.18" cy="254.68" r="22.8238" stroke="#565656" stroke-width="0.713244"/>
<path d="M659.432 249.312C660.395 248.823 661.483 248.565 662.59 248.565C663.696 248.565 664.784 248.823 665.748 249.312C665.85 249.365 665.964 249.4 666.082 249.414C666.2 249.428 666.32 249.421 666.435 249.393C666.55 249.365 666.658 249.317 666.752 249.252C666.846 249.187 666.925 249.105 666.984 249.013C667.101 248.827 667.132 248.607 667.07 248.401C667.007 248.194 666.856 248.019 666.65 247.912C665.411 247.284 664.012 246.954 662.59 246.954C661.167 246.954 659.768 247.284 658.529 247.912C658.323 248.019 658.172 248.194 658.109 248.401C658.047 248.607 658.078 248.827 658.195 249.013C658.254 249.105 658.333 249.187 658.427 249.252C658.521 249.317 658.629 249.365 658.744 249.393C658.859 249.421 658.979 249.428 659.097 249.414C659.215 249.4 659.329 249.365 659.432 249.312ZM668.382 253.576C668.288 253.379 668.18 253.187 668.057 253.002C667.995 252.911 667.914 252.831 667.818 252.769C667.722 252.706 667.612 252.661 667.497 252.636C667.381 252.611 667.261 252.607 667.143 252.624C667.026 252.641 666.913 252.679 666.812 252.735C666.609 252.847 666.464 253.026 666.409 253.234C666.353 253.442 666.391 253.661 666.514 253.843C666.654 254.059 666.769 254.287 666.857 254.523C666.909 254.662 667.002 254.786 667.126 254.881C667.249 254.977 667.4 255.04 667.561 255.065C668.189 255.162 668.758 255.455 669.169 255.892C669.58 256.328 669.806 256.881 669.808 257.452C669.808 258.096 669.523 258.714 669.015 259.169C668.507 259.624 667.819 259.88 667.101 259.88H656.869C656.501 259.829 656.159 259.677 655.891 259.446C655.623 259.214 655.441 258.913 655.371 258.585C655.317 258.347 655.323 258.102 655.389 257.866C655.455 257.631 655.58 257.412 655.753 257.225C655.926 257.039 656.144 256.889 656.39 256.789C656.637 256.688 656.905 256.638 657.176 256.643C657.415 256.643 657.645 256.558 657.814 256.406C657.983 256.254 658.078 256.049 658.078 255.834C658.076 255.126 658.285 254.431 658.683 253.819C658.742 253.727 658.781 253.625 658.797 253.519C658.812 253.413 658.804 253.306 658.773 253.203C658.742 253.099 658.689 253.003 658.616 252.919C658.543 252.834 658.452 252.763 658.349 252.711C658.142 252.605 657.896 252.577 657.666 252.633C657.437 252.689 657.241 252.825 657.122 253.01C656.699 253.655 656.429 254.371 656.328 255.114C655.575 255.278 654.901 255.656 654.406 256.19C653.985 256.634 653.705 257.171 653.596 257.745C653.487 258.32 653.553 258.91 653.786 259.453C654.02 259.997 654.413 260.474 654.924 260.834C655.435 261.194 656.044 261.423 656.689 261.498H656.806H667.101C668.183 261.496 669.228 261.144 670.045 260.508C670.863 259.872 671.398 258.994 671.553 258.033C671.708 257.073 671.474 256.094 670.892 255.276C670.309 254.458 669.419 253.855 668.382 253.576ZM665.179 251.788C665.179 251.788 665.179 251.788 665.179 251.74C665.226 251.69 665.265 251.636 665.296 251.578C665.382 251.378 665.376 251.156 665.279 250.961C665.183 250.765 665.004 250.612 664.782 250.534C664.277 250.366 663.749 250.262 663.212 250.226C663.122 250.226 663.032 250.226 662.941 250.226C662.698 250.21 662.454 250.21 662.211 250.226C662.117 250.222 662.024 250.222 661.931 250.226C661.394 250.262 660.866 250.366 660.361 250.534C660.145 250.618 659.975 250.774 659.885 250.969C659.796 251.164 659.795 251.382 659.883 251.578C659.913 251.632 659.95 251.683 659.991 251.731C659.988 251.761 659.988 251.791 659.991 251.82C660.051 251.912 660.13 251.993 660.225 252.058C660.319 252.122 660.427 252.169 660.542 252.196C660.656 252.223 660.776 252.23 660.894 252.215C661.011 252.201 661.125 252.166 661.227 252.112C661.641 251.905 662.107 251.796 662.581 251.796C663.054 251.796 663.52 251.905 663.934 252.112C664.039 252.166 664.155 252.2 664.275 252.213C664.395 252.226 664.517 252.217 664.633 252.186C664.749 252.156 664.857 252.105 664.951 252.037C665.045 251.969 665.122 251.884 665.179 251.788ZM661.687 254.216C661.687 254.376 661.74 254.532 661.839 254.665C661.938 254.798 662.079 254.902 662.244 254.963C662.409 255.024 662.591 255.04 662.766 255.009C662.941 254.978 663.101 254.901 663.228 254.788C663.354 254.675 663.44 254.53 663.474 254.373C663.509 254.216 663.491 254.054 663.423 253.906C663.355 253.758 663.239 253.632 663.091 253.543C662.942 253.454 662.768 253.406 662.59 253.406C662.35 253.406 662.121 253.492 661.952 253.643C661.782 253.795 661.687 254.001 661.687 254.216Z" fill="#0A74E6"/>
<circle cx="755.73" cy="70.7703" r="46.6938" stroke="#565656" stroke-width="1.15293"/>
<circle cx="748.811" cy="70.7702" r="43.8115" fill="#0A74E6" fill-opacity="0.1"/>
<path d="M765.31 65.3877L747.757 55.4511C746.807 54.9097 745.729 54.6261 744.632 54.6291C743.536 54.632 742.459 54.9215 741.512 55.468C740.566 56.0145 739.782 56.7987 739.242 57.7408C738.701 58.6829 738.423 59.7494 738.436 60.8319V80.777C738.436 82.4039 739.09 83.9641 740.256 85.1145C741.421 86.2649 743.002 86.9112 744.65 86.9112C745.741 86.9093 746.812 86.6248 747.757 86.0861L765.31 76.1494C766.253 75.6106 767.036 74.8365 767.58 73.9046C768.125 72.9728 768.411 71.916 768.411 70.8403C768.411 69.7647 768.125 68.7079 767.58 67.776C767.036 66.8442 766.253 66.07 765.31 65.5312V65.3877ZM763.493 72.903L745.94 82.9831C745.547 83.2032 745.102 83.3189 744.65 83.3189C744.198 83.3189 743.753 83.2032 743.36 82.9831C742.967 82.7596 742.642 82.438 742.415 82.0507C742.189 81.6634 742.07 81.2241 742.07 80.777V60.7602C742.07 60.313 742.189 59.8737 742.415 59.4865C742.642 59.0992 742.967 58.7776 743.36 58.554C743.755 58.3373 744.198 58.2202 744.65 58.2132C745.101 58.2224 745.544 58.3393 745.94 58.554L763.493 68.5624C763.885 68.7859 764.211 69.1075 764.438 69.4947C764.664 69.882 764.784 70.3214 764.784 70.7686C764.784 71.2158 764.664 71.6552 764.438 72.0424C764.211 72.4297 763.885 72.7513 763.493 72.9747V72.903Z" fill="#0A74E6"/>
<path d="M654 512.284H500V343.5H654V512.284ZM501.232 511.052H652.768V344.732H501.232V511.052Z" fill="#3F3D56"/>
<path d="M645 496.5H625V497.5H645V496.5Z" fill="#3F3D56" fill-opacity="0.3"/>
<path d="M645 500.5H625V501.5H645V500.5Z" fill="#3F3D56" fill-opacity="0.3"/>
<path d="M645 504.5H625V505.5H645V504.5Z" fill="#3F3D56" fill-opacity="0.3"/>
<path d="M576.999 373.684V387.236C585.04 387.236 592.901 389.62 599.586 394.088C606.272 398.555 611.483 404.905 614.56 412.333C617.638 419.762 618.443 427.937 616.874 435.823C615.305 443.71 611.433 450.954 605.747 456.64L615.33 466.223C622.911 458.642 628.074 448.983 630.166 438.467C632.257 427.952 631.184 417.053 627.081 407.147C622.978 397.242 616.03 388.776 607.115 382.82C598.201 376.863 587.72 373.684 576.999 373.684Z" fill="#E6E6E6"/>
<path d="M615.331 466.222L605.748 456.64C598.797 463.592 589.562 467.789 579.754 468.455C569.945 469.12 560.228 466.207 552.402 460.257L544.2 471.049C554.636 478.981 567.593 482.863 580.671 481.975C593.749 481.088 606.062 475.491 615.331 466.222Z" fill="#1C25B7"/>
<path d="M536.344 427.892C536.344 422.553 537.395 417.266 539.438 412.333C541.481 407.401 544.476 402.919 548.251 399.144C552.027 395.368 556.509 392.374 561.441 390.331C566.374 388.287 571.661 387.236 577 387.236V373.684C565.652 373.684 554.59 377.245 545.374 383.865C536.157 390.486 529.251 399.832 525.628 410.586C522.005 421.34 521.849 432.96 525.181 443.807C528.513 454.655 535.165 464.183 544.2 471.05L552.402 460.257C547.408 456.469 543.359 451.575 540.573 445.96C537.787 440.345 536.339 434.16 536.344 427.892Z" fill="#0A74E6"/>
<path d="M198.226 488.5H86V365.5H198.226V488.5ZM86.8978 487.602H197.328V366.398H86.8978V487.602Z" fill="#3F3D56"/>
<path d="M120.361 435.691H104.16C103.056 435.691 102.16 436.587 102.16 437.691V466.012C102.16 467.117 103.056 468.012 104.16 468.012H120.361C121.466 468.012 122.361 467.117 122.361 466.012V437.691C122.361 436.587 121.466 435.691 120.361 435.691Z" fill="#575A89"/>
<path d="M149.54 413.695H133.34C132.235 413.695 131.34 414.591 131.34 415.695V466.012C131.34 467.117 132.235 468.012 133.34 468.012H149.54C150.645 468.012 151.54 467.117 151.54 466.012V415.695C151.54 414.59 150.645 413.695 149.54 413.695Z" fill="#E6E6E6"/>
<path d="M178.719 388.107H162.518C161.414 388.107 160.518 389.003 160.518 390.107V466.012C160.518 467.117 161.414 468.012 162.518 468.012H178.719C179.823 468.012 180.719 467.117 180.719 466.012V390.107C180.719 389.003 179.823 388.107 178.719 388.107Z" fill="#0A74E6"/>
<path d="M187.453 473.911H96.7748V380.089H97.6724V473.013H187.453V473.911Z" fill="#3F3D56"/>
<path d="M408.991 156.262H160V0.5H408.991V156.262ZM161.137 155.125H407.854V1.63695H161.137V155.125Z" fill="#3F3D56"/>
<path d="M374.413 123.686H194.579C194.43 123.686 194.287 123.627 194.181 123.521C194.076 123.416 194.016 123.273 194.016 123.123V36.9291C194.016 36.7799 194.076 36.6367 194.181 36.5312C194.287 36.4256 194.43 36.3663 194.579 36.3663C194.729 36.3663 194.872 36.4256 194.977 36.5312C195.083 36.6367 195.142 36.7799 195.142 36.9291V122.56H374.413C374.487 122.56 374.56 122.575 374.629 122.603C374.697 122.631 374.759 122.672 374.812 122.725C374.864 122.777 374.906 122.839 374.934 122.907C374.963 122.976 374.977 123.049 374.977 123.123C374.977 123.197 374.963 123.271 374.934 123.339C374.906 123.408 374.864 123.47 374.812 123.522C374.759 123.574 374.697 123.616 374.629 123.644C374.56 123.672 374.487 123.686 374.413 123.686Z" fill="#3F3D56"/>
<path d="M233.001 117.495H216.645C216.202 117.495 215.777 117.319 215.464 117.005C215.151 116.692 214.975 116.268 214.974 115.825V93.2771C214.975 92.8342 215.151 92.4096 215.464 92.0964C215.777 91.7832 216.202 91.6071 216.645 91.6066H233.001C233.444 91.6071 233.869 91.7832 234.182 92.0964C234.495 92.4096 234.671 92.8342 234.672 93.2771V115.825C234.672 116.268 234.495 116.692 234.182 117.005C233.869 117.319 233.444 117.495 233.001 117.495Z" fill="#0A74E6"/>
<path d="M262.83 117.495H246.474C246.031 117.495 245.606 117.319 245.293 117.005C244.98 116.692 244.803 116.268 244.803 115.825V71.8909C244.803 71.448 244.98 71.0233 245.293 70.7102C245.606 70.397 246.031 70.2208 246.474 70.2203H262.83C263.273 70.2208 263.698 70.397 264.011 70.7102C264.324 71.0233 264.5 71.448 264.501 71.8909V115.825C264.5 116.268 264.324 116.692 264.011 117.005C263.698 117.319 263.273 117.495 262.83 117.495Z" fill="#0A74E6"/>
<path d="M292.658 117.495H276.302C275.859 117.495 275.434 117.319 275.121 117.005C274.808 116.692 274.631 116.268 274.631 115.825V93.2771C274.631 92.8342 274.808 92.4096 275.121 92.0964C275.434 91.7832 275.859 91.6071 276.302 91.6066H292.658C293.101 91.6071 293.526 91.7832 293.839 92.0964C294.152 92.4096 294.328 92.8342 294.329 93.2771V115.825C294.328 116.268 294.152 116.692 293.839 117.005C293.526 117.319 293.101 117.495 292.658 117.495Z" fill="#0A74E6"/>
<path d="M322.486 117.495H306.13C305.697 117.505 305.278 117.342 304.965 117.043C304.652 116.744 304.47 116.333 304.459 115.9V63.3733C304.47 62.9405 304.652 62.5296 304.965 62.2307C305.278 61.9318 305.697 61.7691 306.13 61.7785H322.486C322.919 61.7691 323.338 61.9318 323.651 62.2307C323.964 62.5296 324.146 62.9405 324.157 63.3733V115.9C324.146 116.333 323.964 116.744 323.651 117.043C323.338 117.342 322.919 117.505 322.486 117.495Z" fill="#0A74E6"/>
<path d="M352.314 117.495H335.958C335.515 117.495 335.09 117.319 334.777 117.006C334.464 116.692 334.288 116.268 334.287 115.825V48.2535C334.288 47.8106 334.464 47.386 334.777 47.0728C335.09 46.7597 335.515 46.5835 335.958 46.583H352.314C352.757 46.5835 353.182 46.7597 353.495 47.0728C353.808 47.386 353.984 47.8106 353.985 48.2535V115.825C353.984 116.268 353.808 116.692 353.495 117.006C353.182 117.319 352.757 117.495 352.314 117.495Z" fill="#0A74E6"/>
<path d="M224.824 84.8532C226.689 84.8532 228.201 83.3413 228.201 81.4764C228.201 79.6114 226.689 78.0996 224.824 78.0996C222.959 78.0996 221.447 79.6114 221.447 81.4764C221.447 83.3413 222.959 84.8532 224.824 84.8532Z" fill="#3F3D56"/>
<path d="M254.652 62.9041C256.517 62.9041 258.029 61.3922 258.029 59.5273C258.029 57.6624 256.517 56.1505 254.652 56.1505C252.787 56.1505 251.275 57.6624 251.275 59.5273C251.275 61.3922 252.787 62.9041 254.652 62.9041Z" fill="#3F3D56"/>
<path d="M284.48 84.8532C286.345 84.8532 287.857 83.3413 287.857 81.4764C287.857 79.6114 286.345 78.0996 284.48 78.0996C282.615 78.0996 281.103 79.6114 281.103 81.4764C281.103 83.3413 282.615 84.8532 284.48 84.8532Z" fill="#3F3D56"/>
<path d="M314.309 52.211C316.174 52.211 317.685 50.6991 317.685 48.8342C317.685 46.9692 316.174 45.4574 314.309 45.4574C312.444 45.4574 310.932 46.9692 310.932 48.8342C310.932 50.6991 312.444 52.211 314.309 52.211Z" fill="#3F3D56"/>
<path d="M344.137 39.8294C346.002 39.8294 347.513 38.3175 347.513 36.4526C347.513 34.5876 346.002 33.0758 344.137 33.0758C342.272 33.0758 340.76 34.5876 340.76 36.4526C340.76 38.3175 342.272 39.8294 344.137 39.8294Z" fill="#3F3D56"/>
<path d="M284.551 82.2328L254.652 59.8379L225.161 81.9268L224.486 81.0257L254.652 58.4312L284.408 80.7197L313.979 48.3603L314.098 48.312L343.926 36.2935L344.346 37.3381L314.637 49.3083L284.551 82.2328Z" fill="#3F3D56"/>
</svg>
