<svg width="864" height="521" viewBox="0 0 864 521" fill="none" xmlns="http://www.w3.org/2000/svg">
<path d="M559.743 54.5H7.92699C5.82516 54.5019 3.80995 55.3377 2.32376 56.824C0.837573 58.3102 0.00184384 60.3254 0 62.4272V436.353C0.00184384 438.454 0.837573 440.47 2.32376 441.956C3.80995 443.442 5.82516 444.278 7.92699 444.28H559.743C560.889 444.28 562.021 444.031 563.062 443.551C564.102 443.071 565.027 442.37 565.77 441.498C565.833 441.43 565.891 441.357 565.943 441.28C566.416 440.701 566.799 440.055 567.079 439.362C567.478 438.409 567.682 437.386 567.679 436.353V62.4272C567.677 60.3239 566.839 58.3076 565.351 56.8212C563.863 55.3347 561.846 54.4999 559.743 54.5ZM565.415 436.353C565.416 437.459 565.091 438.54 564.479 439.462C563.935 440.273 563.198 440.935 562.334 441.389C561.533 441.803 560.644 442.018 559.743 442.016H7.92699C6.42546 442.014 4.98595 441.417 3.92421 440.355C2.86247 439.294 2.26519 437.854 2.26337 436.353V62.4272C2.26519 60.9257 2.86247 59.4862 3.92421 58.4245C4.98595 57.3627 6.42546 56.7655 7.92699 56.7636H559.743C561.246 56.7635 562.687 57.3598 563.751 58.4217C564.815 59.4836 565.413 60.9243 565.415 62.4272V436.353Z" fill="#565656"/>
<path d="M566.542 86.2719H1.12967V88.5381H566.542V86.2719Z" fill="#565656"/>
<path d="M20.3922 78.295C24.1469 78.295 27.1907 75.2512 27.1907 71.4965C27.1907 67.7417 24.1469 64.6979 20.3922 64.6979C16.6374 64.6979 13.5936 67.7417 13.5936 71.4965C13.5936 75.2512 16.6374 78.295 20.3922 78.295Z" fill="#565656"/>
<path d="M39.9381 78.295C43.6928 78.295 46.7366 75.2512 46.7366 71.4965C46.7366 67.7417 43.6928 64.6979 39.9381 64.6979C36.1834 64.6979 33.1395 67.7417 33.1395 71.4965C33.1395 75.2512 36.1834 78.295 39.9381 78.295Z" fill="#565656"/>
<path d="M59.4839 78.295C63.2386 78.295 66.2824 75.2512 66.2824 71.4965C66.2824 67.7417 63.2386 64.6979 59.4839 64.6979C55.7291 64.6979 52.6853 67.7417 52.6853 71.4965C52.6853 75.2512 55.7291 78.295 59.4839 78.295Z" fill="#565656"/>
<path d="M499.493 250.564H58.5863C54.489 250.559 50.5608 248.93 47.6635 246.032C44.7662 243.135 43.1365 239.207 43.1319 235.11V141.474C43.1365 137.376 44.7662 133.448 47.6635 130.551C50.5608 127.653 54.489 126.024 58.5863 126.019H499.493C503.591 126.024 507.519 127.653 510.416 130.551C513.313 133.448 514.943 137.376 514.948 141.474V235.11C514.943 239.207 513.313 243.135 510.416 246.032C507.519 248.93 503.591 250.559 499.493 250.564ZM58.5863 127.837C54.971 127.841 51.505 129.279 48.9485 131.836C46.3921 134.392 44.9541 137.858 44.95 141.474V235.11C44.9541 238.725 46.3921 242.191 48.9485 244.747C51.505 247.304 54.971 248.742 58.5863 248.746H499.493C503.109 248.742 506.575 247.304 509.131 244.747C511.688 242.191 513.126 238.725 513.13 235.11V141.474C513.126 137.858 511.688 134.392 509.131 131.836C506.575 129.279 503.109 127.841 499.493 127.837H58.5863Z" fill="#F2F2F2"/>
<path d="M155.859 419.654H58.5863C54.489 419.65 50.5608 418.02 47.6635 415.123C44.7662 412.225 43.1365 408.297 43.1319 404.2V335.109C43.1365 331.012 44.7662 327.083 47.6635 324.186C50.5608 321.289 54.489 319.659 58.5863 319.655H155.859C159.956 319.659 163.884 321.289 166.781 324.186C169.679 327.083 171.308 331.012 171.313 335.109V404.2C171.308 408.297 169.679 412.225 166.781 415.123C163.884 418.02 159.956 419.65 155.859 419.654ZM58.5863 321.473C54.971 321.477 51.505 322.915 48.9485 325.471C46.3921 328.028 44.9541 331.494 44.95 335.109V404.2C44.9541 407.815 46.3921 411.281 48.9485 413.837C51.505 416.394 54.971 417.832 58.5863 417.836H155.859C159.474 417.832 162.94 416.394 165.496 413.837C168.053 411.281 169.491 407.815 169.495 404.2V335.109C169.491 331.494 168.053 328.028 165.496 325.471C162.94 322.915 159.474 321.477 155.859 321.473H58.5863Z" fill="#F2F2F2"/>
<path d="M499.493 419.654H402.221C398.124 419.65 394.196 418.02 391.298 415.123C388.401 412.225 386.771 408.297 386.767 404.2V335.109C386.771 331.012 388.401 327.083 391.298 324.186C394.196 321.289 398.124 319.659 402.221 319.655H499.493C503.591 319.659 507.519 321.289 510.416 324.186C513.314 327.083 514.943 331.012 514.948 335.109V404.2C514.943 408.297 513.314 412.225 510.416 415.123C507.519 418.02 503.591 419.65 499.493 419.654ZM402.221 321.473C398.606 321.477 395.14 322.915 392.583 325.471C390.027 328.028 388.589 331.494 388.585 335.109V404.2C388.589 407.815 390.027 411.281 392.583 413.837C395.14 416.394 398.606 417.832 402.221 417.836H499.493C503.109 417.832 506.575 416.394 509.131 413.837C511.688 411.281 513.126 407.815 513.13 404.2V335.109C513.126 331.494 511.688 328.028 509.131 325.471C506.575 322.915 503.109 321.477 499.493 321.473H402.221Z" fill="#F2F2F2"/>
<path d="M334.949 419.654H237.676C233.579 419.65 229.651 418.02 226.754 415.123C223.856 412.225 222.227 408.297 222.222 404.2V335.109C222.227 331.012 223.856 327.083 226.754 324.186C229.651 321.289 233.579 319.659 237.676 319.655H334.949C339.046 319.659 342.974 321.289 345.872 324.186C348.769 327.083 350.399 331.012 350.403 335.109V404.2C350.399 408.297 348.769 412.225 345.872 415.123C342.974 418.02 339.046 419.65 334.949 419.654ZM237.676 321.473C234.061 321.477 230.595 322.915 228.039 325.471C225.482 328.028 224.044 331.494 224.04 335.109V404.2C224.044 407.815 225.482 411.281 228.039 413.837C230.595 416.394 234.061 417.832 237.676 417.836H334.949C338.564 417.832 342.03 416.394 344.587 413.837C347.143 411.281 348.581 407.815 348.585 404.2V335.109C348.581 331.494 347.143 328.028 344.587 325.471C342.03 322.915 338.564 321.477 334.949 321.473H237.676Z" fill="#F2F2F2"/>
<path d="M48.5415 130.283L48.1095 132.049L513.823 245.992L514.255 244.227L48.5415 130.283Z" fill="#F2F2F2"/>
<path d="M509.529 130.255L48.1138 244.564L48.5511 246.329L509.966 132.019L509.529 130.255Z" fill="#F2F2F2"/>
<path d="M517.675 281.927H76.7682C72.7914 281.923 68.9787 280.341 66.1666 277.529C63.3546 274.717 61.7728 270.904 61.7683 266.927V173.291C61.7728 169.315 63.3546 165.502 66.1666 162.69C68.9787 159.878 72.7914 158.296 76.7682 158.292H517.675C521.652 158.296 525.465 159.878 528.277 162.69C531.089 165.502 532.671 169.315 532.675 173.291V266.927C532.671 270.904 531.089 274.717 528.277 277.529C525.465 280.341 521.652 281.923 517.675 281.927Z" fill="white"/>
<path d="M228.319 323.759L227.201 325.193L343.714 416.082L344.833 414.648L228.319 323.759Z" fill="#F2F2F2"/>
<path d="M344.296 323.76L229.311 415.77L230.447 417.189L345.432 325.18L344.296 323.76Z" fill="#F2F2F2"/>
<path d="M49.2281 323.76L48.1098 325.194L164.623 416.083L165.742 414.649L49.2281 323.76Z" fill="#F2F2F2"/>
<path d="M165.206 323.76L50.2213 415.77L51.3573 417.189L166.342 325.18L165.206 323.76Z" fill="#F2F2F2"/>
<path d="M392.864 323.759L391.746 325.192L508.26 416.081L509.378 414.648L392.864 323.759Z" fill="#F2F2F2"/>
<path d="M508.841 323.76L393.856 415.77L394.992 417.189L509.977 325.18L508.841 323.76Z" fill="#F2F2F2"/>
<path d="M348.585 485.563H251.313C247.336 485.558 243.523 483.977 240.711 481.165C237.899 478.353 236.317 474.54 236.313 470.563V401.472C236.317 397.496 237.899 393.683 240.711 390.871C243.523 388.059 247.336 386.477 251.313 386.472H348.585C352.562 386.477 356.374 388.059 359.187 390.871C361.999 393.683 363.58 397.496 363.585 401.472V470.563C363.58 474.54 361.999 478.353 359.187 481.165C356.374 483.977 352.562 485.558 348.585 485.563Z" fill="#0A74E6"/>
<path d="M312.633 431.018H287.179C285.25 431.018 283.4 430.251 282.036 428.888C280.672 427.524 279.906 425.674 279.906 423.745C279.906 421.816 280.672 419.966 282.036 418.602C283.4 417.239 285.25 416.472 287.179 416.472H312.633C314.562 416.472 316.412 417.239 317.776 418.602C319.14 419.966 319.906 421.816 319.906 423.745C319.906 425.674 319.14 427.524 317.776 428.888C316.412 430.251 314.562 431.018 312.633 431.018Z" fill="white"/>
<path d="M327.676 455.563H272.222C270.293 455.563 268.443 454.797 267.079 453.433C265.715 452.069 264.949 450.219 264.949 448.29C264.949 446.361 265.715 444.512 267.079 443.148C268.443 441.784 270.293 441.018 272.222 441.018H327.676C329.605 441.018 331.455 441.784 332.819 443.148C334.182 444.512 334.949 446.361 334.949 448.29C334.949 450.219 334.182 452.069 332.819 453.433C331.455 454.797 329.605 455.563 327.676 455.563Z" fill="white"/>
<path d="M171.313 432.836H74.0408C70.064 432.831 66.2513 431.25 63.4392 428.438C60.6272 425.625 59.0454 421.813 59.0409 417.836V348.745C59.0454 344.768 60.6272 340.956 63.4392 338.144C66.2513 335.332 70.064 333.75 74.0408 333.745H171.313C175.29 333.75 179.103 335.332 181.915 338.144C184.727 340.956 186.309 344.768 186.313 348.745V417.836C186.309 421.813 184.727 425.625 181.915 428.438C179.103 431.25 175.29 432.831 171.313 432.836Z" fill="#0A74E6"/>
<path d="M135.361 378.291H109.907C107.978 378.291 106.128 377.524 104.764 376.161C103.4 374.797 102.634 372.947 102.634 371.018C102.634 369.089 103.4 367.239 104.764 365.875C106.128 364.512 107.978 363.745 109.907 363.745H135.361C137.29 363.745 139.14 364.512 140.504 365.875C141.868 367.239 142.634 369.089 142.634 371.018C142.634 372.947 141.868 374.797 140.504 376.161C139.14 377.524 137.29 378.291 135.361 378.291Z" fill="white"/>
<path d="M150.404 402.836H94.9498C93.021 402.836 91.1711 402.07 89.8072 400.706C88.4433 399.342 87.6771 397.492 87.6771 395.563C87.6771 393.634 88.4433 391.785 89.8072 390.421C91.1711 389.057 93.021 388.291 94.9498 388.291H150.404C152.333 388.291 154.183 389.057 155.547 390.421C156.911 391.785 157.677 393.634 157.677 395.563C157.677 397.492 156.911 399.342 155.547 400.706C154.183 402.07 152.333 402.836 150.404 402.836Z" fill="white"/>
<path d="M519.402 452.199H422.13C418.153 452.195 414.341 450.613 411.528 447.801C408.716 444.989 407.135 441.176 407.13 437.199V368.109C407.135 364.132 408.716 360.319 411.528 357.507C414.341 354.695 418.153 353.113 422.13 353.109H519.402C523.379 353.113 527.192 354.695 530.004 357.507C532.816 360.319 534.398 364.132 534.402 368.109V437.199C534.398 441.176 532.816 444.989 530.004 447.801C527.192 450.613 523.379 452.195 519.402 452.199Z" fill="#E6E6E6"/>
<path d="M483.451 397.654H457.996C456.067 397.654 454.217 396.888 452.854 395.524C451.49 394.16 450.723 392.31 450.723 390.381C450.723 388.453 451.49 386.603 452.854 385.239C454.217 383.875 456.067 383.109 457.996 383.109H483.451C485.379 383.109 487.229 383.875 488.593 385.239C489.957 386.603 490.723 388.453 490.723 390.381C490.723 392.31 489.957 394.16 488.593 395.524C487.229 396.888 485.379 397.654 483.451 397.654Z" fill="white"/>
<path d="M498.493 422.199H443.039C441.11 422.199 439.26 421.433 437.896 420.069C436.533 418.705 435.766 416.856 435.766 414.927C435.766 412.998 436.533 411.148 437.896 409.784C439.26 408.42 441.11 407.654 443.039 407.654H498.493C500.422 407.654 502.272 408.42 503.636 409.784C505 411.148 505.766 412.998 505.766 414.927C505.766 416.856 505 418.705 503.636 420.069C502.272 421.433 500.422 422.199 498.493 422.199Z" fill="white"/>
<path d="M396.103 280.323V281.473H201.831V280.27L202.877 278.79L264.467 191.839C264.752 191.444 265.127 191.122 265.561 190.9C265.995 190.678 266.475 190.562 266.963 190.562C267.45 190.562 267.93 190.678 268.364 190.9C268.798 191.122 269.173 191.444 269.458 191.839L310.758 250.145L340.158 209.004C340.443 208.611 340.818 208.291 341.251 208.07C341.684 207.85 342.163 207.734 342.649 207.734C343.135 207.734 343.614 207.85 344.047 208.07C344.48 208.291 344.854 208.611 345.139 209.004L395.058 278.853L396.103 280.323Z" fill="#0A74E6" fill-opacity="0.4"/>
<path d="M201.428 222.471C213.916 222.471 224.04 212.347 224.04 199.859C224.04 187.37 213.916 177.247 201.428 177.247C188.94 177.247 178.816 187.37 178.816 199.859C178.816 212.347 188.94 222.471 201.428 222.471Z" fill="#0A74E6" fill-opacity="0.2"/>
<path d="M517.675 282.382H76.7681C72.6707 282.377 68.7425 280.748 65.8452 277.85C62.948 274.953 61.3182 271.025 61.3136 266.928V173.292C61.3182 169.194 62.948 165.266 65.8452 162.369C68.7425 159.471 72.6707 157.842 76.7681 157.837H517.675C521.772 157.842 525.701 159.471 528.598 162.369C531.495 165.266 533.125 169.194 533.13 173.292V266.928C533.125 271.025 531.495 274.953 528.598 277.85C525.701 280.748 521.772 282.377 517.675 282.382ZM76.7681 159.655C73.1528 159.659 69.6867 161.097 67.1303 163.654C64.5739 166.21 63.1359 169.676 63.1318 173.292V266.928C63.1359 270.543 64.5739 274.009 67.1303 276.565C69.6867 279.122 73.1528 280.56 76.7681 280.564H517.675C521.29 280.56 524.757 279.122 527.313 276.565C529.869 274.009 531.307 270.543 531.311 266.928V173.292C531.307 169.676 529.869 166.21 527.313 163.654C524.757 161.097 521.29 159.659 517.675 159.655H76.7681Z" fill="#565656"/>
<path d="M838.892 14.7692H636.554C633.226 14.7739 630.035 16.098 627.682 18.4513C625.329 20.8046 624.005 23.995 624 27.323V282.831C624.005 286.159 625.329 289.349 627.682 291.702C630.035 294.056 633.226 295.38 636.554 295.384H838.892C842.22 295.38 845.411 294.056 847.764 291.702C850.117 289.349 851.441 286.159 851.446 282.831V27.323C851.441 23.995 850.117 20.8046 847.764 18.4513C845.411 16.098 842.22 14.7739 838.892 14.7692ZM849.969 282.831C849.966 285.767 848.797 288.583 846.721 290.659C844.644 292.736 841.829 293.904 838.892 293.908H636.554C633.617 293.904 630.802 292.736 628.725 290.659C626.649 288.583 625.48 285.767 625.477 282.831V27.323C625.48 24.3863 626.649 21.5709 628.725 19.4944C630.802 17.4178 633.617 16.2497 636.554 16.2461H838.892C841.829 16.2497 844.644 17.4178 846.721 19.4944C848.797 21.5709 849.966 24.3863 849.969 27.323V282.831Z" fill="#565656"/>
<path d="M799.016 191.631H676.431C663.909 191.57 663.857 172.496 676.432 172.431H799.016C811.529 172.489 811.597 191.565 799.016 191.631Z" fill="#565656" fill-opacity="0.1"/>
<path d="M799.016 227.077H676.431C663.909 227.016 663.857 207.942 676.432 207.877H799.016C811.529 207.935 811.597 227.011 799.016 227.077Z" fill="#565656" fill-opacity="0.1"/>
<path d="M799.016 262.523H676.431C663.909 262.463 663.857 243.388 676.432 243.323H799.016C811.529 243.382 811.597 262.457 799.016 262.523Z" fill="#565656" fill-opacity="0.1"/>
<path d="M844.8 38.3999C841.003 38.3999 837.29 37.2739 834.133 35.1641C830.976 33.0544 828.515 30.0558 827.061 26.5474C825.608 23.0391 825.228 19.1786 825.969 15.4542C826.71 11.7298 828.538 8.30866 831.224 5.62349C833.909 2.93832 837.33 1.10968 841.054 0.368848C844.779 -0.371988 848.639 0.00823916 852.148 1.46144C855.656 2.91464 858.654 5.37556 860.764 8.53298C862.874 11.6904 864 15.4025 864 19.1999C863.994 24.2903 861.97 29.1706 858.37 32.77C854.771 36.3695 849.89 38.3942 844.8 38.3999Z" fill="#0A74E6"/>
<path d="M853.662 18.4615H845.538V9.2307C845.538 9.03485 845.461 8.847 845.322 8.70852C845.184 8.57003 844.996 8.49224 844.8 8.49224C844.604 8.49224 844.416 8.57003 844.278 8.70852C844.139 8.847 844.062 9.03485 844.062 9.2307V18.4615H835.938C835.743 18.4615 835.555 18.5393 835.416 18.6777C835.278 18.8162 835.2 19.0041 835.2 19.1999C835.2 19.3958 835.278 19.5836 835.416 19.7221C835.555 19.8606 835.743 19.9384 835.938 19.9384H844.062V29.1692C844.062 29.365 844.139 29.5528 844.278 29.6913C844.416 29.8298 844.604 29.9076 844.8 29.9076C844.996 29.9076 845.184 29.8298 845.322 29.6913C845.461 29.5528 845.538 29.365 845.538 29.1692V19.9384H853.662C853.857 19.9384 854.045 19.8606 854.184 19.7221C854.322 19.5836 854.4 19.3958 854.4 19.1999C854.4 19.0041 854.322 18.8162 854.184 18.6777C854.045 18.5393 853.857 18.4615 853.662 18.4615Z" fill="white"/>
<path d="M796.8 149.391H678.646C675.416 149.387 672.319 148.102 670.034 145.818C667.75 143.533 666.465 140.436 666.461 137.206V71.04C666.465 67.8096 667.75 64.7125 670.034 62.4283C672.319 60.144 675.416 58.8591 678.646 58.8554H796.8C800.03 58.8591 803.127 60.144 805.412 62.4283C807.696 64.7125 808.981 67.8096 808.985 71.04V137.206C808.981 140.436 807.696 143.533 805.412 145.818C803.127 148.102 800.03 149.387 796.8 149.391Z" fill="#0A74E6" fill-opacity="0.4"/>
<rect x="703" y="332.5" width="161" height="163" fill="#0A74E6" fill-opacity="0.1"/>
<path d="M636.201 367.197C636.09 361.046 641.047 356 647.199 356H779.5C785.575 356 790.5 360.925 790.5 367V491.444C790.5 497.732 785.238 502.74 778.958 502.43L648.772 496.007C642.991 495.722 638.419 491.005 638.316 485.217L636.201 367.197Z" fill="white"/>
<path d="M780.343 355.016H634.351C631.608 355.021 628.978 356.113 627.038 358.054C625.098 359.994 624.005 362.623 624 365.367V509.977C624.003 512.722 625.094 515.353 627.035 517.293C628.976 519.234 631.607 520.326 634.351 520.328H780.343C783.088 520.326 785.719 519.234 787.66 517.293C789.601 515.353 790.692 512.722 790.695 509.977V365.367C790.692 362.623 789.601 359.991 787.66 358.051C785.719 356.11 783.088 355.019 780.343 355.016ZM789.477 509.977C789.474 512.398 788.511 514.72 786.799 516.432C785.086 518.144 782.765 519.108 780.343 519.111H634.351C631.93 519.108 629.609 518.144 627.896 516.432C626.184 514.72 625.221 512.398 625.218 509.977V365.367C625.222 362.946 626.185 360.625 627.897 358.913C629.609 357.201 631.93 356.237 634.351 356.233H780.343C782.765 356.236 785.086 357.2 786.799 358.912C788.511 360.624 789.474 362.946 789.477 365.367V509.977Z" fill="#3F3D56"/>
<path d="M768.847 411.334H645.847C644.555 411.334 643.316 410.82 642.403 409.907C641.489 408.993 640.976 407.754 640.976 406.462C640.976 405.17 641.489 403.931 642.403 403.018C643.316 402.104 644.555 401.591 645.847 401.591H768.847C770.139 401.591 771.378 402.104 772.291 403.018C773.205 403.931 773.718 405.17 773.718 406.462C773.718 407.754 773.205 408.993 772.291 409.907C771.378 410.82 770.139 411.334 768.847 411.334Z" fill="#CCCCCC"/>
<path d="M733.834 390.631H680.859C679.567 390.631 678.328 390.118 677.415 389.204C676.501 388.29 675.988 387.051 675.988 385.759C675.988 384.468 676.501 383.228 677.415 382.315C678.328 381.401 679.567 380.888 680.859 380.888H733.834C735.126 380.888 736.365 381.401 737.279 382.315C738.193 383.228 738.706 384.468 738.706 385.759C738.706 387.051 738.193 388.29 737.279 389.204C736.365 390.118 735.126 390.631 733.834 390.631Z" fill="#0A74E6" fill-opacity="0.4"/>
<path d="M698.518 440.561H645.543C644.251 440.561 643.012 440.048 642.098 439.135C641.185 438.221 640.671 436.982 640.671 435.69C640.671 434.398 641.185 433.159 642.098 432.246C643.012 431.332 644.251 430.819 645.543 430.819H698.518C699.81 430.819 701.049 431.332 701.962 432.246C702.876 433.159 703.389 434.398 703.389 435.69C703.389 436.982 702.876 438.221 701.962 439.135C701.049 440.048 699.81 440.561 698.518 440.561Z" fill="#CCCCCC"/>
<path d="M698.518 461.873H645.543C644.251 461.873 643.012 461.36 642.098 460.446C641.185 459.533 640.671 458.294 640.671 457.002C640.671 455.71 641.185 454.471 642.098 453.557C643.012 452.644 644.251 452.131 645.543 452.131H698.518C699.81 452.131 701.049 452.644 701.962 453.557C702.876 454.471 703.389 455.71 703.389 457.002C703.389 458.294 702.876 459.533 701.962 460.446C701.049 461.36 699.81 461.873 698.518 461.873Z" fill="#CCCCCC"/>
<path d="M698.518 483.185H645.543C644.251 483.185 643.012 482.672 642.098 481.758C641.185 480.845 640.671 479.606 640.671 478.314C640.671 477.022 641.185 475.783 642.098 474.869C643.012 473.956 644.251 473.442 645.543 473.442H698.518C699.81 473.442 701.049 473.956 701.962 474.869C702.876 475.783 703.389 477.022 703.389 478.314C703.389 479.606 702.876 480.845 701.962 481.758C701.049 482.672 699.81 483.185 698.518 483.185Z" fill="#CCCCCC"/>
<path d="M764.588 444.737C769.609 444.737 773.679 440.667 773.679 435.647C773.679 430.626 769.609 426.556 764.588 426.556C759.568 426.556 755.498 430.626 755.498 435.647C755.498 440.667 759.568 444.737 764.588 444.737Z" fill="#0A74E6"/>
<path d="M763.687 439.115C763.483 439.115 763.284 439.049 763.12 438.926L763.11 438.919L760.974 437.284C760.774 437.131 760.643 436.905 760.61 436.655C760.577 436.406 760.645 436.153 760.798 435.953C760.951 435.753 761.177 435.623 761.427 435.59C761.677 435.557 761.929 435.624 762.129 435.777L763.513 436.838L766.783 432.572C766.858 432.474 766.953 432.391 767.061 432.328C767.169 432.266 767.288 432.225 767.411 432.209C767.535 432.193 767.661 432.201 767.781 432.233C767.901 432.265 768.014 432.321 768.113 432.397L768.113 432.397L768.093 432.425L768.114 432.397C768.314 432.55 768.444 432.777 768.477 433.026C768.51 433.276 768.442 433.528 768.29 433.728L764.443 438.743C764.354 438.859 764.24 438.952 764.109 439.017C763.978 439.081 763.834 439.114 763.688 439.113L763.687 439.115Z" fill="white"/>
<path d="M764.588 466.049C769.609 466.049 773.679 461.979 773.679 456.959C773.679 451.938 769.609 447.868 764.588 447.868C759.568 447.868 755.498 451.938 755.498 456.959C755.498 461.979 759.568 466.049 764.588 466.049Z" fill="#0A74E6"/>
<path d="M763.687 460.426C763.483 460.427 763.284 460.361 763.12 460.238L763.11 460.23L760.974 458.596C760.875 458.52 760.792 458.426 760.729 458.318C760.667 458.21 760.626 458.091 760.61 457.967C760.594 457.843 760.602 457.718 760.634 457.597C760.666 457.477 760.722 457.364 760.798 457.265C760.874 457.166 760.968 457.083 761.076 457.021C761.184 456.958 761.303 456.918 761.427 456.901C761.551 456.885 761.676 456.893 761.797 456.926C761.917 456.958 762.03 457.013 762.129 457.089L763.513 458.15L766.783 453.884C766.858 453.785 766.953 453.702 767.061 453.64C767.169 453.578 767.288 453.537 767.411 453.521C767.535 453.505 767.661 453.513 767.781 453.545C767.901 453.577 768.014 453.633 768.113 453.709L768.113 453.709L768.093 453.737L768.114 453.709C768.314 453.862 768.444 454.088 768.477 454.338C768.51 454.587 768.442 454.84 768.29 455.04L764.443 460.055C764.354 460.171 764.24 460.264 764.109 460.328C763.978 460.393 763.834 460.426 763.688 460.425L763.687 460.426Z" fill="white"/>
<path d="M764.588 487.404C769.609 487.404 773.679 483.334 773.679 478.314C773.679 473.293 769.609 469.223 764.588 469.223C759.568 469.223 755.498 473.293 755.498 478.314C755.498 483.334 759.568 487.404 764.588 487.404Z" fill="#0A74E6"/>
<path d="M763.687 481.781C763.483 481.782 763.284 481.716 763.12 481.593L763.11 481.585L760.974 479.951C760.774 479.798 760.644 479.572 760.611 479.322C760.578 479.073 760.646 478.82 760.799 478.621C760.952 478.421 761.178 478.29 761.427 478.257C761.677 478.224 761.929 478.291 762.129 478.444L763.513 479.505L766.783 475.239C766.858 475.14 766.953 475.057 767.061 474.995C767.169 474.933 767.288 474.892 767.411 474.876C767.535 474.86 767.661 474.868 767.781 474.9C767.901 474.932 768.014 474.988 768.113 475.064L768.113 475.064L768.093 475.092L768.114 475.064C768.313 475.217 768.444 475.443 768.477 475.693C768.51 475.942 768.442 476.195 768.289 476.395L764.443 481.41C764.354 481.526 764.24 481.619 764.109 481.683C763.978 481.748 763.834 481.781 763.688 481.78L763.687 481.781Z" fill="white"/>
</svg>
