<svg width="227" height="35" viewBox="0 0 227 35" fill="none" xmlns="http://www.w3.org/2000/svg">
<g clip-path="url(#clip0_2114_10000)">
<path d="M47.7281 27.7575H60.2019C60.375 27.7552 60.5403 27.6854 60.6627 27.563C60.7851 27.4406 60.8549 27.2753 60.8572 27.1022C60.8549 26.9292 60.7851 26.7638 60.6627 26.6414C60.5403 26.519 60.375 26.4493 60.2019 26.447H48.4378V18.7778H58.8369C59.01 18.7755 59.1753 18.7057 59.2977 18.5833C59.4201 18.4609 59.4899 18.2956 59.4922 18.1225C59.4898 17.9495 59.4199 17.7843 59.2976 17.662C59.1752 17.5397 59.0099 17.47 58.8369 17.4677H48.4378V9.96191H60.0651C60.2382 9.95962 60.4035 9.88985 60.5259 9.76746C60.6483 9.64507 60.7181 9.47973 60.7203 9.30666C60.7181 9.13358 60.6483 8.96825 60.5259 8.84585C60.4035 8.72346 60.2382 8.65369 60.0651 8.6514H47.7281C47.346 8.6514 47.0184 8.97903 47.0184 9.36111V27.0482C47.0184 27.4303 47.346 27.7575 47.7281 27.7575ZM69.5172 27.0478C69.5172 27.4299 69.8448 27.7575 70.2265 27.7575H81.6085C81.7815 27.7552 81.9469 27.6854 82.0693 27.563C82.1917 27.4406 82.2614 27.2753 82.2637 27.1022C82.2614 26.9292 82.1917 26.7638 82.0693 26.6414C81.9469 26.519 81.7815 26.4493 81.6085 26.447H70.9362V9.2522C70.9362 8.87011 70.6085 8.54248 70.2265 8.54248C69.8444 8.54248 69.5172 8.87011 69.5172 9.2522V27.0478ZM91.3333 27.7575H103.807C103.98 27.7552 104.145 27.6854 104.267 27.563C104.39 27.4406 104.46 27.2753 104.462 27.1022C104.46 26.9292 104.39 26.7638 104.267 26.6414C104.145 26.519 103.98 26.4493 103.807 26.447H92.043V18.7778H102.442C102.615 18.7755 102.781 18.7057 102.903 18.5833C103.025 18.4609 103.095 18.2956 103.097 18.1225C103.095 17.9495 103.025 17.7843 102.903 17.662C102.78 17.5397 102.615 17.47 102.442 17.4677H92.043V9.96191H103.67C103.843 9.95962 104.009 9.88985 104.131 9.76746C104.254 9.64507 104.323 9.47973 104.326 9.30666C104.323 9.13358 104.254 8.96825 104.131 8.84585C104.009 8.72346 103.843 8.65369 103.67 8.6514H91.3333C90.9512 8.6514 90.6236 8.97903 90.6236 9.36111V27.0482C90.6236 27.4303 90.9512 27.7575 91.3333 27.7575ZM121.774 28.0851C124.968 28.0851 127.07 26.9114 129.008 25.1099C129.117 25.0005 129.226 24.8367 129.226 24.6184C129.226 24.2638 128.898 23.9362 128.544 23.9362C128.325 23.9362 128.161 24.0455 128.052 24.1545C126.251 25.8741 124.422 26.802 121.829 26.802C117.271 26.802 113.75 23.0356 113.75 18.204V18.1495C113.75 13.3458 117.216 9.60639 121.802 9.60639C124.477 9.60639 126.305 10.6437 127.888 12.0902C127.998 12.1995 128.188 12.2814 128.38 12.2814C128.762 12.2814 129.117 11.9538 129.117 11.5717C129.117 11.326 128.98 11.1352 128.844 10.9984C126.988 9.41557 124.995 8.32377 121.829 8.32377C116.315 8.32377 112.276 12.7999 112.276 18.2044V18.2589C112.276 23.7449 116.315 28.0851 121.774 28.0851ZM142.772 27.1571C142.772 27.5392 143.1 27.8664 143.482 27.8664C143.864 27.8664 144.191 27.5388 144.191 27.1571V9.96103H150.305C150.478 9.95874 150.643 9.88903 150.766 9.76673C150.888 9.64444 150.958 9.47921 150.96 9.30621C150.958 9.13314 150.888 8.9678 150.766 8.84541C150.644 8.72302 150.478 8.65325 150.305 8.65096H136.658C136.485 8.65325 136.319 8.72302 136.197 8.84541C136.075 8.9678 136.005 9.13314 136.002 9.30621C136.005 9.47929 136.075 9.64462 136.197 9.76702C136.319 9.88941 136.485 9.95918 136.658 9.96147H142.772V27.1571ZM159.375 27.1571C159.375 27.5392 159.702 27.8664 160.085 27.8664C160.467 27.8664 160.794 27.5388 160.794 27.1571V19.8421H167.044L172.913 27.4843C173.077 27.703 173.268 27.8664 173.541 27.8664C173.923 27.8664 174.277 27.5118 174.277 27.1297C174.277 26.9659 174.196 26.802 174.059 26.6382L168.628 19.5964C171.848 19.1594 174.223 17.3309 174.223 14.1374V14.083C174.223 12.718 173.677 11.4354 172.777 10.5344C171.63 9.38812 169.746 8.6514 167.399 8.6514H160.085C159.702 8.6514 159.375 8.97903 159.375 9.36067V27.1571ZM160.794 18.5591V9.96103H167.318C170.784 9.96103 172.804 11.5717 172.804 14.1374V14.1919C172.804 16.9488 170.429 18.5591 167.236 18.5591H160.794ZM192.054 28.0851C197.841 28.0851 201.689 23.4177 201.689 18.2044V18.1495C201.689 12.9363 197.895 8.32377 192.109 8.32377C186.322 8.32377 182.474 12.9912 182.474 18.2044V18.2589C182.474 23.4722 186.268 28.0851 192.054 28.0851H192.054ZM192.109 26.802C187.387 26.802 183.948 22.9263 183.948 18.204V18.1495C183.948 13.4277 187.332 9.60639 192.054 9.60639C196.776 9.60639 200.215 13.4822 200.215 18.2044V18.2589C200.215 22.9807 196.831 26.802 192.109 26.802ZM210.732 27.1841C210.732 27.5662 211.032 27.8664 211.414 27.8664C211.796 27.8664 212.096 27.5662 212.096 27.1846V10.7252L225.225 27.375C225.443 27.6477 225.662 27.839 225.934 27.839H226.044C226.371 27.839 226.617 27.5658 226.617 27.2386V9.22431C226.617 8.84222 226.317 8.54204 225.934 8.54204C225.552 8.54204 225.253 8.84222 225.253 9.22431V25.3282L212.369 8.97858C212.178 8.73331 211.96 8.56949 211.66 8.56949H211.441C211.059 8.56949 210.732 8.89712 210.732 9.27921V27.1841ZM11.294 7.44094C6.78241 6.61921 3.21524 7.47946 1.7936 9.94155C0.732785 11.7789 1.03562 14.2153 2.52855 16.8195C2.58961 16.926 2.69047 17.0039 2.80896 17.0361C2.92744 17.0682 3.05384 17.0519 3.16034 16.9909C3.26684 16.9298 3.34473 16.829 3.37686 16.7105C3.40899 16.592 3.39274 16.4656 3.33168 16.3591C1.98663 14.0134 1.72453 11.9109 2.59496 10.4042C3.77575 8.35875 6.9573 7.59147 11.1279 8.35122C11.1881 8.36315 11.2501 8.36299 11.3102 8.35075C11.3704 8.3385 11.4275 8.31441 11.4782 8.27988C11.529 8.24535 11.5723 8.20107 11.6058 8.14962C11.6392 8.09816 11.6621 8.04057 11.6731 7.98019C11.6841 7.91981 11.6829 7.85785 11.6697 7.79791C11.6566 7.73797 11.6316 7.68126 11.5962 7.63107C11.5609 7.58089 11.516 7.53823 11.464 7.50559C11.412 7.47295 11.3545 7.45097 11.294 7.44094ZM4.87464 19.9847C6.69873 21.9894 9.06873 23.8698 11.7717 25.4304C18.3158 29.2088 25.2828 30.2187 28.7163 27.8775C28.8167 27.808 28.8855 27.7016 28.9078 27.5815C28.9301 27.4614 28.904 27.3374 28.8352 27.2365C28.7664 27.1356 28.6606 27.066 28.5407 27.0428C28.4208 27.0197 28.2966 27.0448 28.1952 27.1129C25.1221 29.2084 18.504 28.2489 12.2343 24.6291C9.61198 23.1149 7.31725 21.2943 5.55912 19.3622C5.51855 19.3161 5.46923 19.2786 5.41401 19.2518C5.35879 19.2249 5.29879 19.2094 5.23749 19.206C5.1762 19.2026 5.11484 19.2114 5.05699 19.2319C4.99914 19.2525 4.94596 19.2843 4.90054 19.3256C4.85513 19.3669 4.81838 19.4169 4.79245 19.4725C4.76653 19.5281 4.75193 19.5884 4.74952 19.6497C4.74711 19.7111 4.75693 19.7723 4.77841 19.8298C4.79989 19.8873 4.8326 19.94 4.87464 19.9847Z" fill="#47848F"/>
<path d="M27.6229 19.4216C30.5768 15.9319 31.6084 12.4219 30.1899 9.96465C29.1459 8.15649 26.9388 7.20194 24.0061 7.16386C23.9454 7.16305 23.885 7.17421 23.8286 7.19671C23.7721 7.21921 23.7207 7.2526 23.6771 7.29499C23.6336 7.33738 23.5988 7.38792 23.5748 7.44374C23.5508 7.49957 23.5381 7.55957 23.5372 7.62033C23.5364 7.68109 23.5476 7.74141 23.5701 7.79785C23.5926 7.8543 23.626 7.90576 23.6684 7.9493C23.7108 7.99283 23.7613 8.0276 23.8171 8.0516C23.873 8.0756 23.933 8.08838 23.9937 8.08919C26.6316 8.12328 28.5331 8.9459 29.3885 10.4273C30.5667 12.4684 29.6471 15.5985 26.9167 18.8239C26.8761 18.8701 26.8451 18.9239 26.8255 18.9822C26.8059 19.0405 26.7982 19.1021 26.8027 19.1634C26.8072 19.2248 26.8239 19.2846 26.8518 19.3394C26.8797 19.3942 26.9183 19.4429 26.9652 19.4826C27.0121 19.5224 27.0665 19.5523 27.1252 19.5708C27.1839 19.5893 27.2456 19.5958 27.3068 19.5902C27.3681 19.5845 27.4276 19.5666 27.4818 19.5377C27.5361 19.5088 27.584 19.4693 27.6229 19.4216ZM20.0312 7.59465C17.3601 8.16711 14.5173 9.28592 11.7873 10.8621C5.03107 14.7626 0.624018 20.5139 1.23633 24.6845C1.24367 24.7459 1.26323 24.8051 1.29386 24.8588C1.32449 24.9125 1.36556 24.9595 1.41466 24.9971C1.46376 25.0346 1.51988 25.062 1.57972 25.0775C1.63956 25.093 1.70189 25.0963 1.76305 25.0873C1.8242 25.0783 1.88293 25.0572 1.93577 25.0251C1.98861 24.993 2.03449 24.9507 2.0707 24.9006C2.10691 24.8505 2.13271 24.7937 2.14659 24.7334C2.16046 24.6732 2.16212 24.6108 2.15148 24.5499C1.60823 20.8472 5.78551 15.3953 12.2495 11.6634C14.898 10.1342 17.651 9.05127 20.2251 8.49917C20.3426 8.47108 20.4445 8.39812 20.5089 8.29591C20.5733 8.1937 20.5952 8.07034 20.5699 7.9522C20.5446 7.83406 20.474 7.73051 20.3734 7.6637C20.2727 7.59688 20.1499 7.5721 20.0312 7.59465Z" fill="#47848F"/>
<path d="M9.08566 27.576C10.6308 31.8883 13.1571 34.5439 15.9986 34.5439C18.0707 34.5439 19.9877 33.1315 21.4829 30.6446C21.5164 30.5925 21.5392 30.5343 21.5498 30.4732C21.5604 30.4122 21.5586 30.3497 21.5446 30.2893C21.5305 30.229 21.5045 30.1721 21.4681 30.122C21.4316 30.0719 21.3855 30.0296 21.3324 29.9977C21.2794 29.9657 21.2204 29.9448 21.1591 29.9361C21.0977 29.9273 21.0353 29.931 20.9754 29.9469C20.9155 29.9627 20.8594 29.9905 20.8105 30.0284C20.7615 30.0664 20.7207 30.1138 20.6904 30.1678C19.3467 32.4028 17.6961 33.619 15.9986 33.619C13.6388 33.619 11.3848 31.2503 9.95698 27.2638C9.93744 27.2054 9.90644 27.1515 9.86579 27.1053C9.82514 27.059 9.77566 27.0213 9.72025 26.9944C9.66485 26.9675 9.60463 26.952 9.54313 26.9486C9.48163 26.9453 9.42009 26.9543 9.36211 26.9751C9.30413 26.9959 9.25089 27.028 9.2055 27.0696C9.16011 27.1113 9.12349 27.1615 9.09778 27.2175C9.07207 27.2735 9.0578 27.334 9.05579 27.3956C9.05379 27.4571 9.06365 27.5185 9.08566 27.576ZM23.1941 26.7321C23.9937 24.1775 24.4227 21.2297 24.4227 18.158C24.4227 10.4941 21.7406 3.88707 17.9197 2.19048C17.8079 2.14275 17.6818 2.14093 17.5687 2.18543C17.4556 2.22992 17.3645 2.31714 17.3152 2.42824C17.2658 2.53934 17.2622 2.6654 17.3051 2.77914C17.348 2.89289 17.4339 2.9852 17.5442 3.03612C20.952 4.54941 23.4978 10.8195 23.4978 18.158C23.4978 21.1376 23.0816 23.9924 22.3113 26.4558C22.2914 26.5143 22.2834 26.5761 22.2877 26.6377C22.2921 26.6992 22.3087 26.7593 22.3367 26.8143C22.3646 26.8694 22.4033 26.9183 22.4504 26.9581C22.4975 26.998 22.5522 27.028 22.6111 27.0465C22.67 27.0649 22.732 27.0714 22.7934 27.0655C22.8549 27.0596 22.9145 27.0415 22.9688 27.0122C23.0232 26.9829 23.0711 26.943 23.1098 26.8949C23.1484 26.8468 23.1771 26.7915 23.1941 26.7321ZM31.9068 26.2792C31.9068 25.692 31.6735 25.1288 31.2583 24.7135C30.8431 24.2983 30.2799 24.065 29.6927 24.065C29.1054 24.065 28.5422 24.2983 28.127 24.7135C27.7118 25.1288 27.4785 25.692 27.4785 26.2792C27.4785 26.8664 27.7118 27.4296 28.127 27.8448C28.5422 28.2601 29.1054 28.4933 29.6927 28.4933C30.2799 28.4933 30.8431 28.2601 31.2583 27.8448C31.6735 27.4296 31.9068 26.8664 31.9068 26.2792ZM30.9815 26.2792C30.9815 26.621 30.8457 26.9488 30.604 27.1905C30.3623 27.4322 30.0345 27.568 29.6927 27.568C29.3508 27.568 29.023 27.4322 28.7813 27.1905C28.5396 26.9488 28.4038 26.621 28.4038 26.2792C28.4038 25.9374 28.5396 25.6096 28.7813 25.3679C29.023 25.1262 29.3508 24.9904 29.6927 24.9904C30.0345 24.9904 30.3623 25.1262 30.604 25.3679C30.8457 25.6096 30.9815 25.9374 30.9815 26.2792ZM2.27275 28.4933C2.85998 28.4933 3.42316 28.2601 3.83839 27.8448C4.25362 27.4296 4.4869 26.8664 4.4869 26.2792C4.4869 25.692 4.25362 25.1288 3.83839 24.7135C3.42316 24.2983 2.85998 24.065 2.27275 24.065C1.68552 24.065 1.12234 24.2983 0.707104 24.7135C0.29187 25.1288 0.0585938 25.692 0.0585938 26.2792C0.0585938 26.8664 0.29187 27.4296 0.707104 27.8448C1.12234 28.2601 1.68552 28.4933 2.27275 28.4933ZM2.27275 27.568C1.93087 27.568 1.603 27.4322 1.36126 27.1905C1.11951 26.9487 0.983703 26.6208 0.983703 26.279C0.983703 25.9371 1.11951 25.6092 1.36126 25.3675C1.603 25.1257 1.93087 24.9899 2.27275 24.9899C2.61462 24.9899 2.9425 25.1257 3.18424 25.3675C3.42598 25.6092 3.56179 25.9371 3.56179 26.279C3.56179 26.6208 3.42598 26.9487 3.18424 27.1905C2.9425 27.4322 2.61462 27.568 2.27275 27.568Z" fill="#47848F"/>
<path d="M15.9993 4.44857C16.2901 4.44857 16.578 4.3913 16.8466 4.28003C17.1153 4.16876 17.3593 4.00566 17.565 3.80006C17.7706 3.59446 17.9336 3.35037 18.0449 3.08174C18.1562 2.8131 18.2135 2.52518 18.2135 2.23442C18.2135 1.94365 18.1562 1.65573 18.0449 1.3871C17.9336 1.11846 17.7706 0.874377 17.565 0.668774C17.3593 0.463171 17.1153 0.300078 16.8466 0.188806C16.578 0.0775344 16.2901 0.0202637 15.9993 0.0202637C15.4121 0.0202637 14.8489 0.25354 14.4337 0.668774C14.0184 1.08401 13.7852 1.64719 13.7852 2.23442C13.7852 2.82165 14.0184 3.38483 14.4337 3.80006C14.8489 4.21529 15.4121 4.44857 15.9993 4.44857ZM15.9993 3.52324C15.8301 3.52324 15.6625 3.4899 15.5061 3.42513C15.3497 3.36036 15.2077 3.26543 15.088 3.14575C14.9683 3.02607 14.8734 2.88399 14.8086 2.72763C14.7438 2.57126 14.7105 2.40367 14.7105 2.23442C14.7105 2.06517 14.7438 1.89757 14.8086 1.74121C14.8734 1.58484 14.9683 1.44276 15.088 1.32308C15.2077 1.2034 15.3497 1.10847 15.5061 1.0437C15.6625 0.978931 15.8301 0.945594 15.9993 0.945594C16.3412 0.945594 16.6691 1.0814 16.9108 1.32315C17.1525 1.56489 17.2884 1.89276 17.2884 2.23464C17.2884 2.57651 17.1525 2.90439 16.9108 3.14613C16.6691 3.38787 16.3412 3.52324 15.9993 3.52324ZM16.3376 19.7241C16.1319 19.7685 15.9195 19.7719 15.7125 19.7343C15.5054 19.6966 15.3079 19.6185 15.131 19.5045C14.7739 19.2742 14.5228 18.9115 14.4331 18.4961C14.3434 18.0807 14.4224 17.6467 14.6527 17.2896C14.8829 16.9324 15.2457 16.6814 15.6611 16.5917C16.0736 16.5092 16.502 16.5922 16.8538 16.8229C17.2056 17.0536 17.4526 17.4133 17.5414 17.8245C17.6302 18.2357 17.5538 18.6654 17.3285 19.0207C17.1033 19.376 16.7474 19.6289 16.3376 19.7241Z" fill="#47848F"/>
</g>
<defs>
<clipPath id="clip0_2114_10000">
<rect width="226.684" height="35" fill="white"/>
</clipPath>
</defs>
</svg>
