<svg width="32" height="32" viewBox="0 0 32 32" fill="none" xmlns="http://www.w3.org/2000/svg">
<g clip-path="url(#clip0_1932_595)">
<path d="M30.912 12.08L27.888 11.072L29.312 8.224C29.4564 7.9259 29.5046 7.59035 29.4502 7.26364C29.3957 6.93693 29.2412 6.63518 29.008 6.4L25.6 2.992C25.3636 2.75534 25.0589 2.59874 24.7289 2.54421C24.3988 2.48968 24.06 2.53997 23.76 2.688L20.912 4.112L19.904 1.08801C19.7975 0.772793 19.5955 0.498606 19.3259 0.303602C19.0563 0.108598 18.7327 0.00247628 18.4 5.33366e-06H13.6C13.2646 -0.000860525 12.9374 0.103716 12.6646 0.298952C12.3918 0.494189 12.1873 0.770212 12.08 1.08801L11.072 4.112L8.224 2.688C7.9259 2.54365 7.59035 2.49537 7.26364 2.54982C6.93693 2.60427 6.63518 2.75877 6.4 2.992L2.992 6.4C2.75534 6.63643 2.59874 6.94108 2.54421 7.27113C2.48968 7.60118 2.53997 7.94002 2.688 8.24L4.112 11.088L1.08801 12.096C0.772793 12.2025 0.498606 12.4045 0.303602 12.6741C0.108598 12.9437 0.00247628 13.2673 5.33366e-06 13.6V18.4C-0.000860525 18.7354 0.103716 19.0626 0.298952 19.3354C0.494189 19.6082 0.770212 19.8127 1.08801 19.92L4.112 20.928L2.688 23.776C2.54365 24.0741 2.49537 24.4097 2.54982 24.7364C2.60427 25.0631 2.75877 25.3648 2.992 25.6L6.4 29.008C6.63643 29.2447 6.94108 29.4013 7.27113 29.4558C7.60118 29.5103 7.94002 29.46 8.24 29.312L11.088 27.888L12.096 30.912C12.2033 31.2298 12.4078 31.5058 12.6806 31.701C12.9534 31.8963 13.2806 32.0009 13.616 32H18.416C18.7514 32.0009 19.0786 31.8963 19.3514 31.701C19.6242 31.5058 19.8287 31.2298 19.936 30.912L20.944 27.888L23.792 29.312C24.0882 29.4527 24.4205 29.499 24.7439 29.4446C25.0672 29.3903 25.3661 29.2378 25.6 29.008L29.008 25.6C29.2447 25.3636 29.4013 25.0589 29.4558 24.7289C29.5103 24.3988 29.46 24.06 29.312 23.76L27.888 20.912L30.912 19.904C31.2272 19.7975 31.5014 19.5955 31.6964 19.3259C31.8914 19.0563 31.9975 18.7327 32 18.4V13.6C32.0009 13.2646 31.8963 12.9374 31.701 12.6646C31.5058 12.3918 31.2298 12.1873 30.912 12.08ZM28.8 17.248L26.88 17.888C26.4385 18.0312 26.0334 18.2688 25.6929 18.5842C25.3524 18.8996 25.0845 19.2853 24.9079 19.7145C24.7314 20.1438 24.6503 20.6063 24.6703 21.07C24.6904 21.5338 24.811 21.9876 25.024 22.4L25.936 24.224L24.176 25.984L22.4 25.024C21.9897 24.8196 21.5402 24.7057 21.0821 24.6901C20.6239 24.6744 20.1678 24.7574 19.7445 24.9334C19.3212 25.1094 18.9407 25.3743 18.6287 25.7101C18.3167 26.046 18.0804 26.4449 17.936 26.88L17.296 28.8H14.752L14.112 26.88C13.9688 26.4385 13.7312 26.0334 13.4158 25.6929C13.1004 25.3524 12.7147 25.0845 12.2855 24.9079C11.8562 24.7314 11.3937 24.6503 10.93 24.6703C10.4662 24.6904 10.0124 24.811 9.6 25.024L7.776 25.936L6.016 24.176L6.976 22.4C7.18895 21.9876 7.30964 21.5338 7.32968 21.07C7.34972 20.6063 7.26864 20.1438 7.09206 19.7145C6.91549 19.2853 6.64765 18.8996 6.30712 18.5842C5.96658 18.2688 5.56151 18.0312 5.12 17.888L3.2 17.248V14.752L5.12 14.112C5.56151 13.9688 5.96658 13.7312 6.30712 13.4158C6.64765 13.1004 6.91549 12.7147 7.09206 12.2855C7.26864 11.8562 7.34972 11.3937 7.32968 10.93C7.30964 10.4662 7.18895 10.0124 6.976 9.6L6.064 7.824L7.824 6.064L9.6 6.976C10.0124 7.18895 10.4662 7.30964 10.93 7.32968C11.3937 7.34972 11.8562 7.26864 12.2855 7.09206C12.7147 6.91549 13.1004 6.64765 13.4158 6.30712C13.7312 5.96658 13.9688 5.56151 14.112 5.12L14.752 3.2H17.248L17.888 5.12C18.0312 5.56151 18.2688 5.96658 18.5842 6.30712C18.8996 6.64765 19.2853 6.91549 19.7145 7.09206C20.1438 7.26864 20.6063 7.34972 21.07 7.32968C21.5338 7.30964 21.9876 7.18895 22.4 6.976L24.224 6.064L25.984 7.824L25.024 9.6C24.8196 10.0103 24.7057 10.4598 24.6901 10.9179C24.6744 11.3761 24.7574 11.8322 24.9334 12.2555C25.1094 12.6788 25.3743 13.0593 25.7101 13.3713C26.046 13.6833 26.4449 13.9196 26.88 14.064L28.8 14.704V17.248ZM16 9.6C14.7342 9.6 13.4968 9.97536 12.4444 10.6786C11.3919 11.3818 10.5716 12.3814 10.0872 13.5508C9.60277 14.7203 9.47603 16.0071 9.72298 17.2486C9.96992 18.4901 10.5795 19.6304 11.4745 20.5255C12.3696 21.4205 13.5099 22.0301 14.7514 22.277C15.9929 22.524 17.2797 22.3972 18.4492 21.9128C19.6186 21.4284 20.6182 20.6081 21.3214 19.5556C22.0246 18.5032 22.4 17.2658 22.4 16C22.4 14.3026 21.7257 12.6748 20.5255 11.4745C19.3253 10.2743 17.6974 9.6 16 9.6ZM16 19.2C15.3671 19.2 14.7484 19.0123 14.2222 18.6607C13.6959 18.3091 13.2858 17.8093 13.0436 17.2246C12.8014 16.6399 12.738 15.9965 12.8615 15.3757C12.985 14.755 13.2897 14.1848 13.7373 13.7373C14.1848 13.2897 14.755 12.985 15.3757 12.8615C15.9965 12.738 16.6399 12.8014 17.2246 13.0436C17.8093 13.2858 18.3091 13.6959 18.6607 14.2222C19.0123 14.7484 19.2 15.3671 19.2 16C19.2 16.8487 18.8629 17.6626 18.2627 18.2627C17.6626 18.8629 16.8487 19.2 16 19.2Z" fill="#0A74E6"/>
</g>
<defs>
<clipPath id="clip0_1932_595">
<rect width="32" height="32" fill="white"/>
</clipPath>
</defs>
</svg>
