<svg width="32" height="32" viewBox="0 0 32 32" fill="none" xmlns="http://www.w3.org/2000/svg">
<g clip-path="url(#clip0_1932_601)">
<path d="M30.5455 20.3636H27.6364V16C27.6364 15.6142 27.4831 15.2443 27.2103 14.9715C26.9376 14.6987 26.5676 14.5455 26.1818 14.5455H17.4545V11.6364H20.3636C20.7494 11.6364 21.1194 11.4831 21.3922 11.2103C21.6649 10.9376 21.8182 10.5676 21.8182 10.1818V1.45455C21.8182 1.06878 21.6649 0.698807 21.3922 0.426026C21.1194 0.153246 20.7494 0 20.3636 0H11.6364C11.2506 0 10.8806 0.153246 10.6078 0.426026C10.3351 0.698807 10.1818 1.06878 10.1818 1.45455V10.1818C10.1818 10.5676 10.3351 10.9376 10.6078 11.2103C10.8806 11.4831 11.2506 11.6364 11.6364 11.6364H14.5455V14.5455H5.81818C5.43241 14.5455 5.06244 14.6987 4.78966 14.9715C4.51688 15.2443 4.36364 15.6142 4.36364 16V20.3636H1.45455C1.06878 20.3636 0.698807 20.5169 0.426026 20.7897C0.153246 21.0624 0 21.4324 0 21.8182V30.5455C0 30.9312 0.153246 31.3012 0.426026 31.574C0.698807 31.8468 1.06878 32 1.45455 32H10.1818C10.5676 32 10.9376 31.8468 11.2103 31.574C11.4831 31.3012 11.6364 30.9312 11.6364 30.5455V21.8182C11.6364 21.4324 11.4831 21.0624 11.2103 20.7897C10.9376 20.5169 10.5676 20.3636 10.1818 20.3636H7.27273V17.4545H24.7273V20.3636H21.8182C21.4324 20.3636 21.0624 20.5169 20.7897 20.7897C20.5169 21.0624 20.3636 21.4324 20.3636 21.8182V30.5455C20.3636 30.9312 20.5169 31.3012 20.7897 31.574C21.0624 31.8468 21.4324 32 21.8182 32H30.5455C30.9312 32 31.3012 31.8468 31.574 31.574C31.8468 31.3012 32 30.9312 32 30.5455V21.8182C32 21.4324 31.8468 21.0624 31.574 20.7897C31.3012 20.5169 30.9312 20.3636 30.5455 20.3636ZM8.72727 23.2727V29.0909H2.90909V23.2727H8.72727ZM13.0909 8.72727V2.90909H18.9091V8.72727H13.0909ZM29.0909 29.0909H23.2727V23.2727H29.0909V29.0909Z" fill="#0A74E6"/>
</g>
<defs>
<clipPath id="clip0_1932_601">
<rect width="32" height="32" fill="white"/>
</clipPath>
</defs>
</svg>
