<svg fill="currentColor" viewBox="0 0 22 22" xmlns="http://www.w3.org/2000/svg">
<path d="M5.1687 15.5833L4.51786 16.2342C4.34713 16.4059 4.2513 16.6382 4.2513 16.8804C4.2513 17.1226 4.34713 17.3549 4.51786 17.5267C4.68961 17.6974 4.92194 17.7932 5.16411 17.7932C5.40629 17.7932 5.63862 17.6974 5.81036 17.5267L6.4612 16.8758C6.61137 16.7005 6.68984 16.4749 6.68093 16.2442C6.67202 16.0135 6.57638 15.7946 6.41313 15.6314C6.24988 15.4681 6.03103 15.3725 5.80033 15.3636C5.56963 15.3547 5.34406 15.4332 5.1687 15.5833ZM4.58203 11C4.58203 10.7569 4.48545 10.5237 4.31355 10.3518C4.14164 10.1799 3.90848 10.0833 3.66536 10.0833H2.7487C2.50558 10.0833 2.27242 10.1799 2.10052 10.3518C1.92861 10.5237 1.83203 10.7569 1.83203 11C1.83203 11.2431 1.92861 11.4763 2.10052 11.6482C2.27242 11.8201 2.50558 11.9167 2.7487 11.9167H3.66536C3.90848 11.9167 4.14164 11.8201 4.31355 11.6482C4.48545 11.4763 4.58203 11.2431 4.58203 11ZM10.9987 4.58333C11.2418 4.58333 11.475 4.48675 11.6469 4.31484C11.8188 4.14293 11.9154 3.90978 11.9154 3.66666V2.74999C11.9154 2.50688 11.8188 2.27372 11.6469 2.10181C11.475 1.92991 11.2418 1.83333 10.9987 1.83333C10.7556 1.83333 10.5224 1.92991 10.3505 2.10181C10.1786 2.27372 10.082 2.50688 10.082 2.74999V3.66666C10.082 3.90978 10.1786 4.14293 10.3505 4.31484C10.5224 4.48675 10.7556 4.58333 10.9987 4.58333ZM5.1687 6.4625C5.33944 6.63184 5.56989 6.72732 5.81036 6.72833C5.931 6.72903 6.05059 6.7059 6.16228 6.66029C6.27396 6.61467 6.37555 6.54745 6.4612 6.4625C6.63193 6.29075 6.72776 6.05841 6.72776 5.81624C6.72776 5.57407 6.63193 5.34174 6.4612 5.16999L5.81036 4.51916C5.63501 4.36899 5.40944 4.29052 5.17873 4.29943C4.94803 4.30834 4.72918 4.40398 4.56593 4.56723C4.40268 4.73048 4.30704 4.94933 4.29813 5.18003C4.28922 5.41073 4.36769 5.6363 4.51786 5.81166L5.1687 6.4625ZM16.1687 6.72833C16.4092 6.72732 16.6396 6.63184 16.8104 6.4625L17.4612 5.81166C17.5572 5.72949 17.6351 5.62836 17.6901 5.51463C17.7451 5.40091 17.7761 5.27704 17.7809 5.15079C17.7858 5.02455 17.7645 4.89866 17.7184 4.78103C17.6724 4.6634 17.6025 4.55657 17.5131 4.46723C17.4238 4.3779 17.317 4.308 17.1993 4.26191C17.0817 4.21583 16.9558 4.19455 16.8296 4.19943C16.7033 4.20431 16.5795 4.23523 16.4657 4.29025C16.352 4.34527 16.2509 4.4232 16.1687 4.51916L15.582 5.16999C15.4113 5.34174 15.3155 5.57407 15.3155 5.81624C15.3155 6.05841 15.4113 6.29075 15.582 6.4625C15.7436 6.62324 15.9593 6.71802 16.187 6.72833H16.1687ZM19.2487 10.0833H18.332C18.0889 10.0833 17.8558 10.1799 17.6838 10.3518C17.5119 10.5237 17.4154 10.7569 17.4154 11C17.4154 11.2431 17.5119 11.4763 17.6838 11.6482C17.8558 11.8201 18.0889 11.9167 18.332 11.9167H19.2487C19.4918 11.9167 19.725 11.8201 19.8969 11.6482C20.0688 11.4763 20.1654 11.2431 20.1654 11C20.1654 10.7569 20.0688 10.5237 19.8969 10.3518C19.725 10.1799 19.4918 10.0833 19.2487 10.0833ZM10.9987 17.4167C10.7556 17.4167 10.5224 17.5132 10.3505 17.6851C10.1786 17.8571 10.082 18.0902 10.082 18.3333V19.25C10.082 19.4931 10.1786 19.7263 10.3505 19.8982C10.5224 20.0701 10.7556 20.1667 10.9987 20.1667C11.2418 20.1667 11.475 20.0701 11.6469 19.8982C11.8188 19.7263 11.9154 19.4931 11.9154 19.25V18.3333C11.9154 18.0902 11.8188 17.8571 11.6469 17.6851C11.475 17.5132 11.2418 17.4167 10.9987 17.4167ZM16.8287 15.5833C16.6545 15.4865 16.4536 15.449 16.2562 15.4766C16.0588 15.5042 15.8758 15.5953 15.7349 15.7362C15.594 15.8771 15.5029 16.0601 15.4753 16.2575C15.4477 16.4549 15.4852 16.6558 15.582 16.83L16.2329 17.4808C16.4046 17.6516 16.6369 17.7474 16.8791 17.7474C17.1213 17.7474 17.3536 17.6516 17.5254 17.4808C17.6961 17.3091 17.7919 17.0767 17.7919 16.8346C17.7919 16.5924 17.6961 16.3601 17.5254 16.1883L16.8287 15.5833ZM10.9987 5.95833C10.0016 5.95833 9.0268 6.25402 8.1977 6.808C7.3686 7.36199 6.7224 8.14939 6.34081 9.07063C5.95921 9.99188 5.85937 11.0056 6.05391 11.9836C6.24844 12.9616 6.72861 13.8599 7.4337 14.565C8.13879 15.2701 9.03713 15.7503 10.0151 15.9448C10.9931 16.1393 12.0068 16.0395 12.9281 15.6579C13.8493 15.2763 14.6367 14.6301 15.1907 13.801C15.7447 12.9719 16.0404 11.9971 16.0404 11C16.0379 9.66361 15.506 8.38265 14.561 7.43767C13.616 6.4927 12.3351 5.96075 10.9987 5.95833ZM10.9987 14.2083C10.3642 14.2083 9.74385 14.0202 9.21624 13.6676C8.68864 13.3151 8.27742 12.814 8.03458 12.2278C7.79175 11.6415 7.72822 10.9964 7.85201 10.3741C7.97581 9.75172 8.28137 9.18005 8.73006 8.73136C9.17876 8.28267 9.75043 7.9771 10.3728 7.85331C10.9951 7.72951 11.6402 7.79305 12.2265 8.03588C12.8127 8.27871 13.3138 8.68993 13.6663 9.21754C14.0189 9.74515 14.207 10.3654 14.207 11C14.207 11.8509 13.869 12.667 13.2673 13.2686C12.6657 13.8703 11.8496 14.2083 10.9987 14.2083Z"/>
</svg>
