<svg width="172" height="35" viewBox="0 0 172 35" fill="none" xmlns="http://www.w3.org/2000/svg">
<path d="M56.3313 19.4864H52.6735V25.7859H50.6094V10.2136H55.7645C57.5185 10.2136 58.8661 10.6132 59.8072 11.4118C60.7556 12.2099 61.2297 13.3723 61.2297 14.898C61.2297 15.8679 60.9659 16.7126 60.4383 17.4332C59.9178 18.1532 59.1905 18.6916 58.2565 19.0478L61.9142 25.6574V25.7859H59.711L56.3313 19.4864ZM52.6735 17.8073H55.8287C56.8483 17.8073 57.6575 17.5433 58.2565 17.0157C58.8625 16.4882 59.1655 15.7823 59.1655 14.898C59.1655 13.9356 58.8768 13.1977 58.2992 12.6843C57.7288 12.1709 56.9017 11.9106 55.8179 11.9036H52.6735V17.8073ZM68.6096 26.0001C67.0408 26.0001 65.7645 25.4866 64.7805 24.4598C63.7966 23.4258 63.3046 22.046 63.3046 20.3208V19.957C63.3046 18.8092 63.5221 17.7861 63.957 16.8878C64.3991 15.9818 65.0123 15.2759 65.7966 14.77C66.588 14.2566 67.4436 13.9996 68.3634 13.9996C69.868 13.9996 71.0375 14.4952 71.8714 15.4863C72.7058 16.4773 73.1227 17.8962 73.1227 19.7429V20.5664H65.2832C65.3117 21.7077 65.6433 22.631 66.2779 23.3369C66.9196 24.0352 67.7324 24.3849 68.7165 24.3849C69.4153 24.3849 70.0068 24.2424 70.4915 23.9572C70.9768 23.672 71.4008 23.2941 71.7646 22.8235L72.9731 23.7647C72.0031 25.2546 70.549 26.0001 68.6096 26.0001ZM68.3634 15.6256C67.5649 15.6256 66.8946 15.9178 66.3527 16.5023C65.8108 17.0802 65.4757 17.893 65.3474 18.941H71.1443V18.7913C71.0874 17.7861 70.8163 17.0087 70.3316 16.4594C69.8463 15.9037 69.1903 15.6256 68.3634 15.6256ZM82.5668 25.7859C82.4524 25.5577 82.3597 25.1516 82.2887 24.5666C81.3686 25.5219 80.2707 26.0001 78.9944 26.0001C77.8537 26.0001 76.9163 25.6791 76.1816 25.0372C75.4546 24.3882 75.0908 23.5684 75.0908 22.5773C75.0908 21.3726 75.5473 20.4385 76.4598 19.7754C77.3793 19.1047 78.6702 18.7697 80.3314 18.7697H82.2567V17.861C82.2567 17.1692 82.0496 16.6199 81.6364 16.2138C81.2228 15.8002 80.6128 15.5936 79.8072 15.5936C79.1012 15.5936 78.5097 15.7714 78.0321 16.1282C77.5544 16.4844 77.3153 16.916 77.3153 17.4224H75.3261C75.3261 16.8449 75.5294 16.2887 75.9355 15.7535C76.3492 15.2119 76.9054 14.7841 77.6043 14.4702C78.3102 14.1568 79.0834 13.9996 79.9248 13.9996C81.2586 13.9996 82.3028 14.3347 83.0586 15.0053C83.8144 15.6684 84.2064 16.5847 84.2351 17.7536V23.0799C84.2351 24.1426 84.3706 24.9873 84.6417 25.6146V25.7859H82.5668ZM79.2834 24.2781C79.9037 24.2781 80.4919 24.1177 81.0482 23.7967C81.6039 23.4757 82.0068 23.0588 82.2567 22.5453V20.1712H80.7055C78.2815 20.1712 77.0692 20.8803 77.0692 22.2992C77.0692 22.9194 77.2763 23.4047 77.6894 23.7539C78.1031 24.103 78.6344 24.2781 79.2834 24.2781ZM91.9784 24.3849C92.6843 24.3849 93.3013 24.1708 93.8288 23.743C94.3564 23.3152 94.6486 22.7807 94.7055 22.1387H96.5777C96.5419 22.8018 96.3136 23.4329 95.8929 24.032C95.4722 24.6311 94.9089 25.1087 94.2029 25.465C93.5041 25.8217 92.7629 26.0001 91.9784 26.0001C90.4029 26.0001 89.1477 25.4758 88.2136 24.4278C87.287 23.3722 86.8234 21.9321 86.8234 20.1066V19.7754C86.8234 18.6487 87.03 17.6468 87.4437 16.7701C87.8573 15.8929 88.4489 15.2119 89.2193 14.7272C89.9962 14.242 90.9125 13.9996 91.9676 13.9996C93.2655 13.9996 94.3423 14.3884 95.1978 15.1658C96.0604 15.9428 96.5202 16.9517 96.5777 18.1922H94.7055C94.6486 17.4435 94.3634 16.8303 93.85 16.3526C93.3441 15.8679 92.7163 15.6256 91.9676 15.6256C90.9624 15.6256 90.1816 15.9888 89.6254 16.7164C89.0767 17.4364 88.8018 18.4812 88.8018 19.8502V20.2243C88.8018 21.5575 89.0767 22.5844 89.6254 23.3044C90.1746 24.0249 90.9591 24.3849 91.9784 24.3849ZM101.487 11.4118V14.2138H103.647V15.7432H101.487V22.9194C101.487 23.383 101.583 23.7322 101.775 23.9675C101.968 24.1957 102.296 24.3101 102.76 24.3101C102.987 24.3101 103.301 24.2673 103.7 24.1816V25.7859C103.18 25.9285 102.674 26.0001 102.182 26.0001C101.298 26.0001 100.631 25.7322 100.181 25.1977C99.7326 24.6631 99.5081 23.9035 99.5081 22.9194V15.7432H97.4007V14.2138H99.5081V11.4118H101.487ZM123.679 25.7859H121.615L113.775 13.786V25.7859H111.711V10.2136H113.775L121.636 22.2672V10.2136H123.679V25.7859ZM134.161 25.7859C134.046 25.5577 133.953 25.1516 133.882 24.5666C132.962 25.5219 131.864 26.0001 130.588 26.0001C129.447 26.0001 128.51 25.6791 127.775 25.0372C127.048 24.3882 126.685 23.5684 126.685 22.5773C126.685 21.3726 127.141 20.4385 128.054 19.7754C128.973 19.1047 130.264 18.7697 131.925 18.7697H133.85V17.861C133.85 17.1692 133.643 16.6199 133.23 16.2138C132.817 15.8002 132.207 15.5936 131.401 15.5936C130.695 15.5936 130.104 15.7714 129.626 16.1282C129.148 16.4844 128.909 16.916 128.909 17.4224H126.92C126.92 16.8449 127.123 16.2887 127.529 15.7535C127.943 15.2119 128.499 14.7841 129.198 14.4702C129.904 14.1568 130.677 13.9996 131.519 13.9996C132.852 13.9996 133.897 14.3347 134.652 15.0053C135.408 15.6684 135.8 16.5847 135.829 17.7536V23.0799C135.829 24.1426 135.964 24.9873 136.235 25.6146V25.7859H134.161ZM130.877 24.2781C131.497 24.2781 132.086 24.1177 132.642 23.7967C133.198 23.4757 133.601 23.0588 133.85 22.5453V20.1712H132.299C129.875 20.1712 128.663 20.8803 128.663 22.2992C128.663 22.9194 128.87 23.4047 129.283 23.7539C129.697 24.103 130.228 24.2781 130.877 24.2781ZM141.615 11.4118V14.2138H143.775V15.7432H141.615V22.9194C141.615 23.383 141.711 23.7322 141.904 23.9675C142.096 24.1957 142.424 24.3101 142.888 24.3101C143.116 24.3101 143.43 24.2673 143.829 24.1816V25.7859C143.308 25.9285 142.802 26.0001 142.31 26.0001C141.426 26.0001 140.759 25.7322 140.31 25.1977C139.861 24.6631 139.637 23.9035 139.637 22.9194V15.7432H137.53V14.2138H139.637V11.4118H141.615ZM148.246 25.7859H146.267V14.2138H148.246V25.7859ZM146.107 11.144C146.107 10.8236 146.203 10.5525 146.396 10.3313C146.595 10.1101 146.888 10 147.273 10C147.658 10 147.95 10.1101 148.15 10.3313C148.349 10.5525 148.449 10.8236 148.449 11.144C148.449 11.4649 148.349 11.7322 148.15 11.9464C147.95 12.16 147.658 12.2674 147.273 12.2674C146.888 12.2674 146.595 12.16 146.396 11.9464C146.203 11.7322 146.107 11.4649 146.107 11.144ZM155.241 23.1016L158.107 14.2138H160.129L155.979 25.7859H154.47L150.278 14.2138H152.3L155.241 23.1016ZM166.684 26.0001C165.116 26.0001 163.84 25.4866 162.856 24.4598C161.872 23.4258 161.38 22.046 161.38 20.3208V19.957C161.38 18.8092 161.597 17.7861 162.032 16.8878C162.474 15.9818 163.087 15.2759 163.872 14.77C164.663 14.2566 165.519 13.9996 166.438 13.9996C167.943 13.9996 169.112 14.4952 169.947 15.4863C170.781 16.4773 171.198 17.8962 171.198 19.7429V20.5664H163.358C163.387 21.7077 163.718 22.631 164.353 23.3369C164.995 24.0352 165.808 24.3849 166.791 24.3849C167.49 24.3849 168.082 24.2424 168.567 23.9572C169.052 23.672 169.476 23.2941 169.84 22.8235L171.048 23.7647C170.079 25.2546 168.624 26.0001 166.684 26.0001ZM166.438 15.6256C165.64 15.6256 164.97 15.9178 164.428 16.5023C163.886 17.0802 163.551 17.893 163.423 18.941H169.219V18.7913C169.162 17.7861 168.891 17.0087 168.406 16.4594C167.922 15.9037 167.266 15.6256 166.438 15.6256Z" fill="#61DAFB"/>
<path fill-rule="evenodd" clip-rule="evenodd" d="M31.0427 10.903C36.0416 12.4331 39.302 14.9005 39.302 17.504C39.302 20.0996 36.0575 22.567 31.0907 24.0972C32.2524 29.176 31.7476 33.2216 29.4966 34.5194C28.9678 34.8239 28.3589 34.9681 27.6861 34.9681C25.4831 34.9681 22.599 33.414 19.6831 30.7062C16.7671 33.4299 13.8831 35 11.6801 35C11.0071 35 10.3984 34.8558 9.87763 34.5514C7.61839 33.2536 7.10571 29.2002 8.25933 24.1051C3.26047 22.5751 0 20.1077 0 17.504C0 14.9085 3.24446 12.4491 8.22727 10.911C7.06576 5.83201 7.57038 1.78645 9.82156 0.488677C10.3502 0.184257 10.9591 0.0400542 11.6321 0.0400542V0.0320471C13.8351 0.0320471 16.7189 1.58618 19.6351 4.2939C22.551 1.57016 25.4349 0 27.638 0V0.00801421C28.2998 0.00917633 28.9057 0.153441 29.4244 0.45663C31.6836 1.75442 32.1963 5.80799 31.0427 10.903ZM27.63 1.78646C25.9638 1.79074 23.5161 3.1202 20.9087 5.54362C22.0383 6.72123 23.1599 8.06708 24.2413 9.54913C26.0438 9.74139 27.7581 10.0378 29.3284 10.4223C29.5046 9.61321 29.6488 8.82013 29.7368 8.06708C30.1054 5.00688 29.6327 2.62761 28.5432 2.00275C28.2949 1.86658 27.9985 1.79447 27.63 1.79447V1.78646ZM18.3612 5.55163C15.7496 3.14033 13.2903 1.8185 11.6321 1.8185V1.82652C11.2634 1.82652 10.951 1.8906 10.7108 2.0348C9.62917 2.66766 9.16467 5.04694 9.54103 8.10714C9.63723 8.85216 9.77337 9.62924 9.9577 10.4303C11.5278 10.0378 13.2421 9.74139 15.0526 9.54913C16.1181 8.06708 17.2397 6.72926 18.3612 5.55163ZM27.7901 15.325C28.2068 14.2595 28.5753 13.1942 28.8717 12.1607C27.8222 11.9044 26.7246 11.6961 25.5871 11.5278C25.9796 12.1367 26.3723 12.7615 26.7408 13.4024C27.1173 14.0433 27.4618 14.6842 27.7901 15.325ZM23.272 23.7527C23.937 22.7994 24.5777 21.774 25.2025 20.6924C25.8035 19.643 26.3562 18.5695 26.861 17.4961C26.3562 16.4226 25.8035 15.3571 25.1947 14.3077C24.5698 13.2341 23.9208 12.2168 23.2559 11.2635C22.0704 11.1673 20.8607 11.1113 19.651 11.1113C18.4332 11.1113 17.2237 11.1673 16.03 11.2715C15.365 12.2248 14.7243 13.2503 14.0995 14.3317C13.4985 15.3811 12.9378 16.4546 12.441 17.5282C12.9458 18.6015 13.4985 19.667 14.1073 20.7164C14.7322 21.7899 15.3812 22.8072 16.0461 23.7606C17.2316 23.8568 18.4413 23.9129 19.651 23.9129C20.8687 23.9129 22.0783 23.8568 23.272 23.7527ZM28.8957 22.8393C28.5796 21.7591 28.2107 20.6951 27.7901 19.6511C27.4618 20.2918 27.1173 20.9408 26.7488 21.5816C26.3802 22.2306 25.9877 22.8635 25.5952 23.4803C26.7408 23.312 27.8462 23.0957 28.8957 22.8393ZM17.4399 25.6352C18.1769 26.5725 18.9219 27.4296 19.6669 28.1988C20.447 27.3846 21.1825 26.5288 21.8701 25.6352C21.141 25.6754 20.396 25.6913 19.6429 25.6913C18.8979 25.6913 18.161 25.6673 17.4399 25.6352ZM10.4224 22.8474C11.4717 23.1037 12.5693 23.312 13.7068 23.4803C13.3143 22.8714 12.9297 22.2466 12.5532 21.6056C12.1768 20.9649 11.8323 20.3239 11.5038 19.683C11.0873 20.7485 10.7187 21.814 10.4224 22.8474ZM21.854 9.37288C21.117 8.4356 20.372 7.57841 19.627 6.80937C18.847 7.62355 18.1116 8.4793 17.424 9.37288C18.1529 9.33283 18.8979 9.31681 19.651 9.31681C20.396 9.31681 21.133 9.34083 21.854 9.37288ZM12.5453 13.4264C12.9138 12.7776 13.3063 12.1447 13.6987 11.5278C12.5532 11.6961 11.4477 11.9124 10.3984 12.1607C10.7143 13.241 11.0832 14.305 11.5038 15.349C11.8323 14.7082 12.1768 14.0673 12.5453 13.4264ZM1.77844 17.504C1.77844 18.7619 3.61297 20.3479 6.44882 21.5576C7.14583 21.8541 7.89891 22.1264 8.69194 22.3748C9.14049 20.8126 9.73342 19.1864 10.4704 17.5201C9.72536 15.8457 9.12455 14.2115 8.66793 12.6414C7.89085 12.8897 7.13777 13.1541 6.44882 13.4505C3.61297 14.6522 1.77844 16.2463 1.77844 17.504ZM9.56522 26.9409C9.19656 30.0013 9.66929 32.3805 10.7588 33.0053C10.9992 33.1415 11.3035 33.2137 11.664 33.2216C13.3303 33.2216 15.7817 31.8918 18.3933 29.4644C17.2637 28.2868 16.1421 26.9409 15.0607 25.459C13.2582 25.2668 11.5439 24.9703 9.97364 24.5857C9.79737 25.3948 9.65335 26.188 9.56522 26.9409ZM28.5912 32.9733C29.6728 32.3404 30.1373 29.9611 29.761 26.901C29.6728 26.156 29.5286 25.3789 29.3443 24.5697C27.7742 24.9622 26.0599 25.2587 24.2494 25.4509C23.1839 26.9331 22.0623 28.2708 20.9408 29.4485C23.5524 31.8598 26.0117 33.1816 27.6699 33.1816C28.0386 33.1816 28.351 33.1175 28.5912 32.9733ZM30.626 22.3668C31.4031 22.1185 32.1562 21.8541 32.8451 21.5576C35.681 20.356 37.5155 18.7619 37.5236 17.504C37.5236 16.2463 35.689 14.6601 32.8532 13.4505C32.1481 13.1541 31.3952 12.8817 30.602 12.6334C30.1534 14.1956 29.5607 15.8217 28.8236 17.488C29.5686 19.1624 30.1694 20.7966 30.626 22.3668ZM23.3015 17.3846C23.3015 19.3513 21.7072 20.9457 19.7404 20.9457C17.7736 20.9457 16.1792 19.3513 16.1792 17.3846C16.1792 15.4178 17.7736 13.8234 19.7404 13.8234C21.7072 13.8234 23.3015 15.4178 23.3015 17.3846Z" fill="#61DAFB"/>
</svg>
