<svg width="38" height="37" viewBox="0 0 38 37" fill="none" xmlns="http://www.w3.org/2000/svg">
<path fill-rule="evenodd" clip-rule="evenodd" d="M18.7204 28.8859C21.1987 28.8859 23.4785 28.0359 25.2842 26.6115L32.604 30.8377C29.1786 34.6224 24.2272 37 18.7204 37C13.2324 37 8.29593 34.6385 4.87178 30.8762L12.1998 26.6454C13.9985 28.0493 16.2618 28.8859 18.7204 28.8859ZM36.618 23.7858L29.2533 19.5338C29.3018 19.1225 29.3267 18.704 29.3267 18.2796C29.3267 13.8589 26.6222 10.0699 22.7775 8.47693V1.17241e-05C31.166 1.85347 37.4408 9.33378 37.4408 18.2796C37.4408 20.1959 37.1529 22.0449 36.618 23.7858ZM8.19409 19.5887L0.838246 23.8356C0.293443 22.0802 0 20.2142 0 18.2796C0 9.33372 6.27487 1.85344 14.6634 0V8.47693C10.8187 10.0699 8.11411 13.8589 8.11411 18.2796C8.11411 18.7228 8.14129 19.1597 8.19409 19.5887ZM18.7204 22.3367C20.9611 22.3367 22.7775 20.5202 22.7775 18.2796C22.7775 16.039 20.9611 14.2226 18.7204 14.2226C16.4798 14.2226 14.6634 16.039 14.6634 18.2796C14.6634 20.5202 16.4798 22.3367 18.7204 22.3367Z" fill="#0A74E6"/>
</svg>
